<?xml version="1.0" standalone="no"?>
<!DOCTYPE svg PUBLIC "-//W3C//DTD SVG 20010904//EN"
 "http://www.w3.org/TR/2001/REC-SVG-20010904/DTD/svg10.dtd">
<svg version="1.0" xmlns="http://www.w3.org/2000/svg"
 width="458.000000pt" height="300.000000pt" viewBox="0 0 458.000000 300.000000"
 preserveAspectRatio="xMidYMid meet">
<metadata>
Created by potrace 1.16, written by Peter Selinger 2001-2019
</metadata>
<g transform="translate(0.000000,300.000000) scale(0.100000,-0.100000)"
fill="#000000" stroke="none">
<path d="M3280 2525 c-2 -16 -3 -40 -3 -52 -1 -17 -7 -23 -22 -23 -24 0 -102
-65 -97 -82 1 -5 -5 -22 -15 -37 -10 -14 -26 -44 -36 -66 -20 -43 -19 -97 7
-274 10 -72 13 -81 25 -67 7 9 21 16 30 16 28 0 61 30 61 56 0 20 -5 24 -30
24 -32 0 -37 9 -18 28 9 9 5 12 -17 12 -26 1 -28 2 -12 11 24 14 73 -6 89 -35
11 -19 13 -17 20 23 4 25 5 47 2 50 -3 3 -27 6 -54 6 -38 0 -46 3 -37 13 16
20 46 33 106 48 70 17 122 17 158 2 l28 -12 -25 -3 c-14 -2 -53 -10 -87 -19
-48 -12 -63 -21 -63 -34 0 -20 40 -34 54 -20 6 6 19 10 31 9 15 0 16 -2 5 -7
-46 -21 -62 -40 -56 -72 2 -18 6 -33 8 -35 2 -1 48 6 103 16 127 23 138 23
152 0 16 -25 6 -121 -12 -121 -7 0 -16 -7 -19 -15 -3 -9 -20 -22 -38 -30 -31
-13 -34 -12 -55 13 -12 15 -22 32 -23 39 0 14 -53 33 -91 33 -25 0 -29 4 -29
29 0 34 -16 49 -33 31 -9 -10 -9 -11 1 -6 6 4 12 4 12 -1 0 -17 -16 -30 -45
-40 -22 -7 -37 -24 -58 -64 -42 -83 -76 -97 -77 -32 0 35 -15 35 -48 2 -19
-19 -28 -37 -25 -49 6 -21 -37 -70 -62 -70 -11 0 -15 -10 -15 -36 0 -31 2 -35
15 -24 8 7 15 8 15 2 0 -5 -10 -17 -22 -26 -15 -10 -17 -14 -5 -10 11 4 17 1
17 -10 0 -9 4 -16 9 -16 5 0 12 -15 17 -32 7 -31 8 -28 14 27 5 60 6 60 20 32
10 -21 11 -33 3 -46 -7 -12 -8 -23 -2 -32 8 -11 9 -10 7 5 -2 10 2 21 7 23 6
2 11 -6 12 -16 1 -11 14 -34 30 -51 15 -17 35 -45 44 -61 8 -17 28 -39 44 -49
l29 -19 0 -129 c1 -105 4 -133 17 -148 31 -35 32 -59 3 -73 -15 -6 -28 -10
-30 -8 -2 1 -6 36 -10 77 -3 41 -7 76 -9 78 -1 1 -10 -1 -19 -4 -10 -4 -13
-10 -8 -13 6 -3 12 -17 13 -31 3 -19 0 -24 -13 -22 -11 2 -18 -3 -18 -13 0 -8
8 -15 18 -16 9 0 12 -3 5 -5 -16 -7 -5 -34 13 -34 8 0 14 -7 14 -16 0 -12 -6
-15 -27 -10 -23 5 -25 4 -10 -5 10 -6 25 -8 33 -5 9 4 14 -1 14 -15 0 -17 -3
-18 -21 -9 -23 13 -29 10 -34 -17 -2 -10 -4 -18 -5 -18 -1 0 -3 -9 -5 -19 -2
-10 -10 -25 -18 -33 -12 -13 -15 -10 -20 16 -4 18 -13 31 -21 31 -9 0 -18 14
-22 34 -3 19 -13 37 -21 40 -9 4 -13 14 -10 25 4 17 2 18 -20 10 -21 -8 -24
-6 -21 8 2 13 15 19 42 21 35 3 38 2 27 -12 -12 -14 -10 -15 18 -5 17 6 31 15
31 21 0 5 5 6 10 3 6 -3 10 -1 10 5 0 7 -8 9 -22 5 -17 -6 -20 -4 -15 9 8 20
-6 21 -23 1 -15 -18 -66 -20 -76 -4 -5 8 1 10 20 7 29 -6 36 8 9 15 -10 3 0 5
22 4 33 -2 40 1 39 16 -1 9 5 17 13 17 10 0 13 6 9 16 -3 9 -6 18 -6 20 0 13
-19 1 -23 -16 -3 -11 -11 -20 -18 -20 -10 0 -10 3 -1 12 18 18 14 38 -8 38
-11 0 -53 -15 -93 -34 -40 -19 -84 -37 -99 -41 -41 -10 -61 -39 -60 -86 2 -33
-1 -40 -14 -35 -8 3 -12 2 -9 -4 3 -6 -1 -10 -9 -10 -10 0 -16 -9 -16 -25 0
-29 7 -32 27 -7 13 15 14 10 8 -43 -3 -32 -11 -62 -17 -66 -6 -4 -7 -12 -3
-19 5 -9 4 -11 -3 -6 -7 4 -12 3 -12 -2 0 -17 28 -21 34 -6 6 16 26 10 26 -8
0 -6 -3 -9 -6 -6 -3 4 -14 -2 -25 -13 -18 -18 -21 -18 -35 -4 -9 8 -21 15 -28
15 -8 0 -19 7 -26 15 -8 9 -8 15 -2 15 6 0 12 -5 14 -11 7 -21 40 22 34 45 -3
12 -6 39 -7 61 -1 39 -1 39 -11 12 -5 -15 -14 -27 -19 -27 -6 0 -7 -4 -4 -10
3 -5 -3 -10 -13 -10 -12 0 -25 -12 -35 -31 -9 -19 -17 -27 -21 -20 -4 6 -12 9
-17 6 -5 -4 -9 -2 -9 3 0 5 -27 19 -60 31 -34 12 -75 35 -93 50 -18 15 -42 33
-55 41 -23 15 -78 120 -62 120 5 0 22 11 38 25 17 14 44 28 61 31 32 7 71 49
71 77 0 9 10 17 23 19 12 2 22 8 22 13 0 6 4 15 8 22 4 6 3 23 -3 37 -8 21 -5
29 20 53 17 15 30 34 30 41 0 25 -50 153 -72 184 -16 23 -24 54 -29 104 -4 39
-16 89 -27 110 -10 21 -22 63 -25 92 -16 144 -120 263 -263 305 -28 8 -69 24
-92 36 -23 12 -56 21 -75 21 -48 0 -122 -24 -168 -54 -21 -15 -63 -35 -93 -47
-32 -11 -67 -34 -84 -53 -38 -44 -67 -136 -66 -211 1 -70 31 -185 49 -185 6 0
23 21 36 48 13 26 34 61 46 78 14 19 23 45 23 67 0 35 0 36 -32 26 -47 -13
-52 -12 -36 13 15 22 104 57 148 57 14 0 39 -6 55 -14 l30 -13 -30 -1 c-16 -1
-47 -6 -67 -12 -39 -10 -43 -17 -39 -77 2 -18 -5 -44 -14 -59 -12 -18 -14 -28
-6 -36 17 -17 14 -22 -32 -41 -37 -15 -44 -22 -44 -47 0 -16 -7 -37 -16 -46
-8 -10 -25 -46 -37 -80 -18 -52 -19 -68 -10 -102 6 -22 19 -45 28 -50 10 -5
24 -22 32 -38 8 -15 22 -39 32 -52 23 -30 23 -30 -8 -66 -15 -16 -37 -47 -50
-67 -23 -37 -26 -38 -82 -38 -59 0 -184 -14 -287 -31 -78 -14 -177 -62 -215
-105 -33 -38 -64 -93 -57 -101 8 -7 -14 -63 -24 -63 -5 0 -9 -7 -9 -15 0 -8
-4 -15 -8 -15 -13 0 -52 -124 -58 -189 -5 -47 -4 -61 6 -61 7 0 10 -3 7 -6 -4
-4 -13 -1 -22 6 -12 10 -15 10 -15 -3 0 -8 -3 -29 -7 -47 -4 -24 -3 -31 5 -26
15 9 15 -6 1 -55 -7 -23 -19 -39 -32 -43 -17 -4 -19 -10 -14 -43 4 -21 7 -51
8 -68 0 -27 1 -28 9 -9 9 23 28 39 36 31 3 -3 -1 -25 -10 -49 -8 -23 -15 -37
-16 -30 0 7 -5 10 -10 7 -5 -3 -10 -33 -10 -65 0 -32 -4 -70 -9 -83 -9 -23 0
-91 14 -105 3 -4 10 0 15 8 7 10 10 11 10 3 0 -18 540 -19 558 -1 9 9 12 9 12
0 0 -7 7 -12 15 -12 9 0 15 9 15 23 0 13 8 31 18 40 26 24 36 21 12 -3 -11
-11 -20 -29 -20 -40 0 -17 7 -20 46 -20 l47 0 -6 37 c-6 35 -5 36 9 19 8 -11
12 -28 8 -38 -5 -17 4 -18 120 -18 117 0 126 1 126 19 0 28 26 47 45 31 18
-15 19 -37 3 -43 -7 -3 -1 -6 15 -6 20 -1 27 4 27 18 0 28 10 51 23 51 7 0 7
-4 -1 -12 -7 -7 -12 -22 -12 -35 0 -20 5 -23 41 -23 39 0 41 2 37 25 -3 13 -1
22 3 19 5 -3 9 -14 9 -25 0 -19 12 -19 553 -19 l554 0 13 55 c7 30 15 53 18
51 6 -7 32 21 32 34 0 8 -8 7 -25 -4 -13 -9 -27 -16 -30 -16 -8 0 -5 118 5
199 6 41 8 77 5 79 -3 3 -14 -4 -25 -16 -24 -25 -42 -29 -34 -7 4 8 10 15 14
15 4 0 7 8 6 18 -1 11 5 16 19 15 13 -1 32 13 55 41 19 24 46 48 60 54 22 10
25 17 24 67 0 30 -4 58 -7 62 -4 3 -7 -16 -7 -43 0 -46 -4 -53 -44 -93 -24
-24 -49 -40 -55 -37 -6 4 -11 0 -11 -8 0 -9 -4 -16 -9 -16 -5 0 -17 -3 -25 -6
-12 -4 -15 -2 -10 9 3 8 1 18 -5 22 -6 3 -9 0 -6 -7 2 -7 -7 -21 -21 -32 -22
-16 -28 -16 -40 -5 -18 19 -27 111 -11 121 8 5 3 8 -11 8 -14 0 -21 4 -16 11
3 6 15 9 25 6 11 -3 19 0 19 7 0 6 -12 12 -27 11 -15 0 -28 6 -29 13 -1 6 -2
17 -3 22 0 6 -13 10 -28 11 l-28 1 30 9 c17 5 38 6 48 3 12 -4 17 0 17 15 0
11 10 27 22 35 l21 15 -27 11 c-15 5 -39 10 -52 10 -14 0 -23 4 -20 9 6 9 52
1 89 -14 12 -5 17 -2 18 11 0 18 1 17 9 -1 7 -16 9 -13 9 18 1 20 5 37 9 37 5
0 8 14 7 30 -1 19 3 30 12 30 15 0 17 -16 3 -25 -5 -3 -10 -11 -10 -17 0 -7 4
-7 13 0 16 14 48 17 71 7 12 -5 21 -3 27 6 12 20 -9 38 -22 19 -8 -12 -9 -11
-7 5 2 11 9 21 16 21 6 1 19 2 27 3 11 1 13 9 8 31 -7 36 23 110 44 110 7 0
13 -4 13 -10 0 -5 5 -10 11 -10 7 0 8 4 2 13 -5 6 -15 25 -21 40 -12 27 -11
28 10 22 17 -4 19 -4 9 3 -11 8 -10 13 6 31 l19 20 27 -24 c14 -14 33 -25 42
-25 9 0 18 -7 21 -15 5 -12 10 -10 24 8 l18 22 10 -25 c6 -14 17 -32 25 -39
13 -11 20 -9 38 8 22 20 50 27 94 23 11 -1 43 -3 70 -3 40 0 45 -2 25 -9 -23
-7 -24 -8 -3 -9 28 -1 41 19 21 33 -12 9 -13 15 -4 27 6 9 16 14 23 12 7 -2
22 1 35 8 13 7 29 12 37 10 8 -1 12 3 9 11 -6 16 8 58 20 58 4 0 8 -16 9 -35
1 -19 -2 -33 -6 -31 -3 2 -7 -21 -8 -52 0 -32 -10 -86 -21 -121 -18 -54 -31
-74 -84 -125 -35 -34 -71 -76 -79 -94 -17 -35 -29 -31 -44 17 -4 14 -16 33
-26 44 -12 13 -17 30 -14 45 3 20 1 23 -15 19 -24 -6 -26 8 -4 21 13 7 9 12
-23 27 -73 36 -73 37 24 -96 11 -16 24 -53 28 -82 4 -28 11 -68 17 -88 8 -28
7 -51 -6 -100 -17 -67 -15 -79 9 -59 8 7 15 9 15 4 1 -16 49 90 49 109 1 9 6
17 11 17 6 0 10 6 10 13 0 7 10 31 21 52 12 22 39 75 61 117 21 42 51 84 65
94 29 19 72 67 88 98 6 11 16 21 24 24 8 3 11 0 7 -7 -4 -7 0 -11 11 -11 30 0
60 -27 65 -59 3 -22 1 -28 -11 -23 -11 4 -13 1 -8 -12 4 -10 7 -35 7 -55 0
-36 3 -39 45 -55 27 -11 45 -24 45 -33 0 -9 3 -13 6 -10 4 4 20 -1 36 -11 25
-14 30 -15 38 -2 11 18 4 30 -21 30 -10 0 -19 5 -19 10 0 6 11 10 25 10 20 0
27 -6 32 -30 3 -16 11 -30 18 -30 8 0 15 -4 17 -9 2 -5 35 -11 73 -14 73 -4
115 10 115 39 0 8 5 14 10 14 15 0 12 -26 -5 -40 -8 -7 -15 -19 -15 -26 0 -13
-17 -18 -46 -15 -7 1 -9 -9 -6 -24 3 -19 0 -25 -12 -25 -10 0 -14 5 -11 10 3
6 0 10 -7 11 -7 0 -25 3 -40 5 -23 4 -28 1 -28 -16 0 -11 5 -20 11 -20 5 0 7
-5 3 -11 -3 -6 -17 -8 -30 -5 -13 4 -24 2 -24 -3 0 -5 -12 -3 -27 5 -41 21
-68 18 -70 -7 -1 -15 2 -19 14 -15 14 6 14 4 2 -10 -11 -14 -11 -18 4 -29 17
-12 17 -13 0 -19 -14 -6 -15 -9 -3 -16 10 -6 11 -12 3 -22 -6 -7 -11 -17 -11
-21 0 -5 -3 -11 -6 -14 -6 -6 -17 36 -20 72 0 14 -4 25 -8 25 -5 0 -8 7 -8 16
0 10 -6 14 -15 10 -8 -3 -46 8 -84 24 -79 34 -88 36 -72 16 6 -8 31 -19 54
-25 48 -12 93 -46 89 -67 -2 -9 3 -12 13 -8 22 9 19 -60 -5 -111 -10 -22 -14
-41 -9 -43 12 -5 12 -32 0 -32 -5 0 -12 6 -14 13 -3 6 -6 0 -6 -15 -1 -15 4
-30 9 -33 6 -3 10 -16 9 -28 0 -20 -1 -21 -8 -3 -5 12 -10 16 -14 9 -4 -6 -4
-18 -1 -27 3 -9 1 -23 -5 -30 -7 -8 -11 -20 -10 -28 1 -7 1 -20 0 -28 -1 -13
-3 -13 -10 -1 -5 8 -7 21 -4 30 5 15 4 15 -11 0 -17 -15 -13 -49 5 -49 21 0 8
-55 -17 -75 -20 -16 -25 -27 -20 -42 6 -18 15 -21 59 -20 29 0 55 5 59 11 5 8
8 7 8 -1 0 -10 47 -13 204 -13 l203 0 11 58 c6 31 16 106 22 166 10 90 10 110
-1 117 -10 6 -11 9 -1 9 9 0 12 38 11 158 0 100 -4 147 -9 129 -5 -15 -21 -42
-36 -60 -23 -27 -26 -29 -22 -10 4 13 3 23 0 23 -4 0 -7 26 -7 58 -1 31 -5 75
-9 97 -5 22 -12 81 -16 130 -3 50 -7 83 -8 75 -2 -13 -3 -13 -13 0 -8 11 -9
-2 -6 -47 3 -35 1 -66 -4 -69 -5 -3 -9 6 -9 20 0 18 -9 29 -32 40 -17 9 -37
16 -44 16 -7 0 -20 7 -28 16 -14 14 -18 14 -38 0 -12 -9 -41 -16 -63 -16 -26
0 -35 3 -26 9 7 5 9 11 4 14 -4 3 -15 0 -24 -6 -15 -12 -19 -18 -19 -34 0 -5
-12 4 -28 19 -15 15 -42 40 -60 54 -17 14 -29 30 -26 35 8 14 29 5 29 -12 0
-8 8 -13 18 -11 10 2 25 -2 32 -8 8 -7 19 -9 24 -5 6 3 20 1 32 -6 17 -9 23
-8 30 2 8 12 10 12 18 0 6 -10 13 -11 27 -2 18 10 18 10 0 11 -14 0 -17 3 -10
10 12 12 104 -23 104 -40 0 -5 7 -10 16 -10 11 0 14 6 9 21 -6 18 -4 20 14 14
15 -4 21 -2 21 9 0 26 -12 46 -28 46 -12 0 -13 3 -4 12 20 20 15 68 -6 68 -27
0 -33 -10 -17 -27 8 -8 15 -19 15 -24 0 -13 -98 -5 -131 11 -22 10 -32 9 -57
-4 -18 -9 -52 -19 -77 -23 -25 -3 -48 -10 -51 -14 -3 -5 -20 -8 -37 -8 -24 1
-26 3 -9 6 12 2 22 9 22 15 0 6 -9 8 -20 5 -11 -3 -20 -1 -20 4 0 5 7 9 15 9
8 0 15 5 15 11 0 7 7 8 18 4 24 -11 71 -7 91 8 17 13 25 47 10 47 -5 0 -9 7
-9 15 0 8 -9 15 -20 15 -11 0 -19 6 -17 12 1 7 -9 14 -23 16 -45 6 -58 14 -32
21 30 8 31 23 1 38 -21 11 -16 13 46 14 l70 1 -61 20 c-33 11 -66 29 -73 40
-11 18 -9 24 14 48 20 21 28 40 29 69 0 21 4 37 8 35 14 -9 9 9 -8 27 -14 16
-13 20 15 45 32 28 40 61 20 81 -7 7 -12 22 -13 35 0 12 -11 27 -23 33 -21 11
-21 12 -5 26 10 9 24 13 32 11 12 -4 13 -2 2 9 -10 11 -8 17 10 31 21 17 22
19 5 29 -9 6 -15 14 -12 20 4 5 2 9 -3 9 -13 0 -22 49 -11 56 15 9 10 27 -5
21 -10 -4 -13 -1 -9 9 3 8 2 35 -2 60 -5 34 -12 48 -26 51 -10 3 -28 20 -39
39 -12 18 -29 36 -40 39 -16 5 -32 27 -34 48 -1 4 -8 12 -16 17 -12 7 -12 12
-2 22 6 6 11 26 11 43 -1 22 -3 24 -6 8 -6 -30 -31 -37 -45 -13 -7 11 -17 20
-23 20 -6 0 -19 17 -30 38 -30 57 -52 85 -58 70 -3 -9 -11 -7 -28 9 -19 19
-21 24 -9 40 12 15 12 16 0 6 -19 -17 -45 -16 -60 2 -7 8 -27 17 -46 21 -27 5
-34 11 -34 30 0 36 -18 38 -29 2 -8 -29 -9 -30 -11 -8 l-1 25 -16 -22 c-8 -13
-26 -23 -38 -23 -24 0 -49 22 -38 33 3 4 -1 9 -9 12 -10 4 -14 14 -11 28 4 20
2 19 -20 -7 -30 -35 -55 -27 -31 10 21 32 6 31 -29 -2 -28 -26 -29 -26 -47 -7
-10 11 -20 29 -23 39 -3 13 -5 10 -7 -11z m-1267 -721 c32 -8 34 -20 7 -54
-11 -14 -20 -34 -21 -45 0 -11 -3 -14 -6 -7 -8 20 -23 13 -20 -10 3 -29 -29
-37 -38 -9 -8 26 -53 81 -67 81 -10 0 -38 25 -38 34 0 3 15 6 33 7 17 1 43 5
57 9 14 5 34 6 45 4 11 -2 32 -7 48 -10z"/>
<path d="M0 777 c0 -570 3 -777 11 -777 9 0 10 202 4 772 -3 425 -9 775 -11
777 -2 2 -4 -345 -4 -772z"/>
<path d="M633 458 c-15 -19 -22 -117 -11 -149 10 -28 43 -41 79 -32 16 5 19
15 18 89 0 46 -4 86 -7 88 -23 13 -70 15 -79 4z"/>
<path d="M624 152 c-13 -8 -25 -101 -17 -131 5 -18 13 -21 59 -21 l54 0 0 74
c0 68 -2 74 -22 80 -31 8 -61 7 -74 -2z"/>
</g>
</svg>
