<svg xmlns="http://www.w3.org/2000/svg" xml:space="preserve" style="fill-rule:evenodd;clip-rule:evenodd;stroke-linejoin:round;stroke-miterlimit:2" viewBox="0 0 231 230"><path d="M0 0h231v230H0z"/><path d="M85.403 166.563c12.448 0 22.305-2.8 29.57-8.399 7.266-5.599 10.899-13.138 10.899-22.617 0-5.833-1.25-10.925-3.75-15.274-2.5-4.349-6.432-8.203-11.797-11.562s-12.474-6.354-21.328-8.984c-8.854-2.631-15.208-5.339-19.063-8.125-3.854-2.787-5.781-6.263-5.781-10.43 0-4.948 1.784-8.802 5.352-11.563 3.567-2.76 8.58-4.14 15.039-4.14 6.927 0 12.252 1.679 15.976 5.039 3.724 3.359 5.586 8.008 5.586 13.945h19.688c0-6.562-1.771-12.539-5.313-17.93-3.541-5.39-8.411-9.544-14.609-12.46-6.198-2.917-13.255-4.375-21.172-4.375-11.927 0-21.628 2.968-29.102 8.906-7.474 5.937-11.21 13.489-11.21 22.656 0 10.469 5.182 18.958 15.546 25.469 5.417 3.385 12.709 6.458 21.875 9.219 9.167 2.76 15.508 5.494 19.024 8.203 3.515 2.708 5.273 6.562 5.273 11.562 0 4.583-1.732 8.268-5.195 11.055-3.464 2.786-8.633 4.18-15.508 4.18-7.969 0-14.088-1.771-18.359-5.313-4.271-3.542-6.406-8.542-6.406-15H40.872c0 7.135 1.914 13.385 5.742 18.75 3.828 5.365 9.193 9.57 16.094 12.617 6.901 3.047 14.466 4.571 22.695 4.571ZM166.075 165V51.25h-19.687V165h19.687Z" style="fill:#fff" transform="translate(-29.653 -31.353) scale(1.35471)"/></svg>