<?xml version="1.0" encoding="UTF-8" standalone="no"?>
<svg viewBox="0 0 150 150" version="1.1" xmlns="http://www.w3.org/2000/svg" xmlns:xlink="http://www.w3.org/1999/xlink" xml:space="preserve" style="fill-rule:evenodd;clip-rule:evenodd;stroke-linejoin:round;stroke-miterlimit:2;" fill="currentColor">
    <path d="M75,0C116.394,0 150,33.606 150,75C150,116.394 116.394,150 75,150C33.606,150 -0,116.394 -0,75C-0,33.606 33.606,0 75,0ZM141.24,66.255C140.9,65.975 137.82,63.635 131.21,63.635C129.5,63.635 127.73,63.805 126.02,64.095C124.77,55.375 117.53,51.155 117.24,50.935L115.47,49.905L114.33,51.555C112.91,53.775 111.82,56.285 111.2,58.845C110,63.805 110.74,68.475 113.25,72.465C110.23,74.175 105.33,74.575 104.3,74.635L23.37,74.635C21.26,74.635 19.55,76.345 19.55,78.455C19.44,85.525 20.63,92.585 23.08,99.255C25.87,106.545 30.03,111.965 35.39,115.265C41.43,118.965 51.29,121.075 62.4,121.075C67.41,121.075 72.43,120.615 77.39,119.705C84.29,118.455 90.9,116.055 96.99,112.585C102.01,109.675 106.51,105.975 110.33,101.645C116.77,94.405 120.59,86.315 123.38,79.135L124.52,79.135C131.53,79.135 135.86,76.345 138.25,73.945C139.85,72.465 141.04,70.635 141.9,68.585L142.41,67.105L141.24,66.255ZM91.15,72.295L101.98,72.295C102.49,72.295 102.95,71.895 102.95,71.325L102.95,61.635C102.95,61.125 102.55,60.665 101.98,60.665L91.15,60.665C90.64,60.665 90.18,61.065 90.18,61.635L90.18,71.325C90.24,71.895 90.64,72.295 91.15,72.295ZM76.05,72.295L86.88,72.295C87.39,72.295 87.85,71.895 87.85,71.325L87.85,61.635C87.85,61.125 87.45,60.665 86.88,60.665L76.05,60.665C75.54,60.665 75.08,61.065 75.08,61.635L75.08,71.325C75.08,71.895 75.53,72.295 76.05,72.295ZM61.06,72.295L71.89,72.295C72.4,72.295 72.86,71.895 72.86,71.325L72.86,61.635C72.86,61.125 72.46,60.665 71.89,60.665L61.06,60.665C60.55,60.665 60.09,61.065 60.09,61.635L60.09,71.325C60.09,71.895 60.49,72.295 61.06,72.295ZM45.84,72.295L56.67,72.295C57.18,72.295 57.64,71.895 57.64,71.325L57.64,61.635C57.64,61.125 57.24,60.665 56.67,60.665L45.84,60.665C45.33,60.665 44.87,61.065 44.87,61.635L44.87,71.325C44.93,71.895 45.33,72.295 45.84,72.295ZM30.91,72.295L41.74,72.295C42.25,72.295 42.71,71.895 42.71,71.325L42.71,61.635C42.71,61.125 42.31,60.665 41.74,60.665L30.91,60.665C30.4,60.665 29.94,61.065 29.94,61.635L29.94,71.325C30,71.895 30.4,72.295 30.91,72.295ZM76.05,58.445L86.88,58.445C87.39,58.445 87.85,57.985 87.85,57.475L87.85,47.785C87.85,47.275 87.39,46.815 86.88,46.815L76.05,46.815C75.54,46.815 75.08,47.215 75.08,47.785L75.08,57.475C75.08,57.995 75.53,58.445 76.05,58.445ZM61.06,58.445L71.89,58.445C72.4,58.445 72.86,57.985 72.86,57.475L72.86,47.785C72.86,47.275 72.46,46.815 71.89,46.815L61.06,46.815C60.55,46.815 60.09,47.215 60.09,47.785L60.09,57.475C60.09,57.995 60.49,58.445 61.06,58.445ZM45.84,58.445L56.67,58.445C57.18,58.445 57.64,57.985 57.64,57.475L57.64,47.785C57.64,47.275 57.24,46.815 56.67,46.815L45.84,46.815C45.33,46.815 44.87,47.215 44.87,47.785L44.87,57.475C44.93,57.995 45.33,58.445 45.84,58.445ZM76.05,44.545L86.88,44.545C87.39,44.545 87.85,44.145 87.85,43.575L87.85,33.885C87.85,33.375 87.39,32.915 86.88,32.915L76.05,32.915C75.54,32.915 75.08,33.315 75.08,33.885L75.08,43.575C75.08,44.085 75.53,44.545 76.05,44.545Z" />
</svg>
