<svg viewBox="0 0 20 20" version="1.1" xmlns="http://www.w3.org/2000/svg" xmlns:xlink="http://www.w3.org/1999/xlink" xml:space="preserve" xmlns:serif="http://www.serif.com/" style="fill-rule:evenodd;clip-rule:evenodd;stroke-linejoin:round;stroke-miterlimit:2;" fill="currentColor">
    <path d="M4.25,2C3.016,2 2,3.016 2,4.25L2,15.75C2,16.984 3.016,18 4.25,18L15.75,18C16.984,18 18,16.984 18,15.75L18,4.25C18,3.016 16.984,2 15.75,2L4.25,2ZM13.857,8.191C13.95,8.063 14,7.908 14,7.75C14,7.338 13.662,7 13.25,7C13.01,7 12.784,7.115 12.643,7.309L9.16,12.099L7.28,10.219C7.139,10.073 6.944,9.99 6.741,9.99C6.329,9.99 5.991,10.329 5.991,10.74C5.991,10.944 6.074,11.139 6.22,11.28L8.72,13.78C8.861,13.921 9.052,14 9.25,14C9.49,14 9.716,13.885 9.857,13.691L13.857,8.191Z"/>
</svg>
