<svg xmlns="http://www.w3.org/2000/svg" xml:space="preserve" fill="currentColor" style="fill-rule:evenodd;clip-rule:evenodd;stroke-linejoin:round;stroke-miterlimit:2" viewBox="0 0 20 20"><path d="M4.25 2A2.261 2.261 0 0 0 2 4.25v11.5A2.261 2.261 0 0 0 4.25 18h11.5A2.261 2.261 0 0 0 18 15.75V4.25A2.261 2.261 0 0 0 15.75 2H4.25ZM10 15c.549 0 1-.451 1-1 0-.549-.451-1-1-1-.549 0-1 .451-1 1 0 .549.451 1 1 1Zm0-10c.411 0 .75.339.75.75v4.5c0 .411-.339.75-.75.75a.754.754 0 0 1-.75-.75v-4.5c0-.411.339-.75.75-.75Z"/></svg>