<svg viewBox="0 0 20 20" version="1.1" xmlns="http://www.w3.org/2000/svg" xmlns:xlink="http://www.w3.org/1999/xlink" xml:space="preserve" xmlns:serif="http://www.serif.com/" style="fill-rule:evenodd;clip-rule:evenodd;stroke-linejoin:round;stroke-miterlimit:2;" fill="currentColor">
    <path d="M4.25,2C3.016,2 2,3.016 2,4.25L2,15.75C2,16.984 3.016,18 4.25,18L15.75,18C16.984,18 18,16.984 18,15.75L18,4.25C18,3.016 16.984,2 15.75,2L4.25,2ZM10,15C10.549,15 11,14.549 11,14C11,13.451 10.549,13 10,13C9.451,13 9,13.451 9,14C9,14.549 9.451,15 10,15ZM10,5C10.411,5 10.75,5.339 10.75,5.75L10.75,10.25C10.75,10.661 10.411,11 10,11C9.589,11 9.25,10.661 9.25,10.25L9.25,5.75C9.25,5.339 9.589,5 10,5Z" />
</svg>
