<svg xmlns="http://www.w3.org/2000/svg" xml:space="preserve" fill="currentColor" style="fill-rule:evenodd;clip-rule:evenodd;stroke-linejoin:round;stroke-miterlimit:2" viewBox="0 0 20 20"><path d="M10 18c4.389 0 8-3.611 8-8 0-4.389-3.611-8-8-8-4.389 0-8 3.611-8 8 0 4.389 3.611 8 8 8Zm-3.158-7.425s.006-.42.191-.841c.15-.342.444-.687 1.03-.687.333 0 .548.204.74.449.32.408.568.934.854 1.4.545.889 1.226 1.557 2.28 1.557 1.357 0 2.049-.789 2.4-1.583.314-.713.321-1.427.321-1.427a.75.75 0 1 0-1.499-.021s-.009.421-.195.843c-.151.342-.444.688-1.027.688-.33 0-.543-.204-.733-.448-.32-.408-.569-.935-.855-1.402-.546-.888-1.228-1.556-2.286-1.556-1.363 0-2.055.79-2.403 1.584-.314.714-.318 1.429-.318 1.429a.75.75 0 1 0 1.5.015Z"/></svg>