<svg xmlns="http://www.w3.org/2000/svg" xml:space="preserve" fill="currentColor" style="fill-rule:evenodd;clip-rule:evenodd;stroke-linejoin:round;stroke-miterlimit:2" viewBox="0 0 20 20"><path d="M5.505 10.512s.02-.43.366-.777c.282-.283.759-.483 1.529-.483 1.037 0 1.521.644 2.036 1.238.781.907 1.592 1.762 3.164 1.762 1.317 0 2.104-.44 2.589-.925.8-.802.808-1.81.808-1.81a.75.75 0 1 0-1.502-.033s-.022.431-.37.781c-.282.283-.759.483-1.525.483-1.032 0-1.514-.645-2.027-1.239C9.791 8.603 8.98 7.748 7.4 7.748c-1.322 0-2.11.44-2.594.926a2.814 2.814 0 0 0-.803 1.815.752.752 0 1 0 1.502.023Z"/></svg>