<svg viewBox="0 0 20 20" version="1.1" xmlns="http://www.w3.org/2000/svg" xmlns:xlink="http://www.w3.org/1999/xlink" xml:space="preserve"  style="fill:currentColor;fill-rule:evenodd;clip-rule:evenodd;stroke-linejoin:round;stroke-miterlimit:2;">
    <path d="M10,18C14.389,18 18,14.389 18,10C18,5.611 14.389,2 10,2C5.611,2 2,5.611 2,10C2,14.389 5.611,18 10,18ZM5.979,11.914L5.979,9.466C6.619,8.597 7.364,8.162 8.213,8.162C8.533,8.162 8.827,8.201 9.095,8.28C9.363,8.359 9.805,8.552 10.42,8.861C11.196,9.252 11.707,9.447 11.953,9.447C12.242,9.447 12.575,9.335 12.95,9.112C13.326,8.888 13.683,8.546 14.021,8.086L14.021,10.638C13.738,11.003 13.347,11.328 12.849,11.611C12.528,11.794 12.165,11.885 11.759,11.885C11.507,11.885 11.26,11.849 11.02,11.777C10.78,11.704 10.399,11.523 9.875,11.233C9.1,10.811 8.49,10.6 8.047,10.6C7.339,10.6 6.65,11.038 5.979,11.914Z"/>
</svg>
