<svg viewBox="0 0 20 20" version="1.1" xmlns="http://www.w3.org/2000/svg" xmlns:xlink="http://www.w3.org/1999/xlink" xml:space="preserve" xmlns:serif="http://www.serif.com/" style="fill-rule:evenodd;clip-rule:evenodd;stroke-linejoin:round;stroke-miterlimit:2;" fill="currentColor">
    <path d="M10,18C14.389,18 18,14.389 18,10C18,5.611 14.389,2 10,2C5.611,2 2,5.611 2,10C2,14.389 5.611,18 10,18ZM6.842,10.575C6.842,10.575 6.848,10.155 7.033,9.734C7.183,9.392 7.477,9.047 8.063,9.047C8.396,9.047 8.611,9.251 8.803,9.496C9.123,9.904 9.371,10.43 9.657,10.896C10.202,11.785 10.883,12.453 11.937,12.453C13.294,12.453 13.986,11.664 14.337,10.87C14.651,10.157 14.658,9.443 14.658,9.443C14.664,9.029 14.333,8.688 13.919,8.682C13.505,8.677 13.164,9.008 13.159,9.422C13.159,9.422 13.15,9.843 12.964,10.265C12.813,10.607 12.52,10.953 11.937,10.953C11.607,10.953 11.394,10.749 11.204,10.505C10.884,10.097 10.635,9.57 10.349,9.103C9.803,8.215 9.121,7.547 8.063,7.547C6.7,7.547 6.008,8.337 5.66,9.131C5.346,9.845 5.342,10.56 5.342,10.56C5.337,10.974 5.67,11.314 6.084,11.318C6.498,11.322 6.837,10.989 6.842,10.575Z" />
</svg>
