<svg width="20" height="20" viewBox="0 0 20 20" fill="none" xmlns="http://www.w3.org/2000/svg">
<g clip-path="url(#clip0_1507_18454)">
<path fill-rule="evenodd" clip-rule="evenodd" d="M5.60006 9.0875C5.92506 9.4125 7.20006 10.75 7.20006 10.75L7.90006 10.025L6.80006 8.8875L8.91256 6.6375C8.91256 6.6375 7.96256 5.7125 8.37506 6.075C8.77506 4.5875 8.41256 2.9375 7.28756 1.775C6.16256 0.625 4.57506 0.25 3.15006 0.6375L5.56256 3.1375L4.92506 5.5875L2.56256 6.2375L0.150064 3.7375C-0.237437 5.2125 0.125064 6.85 1.25006 8C2.42506 9.225 4.11256 9.575 5.60006 9.0875ZM13.6501 11.5125L10.7376 14.3875L15.5376 19.3625C15.9251 19.775 16.4501 19.975 16.9626 19.975C17.4751 19.975 17.9876 19.775 18.3876 19.3625C19.1751 18.55 19.1751 17.2375 18.3876 16.425L13.6501 11.5125ZM20.0001 3.1625L16.9376 0L7.91256 9.325L9.01256 10.4625L3.62506 16.0375L2.38756 16.7L0.650064 19.5375L1.08756 20L3.83756 18.2L4.47506 16.925L9.87506 11.35L10.9751 12.4875L20.0001 3.1625Z" fill="white"/>
</g>
<defs>
<clipPath id="clip0_1507_18454">
<rect width="20" height="20" fill="white"/>
</clipPath>
</defs>
</svg>
