<svg viewBox="0 0 20 20" width="1.2em" height="1.2em" version="1.1" xmlns="http://www.w3.org/2000/svg" xmlns:xlink="http://www.w3.org/1999/xlink" xml:space="preserve" xmlns:serif="http://www.serif.com/" style="fill-rule:evenodd;clip-rule:evenodd;stroke-linejoin:round;stroke-miterlimit:2;" fill="currentColor">
    <path d="M4.25,2C3.016,2 2,3.016 2,4.25L2,15.75C2,16.984 3.016,18 4.25,18L15.75,18C16.984,18 18,16.984 18,15.75L18,4.25C18,3.016 16.984,2 15.75,2L4.25,2ZM8.28,7.22C8.141,7.091 7.958,7.019 7.769,7.019C7.357,7.019 7.019,7.357 7.019,7.769C7.019,7.958 7.091,8.141 7.22,8.28L8.94,10L7.22,11.72C7.068,11.862 6.981,12.061 6.981,12.269C6.981,12.68 7.32,13.019 7.731,13.019C7.939,13.019 8.138,12.932 8.28,12.78L10,11.06L11.72,12.78C11.862,12.932 12.061,13.019 12.269,13.019C12.68,13.019 13.019,12.68 13.019,12.269C13.019,12.061 12.932,11.862 12.78,11.72L11.06,10L12.78,8.28C12.909,8.141 12.981,7.958 12.981,7.769C12.981,7.357 12.643,7.019 12.231,7.019C12.042,7.019 11.859,7.091 11.72,7.22L10,8.94L8.28,7.22Z" />
</svg>
