<svg id="Layer_1" data-name="Layer 1" xmlns="http://www.w3.org/2000/svg" xmlns:xlink="http://www.w3.org/1999/xlink" viewBox="0 0 801.02 229.67"><defs><style>.cls-1{opacity:0.5;}.cls-2{opacity:0;}.cls-3{fill:url(#linear-gradient);}.cls-4{opacity:0.02;}.cls-5{fill:url(#linear-gradient-2);}.cls-6{opacity:0.04;}.cls-7{fill:url(#linear-gradient-3);}.cls-8{opacity:0.06;}.cls-9{fill:url(#linear-gradient-4);}.cls-10{opacity:0.08;}.cls-11{fill:url(#linear-gradient-5);}.cls-12{opacity:0.1;}.cls-13{fill:url(#linear-gradient-6);}.cls-14{opacity:0.12;}.cls-15{fill:url(#linear-gradient-7);}.cls-16{opacity:0.14;}.cls-17{fill:url(#linear-gradient-8);}.cls-18{opacity:0.16;}.cls-19{fill:url(#linear-gradient-9);}.cls-20{opacity:0.18;}.cls-21{fill:url(#linear-gradient-10);}.cls-22{opacity:0.2;}.cls-23{fill:url(#linear-gradient-11);}.cls-24{opacity:0.22;}.cls-25{fill:url(#linear-gradient-12);}.cls-26{opacity:0.24;}.cls-27{fill:url(#linear-gradient-13);}.cls-28{opacity:0.25;}.cls-29{fill:url(#linear-gradient-14);}.cls-30{opacity:0.27;}.cls-31{fill:url(#linear-gradient-15);}.cls-32{opacity:0.29;}.cls-33{fill:url(#linear-gradient-16);}.cls-34{opacity:0.31;}.cls-35{fill:url(#linear-gradient-17);}.cls-36{opacity:0.33;}.cls-37{fill:url(#linear-gradient-18);}.cls-38{opacity:0.35;}.cls-39{fill:url(#linear-gradient-19);}.cls-40{opacity:0.37;}.cls-41{fill:url(#linear-gradient-20);}.cls-42{opacity:0.39;}.cls-43{fill:url(#linear-gradient-21);}.cls-44{opacity:0.41;}.cls-45{fill:url(#linear-gradient-22);}.cls-46{opacity:0.43;}.cls-47{fill:url(#linear-gradient-23);}.cls-48{opacity:0.45;}.cls-49{fill:url(#linear-gradient-24);}.cls-50{opacity:0.47;}.cls-51{fill:url(#linear-gradient-25);}.cls-52{opacity:0.49;}.cls-53{fill:url(#linear-gradient-26);}.cls-54{opacity:0.51;}.cls-55{fill:url(#linear-gradient-27);}.cls-56{opacity:0.53;}.cls-57{fill:url(#linear-gradient-28);}.cls-58{opacity:0.55;}.cls-59{fill:url(#linear-gradient-29);}.cls-60{opacity:0.57;}.cls-61{fill:url(#linear-gradient-30);}.cls-62{opacity:0.59;}.cls-63{fill:url(#linear-gradient-31);}.cls-64{opacity:0.61;}.cls-65{fill:url(#linear-gradient-32);}.cls-66{opacity:0.63;}.cls-67{fill:url(#linear-gradient-33);}.cls-68{opacity:0.65;}.cls-69{fill:url(#linear-gradient-34);}.cls-70{opacity:0.67;}.cls-71{fill:url(#linear-gradient-35);}.cls-72{opacity:0.69;}.cls-73{fill:url(#linear-gradient-36);}.cls-74{opacity:0.71;}.cls-75{fill:url(#linear-gradient-37);}.cls-76{opacity:0.73;}.cls-77{fill:url(#linear-gradient-38);}.cls-78{opacity:0.75;}.cls-79{fill:url(#linear-gradient-39);}.cls-80{opacity:0.76;}.cls-81{fill:url(#linear-gradient-40);}.cls-82{opacity:0.78;}.cls-83{fill:url(#linear-gradient-41);}.cls-84{opacity:0.8;}.cls-85{fill:url(#linear-gradient-42);}.cls-86{opacity:0.82;}.cls-87{fill:url(#linear-gradient-43);}.cls-88{opacity:0.84;}.cls-89{fill:url(#linear-gradient-44);}.cls-90{opacity:0.86;}.cls-91{fill:url(#linear-gradient-45);}.cls-92{opacity:0.88;}.cls-93{fill:url(#linear-gradient-46);}.cls-94{opacity:0.9;}.cls-95{fill:url(#linear-gradient-47);}.cls-96{opacity:0.92;}.cls-97{fill:url(#linear-gradient-48);}.cls-98{opacity:0.94;}.cls-99{fill:url(#linear-gradient-49);}.cls-100{opacity:0.96;}.cls-101{fill:url(#linear-gradient-50);}.cls-102{opacity:0.98;}.cls-103{fill:url(#linear-gradient-51);}.cls-104{fill:url(#linear-gradient-52);}.cls-105{fill:url(#Technology);}.cls-106{fill:url(#Technology-2);}.cls-107{fill:url(#Technology-3);}.cls-108{fill:url(#Technology-4);}.cls-109{fill:url(#Technology-5);}.cls-110{fill:url(#Technology-6);}.cls-111{fill:url(#Technology-7);}.cls-112{fill:url(#Technology-8);}.cls-113{fill:url(#Technology-9);}.cls-114{fill:url(#Technology-10);}.cls-115{fill:url(#Technology-11);}.cls-116{fill:url(#Technology-12);}.cls-117{fill:url(#Technology-13);}.cls-118{fill:url(#Technology-14);}.cls-119{fill:url(#Technology-15);}.cls-120{fill:url(#Technology-16);}.cls-121{fill:url(#Technology-17);}.cls-122{fill:url(#Technology-18);}.cls-123{fill:url(#Technology-19);}.cls-124{fill:url(#Technology-20);}.cls-125{fill:url(#Technology-21);}.cls-126{fill:url(#Technology-22);}.cls-127{fill:url(#Technology-23);}.cls-128{fill:url(#Technology-24);}.cls-129{fill:url(#Technology-25);}.cls-130{fill:url(#Technology-26);}.cls-131{fill:url(#Technology-27);}.cls-132{fill:url(#Technology-28);}.cls-133{fill:url(#Technology-29);}.cls-134{fill:url(#Technology-30);}.cls-135{fill:url(#Technology-31);}.cls-136{fill:url(#Technology-32);}.cls-137{fill:url(#Technology-33);}.cls-138{fill:url(#Technology-34);}.cls-139{fill:url(#Technology-35);}.cls-140{fill:url(#Technology-36);}.cls-141{fill:url(#Technology-37);}.cls-142{fill:url(#Technology-38);}.cls-143{fill:url(#Technology-39);}.cls-144{fill:url(#Technology-40);}.cls-145{fill:url(#Technology-41);}.cls-146{fill:url(#Technology-42);}.cls-147{fill:url(#Technology-43);}.cls-148{fill:url(#Technology-44);}.cls-149{fill:url(#Technology-45);}.cls-150{fill:url(#Technology-46);}.cls-151{fill:url(#Technology-47);}.cls-152{fill:url(#Technology-48);}.cls-153{fill:url(#Technology-49);}.cls-154{fill:url(#Technology-50);}.cls-155{fill:url(#Technology-51);}.cls-156{fill:url(#Technology-52);}</style><linearGradient id="linear-gradient" x1="33.76" y1="107.69" x2="833.99" y2="107.69" gradientTransform="matrix(-1, -0.01, -0.01, 1, 834.57, 94.86)" gradientUnits="userSpaceOnUse"><stop offset="0" stop-color="#002d55"/><stop offset="0.3" stop-color="#00a8de"/><stop offset="0.7" stop-color="aqua"/><stop offset="0.9" stop-color="#00a8de"/><stop offset="1" stop-color="#002d55"/></linearGradient><linearGradient id="linear-gradient-2" x1="33.75" y1="107.07" x2="833.99" y2="107.07" xlink:href="#linear-gradient"/><linearGradient id="linear-gradient-3" x1="33.75" y1="106.45" x2="834" y2="106.45" xlink:href="#linear-gradient"/><linearGradient id="linear-gradient-4" x1="33.75" y1="105.82" x2="834" y2="105.82" xlink:href="#linear-gradient"/><linearGradient id="linear-gradient-5" x1="33.75" y1="105.19" x2="834" y2="105.19" xlink:href="#linear-gradient"/><linearGradient id="linear-gradient-6" x1="33.74" y1="104.52" x2="834" y2="104.52" xlink:href="#linear-gradient"/><linearGradient id="linear-gradient-7" x1="33.74" y1="103.86" x2="834.01" y2="103.86" xlink:href="#linear-gradient"/><linearGradient id="linear-gradient-8" x1="33.74" y1="103.19" x2="834.01" y2="103.19" xlink:href="#linear-gradient"/><linearGradient id="linear-gradient-9" x1="33.74" y1="102.51" x2="834.01" y2="102.51" xlink:href="#linear-gradient"/><linearGradient id="linear-gradient-10" x1="33.73" y1="101.8" x2="834.01" y2="101.8" xlink:href="#linear-gradient"/><linearGradient id="linear-gradient-11" x1="33.73" y1="101.08" x2="834.01" y2="101.08" xlink:href="#linear-gradient"/><linearGradient id="linear-gradient-12" x1="33.73" y1="100.33" x2="834.02" y2="100.33" xlink:href="#linear-gradient"/><linearGradient id="linear-gradient-13" x1="33.73" y1="99.56" x2="834.02" y2="99.56" xlink:href="#linear-gradient"/><linearGradient id="linear-gradient-14" x1="33.72" y1="98.75" x2="834.02" y2="98.75" xlink:href="#linear-gradient"/><linearGradient id="linear-gradient-15" x1="33.72" y1="97.89" x2="834.02" y2="97.89" xlink:href="#linear-gradient"/><linearGradient id="linear-gradient-16" x1="33.72" y1="96.99" x2="834.03" y2="96.99" xlink:href="#linear-gradient"/><linearGradient id="linear-gradient-17" x1="33.72" y1="96.04" x2="834.03" y2="96.04" xlink:href="#linear-gradient"/><linearGradient id="linear-gradient-18" x1="33.71" y1="95.02" x2="834.03" y2="95.02" xlink:href="#linear-gradient"/><linearGradient id="linear-gradient-19" x1="33.71" y1="93.92" x2="834.03" y2="93.92" xlink:href="#linear-gradient"/><linearGradient id="linear-gradient-20" x1="33.71" y1="92.73" x2="834.04" y2="92.73" xlink:href="#linear-gradient"/><linearGradient id="linear-gradient-21" x1="33.71" y1="91.47" x2="834.04" y2="91.47" xlink:href="#linear-gradient"/><linearGradient id="linear-gradient-22" x1="33.7" y1="90.12" x2="834.04" y2="90.12" xlink:href="#linear-gradient"/><linearGradient id="linear-gradient-23" x1="33.7" y1="88.97" x2="834.04" y2="88.97" xlink:href="#linear-gradient"/><linearGradient id="linear-gradient-24" x1="33.7" y1="88.17" x2="834.05" y2="88.17" xlink:href="#linear-gradient"/><linearGradient id="linear-gradient-25" x1="33.7" y1="87.48" x2="834.05" y2="87.48" xlink:href="#linear-gradient"/><linearGradient id="linear-gradient-26" x1="33.69" y1="86.96" x2="834.05" y2="86.96" xlink:href="#linear-gradient"/><linearGradient id="linear-gradient-27" x1="33.69" y1="86.62" x2="834.05" y2="86.62" xlink:href="#linear-gradient"/><linearGradient id="linear-gradient-28" x1="33.69" y1="86.44" x2="834.06" y2="86.44" xlink:href="#linear-gradient"/><linearGradient id="linear-gradient-29" x1="33.69" y1="86.39" x2="834.06" y2="86.39" xlink:href="#linear-gradient"/><linearGradient id="linear-gradient-30" x1="33.68" y1="86.48" x2="834.06" y2="86.48" xlink:href="#linear-gradient"/><linearGradient id="linear-gradient-31" x1="33.68" y1="86.63" x2="834.06" y2="86.63" xlink:href="#linear-gradient"/><linearGradient id="linear-gradient-32" x1="33.68" y1="86.87" x2="834.06" y2="86.87" xlink:href="#linear-gradient"/><linearGradient id="linear-gradient-33" x1="33.68" y1="87.17" x2="834.07" y2="87.17" xlink:href="#linear-gradient"/><linearGradient id="linear-gradient-34" x1="33.67" y1="87.53" x2="834.07" y2="87.53" xlink:href="#linear-gradient"/><linearGradient id="linear-gradient-35" x1="33.67" y1="87.92" x2="834.07" y2="87.92" xlink:href="#linear-gradient"/><linearGradient id="linear-gradient-36" x1="33.67" y1="88.37" x2="834.07" y2="88.37" xlink:href="#linear-gradient"/><linearGradient id="linear-gradient-37" x1="33.67" y1="88.83" x2="834.08" y2="88.83" xlink:href="#linear-gradient"/><linearGradient id="linear-gradient-38" x1="33.66" y1="89.31" x2="834.08" y2="89.31" xlink:href="#linear-gradient"/><linearGradient id="linear-gradient-39" x1="33.66" y1="89.81" x2="834.08" y2="89.81" xlink:href="#linear-gradient"/><linearGradient id="linear-gradient-40" x1="33.66" y1="90.34" x2="834.08" y2="90.34" xlink:href="#linear-gradient"/><linearGradient id="linear-gradient-41" x1="33.66" y1="90.87" x2="834.09" y2="90.87" xlink:href="#linear-gradient"/><linearGradient id="linear-gradient-42" x1="33.65" y1="91.42" x2="834.09" y2="91.42" xlink:href="#linear-gradient"/><linearGradient id="linear-gradient-43" x1="33.65" y1="90.88" x2="834.09" y2="90.88" xlink:href="#linear-gradient"/><linearGradient id="linear-gradient-44" x1="33.65" y1="90.19" x2="834.09" y2="90.19" xlink:href="#linear-gradient"/><linearGradient id="linear-gradient-45" x1="33.65" y1="89.51" x2="834.1" y2="89.51" xlink:href="#linear-gradient"/><linearGradient id="linear-gradient-46" x1="33.64" y1="88.87" x2="834.1" y2="88.87" xlink:href="#linear-gradient"/><linearGradient id="linear-gradient-47" x1="33.64" y1="88.23" x2="834.1" y2="88.23" xlink:href="#linear-gradient"/><linearGradient id="linear-gradient-48" x1="33.64" y1="87.58" x2="834.1" y2="87.58" xlink:href="#linear-gradient"/><linearGradient id="linear-gradient-49" x1="33.64" y1="86.95" x2="834.11" y2="86.95" xlink:href="#linear-gradient"/><linearGradient id="linear-gradient-50" x1="33.63" y1="86.33" x2="834.11" y2="86.33" xlink:href="#linear-gradient"/><linearGradient id="linear-gradient-51" x1="33.63" y1="85.71" x2="834.11" y2="85.71" xlink:href="#linear-gradient"/><linearGradient id="linear-gradient-52" x1="33.63" y1="85.09" x2="834.11" y2="85.09" xlink:href="#linear-gradient"/><linearGradient id="Technology" x1="-0.12" y1="210.03" x2="800.13" y2="210.03" gradientUnits="userSpaceOnUse"><stop offset="0" stop-color="#002d55"/><stop offset="0.25" stop-color="#00a8de"/><stop offset="0.5" stop-color="aqua"/><stop offset="0.75" stop-color="#00a8de"/><stop offset="1" stop-color="#002d55"/></linearGradient><linearGradient id="Technology-2" x1="-0.13" y1="209.46" x2="800.13" y2="209.46" xlink:href="#Technology"/><linearGradient id="Technology-3" x1="-0.13" y1="208.88" x2="800.13" y2="208.88" xlink:href="#Technology"/><linearGradient id="Technology-4" x1="-0.13" y1="208.29" x2="800.13" y2="208.29" xlink:href="#Technology"/><linearGradient id="Technology-5" x1="-0.13" y1="207.7" x2="800.13" y2="207.7" xlink:href="#Technology"/><linearGradient id="Technology-6" x1="-0.14" y1="207.1" x2="800.14" y2="207.1" xlink:href="#Technology"/><linearGradient id="Technology-7" x1="-0.14" y1="206.49" x2="800.14" y2="206.49" xlink:href="#Technology"/><linearGradient id="Technology-8" x1="-0.14" y1="205.87" x2="800.14" y2="205.87" xlink:href="#Technology"/><linearGradient id="Technology-9" x1="-0.14" y1="205.25" x2="800.14" y2="205.25" xlink:href="#Technology"/><linearGradient id="Technology-10" x1="-0.15" y1="204.62" x2="800.15" y2="204.62" xlink:href="#Technology"/><linearGradient id="Technology-11" x1="-0.15" y1="203.98" x2="800.15" y2="203.98" xlink:href="#Technology"/><linearGradient id="Technology-12" x1="-0.15" y1="203.34" x2="800.15" y2="203.34" xlink:href="#Technology"/><linearGradient id="Technology-13" x1="-0.15" y1="202.68" x2="800.15" y2="202.68" xlink:href="#Technology"/><linearGradient id="Technology-14" x1="-0.16" y1="202.01" x2="800.16" y2="202.01" xlink:href="#Technology"/><linearGradient id="Technology-15" x1="-0.16" y1="201.32" x2="800.16" y2="201.32" xlink:href="#Technology"/><linearGradient id="Technology-16" x1="-0.16" y1="201.16" x2="800.16" y2="201.16" xlink:href="#Technology"/><linearGradient id="Technology-17" x1="-0.16" y1="201.91" x2="800.16" y2="201.91" xlink:href="#Technology"/><linearGradient id="Technology-18" x1="-0.17" y1="202.64" x2="800.17" y2="202.64" xlink:href="#Technology"/><linearGradient id="Technology-19" x1="-0.17" y1="203.38" x2="800.17" y2="203.38" xlink:href="#Technology"/><linearGradient id="Technology-20" x1="-0.17" y1="204.1" x2="800.17" y2="204.1" xlink:href="#Technology"/><linearGradient id="Technology-21" x1="-0.17" y1="204.82" x2="800.17" y2="204.82" xlink:href="#Technology"/><linearGradient id="Technology-22" x1="-0.18" y1="205.54" x2="800.18" y2="205.54" xlink:href="#Technology"/><linearGradient id="Technology-23" x1="-0.18" y1="206.24" x2="800.18" y2="206.24" xlink:href="#Technology"/><linearGradient id="Technology-24" x1="-0.18" y1="206.95" x2="800.18" y2="206.95" xlink:href="#Technology"/><linearGradient id="Technology-25" x1="-0.18" y1="207.64" x2="800.18" y2="207.64" xlink:href="#Technology"/><linearGradient id="Technology-26" x1="-0.19" y1="208.3" x2="800.19" y2="208.3" xlink:href="#Technology"/><linearGradient id="Technology-27" x1="-0.19" y1="209.01" x2="800.19" y2="209.01" xlink:href="#Technology"/><linearGradient id="Technology-28" x1="-0.19" y1="209.66" x2="800.19" y2="209.66" xlink:href="#Technology"/><linearGradient id="Technology-29" x1="-0.19" y1="210.3" x2="800.19" y2="210.3" xlink:href="#Technology"/><linearGradient id="Technology-30" x1="-0.2" y1="210.95" x2="800.2" y2="210.95" xlink:href="#Technology"/><linearGradient id="Technology-31" x1="-0.2" y1="211.58" x2="800.2" y2="211.58" xlink:href="#Technology"/><linearGradient id="Technology-32" x1="-0.2" y1="212.22" x2="800.2" y2="212.22" xlink:href="#Technology"/><linearGradient id="Technology-33" x1="-0.2" y1="212.86" x2="800.2" y2="212.86" xlink:href="#Technology"/><linearGradient id="Technology-34" x1="-0.21" y1="213.43" x2="800.21" y2="213.43" xlink:href="#Technology"/><linearGradient id="Technology-35" x1="-0.21" y1="214.02" x2="800.21" y2="214.02" xlink:href="#Technology"/><linearGradient id="Technology-36" x1="-0.21" y1="214.55" x2="800.21" y2="214.55" xlink:href="#Technology"/><linearGradient id="Technology-37" x1="-0.21" y1="215.13" x2="800.21" y2="215.13" xlink:href="#Technology"/><linearGradient id="Technology-38" x1="-0.22" y1="215.68" x2="800.22" y2="215.68" xlink:href="#Technology"/><linearGradient id="Technology-39" x1="-0.22" y1="216.22" x2="800.22" y2="216.22" xlink:href="#Technology"/><linearGradient id="Technology-40" x1="-0.22" y1="215.35" x2="800.22" y2="215.35" xlink:href="#Technology"/><linearGradient id="Technology-41" x1="-0.22" y1="214.13" x2="800.22" y2="214.13" xlink:href="#Technology"/><linearGradient id="Technology-42" x1="-0.23" y1="212.91" x2="800.23" y2="212.91" xlink:href="#Technology"/><linearGradient id="Technology-43" x1="-0.23" y1="211.69" x2="800.23" y2="211.69" xlink:href="#Technology"/><linearGradient id="Technology-44" x1="-0.23" y1="210.45" x2="800.23" y2="210.45" xlink:href="#Technology"/><linearGradient id="Technology-45" x1="-0.23" y1="209.21" x2="800.23" y2="209.21" xlink:href="#Technology"/><linearGradient id="Technology-46" x1="-0.24" y1="207.98" x2="800.24" y2="207.98" xlink:href="#Technology"/><linearGradient id="Technology-47" x1="-0.24" y1="206.73" x2="800.24" y2="206.73" xlink:href="#Technology"/><linearGradient id="Technology-48" x1="-0.24" y1="205.51" x2="800.24" y2="205.51" xlink:href="#Technology"/><linearGradient id="Technology-49" x1="-0.24" y1="204.3" x2="800.24" y2="204.3" xlink:href="#Technology"/><linearGradient id="Technology-50" x1="-0.25" y1="203.11" x2="800.25" y2="203.11" xlink:href="#Technology"/><linearGradient id="Technology-51" x1="-0.25" y1="201.91" x2="800.25" y2="201.91" xlink:href="#Technology"/><linearGradient id="Technology-52" x1="-0.25" y1="200.73" x2="800.25" y2="200.73" xlink:href="#Technology"/></defs><g class="cls-1"><g class="cls-2"><path class="cls-3" d="M100.84,273.68A222.79,222.79,0,0,1,54,268.89,224.49,224.49,0,0,1-.38,249.59a.13.13,0,0,1,0-.17.12.12,0,0,1,.16,0,224.54,224.54,0,0,0,54.35,19.27,224.89,224.89,0,0,0,52.44,4.73c35.6-.78,71.43-9,105.09-17.39,35-8.71,66.49-26.87,103-47.9,51.91-30,110.76-63.9,197.05-79.32,31.68-5.66,63.86-5,98.38,1.86,30.51,6.12,59.06,16.26,86.68,26.07,35.55,12.63,69.13,24.56,103.46,26.83a.11.11,0,0,1,.11.13.12.12,0,0,1-.12.12h0c-34.36-2.28-68-14.21-103.53-26.85-27.6-9.8-56.15-19.94-86.64-26-34.49-6.91-66.64-7.52-98.29-1.86-86.25,15.41-145.07,49.34-197,79.28-36.47,21-68,39.21-103,47.93-33.67,8.37-69.52,16.62-105.14,17.4C104.62,273.66,102.72,273.68,100.84,273.68Z" transform="translate(0.45 -95.19)"/></g><g class="cls-4"><path class="cls-5" d="M100.42,270.56a227.9,227.9,0,0,1-46.73-4.66,226.33,226.33,0,0,1-54-18.7A.12.12,0,0,1-.42,247,.12.12,0,0,1-.25,247a226.19,226.19,0,0,0,54,18.68,230.52,230.52,0,0,0,52.15,4.6c35-.73,69.51-8.25,104.68-16.57s67.18-26,104.17-46.38c52-28.67,110.85-61.17,196.18-76.49,31.79-5.71,64.17-5.28,99,1.3,30.77,5.82,59.68,15.61,87.63,25.07,35.26,11.94,68.56,23.22,102.59,25.72a.12.12,0,0,1,.12.13.13.13,0,0,1-.14.12c-34.06-2.5-67.38-13.78-102.65-25.73-28-9.46-56.84-19.24-87.6-25.06-34.78-6.58-67.13-7-98.89-1.3-85.28,15.31-144.15,47.8-196.09,76.47-37,20.42-69,38.06-104.24,46.39S141,269.78,105.91,270.5Q103.15,270.56,100.42,270.56Z" transform="translate(0.45 -95.19)"/></g><g class="cls-6"><path class="cls-7" d="M100,267.44a233.18,233.18,0,0,1-46.65-4.53A228.56,228.56,0,0,1-.35,244.81a.14.14,0,0,1-.06-.18.14.14,0,0,1,.18-.06,227.86,227.86,0,0,0,53.64,18.09,236.15,236.15,0,0,0,51.87,4.47c34.43-.67,69-7.83,104.27-15.75,35.5-7.95,67.95-25.06,105.53-44.87,52-27.39,110.87-58.44,195.16-73.65,32-5.76,64.55-5.52,99.69.74,31.08,5.53,60.37,15,88.69,24.09,34.89,11.25,67.85,21.87,101.52,24.59a.13.13,0,0,1,.12.14.14.14,0,0,1-.14.12c-33.7-2.72-66.67-13.35-101.58-24.6-28.32-9.12-57.59-18.56-88.65-24.09-35.11-6.25-67.69-6.49-99.6-.73C426,148.32,367.15,179.36,315.2,206.74c-37.59,19.82-70.06,36.94-105.59,44.89-35.32,7.92-69.87,15.09-104.32,15.76C103.52,267.42,101.76,267.44,100,267.44Z" transform="translate(0.45 -95.19)"/></g><g class="cls-8"><path class="cls-9" d="M99.61,264.31A239.14,239.14,0,0,1,53,259.92,229.84,229.84,0,0,1-.33,242.41a.13.13,0,0,1-.07-.17.14.14,0,0,1,.18-.07,230.22,230.22,0,0,0,53.3,17.5A242,242,0,0,0,104.66,264c33.81-.6,67-7.12,103.86-14.93,35.8-7.56,68.81-24.15,107-43.37,51.94-26.11,110.8-55.71,194-70.79,32.13-5.82,65-5.76,100.52.17,31.42,5.25,61.13,14.35,89.86,23.15,34.45,10.55,67,20.51,100.2,23.43a.13.13,0,1,1,0,.26C766.87,179,734.32,169,699.86,158.48c-28.72-8.8-58.42-17.89-89.82-23.14-35.48-5.93-68.33-6-100.43-.17-83.16,15.08-142,44.66-193.93,70.76-38.24,19.23-71.27,35.83-107.11,43.4-36.83,7.82-70.07,14.33-103.9,14.94C103,264.3,101.29,264.31,99.61,264.31Z" transform="translate(0.45 -95.19)"/></g><g class="cls-10"><path class="cls-11" d="M99.23,261.19c-36,0-67.71-6.77-99.55-21.17a.14.14,0,0,1-.06-.18.14.14,0,0,1,.18-.06C33,254.8,66.13,261.52,104,260.88c33.15-.55,65.11-6.45,103.45-14.11,36.16-7.18,69.79-23.27,108.73-41.91,51.86-24.82,110.64-53,192.66-67.9,32.36-5.89,65.56-6,101.5-.4,31.81,5,62,13.74,91.17,22.22,33.9,9.85,65.91,19.16,98.6,22.26a.13.13,0,0,1,.12.14.13.13,0,0,1-.15.12c-32.71-3.1-64.73-12.4-98.64-22.26-29.18-8.48-59.35-17.24-91.14-22.21-35.91-5.62-69.08-5.49-101.42.4-82,14.93-140.74,43.06-192.58,67.87-39,18.65-72.61,34.75-108.8,41.94-38.35,7.66-70.33,13.56-103.49,14.11C102.43,261.18,100.83,261.19,99.23,261.19Z" transform="translate(0.45 -95.19)"/></g><g class="cls-12"><path class="cls-13" d="M98.87,258.07c-35.92,0-67.55-6.53-99.17-20.44a.14.14,0,0,1-.07-.18.14.14,0,0,1,.18-.07c32.91,14.47,65.83,20.94,103.61,20.38,34.93-.53,71.11-7.31,103-13.29C243,237.67,277.35,222.06,317.1,204c51.72-23.53,110.35-50.2,191.09-65,72.94-13.34,135.15,3.78,195.32,20.35,33.23,9.14,64.61,17.78,96.64,21a.13.13,0,0,1,.12.15.13.13,0,0,1-.15.13c-32-3.26-63.44-11.91-96.68-21.06C643.3,143.08,581.11,126,508.24,139.29c-80.71,14.77-139.32,41.43-191,65-39.76,18.08-74.1,33.7-110.7,40.5-31.94,6-68.13,12.76-103.08,13.29C101.9,258.06,100.38,258.07,98.87,258.07Z" transform="translate(0.45 -95.19)"/></g><g class="cls-14"><path class="cls-15" d="M98.53,254.94c-35.9,0-67.41-6.29-98.81-19.7a.14.14,0,0,1-.08-.18A.14.14,0,0,1-.17,235c32.6,13.92,65.32,20.17,103,19.65,34-.46,68.88-6.56,102.63-12.46,37-6.41,72.15-21.55,112.8-39.09,51.52-22.23,109.93-47.42,189.28-62,73.71-13.55,137.08,3,198.37,18.91,32.41,8.44,63,16.42,94.28,19.81a.15.15,0,0,1,.12.16c0,.07-.08.14-.15.12-31.27-3.4-61.9-11.37-94.32-19.82-61.26-15.95-124.6-32.44-198.25-18.91-79.32,14.59-137.71,39.78-189.22,62-40.66,17.54-75.78,32.69-112.86,39.11-33.76,5.9-68.67,12-102.67,12.46Z" transform="translate(0.45 -95.19)"/></g><g class="cls-16"><path class="cls-17" d="M98.21,251.82c-35.9,0-67.27-6-98.48-19a.14.14,0,0,1-.07-.19.14.14,0,0,1,.18-.08c31.17,12.91,62.51,19,98.37,19l3.19,0c33.21-.33,66.31-5.7,101.36-11.38l1.64-.27c37.62-6,73.6-20.72,115.27-37.73,51.24-20.92,109.33-44.64,187.16-59,74.66-13.79,139.36,2.13,201.92,17.52,31.43,7.73,61.12,15,91.41,18.53a.15.15,0,0,1,.13.16.14.14,0,0,1-.16.12c-30.31-3.5-60-10.8-91.44-18.54-62.54-15.38-127.2-31.29-201.81-17.51-77.8,14.38-135.87,38.08-187.1,59-41.68,17-77.68,31.72-115.33,37.75l-1.64.27c-35.06,5.69-68.17,11.06-101.4,11.39Z" transform="translate(0.45 -95.19)"/></g><g class="cls-18"><path class="cls-19" d="M97.91,248.7c-35.91,0-67.14-5.81-98.16-18.24a.14.14,0,0,1-.08-.19.14.14,0,0,1,.19-.08c31,12.42,62.18,18.22,98.05,18.22h1.52c32.59-.15,65.06-5,99.44-10.17l4.5-.67c38.29-5.64,75.29-19.91,118.12-36.42,50.86-19.61,108.51-41.84,184.65-56,75.85-14.08,142.07,1.3,206.11,16.17,30.23,7,58.78,13.65,87.92,17.21a.14.14,0,0,1,.12.16.15.15,0,0,1-.16.13c-29.15-3.57-57.71-10.2-88-17.22-64-14.86-130.2-30.23-206-16.17-76.12,14.14-133.75,36.36-184.6,56-42.86,16.52-79.87,30.79-118.19,36.44l-4.5.67c-34.39,5.15-66.87,10-99.48,10.17Z" transform="translate(0.45 -95.19)"/></g><g class="cls-20"><path class="cls-21" d="M97.65,245.58H97.4c-35.85,0-66.87-5.59-97.64-17.52a.14.14,0,0,1-.08-.19.15.15,0,0,1,.19-.08C30.6,239.7,61.59,245.26,97.4,245.28h.25c31.86,0,63.61-4.36,97.21-9l7.48-1c39.09-5.25,77.25-19.12,121.45-35.17,50.35-18.29,107.42-39,181.67-52.88,77.29-14.41,145.3.48,211.06,14.89,28.76,6.3,55.93,12.25,83.65,15.82a.16.16,0,0,1,.13.17.14.14,0,0,1-.16.12c-27.74-3.57-54.91-9.53-83.68-15.83-65.74-14.39-133.71-29.28-211-14.88-74.22,13.85-131.28,34.58-181.62,52.87-44.21,16.05-82.39,29.92-121.51,35.18l-7.48,1C161.29,241.21,129.53,245.58,97.65,245.58Z" transform="translate(0.45 -95.19)"/></g><g class="cls-22"><path class="cls-23" d="M97.42,242.46H95.31c-35.12-.2-65.47-5.54-95.53-16.78a.14.14,0,0,1-.09-.19.15.15,0,0,1,.19-.09c30,11.23,60.35,16.56,95.44,16.76,31.27.17,62.44-3.73,95.42-7.86L201.31,233c40-4.86,79.58-18.36,125.38-34,49.68-17,106-36.19,178.09-49.71,79.09-14.82,149.2-.33,217,13.69,27,5.57,52.4,10.83,78.39,14.35a.16.16,0,0,1,.13.17.15.15,0,0,1-.17.13c-26-3.53-51.46-8.79-78.41-14.36-67.78-14-137.87-28.49-216.9-13.69-72.08,13.52-128.38,32.74-178,49.7-45.8,15.64-85.37,29.14-125.43,34-3.54.43-7.07.88-10.57,1.32C158.53,238.63,128,242.46,97.42,242.46Z" transform="translate(0.45 -95.19)"/></g><g class="cls-24"><path class="cls-25" d="M97.24,239.33c-1.36,0-2.72,0-4.08,0-34.36-.37-64-5.46-93.36-16a.14.14,0,0,1-.09-.19A.14.14,0,0,1-.1,223c29.3,10.55,58.94,15.64,93.27,16,30.6.33,61.06-3.13,93.31-6.79q6.86-.78,13.8-1.55c41.19-4.46,82.38-17.64,130.07-32.9,48.8-15.62,104.11-33.32,173.74-46.45,81.35-15.32,154-1.12,224.27,12.61,24.68,4.82,48,9.37,71.82,12.76a.15.15,0,0,1,.13.17.15.15,0,0,1-.17.13c-23.83-3.39-47.15-7.94-71.84-12.77-70.24-13.72-142.86-27.91-224.15-12.6-69.61,13.12-124.91,30.82-173.71,46.43-47.7,15.27-88.91,28.46-130.12,32.92-4.64.51-9.23,1-13.8,1.55C155.69,236,126.49,239.33,97.24,239.33Z" transform="translate(0.45 -95.19)"/></g><g class="cls-26"><path class="cls-27" d="M97.11,236.21q-3.09,0-6.16,0c-33.59-.52-62.55-5.38-91.14-15.28a.16.16,0,0,1-.09-.2.14.14,0,0,1,.19-.09C28.47,230.49,57.4,235.34,91,235.86c29.89.46,59.64-2.56,91.13-5.77,5.6-.57,11.39-1.16,17.16-1.72,42.6-4.05,85.78-17,135.78-31.94,47.64-14.25,101.64-30.41,168.38-43.06,84.21-15.93,160-1.89,233.25,11.7,20.87,3.87,42.45,7.87,63.53,11a.16.16,0,0,1,.13.17.16.16,0,0,1-.18.13c-21.08-3.13-42.66-7.13-63.53-11-73.25-13.58-149-27.62-233.14-11.69-66.73,12.64-120.72,28.79-168.35,43-50,15-93.21,27.89-135.84,31.94-5.77.57-11.56,1.16-17.16,1.73C152.78,233.38,125,236.21,97.11,236.21Z" transform="translate(0.45 -95.19)"/></g><g class="cls-28"><path class="cls-29" d="M97,233.09c-2.79,0-5.58,0-8.37-.08-32.79-.66-61-5.27-88.84-14.51a.16.16,0,0,1-.1-.2.16.16,0,0,1,.2-.1c27.79,9.23,56,13.84,88.74,14.5,29.17.58,58.16-2,88.86-4.8,6.75-.61,13.72-1.24,20.69-1.83,44.36-3.63,90-16.38,142.87-31.14,46.09-12.87,98.34-27.45,161.64-39.51,87.91-16.71,167.59-2.6,244.64,11.06,17.35,3.07,35.29,6.25,52.82,9a.16.16,0,0,1,.14.18.17.17,0,0,1-.18.13c-17.54-2.72-35.48-5.9-52.84-9-77-13.65-156.67-27.77-244.52-11.06-63.29,12.05-115.53,26.64-161.62,39.51C288.3,210,242.63,222.75,198.25,226.38c-7,.59-13.95,1.22-20.69,1.83C149.79,230.71,123.42,233.09,97,233.09Z" transform="translate(0.45 -95.19)"/></g><g class="cls-30"><path class="cls-31" d="M97.27,230c-32.08,0-64.12-3.26-97.42-13.84a.17.17,0,0,1-.11-.2.17.17,0,0,1,.2-.11c59.18,18.81,114.4,14.45,172.87,9.83,7.94-.62,16.15-1.27,24.39-1.86,46.57-3.19,95.36-15.88,151.85-30.57,44-11.44,93.9-24.41,153-35.72,92.84-17.75,177.56-3.21,259.49,10.84,12.7,2.18,25.82,4.43,38.67,6.51a.16.16,0,0,1-.05.31c-12.85-2.07-26-4.32-38.67-6.5-81.91-14-166.6-28.59-259.38-10.85-59.08,11.31-109,24.28-153,35.72-56.5,14.69-105.31,27.38-151.91,30.57-8.24.6-16.44,1.24-24.38,1.87C147.23,228,122.24,230,97.27,230Z" transform="translate(0.45 -95.19)"/></g><g class="cls-32"><path class="cls-33" d="M97.36,226.83c-32.14,0-64.19-3-97.5-13.11a.18.18,0,0,1-.11-.21.17.17,0,0,1,.21-.1c57.41,17.4,111.11,13.75,168,9.89,9.19-.63,18.69-1.27,28.25-1.83,49.47-2.73,99.85-14.93,163.65-30.36,41.12-10,87.73-21.23,141.54-31.58C601,140.39,692.46,155.92,780.93,171l19.28,3.26a.16.16,0,1,1-.06.31q-9.61-1.61-19.27-3.25c-88.45-15-179.9-30.55-279.46-11.43-53.8,10.35-100.41,21.63-141.53,31.58-63.8,15.44-114.2,27.64-163.71,30.37-9.55.56-19.05,1.21-28.24,1.83C144,225.25,120.67,226.83,97.36,226.83Z" transform="translate(0.45 -95.19)"/></g><g class="cls-34"><path class="cls-35" d="M97.59,223.72c-32.25,0-64.35-2.78-97.71-12.4a.15.15,0,0,1-.11-.2A.15.15,0,0,1,0,211c55.59,16,107.7,13,162.87,9.88,10.49-.61,21.34-1.23,32.3-1.72,53.36-2.23,109.12-14.8,179.72-30.73,37-8.34,78.9-17.79,125.82-26.86,47.82-9.24,98.13-11.82,153.81-7.91,48.4,3.4,94.63,11,145.72,19.92a.15.15,0,0,1,.13.18.16.16,0,0,1-.19.14C749.07,165,702.85,157.4,654.46,154c-55.64-3.91-105.92-1.33-153.72,7.9-46.92,9.07-88.83,18.52-125.81,26.86-70.61,15.93-126.39,28.51-179.78,30.73-11,.5-21.8,1.12-32.29,1.72C140.75,222.48,119.13,223.72,97.59,223.72Z" transform="translate(0.45 -95.19)"/></g><g class="cls-36"><path class="cls-37" d="M98,220.61c-32.43,0-64.62-2.53-98.09-11.68a.16.16,0,0,1-.12-.2.16.16,0,0,1,.2-.12c53.71,14.68,104.16,12.3,157.57,9.79,11.86-.56,24.12-1.14,36.56-1.54,58.82-1.65,122.37-15.08,202.84-32.09,30.72-6.49,65.54-13.85,103-21.14,48.47-9.41,98.76-12.51,153.75-9.49,53.13,2.91,103.86,11.15,146.48,18.82a.17.17,0,0,1,.13.2.16.16,0,0,1-.19.13c-42.61-7.67-93.33-15.91-146.44-18.82-55-3-105.23.09-153.66,9.49-37.5,7.28-72.32,14.64-103,21.14-80.48,17-144,30.44-202.9,32.1-12.44.4-24.7,1-36.56,1.53C137.39,219.68,117.65,220.61,98,220.61Z" transform="translate(0.45 -95.19)"/></g><g class="cls-38"><path class="cls-39" d="M98.64,217.5c-32.7,0-65.06-2.27-98.73-11a.16.16,0,0,1-.12-.2.18.18,0,0,1,.21-.13c51.75,13.36,100.46,11.54,152,9.62,13.29-.49,27.05-1,41.05-1.27,66.95-1,139-15.43,238.71-35.45,21.51-4.32,43.75-8.79,67.52-13.43,49.21-9.6,99.47-13.22,153.68-11.07,45,1.78,91.81,7.41,147.23,17.73a.17.17,0,1,1-.06.34c-79.79-14.86-186.09-29-300.78-6.67-23.77,4.65-46,9.11-67.53,13.43-99.72,20-171.78,34.49-238.76,35.46-14,.26-27.75.77-41.05,1.27C134,216.84,116.26,217.5,98.64,217.5Z" transform="translate(0.45 -95.19)"/></g><g class="cls-40"><path class="cls-41" d="M99.26,214.34c-33,0-65.47-2-99.33-10.19a.18.18,0,0,1-.13-.21.17.17,0,0,1,.21-.12c49.35,12,95.85,10.69,145.09,9.34,15.18-.42,30.88-.85,47-.9,81-.23,175.06-18.7,305.21-44.26l1.37-.27a710.1,710.1,0,0,1,153.61-12.66c47.32,1.16,95.73,6.61,148,16.65a.17.17,0,0,1,.13.2.18.18,0,0,1-.2.14c-52.24-10-100.63-15.49-147.93-16.64a708.88,708.88,0,0,0-153.54,12.65l-1.37.27c-130.17,25.56-224.21,44-305.27,44.27-16.06,0-31.76.47-46.94.89C129.62,213.92,114.39,214.34,99.26,214.34Z" transform="translate(0.45 -95.19)"/></g><g class="cls-42"><path class="cls-43" d="M100.87,211.24c-33.59,0-66.55-1.69-100.92-9.48a.17.17,0,0,1-.13-.21.18.18,0,0,1,.21-.13c47.23,10.71,91.83,9.88,139.05,9,16.77-.32,34.11-.64,51.94-.45,81.63.87,178-14.72,306.93-40.18a759.17,759.17,0,0,1,153.54-14.24A806.54,806.54,0,0,1,800.23,171.1a.17.17,0,1,1-.07.34,805.78,805.78,0,0,0-148.67-15.55A759.29,759.29,0,0,0,498,170.12c-74.32,14.68-127.5,24-172.41,30.17-52.72,7.26-95.48,10.44-134.58,10-17.83-.19-35.17.13-51.93.45C126.19,211,113.48,211.24,100.87,211.24Z" transform="translate(0.45 -95.19)"/></g><g class="cls-44"><path class="cls-45" d="M207.44,208.23q-8.88,0-17.45-.22c-19.7-.48-38.76-.28-57.19-.08-45.13.48-87.75.93-132.83-8.56a.18.18,0,0,1-.14-.21A.17.17,0,0,1,0,199c45,9.49,87.65,9,132.75,8.56,18.44-.2,37.5-.4,57.2.08,78,1.92,172.76-9.13,307.27-35.83,104.26-20.65,206.19-21.11,303-1.35a.19.19,0,0,1,.14.21.18.18,0,0,1-.21.14c-96.74-19.75-198.63-19.3-302.84,1.35C372.67,196.92,282.13,208.23,207.44,208.23Z" transform="translate(0.45 -95.19)"/></g><g class="cls-46"><path class="cls-47" d="M221.19,206.33q-16.42,0-32.24-.61c-21.69-.83-42.56-.77-62.75-.7-42.91.14-83.42.27-126.22-8a.18.18,0,0,1,.07-.36c42.76,8.32,83.26,8.18,126.15,8,20.19-.07,41.07-.13,62.77.7,85.71,3.3,183.46-6.7,307.61-31.48,53-10.55,104.61-16.41,153.41-17.4,52.36-1.07,102.91,3.44,150.25,13.38a.18.18,0,1,1-.07.35c-47.32-9.94-97.85-14.44-150.17-13.37-48.78,1-100.38,6.84-153.35,17.4C387.76,196,299.17,206.33,221.19,206.33Z" transform="translate(0.45 -95.19)"/></g><g class="cls-48"><path class="cls-49" d="M237.32,204.7q-25.14,0-49.4-1.28c-23.81-1.24-46.6-1.32-68.65-1.39-40.56-.14-78.87-.26-119.27-7.45a.18.18,0,0,1-.15-.21.18.18,0,0,1,.21-.14c40.37,7.17,78.67,7.3,119.22,7.43,22,.08,44.84.15,68.66,1.4,92.16,4.83,192.9-4,308-27.12,117.07-23.45,216.62-25.64,304.35-6.7a.18.18,0,0,1,.14.22.18.18,0,0,1-.22.13C712.49,150.66,613,152.86,496,176.29,401.09,195.32,316,204.7,237.32,204.7Z" transform="translate(0.45 -95.19)"/></g><g class="cls-50"><path class="cls-51" d="M257.44,203.49c-23.44,0-46.84-.79-70.56-2.36C160.8,199.4,136,199.17,112,199c-38.1-.35-74.08-.67-112-6.77A.18.18,0,0,1-.13,192a.18.18,0,0,1,.21-.15c37.86,6.09,73.83,6.42,111.92,6.76,24,.21,48.82.44,74.91,2.17a1058.53,1058.53,0,0,0,136,.34C377.85,197.74,435.83,190,495.21,178c57.49-11.58,107.63-18.31,153.28-20.57,55.64-2.77,105.29.9,151.76,11.2a.18.18,0,0,1,.14.22.18.18,0,0,1-.22.14c-46.44-10.3-96-14-151.66-11.2-45.63,2.27-95.75,9-153.23,20.57-59.4,12-117.39,19.76-172.35,23.12C300.88,202.82,279.14,203.49,257.44,203.49Z" transform="translate(0.45 -95.19)"/></g><g class="cls-52"><path class="cls-53" d="M277.44,202.69c-35.72,0-66.34-1.82-91.59-3.86-28.51-2.29-55.47-2.66-81.54-3-35.49-.48-69-.94-104.27-6a.18.18,0,0,1-.16-.21.19.19,0,0,1,.21-.16c35.23,5.07,68.74,5.53,104.23,6,26.07.36,53,.72,81.56,3,66.92,5.39,171.73,9.34,308.65-18.42,61.64-12.48,108.89-19.31,153.21-22.16,56.7-3.63,106.59-.32,152.52,10.12a.18.18,0,0,1-.08.36c-45.9-10.43-95.75-13.74-152.42-10.1-44.3,2.84-91.53,9.67-153.16,22.14C409.29,197.7,336.43,202.69,277.44,202.69Z" transform="translate(0.45 -95.19)"/></g><g class="cls-54"><path class="cls-55" d="M298.39,202.33c-46.38,0-86.24-3.21-113.57-5.79-31.12-2.95-60.35-3.45-88.61-3.94C63.46,192,32.53,191.51.06,187.41a.19.19,0,0,1-.17-.21A.19.19,0,0,1,.1,187c32.46,4.11,63.38,4.64,96.11,5.2,28.27.48,57.51,1,88.64,3.93,66.36,6.29,109.82,6.16,136.74,5.52a968.49,968.49,0,0,0,172.26-19.59c48.65-9.9,100.87-19.63,153.14-23.74,57.65-4.52,107.79-1.57,153.28,9a.19.19,0,1,1-.09.36c-45.45-10.59-95.55-13.53-153.16-9-52.25,4.1-104.46,13.83-153.1,23.73a968.25,968.25,0,0,1-172.33,19.6C313.71,202.25,306,202.33,298.39,202.33Z" transform="translate(0.45 -95.19)"/></g><g class="cls-56"><path class="cls-57" d="M316,202.37c-50.62,0-95.12-4.09-132.17-8.13-33.92-3.7-65.56-4.31-96.15-4.9-29.83-.57-58-1.11-87.56-4.32a.2.2,0,0,1-.17-.21.18.18,0,0,1,.21-.17c29.53,3.21,57.7,3.75,87.53,4.32,30.6.59,62.24,1.2,96.18,4.9,38.25,4.17,84.46,8.39,137.1,8.11a870.12,870.12,0,0,0,172.24-17.83c44.27-9.06,99.35-20.33,153.08-25.32,58.52-5.43,108.9-2.83,154,7.94a.18.18,0,0,1,.14.23.19.19,0,0,1-.23.14c-45.09-10.76-95.43-13.35-153.9-7.93-53.71,5-108.79,16.26-153,25.32a870.9,870.9,0,0,1-172.31,17.83Z" transform="translate(0.45 -95.19)"/></g><g class="cls-58"><path class="cls-59" d="M332.17,202.7c-54.64,0-104.24-5.18-149.42-10.76-36.95-4.55-71.14-5.23-104.2-5.89-26.75-.53-52-1-78.46-3.42a.2.2,0,0,1-.17-.21.19.19,0,0,1,.21-.18c26.43,2.4,51.69,2.9,78.43,3.43,33.07.65,67.27,1.33,104.24,5.89,85.85,10.59,187.66,19.78,309.68-5.37l13-2.69c47.74-9.87,97.1-20.08,146.81-24.91,56.34-5.48,104.74-3,147.95,7.55a.19.19,0,0,1,.14.23.2.2,0,0,1-.24.14C757,156,708.67,153.5,652.37,159c-49.69,4.83-99,15-146.77,24.9l-13,2.69A787.4,787.4,0,0,1,332.17,202.7Z" transform="translate(0.45 -95.19)"/></g><g class="cls-60"><path class="cls-61" d="M345.22,203.35q-12.71,0-25.63-.4c-53.46-1.67-102.25-8.39-137.88-13.3-40.19-5.54-77.11-6.23-112.8-6.89-22.43-.42-45.63-.85-68.8-2.53A.19.19,0,0,1-.07,180a.21.21,0,0,1,.21-.18c23.16,1.68,45.32,2.09,68.78,2.53,35.7.66,72.63,1.35,112.85,6.89,35.61,4.91,84.39,11.63,137.83,13.3,60.34,1.88,116.66-2.81,172.2-14.32,9-1.86,18.27-3.82,27.24-5.72,45.54-9.65,92.63-19.62,140.06-24.35,53.76-5.36,99.94-2.95,141.18,7.35a.18.18,0,0,1,.14.23.19.19,0,0,1-.23.15c-41.2-10.29-87.34-12.69-141.05-7.34-47.41,4.73-94.49,14.7-140,24.34-9,1.9-18.25,3.87-27.24,5.73A716.06,716.06,0,0,1,345.22,203.35Z" transform="translate(0.45 -95.19)"/></g><g class="cls-62"><path class="cls-63" d="M356.79,204.16c-66,0-124.18-8.89-171.68-16.13l-4.43-.68c-43.71-6.66-83.52-7.27-122-7.86-19.1-.29-38.85-.59-58.54-1.65a.2.2,0,0,1-.19-.21.18.18,0,0,1,.21-.18c19.68,1.05,39.43,1.35,58.52,1.65,38.51.59,78.33,1.2,122.07,7.86l4.43.68c77.66,11.84,184,28.07,305.94,2.65,12.54-2.6,25-5.33,38.17-8.22,43.87-9.6,89.22-19.52,134.93-24.26,51.82-5.38,96.33-3.06,136.08,7.08a.21.21,0,0,1,.14.25.2.2,0,0,1-.24.14c-39.7-10.13-84.17-12.45-135.93-7.08-45.69,4.74-91,14.66-134.89,24.26-13.19,2.89-25.64,5.61-38.18,8.22A656.63,656.63,0,0,1,356.79,204.16Z" transform="translate(0.45 -95.19)"/></g><g class="cls-64"><path class="cls-65" d="M366.79,205.17c-67.6,0-127.73-10.12-176.46-18.32l-10.68-1.79c-47.51-7.94-90.4-8.35-131.88-8.75-15.55-.15-31.62-.3-47.62-.86a.19.19,0,0,1-.19-.21.18.18,0,0,1,.2-.19c16,.55,32.07.71,47.62.86,41.49.4,84.4.81,131.93,8.75l10.69,1.79c76.82,12.93,182,30.63,300,5.89,15.29-3.19,30.6-6.68,46.8-10.36,42.56-9.68,86.56-19.68,130.94-24.51,50.32-5.48,93.54-3.25,132.12,6.8a.21.21,0,0,1,.15.25.2.2,0,0,1-.25.14c-38.54-10-81.71-12.26-132-6.79-44.36,4.82-88.35,14.83-130.9,24.5-16.21,3.69-31.52,7.17-46.81,10.37A601.38,601.38,0,0,1,366.79,205.17Z" transform="translate(0.45 -95.19)"/></g><g class="cls-66"><path class="cls-67" d="M375.42,206.32c-69.14,0-131.16-11.45-181.1-20.67q-8.06-1.5-15.71-2.89c-51.59-9.37-97.77-9.43-142.43-9.49-11.77,0-23.93,0-36-.21a.21.21,0,0,1-.2-.21.21.21,0,0,1,.2-.2c12.08.19,24.24.2,36,.22,44.67,0,90.87.11,142.5,9.49q7.66,1.39,15.71,2.89C270.6,199.32,375,218.59,489.75,194.4c17.47-3.68,35.1-7.86,53.77-12.28,41.51-9.84,84.44-20,127.77-25,49.14-5.63,91.34-3.5,129,6.51a.2.2,0,0,1,.14.25.21.21,0,0,1-.25.15c-37.61-10-79.77-12.13-128.86-6.5-43.3,5-86.22,15.13-127.72,25-18.67,4.42-36.3,8.6-53.78,12.27A552.4,552.4,0,0,1,375.42,206.32Z" transform="translate(0.45 -95.19)"/></g><g class="cls-68"><path class="cls-69" d="M382.9,207.6c-70.56,0-134.41-12.87-185.52-23.18-6.9-1.39-13.42-2.7-19.8-4-56-11-105.69-10.49-153.73-10-7.74.08-15.74.16-23.66.2h0a.21.21,0,0,1-.21-.21.22.22,0,0,1,.21-.21c7.92,0,15.91-.11,23.65-.19,48.07-.5,97.77-1,153.82,10,6.38,1.25,12.9,2.57,19.8,4,75.76,15.27,179.52,36.19,291.6,12.43,19.23-4.07,38.79-8.91,59.49-14,40.67-10.06,82.73-20.45,125.22-25.6C722,151,763.37,153,800.3,163a.22.22,0,0,1,.15.26.2.2,0,0,1-.25.14c-36.88-10-78.22-12-126.38-6.19-42.47,5.15-84.51,15.54-125.17,25.59-20.71,5.11-40.27,9.95-59.5,14A511.2,511.2,0,0,1,382.9,207.6Z" transform="translate(0.45 -95.19)"/></g><g class="cls-70"><path class="cls-71" d="M389.4,209c-71.85,0-137.43-14.35-189.67-25.78-8.11-1.78-15.76-3.45-23.19-5C115.8,165.33,64.76,166.63,10.74,168l-10.53.26h0a.22.22,0,0,1-.21-.2.21.21,0,0,1,.21-.21l10.53-.27c54.05-1.38,105.11-2.68,165.9,10.17,7.43,1.57,15.08,3.25,23.19,5,75.45,16.51,178.8,39.12,288.56,15.72,20.65-4.4,41.82-9.86,64.24-15.64,40-10.32,81.33-21,123.15-26.34,47.46-6.08,88.2-4.16,124.54,5.89a.2.2,0,0,1,.14.26.19.19,0,0,1-.25.14c-36.29-10-77-12-124.38-5.88-41.79,5.36-83.12,16-123.1,26.33-22.42,5.78-43.59,11.25-64.25,15.65A474.26,474.26,0,0,1,389.4,209Z" transform="translate(0.45 -95.19)"/></g><g class="cls-72"><path class="cls-73" d="M394.84,210.45c-73.4,0-141-16-194.5-28.75-8.7-2.07-16.92-4-24.83-5.83C109.23,161,53.82,163.48.23,165.88a.19.19,0,0,1-.22-.2.21.21,0,0,1,.2-.22c53.61-2.4,109.05-4.88,175.39,10,7.92,1.81,16.14,3.76,24.84,5.83,75.52,17.93,179,42.48,287.26,19.26,21.82-4.67,44.36-10.74,68.23-17.17,39.42-10.61,80.18-21.58,121.46-27.17,46.86-6.35,87.07-4.52,122.92,5.58a.21.21,0,0,1,.15.26.22.22,0,0,1-.26.15c-35.8-10.09-76-11.91-122.76-5.57-41.25,5.58-82,16.55-121.4,27.16-23.88,6.43-46.43,12.5-68.26,17.17A441.74,441.74,0,0,1,394.84,210.45Z" transform="translate(0.45 -95.19)"/></g><g class="cls-74"><path class="cls-75" d="M399.85,212c-74.39,0-143.52-17.62-198.07-31.52-9.59-2.45-18.65-4.76-27.31-6.87C109.36,158,54.91,159.91.25,163.49a.22.22,0,0,1-.23-.2.21.21,0,0,1,.2-.23c54.69-3.58,109.18-5.5,174.35,10.1,8.66,2.11,17.72,4.42,27.32,6.86C277.28,199.24,380.54,225.57,487,202.6c22.78-4.91,46.51-11.57,71.62-18.62,39-10.93,79.23-22.24,120.07-28.08,46.38-6.63,86.16-4.9,121.62,5.27a.22.22,0,0,1,.15.26.22.22,0,0,1-.27.15c-35.4-10.16-75.12-11.88-121.44-5.26-40.81,5.84-81.07,17.14-120,28.07-25.13,7.06-48.85,13.72-71.65,18.63A413.07,413.07,0,0,1,399.85,212Z" transform="translate(0.45 -95.19)"/></g><g class="cls-76"><path class="cls-77" d="M404.28,213.54c-75.3,0-145.91-19.25-201.44-34.38-10.35-2.82-20.14-5.49-29.4-7.88C112.19,155.68,59.92,155.93.27,161.1a.22.22,0,0,1-.24-.2.21.21,0,0,1,.2-.23c59.69-5.18,112-5.42,173.32,10.19,9.26,2.4,19,5.06,29.41,7.89,75.34,20.53,178.53,48.65,283.37,25.9,23.57-5.1,48.31-12.34,74.51-20,38.56-11.28,78.44-22.95,118.92-29,46-6.93,85.43-5.31,120.57,5a.21.21,0,0,1,.14.27.2.2,0,0,1-.26.14c-35.08-10.24-74.46-11.86-120.39-4.94-40.45,6.1-80.31,17.76-118.86,29-26.2,7.66-51,14.9-74.54,20A386.58,386.58,0,0,1,404.28,213.54Z" transform="translate(0.45 -95.19)"/></g><g class="cls-78"><path class="cls-79" d="M408.19,215.16c-76.09,0-148.15-20.91-204.6-37.29-11-3.2-21.41-6.21-31.19-8.89C105.25,150.85,50,153.33.29,158.71a.22.22,0,0,1-.24-.2.21.21,0,0,1,.19-.24c49.75-5.38,105.05-7.86,172.28,10.29,9.77,2.68,20.18,5.69,31.19,8.89,75.35,21.87,178.56,51.81,281.94,29.25,24.23-5.28,49.85-13.08,77-21.35,38.24-11.64,77.78-23.69,118-30.06,45.69-7.24,84.85-5.72,119.72,4.64a.22.22,0,0,1,.15.27.22.22,0,0,1-.27.15C765.4,150,726.3,148.49,680.68,155.72c-40.16,6.37-79.69,18.41-117.91,30.05-27.15,8.27-52.78,16.08-77,21.36A363.38,363.38,0,0,1,408.19,215.16Z" transform="translate(0.45 -95.19)"/></g><g class="cls-80"><path class="cls-81" d="M411.67,216.83c-76.81,0-150.25-22.62-207.61-40.27-11.57-3.56-22.5-6.93-32.69-9.87C102.17,146.93,46.06,150.35.31,156.31a.22.22,0,0,1-.25-.19.21.21,0,0,1,.19-.24c45.8-6,102-9.4,171.24,10.38,10.2,3,21.13,6.31,32.7,9.88,75.43,23.22,178.72,55,280.77,32.61,24.77-5.43,51.18-13.79,79.14-22.64,74.36-23.55,158.65-50.25,236.24-26.8a.21.21,0,0,1,.14.27.21.21,0,0,1-.27.15c-77.46-23.41-161.68,3.27-236,26.8-28,8.86-54.38,17.22-79.17,22.66A341.91,341.91,0,0,1,411.67,216.83Z" transform="translate(0.45 -95.19)"/></g><g class="cls-82"><path class="cls-83" d="M414.76,218.53c-77.43,0-152.23-24.35-210.45-43.3-12.05-3.93-23.43-7.63-34-10.84-56.26-16.94-107.11-20.07-170-10.47a.22.22,0,0,1-.26-.19.23.23,0,0,1,.19-.25c30-4.57,55.86-6.17,81.46-5A360.12,360.12,0,0,1,170.46,164c10.55,3.21,21.94,6.92,34,10.84,75.54,24.59,179,58.27,279.83,36,25.21-5.56,52.3-14.48,81-23.91,74-24.34,157.86-51.93,235.07-28.21a.22.22,0,0,1,.15.28.23.23,0,0,1-.28.15c-77.08-23.68-160.87,3.88-234.8,28.2-28.7,9.44-55.8,18.36-81,23.92A322.42,322.42,0,0,1,414.76,218.53Z" transform="translate(0.45 -95.19)"/></g><g class="cls-84"><path class="cls-85" d="M417.51,220.26c-78,0-154.08-26.11-213.15-46.39-12.46-4.27-24.23-8.31-35.06-11.78-30.3-9.59-59.16-14.93-88.22-16.3-25.48-1.2-51.89.68-80.73,5.74a.23.23,0,0,1-.08-.45c28.88-5.06,55.32-6.94,80.83-5.74,29.1,1.38,58,6.71,88.34,16.32,10.83,3.47,22.6,7.51,35.07,11.79,75.69,26,179.36,61.56,279.09,39.41,25.57-5.68,53.27-15.13,82.59-25.14,73.7-25.15,157.23-53.66,234.16-29.65a.23.23,0,0,1,.15.28.23.23,0,0,1-.29.15c-76.78-24-160.24,4.52-233.87,29.65-29.34,10-57.05,19.47-82.65,25.15A304.78,304.78,0,0,1,417.51,220.26Z" transform="translate(0.45 -95.19)"/></g><g class="cls-86"><path class="cls-87" d="M420,222c-78.5,0-155.84-27.91-215.74-49.52-12.81-4.63-24.91-9-36-12.7C111,140.74,59.17,137.45.37,149.13A.22.22,0,0,1,.1,149a.23.23,0,0,1,.18-.27C59.16,137,111,140.28,168.41,159.36c11.07,3.72,23.17,8.08,36,12.71,75.89,27.39,179.83,64.89,278.51,42.84,25.87-5.78,54.11-15.76,84-26.34,73.47-26,156.74-55.44,233.44-31.12a.22.22,0,0,1,.15.28.23.23,0,0,1-.28.15C723.66,133.61,640.46,163,567.06,189c-29.91,10.58-58.15,20.57-84,26.35A288.24,288.24,0,0,1,420,222Z" transform="translate(0.45 -95.19)"/></g><g class="cls-88"><path class="cls-89" d="M422.18,223.81c-78.93,0-157.51-29.74-218.21-52.71-13.1-5-25.48-9.65-36.74-13.6C109.23,137.3,57.78,134,.39,146.74a.22.22,0,0,1-.27-.17.23.23,0,0,1,.17-.28c57.48-12.78,109-9.46,167.09,10.77,11.27,4,23.65,8.64,36.76,13.61C280.26,199.48,384.5,238.93,482.23,217c26.1-5.86,54.81-16.38,85.21-27.51,73.3-26.84,156.38-57.26,232.92-32.62a.23.23,0,1,1-.14.44c-76.39-24.59-159.39,5.8-232.62,32.62-30.41,11.13-59.14,21.65-85.27,27.52A273.61,273.61,0,0,1,422.18,223.81Z" transform="translate(0.45 -95.19)"/></g><g class="cls-90"><path class="cls-91" d="M424.16,225.62c-79.33,0-159.1-31.6-220.59-56-13.35-5.29-26-10.29-37.37-14.47C107.63,133.86,56.5,130.52.41,144.35a.23.23,0,1,1-.11-.45C56.48,130,107.7,133.39,166.36,154.76c11.41,4.19,24,9.19,37.39,14.48,76.37,30.25,181,71.68,277.8,49.77,26.28-5.94,55.41-17,86.26-28.65,73.18-27.72,156.13-59.12,232.56-34.15a.23.23,0,0,1,.14.29.23.23,0,0,1-.29.15C724,131.73,641.09,163.11,568,190.79c-30.87,11.69-60,22.73-86.33,28.67A260,260,0,0,1,424.16,225.62Z" transform="translate(0.45 -95.19)"/></g><g class="cls-92"><path class="cls-93" d="M425.94,227.45c-79.69,0-160.62-33.48-222.89-59.23-13.56-5.61-26.37-10.91-37.89-15.32-30.58-11.63-58.89-18-86.57-19.58C52.73,131.88,27.16,134.7.43,142a.25.25,0,0,1-.29-.17.24.24,0,0,1,.17-.29c26.78-7.27,52.4-10.09,78.31-8.65,27.72,1.55,56.09,8,86.71,19.62,11.52,4.4,24.34,9.7,37.9,15.31,76.66,31.71,181.65,75.13,277.63,53.28,26.42-6,55.94-17.55,87.19-29.78,73.1-28.59,156-61,232.32-35.69a.23.23,0,1,1-.15.44c-76.2-25.26-159,7.12-232,35.69C537,204,507.42,215.5,481,221.52A247.61,247.61,0,0,1,425.94,227.45Z" transform="translate(0.45 -95.19)"/></g><g class="cls-94"><path class="cls-95" d="M427.53,229.29c-80,0-162.08-35.38-225.11-62.55-13.72-5.92-26.69-11.51-38.29-16.13C133.52,138.47,105.34,131.79,78,130.2c-25.86-1.5-51.22,1.56-77.52,9.36a.23.23,0,0,1-.29-.16.23.23,0,0,1,.16-.29c26.35-7.82,51.76-10.89,77.68-9.38,27.41,1.59,55.64,8.28,86.3,20.44,11.61,4.62,24.58,10.21,38.31,16.13,77,33.18,182.38,78.62,277.57,56.81,26.51-6.07,56.37-18.12,88-30.88C641.22,162.73,724,129.3,800.38,155a.25.25,0,0,1,.15.31.25.25,0,0,1-.3.15c-76.18-25.62-158.9,7.78-231.89,37.25-31.63,12.77-61.51,24.83-88.06,30.91A236.27,236.27,0,0,1,427.53,229.29Z" transform="translate(0.45 -95.19)"/></g><g class="cls-96"><path class="cls-97" d="M429.17,231.14c-28.95,0-60.54-4.89-95.41-14.71C285.65,202.88,239.1,182,201.7,165.23c-13.86-6.22-26.95-12.09-38.61-16.92-30.63-12.65-58.68-19.59-85.74-21.22-25.84-1.56-51,1.74-76.87,10.08A.25.25,0,0,1,.17,137a.24.24,0,0,1,.16-.3c26-8.36,51.15-11.67,77.05-10.1,27.12,1.63,55.21,8.59,85.9,21.26,11.66,4.83,24.75,10.7,38.61,16.92,37.39,16.77,83.93,37.63,132,51.17,56.18,15.83,103.8,18.84,145.61,9.2,26.57-6.12,56.73-18.67,88.66-32,73.06-30.42,155.87-64.88,232.22-38.86a.24.24,0,0,1,.15.31.24.24,0,0,1-.3.15c-76.18-26-158.9,8.46-231.88,38.84-32,13.3-62.14,25.86-88.75,32A223.61,223.61,0,0,1,429.17,231.14Z" transform="translate(0.45 -95.19)"/></g><g class="cls-98"><path class="cls-99" d="M430.49,233c-29.34,0-61.49-5.26-97.17-15.82-48.21-14.27-94.91-36-132.44-53.5-14-6.51-27.14-12.65-38.82-17.68-30.65-13.15-58.56-20.36-85.33-22C50.94,122.36,26,125.89.5,134.77a.23.23,0,0,1-.31-.15.23.23,0,0,1,.15-.3c25.56-8.91,50.56-12.45,76.42-10.84,26.83,1.68,54.79,8.91,85.49,22.09,11.69,5,24.87,11.17,38.84,17.68,37.51,17.47,84.19,39.21,132.37,53.48,56.33,16.67,103.87,20.1,145.35,10.49,26.6-6.17,57-19.22,89.25-33,73.09-31.34,155.93-66.86,232.33-40.46a.25.25,0,0,1,.15.31.24.24,0,0,1-.31.15c-76.22-26.34-159,9.15-232,40.45-32.25,13.82-62.7,26.88-89.34,33.06A213.76,213.76,0,0,1,430.49,233Z" transform="translate(0.45 -95.19)"/></g><g class="cls-100"><path class="cls-101" d="M431.67,234.89c-29.69,0-62.39-5.63-98.84-16.95-48.33-15-95.2-37.64-132.85-55.83-14-6.77-27.27-13.17-39-18.39-30.64-13.67-58.42-21.15-84.91-22.87C50.37,119.18,25.65,123,.52,132.38a.25.25,0,0,1-.32-.14.26.26,0,0,1,.15-.32c25.19-9.45,50-13.23,75.79-11.56,26.55,1.73,54.38,9.22,85.08,22.91,11.7,5.22,24.94,11.62,39,18.4,37.64,18.18,84.49,40.81,132.79,55.81,56.5,17.54,104,21.39,145.15,11.79,26.6-6.21,57.27-19.75,89.75-34.08,73.14-32.28,156-68.87,232.51-42.09a.25.25,0,0,1-.16.47c-76.29-26.72-159.09,9.82-232.15,42.07-32.5,14.34-63.2,27.89-89.84,34.1A204,204,0,0,1,431.67,234.89Z" transform="translate(0.45 -95.19)"/></g><g class="cls-102"><path class="cls-103" d="M432.74,236.78c-30,0-63.24-6-100.45-18.1-48.47-15.74-95.5-39.27-133.29-58.18-14.06-7-27.34-13.68-39-19.08-30.64-14.17-58.28-21.92-84.5-23.69C49.83,116,25.31,120,.54,130a.25.25,0,0,1-.18-.46c24.83-10,49.42-14,75.16-12.29,26.28,1.77,54,9.53,84.67,23.73,11.68,5.41,25,12.05,39,19.09C237,179,284,202.48,332.44,218.21c56.7,18.42,104.13,22.71,145,13.11,26.58-6.24,57.47-20.26,90.18-35.11C640.84,163,723.83,125.32,800.4,152.48a.25.25,0,1,1-.17.47c-76.38-27.1-159.27,10.52-232.41,43.71-32.73,14.86-63.64,28.89-90.26,35.14A195.13,195.13,0,0,1,432.74,236.78Z" transform="translate(0.45 -95.19)"/></g><path class="cls-104" d="M433.7,238.68c-30.32,0-64.05-6.39-102-19.27-48.62-16.5-95.82-40.93-133.75-60.55-14.07-7.28-27.37-14.16-39-19.74-30.63-14.68-58.13-22.7-84.09-24.5-25.57-1.79-49.88,2.46-74.3,13a.25.25,0,0,1-.33-.13.26.26,0,0,1,.13-.33c24.5-10.54,48.88-14.8,74.54-13,26,1.81,53.58,9.84,84.27,24.55,11.64,5.58,24.93,12.46,39,19.74,37.91,19.62,85.1,44,133.68,60.53,56.91,19.3,104.3,24,144.9,14.43,26.53-6.27,57.62-20.77,90.52-36.12,37-17.26,75.31-35.12,114.94-45.69,45.32-12.09,84-12,118.19.3a.26.26,0,0,1,.15.32.25.25,0,0,1-.32.15c-34.11-12.25-72.67-12.35-117.89-.28-39.59,10.55-77.85,28.4-114.85,45.66-32.94,15.36-64,29.86-90.62,36.14A186.72,186.72,0,0,1,433.7,238.68Z" transform="translate(0.45 -95.19)"/></g><g class="cls-2"><path class="cls-105" d="M800,324.86a.11.11,0,0,1-.12-.11c-4.76-33.74-10.46-62.33-17.43-87.41-8.51-30.58-18.71-55.42-31.19-76-14.1-23.21-31.18-40.49-50.77-51.36-21.79-12.1-47.43-16.7-76.22-13.68-12.68,1.33-36.26,3.8-61.27,19.88-30.11,19.36-54.07,53.08-71.22,100.23-6.89,19-21.64,36.18-41.53,48.46A122.15,122.15,0,0,1,417,279.12a129,129,0,0,1-38.68,4.08C352.22,282,330,271,304.25,258.2c-60-29.79-134.76-66.86-304.2,7.77a.11.11,0,0,1-.16-.07.12.12,0,0,1,.06-.16C169.5,191.06,244.27,228.17,304.36,258c25.72,12.76,47.93,23.78,74,25A128.86,128.86,0,0,0,417,278.88a122.39,122.39,0,0,0,33.17-14.18c19.84-12.26,34.55-29.42,41.43-48.34,17.16-47.2,41.16-81,71.32-100.35,25-16.11,48.68-18.59,61.37-19.92,28.84-3,54.54,1.59,76.37,13.71,19.63,10.89,36.74,28.2,50.87,51.45,12.49,20.56,22.7,45.42,31.21,76,7,25.09,12.68,53.69,17.43,87.45a.12.12,0,0,1-.1.14Z" transform="translate(0.45 -95.19)"/></g><g class="cls-4"><path class="cls-106" d="M800,321.43a.14.14,0,0,1-.13-.11c-5.24-32.76-11.29-60.46-18.49-84.67-8.85-29.73-19.28-53.91-31.88-73.91-14.27-22.66-31.42-39.59-51-50.32-21.77-11.94-47.29-16.64-75.84-13.94-23.23,2.19-77.62,7.32-118,83.94a299.75,299.75,0,0,0-14.95,33.39c-7.12,18.82-21.93,35.93-41.68,48.19a126,126,0,0,1-71.46,18.59c-26.11-1-48.5-11.86-74.41-24.45-4.39-2.13-8.93-4.34-13.55-6.52-28.26-13.28-62.27-27.62-108.4-29.69-52.06-2.34-111,11.22-180.21,41.44a.13.13,0,0,1-.17-.07.13.13,0,0,1,.07-.17c69.24-30.23,128.23-43.79,180.32-41.46,46.18,2.08,80.22,16.43,108.5,29.72,4.62,2.18,9.16,4.39,13.55,6.52,25.89,12.58,48.25,23.44,74.31,24.42a125.48,125.48,0,0,0,71.31-18.55c19.71-12.23,34.48-29.29,41.58-48.06a300.28,300.28,0,0,1,15-33.42c40.43-76.74,94.92-81.88,118.19-84.08,28.6-2.69,54.16,2,76,14,19.59,10.75,36.77,27.7,51.07,50.4,12.61,20,23,44.22,31.9,74,7.21,24.23,13.26,51.94,18.51,84.71a.13.13,0,0,1-.11.15Z" transform="translate(0.45 -95.19)"/></g><g class="cls-6"><path class="cls-107" d="M800,318a.14.14,0,0,1-.13-.11c-12.6-69.79-29.17-118.67-52.13-153.81-14.45-22.12-31.67-38.7-51.18-49.28-21.75-11.79-47.13-16.56-75.45-14.18-11.76,1-31.46,2.65-53.23,13.67-25.71,13-47.55,35.89-64.89,68a301,301,0,0,0-15.25,32.91c-7.36,18.66-22.21,35.68-41.84,47.9a126.5,126.5,0,0,1-71,18.9c-25.92-.78-48.28-11.37-74.16-23.65-4.4-2.08-8.95-4.24-13.59-6.38-30.32-14-63.69-27.85-108.66-30.45-52.08-3-110.45,9.84-178.45,39.27a.14.14,0,0,1-.17-.07.12.12,0,0,1,.07-.17c68-29.45,126.44-42.3,178.57-39.29,45,2.6,78.4,16.48,108.75,30.47,4.64,2.14,9.19,4.3,13.59,6.39,25.86,12.26,48.19,22.85,74.06,23.62a126.14,126.14,0,0,0,70.84-18.86c19.58-12.19,34.4-29.16,41.74-47.78a303.32,303.32,0,0,1,15.26-32.94c17.37-32.13,39.24-55,65-68.08,21.81-11,41.54-12.71,53.33-13.7,28.36-2.39,53.8,2.4,75.6,14.22,19.54,10.59,36.79,27.2,51.27,49.35,23,35.18,39.56,84.09,52.17,153.91a.13.13,0,0,1-.11.15Z" transform="translate(0.45 -95.19)"/></g><g class="cls-8"><path class="cls-108" d="M800,314.56a.13.13,0,0,1-.13-.1c-18-88.94-39.4-127.67-53.9-149.07-14.63-21.58-31.91-37.8-51.38-48.23-21.74-11.64-47-16.48-75.05-14.4-11.85.88-31.68,2.35-53.45,13-25.57,12.57-47.38,34.88-64.83,66.31a302.21,302.21,0,0,0-15.55,32.42c-7.58,18.52-22.5,35.43-42,47.63a127.29,127.29,0,0,1-70.53,19.2c-25.85-.57-48.28-11-74.25-23-4.31-2-8.76-4-13.29-6.1-32.52-14.67-65.32-28.09-108.92-31.18C124.62,217.41,66.82,229.53.05,258.16a.13.13,0,0,1-.17-.06.14.14,0,0,1,.07-.18c66.81-28.65,124.64-40.78,176.8-37.09,43.65,3.1,76.48,16.53,109,31.21,4.53,2.05,9,4.11,13.29,6.1,25.94,12,48.35,22.4,74.15,23a127,127,0,0,0,70.38-19.17c19.44-12.16,34.31-29,41.88-47.5A300.85,300.85,0,0,1,501,182c17.47-31.48,39.32-53.83,64.94-66.42,21.82-10.72,41.68-12.19,53.55-13.08,28.11-2.08,53.41,2.78,75.19,14.44,19.51,10.44,36.83,26.7,51.48,48.31,30.3,44.71,45.3,106.55,53.94,149.16a.13.13,0,0,1-.1.16Z" transform="translate(0.45 -95.19)"/></g><g class="cls-10"><path class="cls-109" d="M800,311.13a.13.13,0,0,1-.13-.11c-6.77-29.86-13.88-54.88-21.72-76.5-9.89-27.23-21-49.42-34-67.83-14.8-21.05-32.16-36.92-51.58-47.19C670.89,108,645.78,103.1,618,104.9c-11.93.77-31.91,2.06-53.67,12.43-25.43,12.11-47.22,33.86-64.75,64.63a306.81,306.81,0,0,0-15.85,31.94c-7.82,18.38-22.79,35.19-42.14,47.35a128,128,0,0,1-70.06,19.52c-25.79-.36-48.31-10.55-74.4-22.35-4.19-1.9-8.52-3.86-12.93-5.81C255.8,240.1,220.5,224.52,175,220.7c-52.15-4.38-109.36,7-174.92,34.86a.12.12,0,0,1-.17-.07.12.12,0,0,1,.07-.17C65.55,227.45,122.8,216,175,220.43c45.58,3.83,80.9,19.41,109.28,31.94,4.41,1.94,8.74,3.9,12.93,5.8,26.06,11.79,48.56,22,74.3,22.33h1.9a127.52,127.52,0,0,0,68-19.49c19.3-12.12,34.23-28.9,42-47.22a307.36,307.36,0,0,1,15.86-32c17.57-30.82,39.39-52.61,64.87-64.75C586,106.69,606,105.4,617.94,104.63c27.87-1.8,53,3.12,74.8,14.63,19.46,10.29,36.84,26.19,51.68,47.27,13,18.44,24.08,40.65,34,67.9,7.85,21.62,15,46.66,21.73,76.54a.13.13,0,0,1-.1.16Z" transform="translate(0.45 -95.19)"/></g><g class="cls-12"><path class="cls-110" d="M800,307.7a.13.13,0,0,1-.13-.11c-7.41-29.32-14.65-52.77-22.8-73.79-10.25-26.41-21.59-48-34.65-65.83-15-20.52-32.42-36.05-51.79-46.15-21.71-11.33-46.69-16.3-74.24-14.78-25.1,1.38-77.33,4.26-118.58,74.77a309.18,309.18,0,0,0-16.14,31.46c-8.07,18.23-23.09,34.95-42.3,47.07a128.64,128.64,0,0,1-68.74,19.82h-.84C344,280,321.4,270,295.19,258.44c-4.06-1.8-8.26-3.65-12.53-5.49l-2.51-1.09c-30.09-13-64.2-27.72-108.82-31.74C119.68,215.47,63.66,226.22.05,253a.14.14,0,0,1-.18-.07.14.14,0,0,1,.08-.18c63.65-26.77,119.72-37.51,171.4-32.86,44.67,4,78.8,18.76,108.91,31.76l2.51,1.08c4.27,1.85,8.47,3.7,12.53,5.5,26.18,11.56,48.8,21.55,74.49,21.69h.84a128.27,128.27,0,0,0,68.59-19.78c19.17-12.1,34.15-28.77,42.19-47a309.94,309.94,0,0,1,16.17-31.49c17.64-30.16,39.44-51.39,64.79-63.08,21.79-10,42-11.16,54-11.83,27.61-1.52,52.63,3.46,74.38,14.81,19.42,10.13,36.87,25.69,51.89,46.24,13.08,17.9,24.43,39.46,34.68,65.89,8.16,21,15.41,44.49,22.81,73.83a.13.13,0,0,1-.1.16Z" transform="translate(0.45 -95.19)"/></g><g class="cls-14"><path class="cls-111" d="M800,304.26a.13.13,0,0,1-.13-.1c-11.78-42-29.16-95.31-59.24-134.93-15.17-20-32.67-35.17-52-45.12C667,113,642.11,107.92,614.81,109.18c-12.13.56-32.42,1.49-54.13,11.17a124,124,0,0,0-32.57,21.43c-11.71,10.58-22.48,24-32,39.88a317.1,317.1,0,0,0-16.45,31c-8.31,18.1-23.38,34.71-42.45,46.79a129.34,129.34,0,0,1-69.11,20.13h-.26c-25.61,0-48.31-9.78-74.59-21.11-3.91-1.68-8-3.43-12.07-5.16l-5.89-2.5c-30.08-12.75-64.17-27.2-108.18-31.33-50.93-4.78-105.57,5.33-167,30.91a.14.14,0,0,1-.18-.07A.15.15,0,0,1,0,250.1c61.51-25.59,116.19-35.71,167.17-30.93,44,4.14,78.16,18.6,108.25,31.36l5.9,2.49c4.11,1.74,8.16,3.48,12.07,5.17,26.25,11.31,48.93,21.08,74.49,21.08h.25a129.05,129.05,0,0,0,69-20.08c19-12.05,34.06-28.63,42.35-46.67a314.34,314.34,0,0,1,16.46-31c9.55-15.91,20.34-29.35,32.07-39.94a124.33,124.33,0,0,1,32.64-21.48c21.76-9.71,42.09-10.64,54.24-11.2,27.34-1.26,52.23,3.78,74,15,19.36,10,36.88,25.18,52.09,45.2,30.1,39.66,47.49,93,59.27,135a.13.13,0,0,1-.09.17Z" transform="translate(0.45 -95.19)"/></g><g class="cls-16"><path class="cls-112" d="M800,300.83a.15.15,0,0,1-.14-.1c-24.05-77.4-45.24-110.27-61-130.26-15.37-19.47-32.93-34.3-52.2-44.08-21.68-11-46.38-16.07-73.42-15.07-12.23.45-32.7,1.21-54.37,10.55a122.33,122.33,0,0,0-32.48,20.77c-11.67,10.27-22.44,23.35-32,38.87A314.8,314.8,0,0,0,477.62,212C469.06,230,453.93,246.47,435,258.51a130.14,130.14,0,0,1-68.64,20.43h-1.1c-25.26,0-47.89-9.52-74-20.51-3.75-1.58-7.62-3.21-11.56-4.83l-9.28-3.86c-30-12.54-64.08-26.75-107.47-31-50.19-4.93-103.46,4.56-162.86,29a.13.13,0,0,1-.18-.08A.13.13,0,0,1,0,247.5c59.43-24.47,112.75-34,163-29,43.43,4.26,77.5,18.48,107.55,31l9.28,3.86c3.94,1.62,7.81,3.25,11.56,4.83,26.13,11,48.74,20.49,73.94,20.49h1.1a129.9,129.9,0,0,0,68.49-20.39c18.87-12,34-28.49,42.5-46.39a315.3,315.3,0,0,1,16.76-30.52c9.59-15.54,20.38-28.64,32.07-38.94a122.63,122.63,0,0,1,32.56-20.81c21.72-9.36,42.22-10.12,54.47-10.58,27.09-1,51.84,4.08,73.56,15.11,19.31,9.8,36.9,24.66,52.29,44.16,13.3,16.85,25.1,37.1,36.09,61.93,8.49,19.17,16.43,40.91,25,68.42a.14.14,0,0,1-.1.17Z" transform="translate(0.45 -95.19)"/></g><g class="cls-18"><path class="cls-113" d="M800,297.4a.15.15,0,0,1-.14-.1c-14.37-41.78-33.07-89.38-62.8-125.6-15.56-18.95-33.19-33.44-52.4-43-21.67-10.84-46.24-16-73-15.19-13.14.37-33,.94-54.63,9.92a121,121,0,0,0-32.39,20.11c-11.63,10-22.39,22.71-32,37.86a321.21,321.21,0,0,0-17.05,30c-8.8,17.82-24,34.24-42.76,46.24a131.11,131.11,0,0,1-68.17,20.74c-25.69.5-48.78-9-75.51-19.92-3.56-1.46-7.25-3-11-4.48-4.14-1.66-8.27-3.37-12.65-5.17-30-12.36-64-26.37-106.71-30.77C109.36,212.92,57.44,221.81.05,245.16a.14.14,0,0,1-.18-.08.14.14,0,0,1,.08-.19c57.42-23.37,109.39-32.26,158.88-27.17,42.78,4.39,76.79,18.41,106.79,30.78,4.38,1.8,8.51,3.51,12.65,5.17,3.74,1.51,7.43,3,11,4.48,26.7,11,49.77,20.4,75.4,19.9a130.73,130.73,0,0,0,68-20.7c18.73-12,33.88-28.34,42.66-46.12a321.84,321.84,0,0,1,17.07-30c9.62-15.18,20.4-27.94,32.05-37.93a121.59,121.59,0,0,1,32.47-20.16c21.68-9,41.57-9.57,54.73-9.94,26.81-.76,51.42,4.36,73.14,15.22C704,138,721.7,152.53,737.28,171.52c29.76,36.26,48.48,83.88,62.86,125.69a.16.16,0,0,1-.09.18Z" transform="translate(0.45 -95.19)"/></g><g class="cls-20"><path class="cls-114" d="M800,294a.14.14,0,0,1-.14-.09c-27.4-72-48-101.56-64.59-121-15.75-18.44-33.45-32.58-52.61-42-21.66-10.68-46.09-15.82-72.58-15.29-27.07.54-77.46,1.55-119.16,65.6a320.3,320.3,0,0,0-17.35,29.53c-9.06,17.68-24.31,34-42.93,46a132,132,0,0,1-67.69,21c-25.71.73-49-8.57-75.94-19.34-3.36-1.34-6.83-2.73-10.35-4.12-5.22-2.05-10.46-4.19-16-6.46-29.9-12.21-63.8-26-105.89-30.58-48.65-5.25-99.26,3-154.7,25.33a.15.15,0,0,1-.19-.08.14.14,0,0,1,.09-.19C55.43,220,106.08,211.68,154.78,216.93c42.13,4.55,76.05,18.4,106,30.61,5.55,2.27,10.79,4.41,16,6.46,3.53,1.39,7,2.77,10.36,4.12,25.93,10.36,48.46,19.35,73,19.35.93,0,1.86,0,2.81,0a131.53,131.53,0,0,0,67.53-21c18.58-11.92,33.79-28.21,42.83-45.85A322,322,0,0,1,490.67,181c41.79-64.19,92.28-65.19,119.4-65.74,26.55-.53,51,4.63,72.72,15.33,19.19,9.46,36.92,23.62,52.7,42.1,13.49,15.78,25.76,34.76,37.51,58,11.3,22.35,20.44,45.43,27.14,63a.13.13,0,0,1-.09.18Z" transform="translate(0.45 -95.19)"/></g><g class="cls-22"><path class="cls-115" d="M800,290.53a.15.15,0,0,1-.14-.09c-29.22-69.49-49.17-97-66.38-116.32-16-17.93-33.73-31.73-52.82-41-21.65-10.51-45.94-15.69-72.16-15.38-13.39.15-33.64.39-55.14,8.65a118.84,118.84,0,0,0-32.22,18.79c-11.55,9.38-22.3,21.45-31.95,35.87a331.13,331.13,0,0,0-17.65,29c-9.32,17.56-24.62,33.78-43.08,45.68a132.93,132.93,0,0,1-67.21,21.35c-25.77.95-49.25-8.19-76.44-18.77q-4.74-1.85-9.65-3.74c-6.29-2.42-12.64-5-19.37-7.72-29.81-12.08-63.6-25.78-105-30.48C102.91,211,53.61,218.68.06,240a.16.16,0,0,1-.2-.09.15.15,0,0,1,.08-.19c53.61-21.29,103-29,150.87-23.57,41.46,4.71,75.27,18.41,105.1,30.5,6.72,2.73,13.07,5.31,19.35,7.72l9.66,3.74c27.16,10.57,50.61,19.7,76.31,18.75a132.7,132.7,0,0,0,67.07-21.3c18.41-11.87,33.68-28.05,43-45.57A326.14,326.14,0,0,1,489,180.89c9.66-14.45,20.43-26.55,32-35.94a118.93,118.93,0,0,1,32.31-18.84c21.55-8.28,41.82-8.51,55.24-8.67h2.2c25.43,0,49,5.18,70.09,15.42,19.13,9.29,36.93,23.11,52.91,41.07,29.15,32.77,49.16,75.31,66.44,116.4a.16.16,0,0,1-.08.2Z" transform="translate(0.45 -95.19)"/></g><g class="cls-24"><path class="cls-116" d="M800,287.1a.15.15,0,0,1-.14-.09c-17.21-37-38.1-79.26-68.18-111.71-16.38-17.67-33.73-30.74-53-40-21.45-10.26-45.36-15.45-71.06-15.45h-.67c-13.53.05-34,.12-55.41,8A117.29,117.29,0,0,0,519.38,146c-11.51,9.07-22.24,20.81-31.91,34.87a332.1,332.1,0,0,0-18,28.56c-9.59,17.43-24.95,33.56-43.25,45.4a133.9,133.9,0,0,1-66.73,21.65c-25.81,1.19-49.54-7.81-77-18.22l-8.87-3.35c-7.34-2.75-14.8-5.76-22.7-8.95-29.7-12-63.36-25.57-104.1-30.43-47.05-5.62-95.07,1.51-146.8,21.8a.16.16,0,0,1-.2-.09.16.16,0,0,1,.08-.2c51.79-20.3,99.86-27.44,147-21.81,40.78,4.87,74.46,18.46,104.18,30.45,7.89,3.19,15.35,6.2,22.68,8.94l8.88,3.35c27.44,10.41,51.14,19.39,76.88,18.21a133.63,133.63,0,0,0,66.59-21.6c18.25-11.82,33.57-27.91,43.14-45.3a332.54,332.54,0,0,1,18-28.58c9.69-14.09,20.44-25.84,32-34.94a118,118,0,0,1,32.22-18.18c21.48-7.92,42-8,55.52-8h.67c25.75,0,49.69,5.21,71.19,15.49,19.33,9.24,36.7,22.34,53.12,40,30.11,32.48,51,74.73,68.23,111.78a.15.15,0,0,1-.08.2Z" transform="translate(0.45 -95.19)"/></g><g class="cls-26"><path class="cls-117" d="M800,283.67a.17.17,0,0,1-.14-.09c-20.1-39.09-40.57-76.69-70-107.1-35.22-36.43-76-54.25-124.54-54.46-29.12-.12-77.85-.35-119.6,58.73-5.62,7.94-12.13,17.32-18.25,28.07-9.87,17.31-25.29,33.34-43.42,45.13a135.12,135.12,0,0,1-66.25,22c-25.88,1.42-49.88-7.44-77.67-17.69l-8-3c-8.38-3.06-16.94-6.51-26-10.16-59.56-24-133.68-53.83-246.09-10.36a.14.14,0,0,1-.2-.08.15.15,0,0,1,.08-.2C112.47,191,186.66,220.82,246.27,244.82c9.06,3.65,17.62,7.1,26,10.16,2.72,1,5.38,2,8,3C308,268.17,332,277,357.81,275.6a134.75,134.75,0,0,0,66.1-21.91c18.09-11.76,33.47-27.75,43.32-45,6.13-10.76,12.64-20.15,18.26-28.1,41.85-59.21,90.68-59,119.86-58.86,48.67.22,89.48,18.06,124.76,54.55,29.43,30.45,49.92,68.07,70,107.18a.15.15,0,0,1-.07.21Z" transform="translate(0.45 -95.19)"/></g><g class="cls-28"><path class="cls-118" d="M800,280.23a.17.17,0,0,1-.14-.08l0-.07c-19.21-33.74-41-72-71.76-102.47-35.71-35.38-76.37-52.86-124.29-53.45-14.65-.18-34.71-.43-56,6.73-24.65,8.31-45.52,24.57-63.79,49.71-6.1,8.39-12.56,17.43-18.55,27.59-10.15,17.19-25.62,33.12-43.58,44.85a136.27,136.27,0,0,1-65.77,22.26c-26,1.66-49.12-6.65-78.42-17.17l-7-2.53c-9.41-3.35-19.07-7.24-29.3-11.36C182.21,220.42,108.6,190.77.06,232.15a.16.16,0,0,1-.21-.09.16.16,0,0,1,.09-.2C108.6,190.44,182.28,220.11,241.48,244c10.22,4.11,19.88,8,29.28,11.36l7.05,2.52c29.27,10.51,52.38,18.82,78.29,17.16a136,136,0,0,0,65.62-22.21c17.91-11.71,33.36-27.6,43.48-44.75,6-10.17,12.46-19.22,18.57-27.62,18.31-25.19,39.22-41.49,63.94-49.82,21.3-7.17,41.4-6.93,56.07-6.75,48,.59,88.73,18.11,124.5,53.55,30.8,30.51,52.59,68.78,71.82,102.54l0,.07a.16.16,0,0,1-.06.21A.12.12,0,0,1,800,280.23Z" transform="translate(0.45 -95.19)"/></g><g class="cls-30"><path class="cls-119" d="M800,276.8a.16.16,0,0,1-.13-.08l-3.2-5.06c-19.77-31.35-42.17-66.89-72.88-95.21-35.6-32.82-75.37-49.23-121.59-50.15-14.82-.3-35.11-.71-56.26,6.09-24.54,7.87-45.36,23.59-63.64,48.06-5.58,7.46-12.52,16.74-18.85,27.1-10.44,17.08-26,32.91-43.75,44.58a137.47,137.47,0,0,1-65.29,22.56c-26.1,1.91-49.56-6.28-79.26-16.66l-6-2.09c-10.43-3.63-21.18-8-32.57-12.57C177.89,219.68,104.84,190.2.06,229.55a.15.15,0,0,1-.21-.09.17.17,0,0,1,.09-.21c104.91-39.39,178-9.88,236.77,13.83,11.38,4.59,22.14,8.93,32.55,12.56l6,2.08c29.67,10.37,53.12,18.56,79.14,16.65a137,137,0,0,0,65.13-22.51c17.74-11.64,33.24-27.43,43.66-44.47,6.33-10.37,13.28-19.67,18.86-27.14,18.33-24.51,39.19-40.27,63.8-48.17,21.2-6.81,41.52-6.4,56.36-6.1,46.31.92,86.15,17.36,121.81,50.24,30.74,28.34,53.15,63.9,72.93,95.27l3.19,5.06a.15.15,0,0,1,0,.22A.11.11,0,0,1,800,276.8Z" transform="translate(0.45 -95.19)"/></g><g class="cls-32"><path class="cls-120" d="M344.06,274.44c-22.95,0-44.76-7.42-71.59-16.54l-4.81-1.63c-11.43-3.88-23.28-8.68-35.81-13.76-29.06-11.77-62-25.12-100-30.71C88.18,205.36,45.05,210.32.06,227a.16.16,0,0,1-.21-.09.16.16,0,0,1,.09-.21C45,210,88.17,205,131.94,211.48c38,5.6,71,19,100,30.73,12.53,5.08,24.37,9.88,35.79,13.75l4.82,1.64c30.13,10.24,53.93,18.33,80.1,16.16,22.41-1.81,44.77-9.7,64.65-22.81a151.24,151.24,0,0,0,43.82-44.21c6.14-9.71,12.65-18.17,18.94-26.35l.22-.29c41.65-54.16,89-52.85,120.32-52,44.58,1.23,83.49,16.62,118.93,47,30.6,26.26,53.56,59.21,73.81,88.29q3.43,4.92,6.76,9.67a.16.16,0,0,1,0,.23.16.16,0,0,1-.22,0q-3.33-4.74-6.76-9.68c-20.25-29.06-43.19-62-73.76-88.23C684,145,645.13,129.66,600.62,128.44c-31.26-.86-78.5-2.17-120,51.85l-.22.29c-6.29,8.18-12.79,16.64-18.93,26.34a151.52,151.52,0,0,1-43.92,44.3c-19.92,13.14-42.33,21-64.79,22.86Q348.35,274.44,344.06,274.44Z" transform="translate(0.45 -95.19)"/></g><g class="cls-34"><path class="cls-121" d="M341.34,273.92c-22.81,0-44.76-7.26-71.66-16.16l-3.52-1.16c-12.43-4.1-25.35-9.37-39-15-28.84-11.76-61.54-25.09-98.81-30.88C85.45,204.12,43.49,208.56.06,224.35a.16.16,0,0,1-.21-.1A.16.16,0,0,1-.06,224c43.5-15.81,85.5-20.25,128.42-13.59,37.31,5.79,70,19.13,98.89,30.9,13.67,5.57,26.59,10.84,39,14.94l3.52,1.16c30.64,10.14,54.84,18.14,81.19,15.7,50.37-4.56,88.89-37.63,108.15-67,6-9.12,12.3-17.11,18.42-24.84l1-1.32c18.32-23.16,39.1-37.84,63.5-44.9,21-6,40.93-5.35,57-4.79,42.85,1.5,80.76,15.87,115.9,43.94,30.37,24.26,53.78,54.71,74.42,81.58,3.73,4.85,7.24,9.42,10.75,13.9a.16.16,0,0,1,0,.23.17.17,0,0,1-.23,0c-3.51-4.48-7-9.05-10.75-13.9-20.63-26.85-44-57.29-74.37-81.52-35.08-28-72.93-42.37-115.71-43.87-16-.56-35.94-1.26-56.86,4.78-24.34,7-45,21.68-63.33,44.78l-1.05,1.33c-6.12,7.72-12.44,15.71-18.4,24.81-19.3,29.49-57.92,62.63-108.4,67.2C347.75,273.78,344.54,273.92,341.34,273.92Z" transform="translate(0.45 -95.19)"/></g><g class="cls-36"><path class="cls-122" d="M338.59,273.41c-22.71,0-44.82-7.11-71.84-15.81l-2.09-.67c-13.42-4.31-27.42-10.06-42.23-16.15-28.63-11.76-61.08-25.09-97.64-31.07-42-6.87-82.81-2.93-124.73,12a.17.17,0,0,1-.22-.1.17.17,0,0,1,.1-.21c42-15,82.84-18.94,124.9-12.06,36.61,6,69.07,19.33,97.71,31.09,14.81,6.09,28.8,11.83,42.21,16.15l2.09.67c31.21,10,55.86,18,82.41,15.25,22.25-2.23,43.67-10.11,63.67-23.42a162.73,162.73,0,0,0,44.17-43.66c5.81-8.59,12-16.15,17.95-23.46l1.81-2.22C518.21,129,564,131,597.48,132.38c41.11,1.75,78,15.15,112.72,41C740.26,195.7,764,223.76,785,248.52c5.27,6.22,10.24,12.1,15.16,17.7a.17.17,0,1,1-.26.22C795,260.83,790,255,784.72,248.74,763.77,224,740,196,710,173.62c-34.68-25.78-71.49-39.16-112.53-40.9-33.38-1.42-79.1-3.36-120.35,47.27l-1.81,2.22c-6,7.31-12.13,14.86-17.94,23.44a162.65,162.65,0,0,1-44.26,43.74c-20,13.34-41.51,21.24-63.82,23.48A104.32,104.32,0,0,1,338.59,273.41Z" transform="translate(0.45 -95.19)"/></g><g class="cls-38"><path class="cls-123" d="M335.81,272.91c-22.64,0-45-7-72.16-15.49l-.49-.15c-14.41-4.51-29.47-10.76-45.41-17.37-28.39-11.77-60.56-25.11-96.42-31.29C80.18,201.52,40.51,205,.06,219.15a.18.18,0,0,1-.22-.1.18.18,0,0,1,.1-.22c40.51-14.2,80.24-17.65,121.44-10.55,35.9,6.19,68.09,19.53,96.5,31.31,15.94,6.61,31,12.85,45.38,17.35l.49.16c31.85,10,57,17.83,83.8,14.82,22-2.42,43.26-10.4,63.17-23.72a170.2,170.2,0,0,0,44.35-43.38c5.69-8.12,11.73-15.29,17.58-22.23l2.49-3c41.15-49.06,87-46.78,120.5-45.12l.27,0c88.53,4.4,141.59,61.39,184.22,107.18,7,7.47,13.54,14.54,20,21.08a.16.16,0,0,1,0,.24.18.18,0,0,1-.24,0c-6.46-6.55-13-13.61-20-21.09-42.59-45.75-95.59-102.68-184-107.07l-.27,0c-17.19-.85-36.69-1.82-57.39,3.52-24.08,6.21-44.63,19.78-62.83,41.48l-2.5,3c-5.84,6.94-11.87,14.11-17.55,22.21a170.58,170.58,0,0,1-44.44,43.47c-20,13.35-41.26,21.35-63.33,23.78A103.8,103.8,0,0,1,335.81,272.91Z" transform="translate(0.45 -95.19)"/></g><g class="cls-40"><path class="cls-124" d="M332.83,272.44c-22.4,0-44.43-6.7-71.17-14.84-15.38-4.68-31.5-11.44-48.56-18.59-28.14-11.79-60-25.15-95.18-31.53-40.29-7.31-78.84-4.34-117.86,9.07a.18.18,0,0,1-.22-.11.17.17,0,0,1,.1-.22C39,202.79,77.63,199.83,118,207.15c35.18,6.38,67.09,19.75,95.24,31.55,17.05,7.14,33.16,13.89,48.53,18.57,31.86,9.7,57,17.36,84.08,14,21.76-2.61,42.85-10.7,62.68-24a179.2,179.2,0,0,0,44.53-43.1c5.57-7.7,11.51-14.53,17.26-21.14,1-1.2,2.08-2.39,3.1-3.58,18.17-21,38.65-34.08,62.63-39.92,20.67-5,40.34-3.91,57.7-2.92l.59,0c84.57,4.82,137.78,56.86,180.54,98.67,8.81,8.61,17.13,16.75,25.24,24a.18.18,0,0,1,0,.25.17.17,0,0,1-.24,0c-8.12-7.27-16.45-15.41-25.26-24-42.71-41.77-95.88-93.75-180.32-98.56l-.59,0c-17.33-1-37-2.11-57.59,2.92-23.91,5.82-44.34,18.84-62.46,39.81-1,1.19-2.06,2.38-3.1,3.58-5.74,6.6-11.68,13.42-17.25,21.11a179.38,179.38,0,0,1-44.61,43.19c-19.87,13.36-41,21.46-62.83,24.08A106.64,106.64,0,0,1,332.83,272.44Z" transform="translate(0.45 -95.19)"/></g><g class="cls-42"><path class="cls-125" d="M330,272c-22.46,0-44.75-6.59-69.88-14-16.36-4.84-33.52-12.12-51.7-19.83-27.86-11.81-59.45-25.21-93.88-31.78-39.44-7.53-76.9-5-114.52,7.63a.18.18,0,0,1-.22-.11.16.16,0,0,1,.1-.22c37.69-12.68,75.21-15.18,114.7-7.64,34.47,6.58,66.08,20,94,31.8,18.17,7.71,35.32,15,51.66,19.82,30.34,9,56.54,16.72,83.86,13.1,56.57-7.37,93.6-49.43,106.9-67.17,5.49-7.32,11.34-13.83,17-20.13l3.67-4.09C489.75,159,510.11,146.5,533.92,141c20.59-4.71,40.39-3.44,57.87-2.31l1,.06c35.87,2.3,69.33,13,102.27,32.81,28.64,17.2,52.83,38.76,74.17,57.78,10.81,9.64,21,18.73,30.91,26.51a.17.17,0,0,1,0,.24.18.18,0,0,1-.25,0c-9.9-7.78-20.11-16.88-30.92-26.52-21.33-19-45.51-40.56-74.12-57.74-32.89-19.75-66.29-30.47-102.11-32.76l-1-.07c-17.45-1.12-37.24-2.39-57.77,2.31-23.74,5.44-44,17.92-62.05,38.16-1.22,1.36-2.44,2.73-3.68,4.1-5.65,6.29-11.49,12.79-17,20.1-13.33,17.78-50.44,59.92-107.13,67.31A108.46,108.46,0,0,1,330,272Z" transform="translate(0.45 -95.19)"/></g><g class="cls-44"><path class="cls-126" d="M327.06,271.52c-20.43,0-41.3-5.47-68.4-13.26-17.32-5-35.53-12.8-54.81-21.09-27.58-11.85-58.85-25.28-92.57-32-38.57-7.75-74.95-5.71-111.22,6.23a.18.18,0,0,1-.23-.12A.18.18,0,0,1-.06,211c36.34-11.95,72.78-14,111.41-6.24,33.76,6.78,65,20.22,92.64,32.08,19.27,8.28,37.47,16.1,54.77,21.07,33.86,9.74,58,15.84,83.65,12.17,21.27-3,42-11.28,61.69-24.64A199.81,199.81,0,0,0,449,202.89c5.42-7,11.2-13.21,16.79-19.23q2.12-2.26,4.18-4.51c40.39-44,84.44-40.85,119.84-38.33l1.39.1c34.13,2.43,66.37,12.37,98.53,30.37,28,15.67,52.12,35.3,73.41,52.62,12.94,10.53,25.16,20.48,37,28.54a.18.18,0,0,1,0,.24.19.19,0,0,1-.25.05c-11.82-8.07-24-18-37-28.56-21.28-17.31-45.39-36.93-73.36-52.59-32.12-18-64.3-27.89-98.39-30.31l-1.38-.1c-35.33-2.53-79.29-5.67-119.56,38.21q-2.07,2.25-4.18,4.51c-5.59,6-11.36,12.24-16.77,19.21a200.05,200.05,0,0,1-45,42.63c-19.72,13.39-40.52,21.7-61.84,24.7A108.06,108.06,0,0,1,327.06,271.52Z" transform="translate(0.45 -95.19)"/></g><g class="cls-46"><path class="cls-127" d="M324.2,271.07c-20.42,0-41.41-5.32-67-12.48-18.29-5.1-37.53-13.49-57.9-22.37C170.64,223.75,141,210.85,108,203.88c-37.71-7.95-73-6.36-108,4.87a.19.19,0,0,1-.22-.12A.18.18,0,0,1,0,208.4c35-11.24,70.39-12.84,108.16-4.87,33,7,62.65,19.88,91.29,32.36,20.36,8.88,39.59,17.26,57.85,22.36,32.54,9.08,57.58,15.21,83.45,11.23C392.56,261.64,429.54,224,447,202.25c5.35-6.67,11.07-12.63,16.61-18.39,1.56-1.63,3.12-3.25,4.66-4.87,17.83-18.84,37.9-30.27,61.36-35,20.39-4.08,40.46-2.5,58.16-1.11l1.85.15C622,145.59,653,154.77,684.3,171.11c27.28,14.24,51.24,32.06,72.37,47.78,15.22,11.31,29.59,22,43.42,30.11a.18.18,0,0,1-.18.31c-13.85-8.12-28.23-18.81-43.45-30.14-21.13-15.71-45.07-33.52-72.33-47.75-31.25-16.31-62.18-25.47-94.55-28l-1.85-.14c-17.68-1.39-37.72-3-58.06,1.1-23.38,4.68-43.39,16.08-61.17,34.87-1.54,1.62-3.1,3.24-4.66,4.87-5.53,5.75-11.25,11.7-16.59,18.36-17.47,21.79-54.52,59.5-106.49,67.36A108.7,108.7,0,0,1,324.2,271.07Z" transform="translate(0.45 -95.19)"/></g><g class="cls-48"><path class="cls-128" d="M321,270.67c-20,0-40.49-5-65.32-11.74-19.25-5.22-39.52-14.19-61-23.69C138.83,210.52,75.52,182.51.05,206.14A.18.18,0,0,1-.17,206,.18.18,0,0,1,0,205.8c75.6-23.68,139,4.37,194.88,29.11,21.44,9.49,41.7,18.46,60.92,23.67,32.25,8.73,57.1,14.59,83.24,10.28,47.92-7.75,84.07-40.85,106-67.25,5.31-6.4,11-12.11,16.49-17.64,1.67-1.68,3.41-3.42,5.08-5.14,17.69-18.11,37.61-29,60.89-33.33,20.29-3.77,40.47-2,58.27-.51l2.37.2c30.7,2.62,60.38,11.08,90.73,25.87,26.5,12.91,50.18,29,71.07,43.26,17.62,12,34.26,23.32,50.24,31.24a.18.18,0,0,1-.16.32c-16-7.92-32.65-19.26-50.28-31.26-20.88-14.22-44.55-30.33-71-43.23-30.3-14.77-59.94-23.22-90.6-25.84l-2.37-.2c-17.78-1.52-37.94-3.25-58.18.5-23.2,4.31-43.05,15.18-60.69,33.24-1.68,1.71-3.41,3.45-5.08,5.14-5.49,5.52-11.17,11.22-16.47,17.61-21.92,26.45-58.14,59.61-106.17,67.38A110.43,110.43,0,0,1,321,270.67Z" transform="translate(0.45 -95.19)"/></g><g class="cls-50"><path class="cls-129" d="M318,270.25c-20,0-40.44-4.84-63.84-11-20.21-5.31-41.5-14.89-64-25C135.07,209.47,72.69,181.41.05,203.54a.18.18,0,0,1-.23-.12.19.19,0,0,1,.13-.23C72.71,181,135.17,209.11,190.27,233.9c22.52,10.13,43.8,19.7,64,25,30.93,8.13,56.68,14,83,9.35,20.48-3.54,40.73-12.14,60.19-25.56,15.72-10.85,31-24.88,45.45-41.72,5.27-6.15,10.92-11.64,16.39-16.95,1.81-1.75,3.67-3.56,5.48-5.35,17.53-17.39,37.29-27.76,60.38-31.71,20.18-3.45,40.47-1.57,58.37.1l2.93.27c65.07,6,113.48,36.21,156.2,62.87,20.14,12.57,39.16,24.44,57.4,31.91a.19.19,0,0,1,.1.24.18.18,0,0,1-.24.1c-18.27-7.48-37.3-19.36-57.46-31.94-42.68-26.63-91.05-56.83-156-62.82l-2.93-.27c-18.75-1.74-38.14-3.55-58.27-.1-23,3.94-42.7,14.28-60.18,31.61-1.81,1.8-3.68,3.61-5.48,5.36-5.46,5.3-11.11,10.78-16.37,16.92-14.46,16.86-29.78,30.92-45.52,41.78-19.51,13.46-39.81,22.08-60.34,25.62A110.6,110.6,0,0,1,318,270.25Z" transform="translate(0.45 -95.19)"/></g><g class="cls-52"><path class="cls-130" d="M315,269.85c-19.93,0-40.31-4.66-62.3-10.26-21.17-5.39-43.48-15.6-67.09-26.4C131.36,208.38,69.92,180.27.05,200.94a.18.18,0,0,1-.23-.12.18.18,0,0,1,.13-.23c70-20.72,131.51,7.43,185.78,32.26,23.59,10.8,45.88,21,67,26.38,29.59,7.54,56.25,13.37,82.82,8.41,20.21-3.72,40.29-12.42,59.68-25.87,15.55-10.79,30.48-24.35,45.64-41.45,5.24-5.91,10.88-11.19,16.34-16.3,1.92-1.8,3.91-3.66,5.83-5.51,38.93-37.36,81.08-33.13,118.28-29.4l3.55.35c61.31,6.08,108.58,33.16,150.28,57.06,22.77,13,44.27,25.37,64.89,32.15a.19.19,0,0,1,.12.24.2.2,0,0,1-.24.12c-20.65-6.8-42.17-19.13-65-32.19-41.67-23.88-88.9-50.94-150.13-57l-3.55-.35c-37.11-3.72-79.18-7.94-118,29.3-1.93,1.85-3.92,3.71-5.84,5.52-5.45,5.1-11.08,10.37-16.31,16.27-15.18,17.12-30.13,30.7-45.7,41.5C376,255.55,355.9,264.28,335.63,268A112.36,112.36,0,0,1,315,269.85Z" transform="translate(0.45 -95.19)"/></g><g class="cls-54"><path class="cls-131" d="M311.68,269.54c-17.45,0-36.23-3.63-60.52-9.62C229,254.46,205.71,243.61,181,232.11c-53.35-24.85-113.83-53-181-33.77a.19.19,0,0,1-.23-.13A.19.19,0,0,1,0,198c67.29-19.29,127.83,8.91,181.25,33.79,24.66,11.49,48,22.33,70.05,27.79,34.76,8.57,58.22,12.3,82.6,7.47,19.94-3.89,39.85-12.7,59.19-26.19,15.1-10.54,30.1-24,45.83-41.16,5.22-5.7,10.86-10.79,16.31-15.71,2-1.83,4.12-3.73,6.16-5.61,38.48-35.74,80.59-31.21,117.75-27.21l4.23.45c57.6,6.1,103.53,30.31,144,51.66,25.5,13.44,49.58,26.13,72.68,32a.19.19,0,0,1,.13.23.19.19,0,0,1-.23.14c-23.14-5.86-47.24-18.56-72.76-32C686.7,182.26,640.8,158.07,583.28,152c-1.41-.14-2.82-.3-4.23-.45-37.07-4-79.1-8.5-117.46,27.11-2,1.89-4.13,3.79-6.16,5.62-5.44,4.92-11.07,10-16.28,15.69-15.75,17.18-30.77,30.66-45.9,41.21-19.37,13.52-39.33,22.35-59.32,26.25A113.68,113.68,0,0,1,311.68,269.54Z" transform="translate(0.45 -95.19)"/></g><g class="cls-56"><path class="cls-132" d="M308.55,269.18c-17.31,0-35.92-3.44-58.89-8.92s-47.41-17-73.14-29.27c-26.84-12.73-54.59-25.9-84-33.8-33.4-9-63.64-9.43-92.47-1.45a.18.18,0,0,1-.23-.13.2.2,0,0,1,.13-.24c28.89-8,59.2-7.53,92.67,1.46,29.44,7.9,57.21,21.07,84.06,33.82,25.72,12.2,50,23.73,73.07,29.23,33.63,8,57.89,11.67,82.39,6.54,45-9.3,79.59-40.9,104.7-67.38,5.22-5.51,10.87-10.42,16.32-15.17,2.13-1.85,4.32-3.76,6.45-5.67a105.16,105.16,0,0,1,58.7-26.94c19.82-2.53,39.47-.28,58.47,1.91l5,.56c54,6.09,98.37,27.66,137.56,46.68,28.31,13.75,55,26.73,80.73,31.38a.19.19,0,0,1-.06.38c-25.75-4.66-52.51-17.65-80.84-31.41-39.16-19-83.54-40.56-137.43-46.65l-5-.56c-19-2.18-38.59-4.44-58.37-1.91a104.72,104.72,0,0,0-58.49,26.84c-2.13,1.92-4.33,3.83-6.46,5.68-5.45,4.74-11.08,9.65-16.29,15.14-25.15,26.53-59.8,58.17-104.9,67.49A114.11,114.11,0,0,1,308.55,269.18Z" transform="translate(0.45 -95.19)"/></g><g class="cls-58"><path class="cls-133" d="M305.34,268.83c-17.15,0-35.52-3.25-57.18-8.24-24.07-5.56-49.37-17.8-76.16-30.76-26.44-12.79-53.78-26-82.46-34.08-32.53-9.14-61.81-10-89.49-2.61A.19.19,0,0,1-.19,193a.19.19,0,0,1,.14-.23c27.75-7.41,57.09-6.56,89.69,2.61,28.72,8.07,56.08,21.3,82.53,34.1,26.77,13,52.05,25.18,76.08,30.73,32.48,7.5,57.55,11.05,82.18,5.6,42.93-9.38,76.86-39.34,104.39-67.41,5.22-5.33,10.88-10.08,16.35-14.66,2.21-1.86,4.5-3.78,6.72-5.7A103.74,103.74,0,0,1,516,152.66c19.68-2.23,39.38.18,58.43,2.51l5.77.7c50.38,6,93.11,25.19,130.81,42.09,31.19,14,60.66,27.19,89,30.39a.19.19,0,0,1,.17.21.18.18,0,0,1-.21.17c-28.45-3.2-57.94-16.42-89.16-30.42-37.67-16.89-80.37-36-130.7-42.06l-5.76-.7c-19-2.32-38.71-4.73-58.34-2.51a103.34,103.34,0,0,0-57.88,25.29c-2.22,1.93-4.51,3.85-6.72,5.7-5.46,4.58-11.11,9.32-16.33,14.64-27.56,28.11-61.55,58.12-104.58,67.51A115.29,115.29,0,0,1,305.34,268.83Z" transform="translate(0.45 -95.19)"/></g><g class="cls-60"><path class="cls-134" d="M301.87,268.56c-16.68,0-34.44-3-55.21-7.64-25-5.59-51.33-18.56-79.17-32.3-26-12.84-52.93-26.12-80.89-34.35-31.67-9.32-60-10.54-86.55-3.73a.2.2,0,0,1-.24-.14.2.2,0,0,1,.14-.24c26.64-6.83,55-5.6,86.76,3.74,28,8.23,54.92,21.52,81,34.37C195.48,242,221.74,255,246.75,260.54c32.17,7.17,57.11,10.45,82,4.65,42.94-9.89,76.24-40,104.07-67.44,5.24-5.16,10.93-9.75,16.42-14.19,2.29-1.85,4.66-3.76,7-5.68,37-31,77.06-25.76,115.81-20.73,2.22.29,4.43.58,6.63.85,46.88,5.94,87.77,22.91,123.84,37.87,34.14,14.17,66.39,27.55,97.57,29a.21.21,0,0,1,.19.21.19.19,0,0,1-.21.18c-31.25-1.49-63.53-14.88-97.7-29.06-36-15-76.91-31.92-123.74-37.85l-6.63-.85c-38.66-5-78.64-10.21-115.5,20.64-2.31,1.93-4.67,3.84-7,5.68-5.49,4.44-11.17,9-16.39,14.17-27.88,27.48-61.22,57.63-104.26,67.55A117.91,117.91,0,0,1,301.87,268.56Z" transform="translate(0.45 -95.19)"/></g><g class="cls-62"><path class="cls-135" d="M298.51,268.26c-16.46,0-33.88-2.82-53.35-7-26-5.6-53.3-19.34-82.17-33.88-25.59-12.9-52.06-26.23-79.3-34.62-30.8-9.48-58.16-11.05-83.64-4.81a.19.19,0,0,1-.24-.15.2.2,0,0,1,.14-.24c25.55-6.26,53-4.68,83.86,4.83,27.26,8.39,53.75,21.73,79.36,34.63,28.85,14.54,56.09,28.26,82.08,33.85,31,6.67,56.76,9.86,81.76,3.72,40.82-9.9,72.37-37.56,103.76-67.47a212.72,212.72,0,0,1,16.52-13.76c2.35-1.83,4.78-3.72,7.15-5.63,36.44-29.41,76.39-23.92,115-18.61l7.56,1c43.46,5.8,82.36,20.78,116.69,34C730.84,208.44,765.94,222,800,221.47h0a.2.2,0,1,1,0,.4c-34.17.46-69.27-13.05-106.44-27.36-34.3-13.21-73.18-28.18-116.59-34-2.51-.33-5-.68-7.56-1C530.86,154.21,491,148.73,454.69,178c-2.37,1.91-4.81,3.8-7.16,5.63C442,188,436.29,192.4,431,197.4,399.62,227.34,368,255.05,327.1,265A119.16,119.16,0,0,1,298.51,268.26Z" transform="translate(0.45 -95.19)"/></g><g class="cls-64"><path class="cls-136" d="M295,268c-15.93,0-32.68-2.59-51.3-6.46-27-5.6-55.26-20.13-85.16-35.52-25.16-12.94-51.17-26.33-77.68-34.86-29.94-9.64-56.36-11.56-80.77-5.86a.21.21,0,0,1-.25-.15A.21.21,0,0,1,0,185c24.49-5.72,51-3.8,81,5.87,26.53,8.54,52.56,21.93,77.73,34.88,29.88,15.38,58.1,29.9,85.07,35.49,30.7,6.37,56.32,9.28,81.54,2.78,41.7-10.63,74.14-40.5,102.76-66.86l.69-.64A209.22,209.22,0,0,1,445.4,183.1c2.4-1.79,4.89-3.65,7.32-5.54,35.87-27.88,75.67-22.1,114.17-16.52l8.56,1.23c40.11,5.64,75.32,18.25,109.36,30.46,40.16,14.39,78.1,28,115.18,25.3a.21.21,0,0,1,0,.41c-37.16,2.69-75.13-10.93-115.34-25.34-34-12.19-69.2-24.8-109.28-30.43l-8.56-1.23C528.42,155.87,488.7,150.1,453,177.88c-2.43,1.89-4.92,3.75-7.32,5.55A204.3,204.3,0,0,0,429,196.77l-.69.63c-28.66,26.39-61.14,56.31-102.93,67A121,121,0,0,1,295,268Z" transform="translate(0.45 -95.19)"/></g><g class="cls-66"><path class="cls-137" d="M291.4,267.85c-15.38,0-31.46-2.38-49.24-5.93-28-5.6-57.23-21-88.16-37.22-50-26.3-101.74-53.5-154-42a.22.22,0,0,1-.24-.16.21.21,0,0,1,.16-.24c52.35-11.56,104.14,15.66,154.23,42,30.9,16.24,60.09,31.59,88.05,37.18,42.07,8.4,62.95,6.81,81.34,1.84,39.28-10.51,70.52-38.41,98.09-63l5.05-4.5a202.27,202.27,0,0,1,16.82-13c2.45-1.76,5-3.58,7.45-5.43C486.26,151,525.91,157.09,564.25,163q4.82.75,9.63,1.46c36.84,5.43,69.91,16.5,101.89,27.2,43.21,14.47,84,28.14,124.2,23a.2.2,0,0,1,.23.17.19.19,0,0,1-.17.23c-40.27,5.16-81.13-8.52-124.39-23-32-10.7-65-21.77-101.82-27.19-3.21-.47-6.42-1-9.63-1.45-38.26-5.86-77.82-11.91-113,14.37-2.48,1.85-5,3.67-7.46,5.43a204.11,204.11,0,0,0-16.79,13l-5.05,4.5c-27.6,24.65-58.88,52.59-98.25,63.12A122.22,122.22,0,0,1,291.4,267.85Z" transform="translate(0.45 -95.19)"/></g><g class="cls-68"><path class="cls-138" d="M288.19,267.62c-13.53,0-28.87-1.78-47.53-5.37-29-5.58-59.2-21.8-91.16-39C100.56,197,50,169.76,0,180.14A.21.21,0,0,1-.2,180a.22.22,0,0,1,.16-.25C50,169.33,100.69,196.57,149.7,222.91c31.92,17.16,62.08,33.37,91,38.93,35.68,6.86,59.18,7.12,81.13.91,37.07-10.4,65.83-35.41,93.64-59.61,3-2.62,6.14-5.34,9.18-8a201.28,201.28,0,0,1,17-12.66c2.47-1.71,5-3.47,7.54-5.27,15.55-11.18,33.4-17,54.56-17.9,18.87-.77,38.61,2.41,57.7,5.48,3.53.57,7.18,1.16,10.77,1.71,33.66,5.2,64.5,14.88,94.32,24.24,46.27,14.53,90,28.25,133.34,20.38a.21.21,0,0,1,.24.17.21.21,0,0,1-.16.24c-43.46,7.88-87.22-5.86-133.55-20.4-29.8-9.36-60.62-19-94.25-24.22-3.59-.55-7.24-1.14-10.77-1.71-19.07-3.07-38.79-6.24-57.62-5.47-21.08.85-38.86,6.68-54.34,17.81-2.51,1.8-5.07,3.57-7.55,5.28a198.88,198.88,0,0,0-17,12.64c-3,2.61-6.16,5.33-9.18,7.95-27.84,24.23-56.64,49.28-93.8,59.69A121.5,121.5,0,0,1,288.19,267.62Z" transform="translate(0.45 -95.19)"/></g><g class="cls-70"><path class="cls-139" d="M284.59,267.48c-13,0-27.75-1.64-45.42-4.9-30-5.55-61.19-22.67-94.17-40.8-47.84-26.3-97.3-53.49-145-44.24a.21.21,0,0,1-.24-.17.2.2,0,0,1,.16-.24c47.8-9.28,97.34,18,145.24,44.29,33,18.11,64.06,35.21,94,40.75,35.35,6.53,58.79,6.52,80.92,0,35-10.28,62.67-33.78,89.39-56.51,4.31-3.67,8.76-7.46,13.12-11.08A193.73,193.73,0,0,1,440,182.18c2.48-1.65,5.06-3.35,7.58-5.09,15.27-10.54,32.86-15.92,53.78-16.47,18.68-.49,38.37,2.84,57.42,6.06,3.93.67,8,1.35,12,2,30.54,4.92,59.06,13.36,86.64,21.51,49.34,14.59,95.93,28.37,142.58,17.54a.21.21,0,1,1,.1.4c-46.76,10.86-93.41-2.94-142.8-17.54-27.56-8.15-56.07-16.58-86.59-21.5-4-.64-8.06-1.33-12-2-19-3.21-38.71-6.54-57.34-6.05-20.83.54-38.35,5.9-53.55,16.39-2.53,1.74-5.1,3.45-7.59,5.1a191.39,191.39,0,0,0-17.25,12.33c-4.36,3.62-8.81,7.41-13.12,11.08-26.75,22.75-54.41,46.29-89.54,56.59A122.72,122.72,0,0,1,284.59,267.48Z" transform="translate(0.45 -95.19)"/></g><g class="cls-72"><path class="cls-140" d="M280.88,267.3c-12.64,0-26.75-1.47-43.21-4.39-31.08-5.5-63.19-23.56-97.17-42.68C93.79,194,45.49,166.78,0,174.94a.22.22,0,0,1-.25-.17.22.22,0,0,1,.17-.25c45.6-8.18,94,19,140.74,45.34,34,19.1,66,37.14,97,42.64,34.57,6.12,58.71,5.83,80.71-1,33.17-10.17,59.68-32.31,85.32-53.71,5.53-4.62,11.25-9.4,16.88-13.91a188.19,188.19,0,0,1,17.59-12.09c2.48-1.58,5.05-3.21,7.58-4.88,33.35-22,70.61-15.43,110.06-8.43,4.34.77,8.84,1.57,13.28,2.31,27.5,4.63,53.63,11.95,78.9,19,52.38,14.66,101.86,28.51,151.88,14.46a.2.2,0,0,1,.26.15.22.22,0,0,1-.14.26c-50.14,14.07-99.68.21-152.12-14.47-25.25-7.07-51.37-14.38-78.85-19-4.44-.75-8.94-1.54-13.29-2.32-39.36-7-76.54-13.58-109.75,8.37-2.53,1.67-5.1,3.31-7.59,4.88a192.67,192.67,0,0,0-17.55,12.07c-5.62,4.51-11.34,9.28-16.87,13.9-25.68,21.43-52.22,43.6-85.47,53.8A125.45,125.45,0,0,1,280.88,267.3Z" transform="translate(0.45 -95.19)"/></g><g class="cls-74"><path class="cls-141" d="M277.23,267.21c-12.12,0-25.54-1.33-41.06-4C204,257.79,169.44,237.86,136,218.6,90.43,192.36,43.32,165.23,0,172.34a.23.23,0,0,1-.24-.18.22.22,0,0,1,.18-.25c43.44-7.13,90.61,20,136.23,46.32,33.42,19.25,68,39.15,100,44.6,34.27,5.81,58.34,5.24,80.49-1.92,31.43-10.06,56.85-31,81.43-51.16,6.68-5.5,13.6-11.18,20.46-16.49a191.55,191.55,0,0,1,17.95-11.86c2.47-1.49,5-3,7.53-4.63,32.67-20.66,69.67-13.77,108.84-6.49,4.79.89,9.74,1.81,14.64,2.67,24.55,4.3,48.22,10.61,71.12,16.71,55.4,14.76,107.73,28.7,161.23,11.19a.22.22,0,0,1,.27.14.21.21,0,0,1-.13.27c-53.63,17.55-106,3.59-161.48-11.19-22.89-6.1-46.55-12.4-71.08-16.7-4.91-.86-9.86-1.78-14.65-2.67-39.09-7.27-76-14.13-108.53,6.43-2.52,1.59-5.07,3.14-7.54,4.64a189.31,189.31,0,0,0-17.91,11.82c-6.86,5.31-13.77,11-20.45,16.49-24.62,20.23-50.07,41.15-81.57,51.24A126.35,126.35,0,0,1,277.23,267.21Z" transform="translate(0.45 -95.19)"/></g><g class="cls-76"><path class="cls-142" d="M273.6,267.14a243.66,243.66,0,0,1-38.93-3.56c-33.19-5.39-68.79-26.39-103.21-46.69C87.09,190.72,41.21,163.66,0,169.73a.2.2,0,0,1-.24-.18.21.21,0,0,1,.18-.24c41.33-6.1,87.27,21,131.71,47.21,34.39,20.28,69.95,41.25,103.06,46.63,34,5.52,58,4.67,80.28-2.85,29.79-10,54.14-29.72,77.7-48.83,7.77-6.3,15.81-12.83,23.88-18.86A189.58,189.58,0,0,1,435,181c2.41-1.41,4.91-2.86,7.39-4.35,32-19.3,68.68-12.15,107.54-4.59,5.26,1,10.69,2.08,16.09,3.07,21.65,3.94,42.82,9.35,63.29,14.57,58.4,14.9,113.55,29,170.62,7.76a.22.22,0,0,1,.28.13.21.21,0,0,1-.12.27c-57.21,21.27-112.42,7.18-170.88-7.74-20.47-5.22-41.63-10.62-63.27-14.57-5.4-1-10.83-2-16.09-3.07-38.78-7.55-75.41-14.68-107.24,4.54-2.48,1.49-5,3-7.39,4.35A188.28,188.28,0,0,0,416.86,193c-8.07,6-16.1,12.54-23.87,18.85-23.58,19.13-48,38.92-77.83,48.9A127.15,127.15,0,0,1,273.6,267.14Z" transform="translate(0.45 -95.19)"/></g><g class="cls-78"><path class="cls-143" d="M270,267.11a241.3,241.3,0,0,1-36.81-3.2c-34.27-5.32-70.86-27.43-106.25-48.81-21.64-13.08-44-26.61-65.35-35.9C37.7,168.8,17.57,164.85,0,167.13A.22.22,0,0,1-.22,167,.23.23,0,0,1,0,166.7c17.63-2.29,37.83,1.66,61.77,12.1,21.36,9.3,43.75,22.84,65.41,35.92,35.35,21.37,71.9,43.45,106.09,48.76,33.67,5.22,57.62,4.09,80.07-3.79,28.26-9.84,51.57-28.57,74.12-46.68,8.8-7.07,17.89-14.37,27.14-21a188.71,188.71,0,0,1,18.92-11.49c2.34-1.3,4.76-2.65,7.16-4,31.27-18,67.66-10.57,106.18-2.73,5.75,1.17,11.69,2.38,17.61,3.5,18.82,3.57,37.45,8.15,55.46,12.59,61.33,15.09,119.27,29.35,180,4.17a.22.22,0,0,1,.28.12.22.22,0,0,1-.12.29c-60.88,25.23-118.88,11-180.28-4.16-18-4.43-36.63-9-55.45-12.58-5.92-1.12-11.86-2.33-17.61-3.5-38.44-7.83-74.74-15.22-105.87,2.68-2.4,1.38-4.83,2.73-7.17,4a186.66,186.66,0,0,0-18.87,11.47c-9.24,6.66-18.34,14-27.13,21-22.57,18.13-45.92,36.88-74.25,46.75C300.06,264.8,286.15,267.11,270,267.11Z" transform="translate(0.45 -95.19)"/></g><g class="cls-80"><path class="cls-144" d="M266.09,267a235.66,235.66,0,0,1-34.42-2.8c-35.37-5.23-72.95-28.51-109.3-51C78.52,186.05,37.11,160.4,0,164.53a.22.22,0,0,1-.24-.19.23.23,0,0,1,.2-.25c37.23-4.15,78.71,21.55,122.62,48.75,36.31,22.49,73.85,45.75,109.13,51,33,4.87,57.58,3.41,79.87-4.73,26.82-9.73,49.12-27.51,70.69-44.7,9.76-7.77,19.84-15.81,30.26-23A189.93,189.93,0,0,1,432.1,180c2.23-1.18,4.54-2.41,6.83-3.66,30.55-16.7,66.58-9,104.73-.92,6.26,1.34,12.73,2.71,19.2,4,16.07,3.16,32.12,7,47.64,10.71,64.22,15.35,124.88,29.86,189.41.48a.22.22,0,0,1,.18.4c-29.46,13.41-59.73,18.66-95.28,16.51-31.39-1.89-62-9.21-94.41-17-15.52-3.71-31.57-7.55-47.62-10.71-6.47-1.28-12.95-2.65-19.21-4-38.06-8.1-74-15.75-104.43.87-2.29,1.25-4.6,2.48-6.83,3.66a188.07,188.07,0,0,0-19.51,11.35c-10.4,7.23-20.48,15.26-30.23,23-21.6,17.22-43.93,35-70.82,44.77C297.9,264.55,283.15,267,266.09,267Z" transform="translate(0.45 -95.19)"/></g><g class="cls-82"><path class="cls-145" d="M262.48,267.06a232.25,232.25,0,0,1-32.31-2.49c-36.5-5.13-75.07-29.63-112.37-53.33C75.28,184.23,35.11,158.72,0,161.93a.22.22,0,0,1-.24-.2.22.22,0,0,1,.2-.24c35.26-3.23,75.47,22.32,118.06,49.37,37.26,23.67,75.79,48.15,112.19,53.27,32.68,4.6,57.24,2.85,79.65-5.66,25.47-9.62,46.8-26.52,67.43-42.87,10.65-8.44,21.66-17.17,33.22-24.91a189.9,189.9,0,0,1,20.32-11.32c2.1-1.06,4.22-2.13,6.36-3.24,29.83-15.45,65.47-7.53,103.21.85,6.8,1.51,13.82,3.07,20.87,4.51,13.36,2.73,26.81,5.88,39.83,8.93,32.21,7.54,65.52,15.35,98.44,16.82,36.8,1.64,69.63-4.93,100.34-20.12a.22.22,0,0,1,.3.1.23.23,0,0,1-.1.3c-30.79,15.22-63.68,21.82-100.56,20.17-33-1.48-66.29-9.29-98.52-16.84-13-3-26.47-6.2-39.82-8.92-7.05-1.44-14.08-3-20.88-4.51-37.65-8.37-73.22-16.27-102.91-.89q-3.2,1.65-6.35,3.24a188.91,188.91,0,0,0-20.28,11.29c-11.55,7.73-22.55,16.45-33.2,24.89-20.65,16.37-42,33.3-67.54,42.93C295.6,264.37,280.27,267.06,262.48,267.06Z" transform="translate(0.45 -95.19)"/></g><g class="cls-84"><path class="cls-146" d="M258.92,267.1a229.79,229.79,0,0,1-30.25-2.19c-37.65-5-77.21-30.81-115.46-55.75C72.05,182.34,33.17,157,0,159.33a.22.22,0,0,1-.25-.21.24.24,0,0,1,.21-.24c33.31-2.34,72.25,23,113.47,49.9,38.22,24.91,77.73,50.66,115.28,55.68,32.41,4.33,56.91,2.29,79.44-6.6,24.19-9.5,43.67-24.89,64.29-41.18,11.49-9.07,23.36-18.45,36-26.64,6.63-4.27,13.76-7.69,21.3-11.32,1.88-.9,3.78-1.81,5.69-2.75,29.1-14.24,64.33-6.08,101.62,2.57,7.35,1.7,14.95,3.47,22.61,5.09,10.7,2.26,21.55,4.77,32,7.2,33.4,7.73,67.94,15.72,102.42,16.78,38.64,1.2,73.21-6.63,105.7-23.93a.23.23,0,1,1,.22.4c-32.57,17.33-67.21,25.18-105.93,24C659.65,207,625.09,199,591.66,191.27c-10.49-2.43-21.34-4.94-32-7.2C552,182.45,544.36,180.68,537,179c-37.22-8.63-72.37-16.78-101.32-2.6L430,179.13c-7.53,3.62-14.65,7-21.25,11.29-12.67,8.18-24.53,17.55-36,26.61-20.65,16.32-40.15,31.73-64.41,41.25C293.31,264.21,277.42,267.1,258.92,267.1Z" transform="translate(0.45 -95.19)"/></g><g class="cls-86"><path class="cls-147" d="M255.4,267.16a223,223,0,0,1-28.23-1.92c-38.83-4.91-79.37-32-118.58-58.27C68.82,180.37,31.27,155.25,0,156.73a.22.22,0,0,1-.24-.22.22.22,0,0,1,.22-.23c31.41-1.5,69,23.67,108.85,50.31,39.17,26.21,79.67,53.3,118.39,58.2,32.15,4.06,56.59,1.74,79.23-7.55,23-9.37,41.6-24.05,61.3-39.6C380,208,392.68,198,406.48,189.4c7-4.33,14.53-7.77,22.52-11.41l4.77-2.18c28.37-13.07,61.54-5.05,100,4.24,7.93,1.91,16.13,3.9,24.42,5.71,8.1,1.77,16.34,3.67,24.31,5.51,34.53,8,70.23,16.2,106.28,16.87,40.49.75,76.84-8.38,111.16-27.89a.22.22,0,0,1,.31.08.23.23,0,0,1-.09.31c-34.39,19.56-70.83,28.69-111.39,28-36.1-.66-71.82-8.9-106.37-16.87-8-1.84-16.21-3.74-24.3-5.51-8.3-1.82-16.5-3.8-24.43-5.72-38.33-9.27-71.44-17.27-99.66-4.26l-4.77,2.17c-8,3.64-15.52,7.07-22.47,11.39C392.94,198.35,380.28,208.34,368,218c-19.73,15.56-38.36,30.27-61.41,39.67C291,264.06,274.6,267.16,255.4,267.16Z" transform="translate(0.45 -95.19)"/></g><g class="cls-88"><path class="cls-148" d="M251.93,267.25a220.81,220.81,0,0,1-26.26-1.68c-40-4.78-81.57-33.31-121.73-60.9C65.6,178.33,29.37,153.43,0,154.13a.23.23,0,0,1-.24-.23.23.23,0,0,1,.22-.23h1.2c29.31,0,65.12,24.6,103,50.63,40.12,27.56,81.6,56,121.53,60.82,31.91,3.82,56.28,1.2,79-8.48,21.85-9.25,39.63-23.28,58.45-38.14,13-10.24,26.37-20.82,41.27-29.73,7.43-4.44,15.54-7.93,24.12-11.61l3.46-1.5c27.65-11.94,60.36-3.7,98.23,5.85,8.53,2.15,17.34,4.37,26.3,6.4,5.52,1.25,11.16,2.56,16.61,3.82,71.73,16.65,145.89,33.86,226.7-14.91a.23.23,0,1,1,.24.4c-81,48.87-155.23,31.63-227,15-5.45-1.27-11.09-2.57-16.61-3.82-9-2-17.78-4.26-26.31-6.41-37.79-9.52-70.43-17.75-97.93-5.86l-3.47,1.49c-8.57,3.68-16.66,7.16-24.07,11.59-14.87,8.89-28.26,19.46-41.22,29.69-18.84,14.88-36.64,28.93-58.55,38.21C288.77,263.93,271.81,267.25,251.93,267.25Z" transform="translate(0.45 -95.19)"/></g><g class="cls-90"><path class="cls-149" d="M248.51,267.36a217.39,217.39,0,0,1-24.33-1.46c-41.29-4.64-83.81-34.65-124.93-63.67-36.87-26-71.7-50.61-99.25-50.7a.23.23,0,0,1-.23-.24.23.23,0,0,1,.23-.23H0c27.7.09,62.59,24.72,99.52,50.79,41.07,29,83.54,59,124.71,63.59,31.67,3.56,56,.66,78.8-9.42,20.77-9.13,37.75-22.56,55.72-36.78,13.62-10.78,27.71-21.93,43.68-31.12,8.05-4.63,16.91-8.2,26.29-12l1.6-.64c26.92-10.86,59.14-2.4,96.44,7.39,9.14,2.4,18.58,4.88,28.24,7.14l9,2.11C600.38,200.73,638,209.6,677,209.6h.43c44.23-.07,84.27-11.92,122.41-36.22a.23.23,0,1,1,.24.39c-38.21,24.35-78.33,36.22-122.65,36.3H677c-39.07,0-76.74-8.88-113.18-17.48l-9-2.11c-9.66-2.26-19.11-4.74-28.25-7.14-37.22-9.77-69.37-18.21-96.14-7.41l-1.61.64c-9.36,3.78-18.21,7.34-26.22,12-15.95,9.17-30,20.31-43.63,31.08-18,14.24-35,27.7-55.82,36.85C286.53,263.82,269.05,267.36,248.51,267.36Z" transform="translate(0.45 -95.19)"/></g><g class="cls-92"><path class="cls-150" d="M245.14,267.49a212.6,212.6,0,0,1-22.46-1.26c-42.58-4.49-88-37.47-128.15-66.58C59.16,174,25.76,149.75,0,148.93a.25.25,0,0,1-.23-.24.27.27,0,0,1,.25-.23c25.91.82,59.37,25.1,94.8,50.81,40.06,29.07,85.47,62,127.92,66.5,31.44,3.31,55.68.12,78.59-10.36,19.76-9,36-21.88,53.12-35.52,14.22-11.3,28.92-23,46-32.41,8.23-4.55,16.88-7.91,28.19-12.14,26.2-9.82,57.9-1.15,94.59,8.89,9.77,2.67,19.86,5.43,30.23,7.94l1.39.33c37.43,9.05,76.16,18.44,116.85,18,46.13-.43,88.07-13.71,128.21-40.59a.24.24,0,0,1,.33.07.23.23,0,0,1-.07.32c-40.22,26.94-82.24,40.24-128.46,40.67h-2.43c-39.89,0-77.83-9.17-114.54-18l-1.39-.34c-10.38-2.51-20.47-5.27-30.24-7.94-36.62-10-68.25-18.66-94.3-8.9-11.3,4.23-19.93,7.57-28.13,12.11-17,9.4-31.7,21.08-45.91,32.37-17.18,13.65-33.41,26.55-53.22,35.58C284.29,263.72,266.33,267.49,245.14,267.49Z" transform="translate(0.45 -95.19)"/></g><g class="cls-94"><path class="cls-151" d="M241.35,267.61c-6.45,0-13.16-.35-20.17-1-43.9-4.33-90.4-39-131.41-69.65C56,171.68,24,147.84,0,146.33a.24.24,0,0,1-.22-.26.24.24,0,0,1,.26-.22c24.15,1.52,56.15,25.4,90,50.69,41,30.58,87.41,65.24,131.17,69.55,30.81,3,55.72-.55,78.38-11.29,18.8-8.88,34.27-21.25,50.65-34.34,14.77-11.81,30-24,48.14-33.63,9-4.78,19-8.38,28.49-11.65,25.49-8.81,56.64.06,92.7,10.32,10.4,3,21.15,6,32.27,8.8,40.47,10.11,77.24,18.38,117.29,17.21,46.7-1.36,89.46-16.08,130.72-45a.23.23,0,0,1,.33.06.24.24,0,0,1-.05.33c-41.34,29-84.19,43.72-131,45.08-40.11,1.18-76.91-7.1-117.41-17.22-11.13-2.77-21.89-5.84-32.29-8.8-36-10.24-67.07-19.09-92.41-10.33-9.47,3.27-19.46,6.86-28.43,11.62-18.06,9.59-33.31,21.79-48.06,33.58-16.4,13.11-31.89,25.5-50.74,34.4C282.22,263.56,263.3,267.61,241.35,267.61Z" transform="translate(0.45 -95.19)"/></g><g class="cls-96"><path class="cls-152" d="M238.1,267.78c-5.92,0-12-.3-18.42-.88C174.4,262.74,126.88,226.24,85,194c-33.63-25.84-62.67-48.15-85-50.31a.24.24,0,0,1-.22-.26.24.24,0,0,1,.26-.21c22.44,2.16,51.53,24.52,85.22,50.39,41.88,32.18,89.34,68.64,134.48,72.78,30.61,2.81,55.44-1.08,78.17-12.23,17.89-8.76,32.66-20.65,48.3-33.25,15.26-12.28,31-25,50.17-34.75,9.4-4.79,19.84-8.34,28.8-11.17,24.79-7.84,55.36,1.21,90.75,11.7,11.05,3.27,22.48,6.66,34.37,9.72,34.54,8.9,74.92,18.21,117.09,16,47-2.42,90.33-18.58,132.49-49.41a.25.25,0,0,1,.33.05.24.24,0,0,1-.05.34c-42.24,30.88-85.66,47.07-132.75,49.5-42.23,2.17-82.66-7.15-117.23-16.06-11.9-3.06-23.33-6.45-34.39-9.72-35.31-10.47-65.81-19.5-90.46-11.7-8.95,2.83-19.36,6.36-28.73,11.14-19.09,9.73-34.85,22.42-50.09,34.7-15.66,12.61-30.45,24.52-48.39,33.3S260.64,267.78,238.1,267.78Z" transform="translate(0.45 -95.19)"/></g><g class="cls-98"><path class="cls-153" d="M234.91,268q-8.08,0-16.73-.74c-46.71-4-95.27-42.39-138.11-76.29C48.16,165.69,20.59,143.88,0,141.12a.24.24,0,0,1-.21-.27.24.24,0,0,1,.27-.21c20.76,2.77,48.37,24.62,80.35,49.92,42.78,33.86,91.27,72.23,137.84,76.19,30.41,2.58,55.18-1.6,78-13.17,17-8.63,31.13-20.09,46.06-32.22,15.7-12.76,31.94-26,52.1-35.81,7.9-3.86,17.14-7.26,29.1-10.69,24.11-6.92,54.08,2.32,88.77,13,11.71,3.6,23.81,7.33,36.5,10.7,35.92,9.55,74.95,18,116.89,14.87,47.29-3.47,91.2-21.07,134.25-53.8a.24.24,0,1,1,.3.38C757,192.81,713,210.44,665.64,213.93c-42,3.09-81.09-5.33-117.06-14.89-12.69-3.37-24.8-7.1-36.51-10.71-34.62-10.67-64.53-19.88-88.49-13-11.93,3.42-21.16,6.81-29,10.65-20.11,9.84-36.32,23-52,35.76C327.6,233.88,313.48,245.36,296.4,254,277.86,263.43,258,268,234.91,268Z" transform="translate(0.45 -95.19)"/></g><g class="cls-100"><path class="cls-154" d="M231.93,268.19q-7.4,0-15.25-.63c-21.5-1.64-45.33-10.88-72.85-28.23-24-15.15-47.79-34.55-68.76-51.68C44.94,163.06,18.92,141.82,0,138.52a.24.24,0,0,1-.2-.28A.23.23,0,0,1,0,138c19.1,3.32,45.16,24.6,75.34,49.23,43.71,35.69,93.25,76.13,141.34,79.8,30.13,2.42,54.84-2.07,77.74-14.1,16.23-8.51,29.69-19.56,44-31.26,16.09-13.22,32.74-26.88,53.91-36.8a166.62,166.62,0,0,1,29.4-10.21c23.45-6,52.79,3.37,86.77,14.25,12.36,4,25.15,8.06,38.64,11.76,33.24,9.1,73.1,17.85,116.71,13.7,47.59-4.53,92.07-23.57,136-58.21a.25.25,0,0,1,.34,0,.24.24,0,0,1,0,.35c-44,34.69-88.58,53.77-136.26,58.31-43.69,4.16-83.61-4.6-116.89-13.72-13.5-3.7-26.29-7.8-38.66-11.76-33.91-10.86-63.19-20.25-86.5-14.25a167.51,167.51,0,0,0-29.31,10.18c-21.12,9.9-37.74,23.54-53.81,36.73-14.28,11.72-27.76,22.79-44,31.32C275.69,263.39,255.45,268.19,231.93,268.19Z" transform="translate(0.45 -95.19)"/></g><g class="cls-102"><path class="cls-155" d="M228.8,268.4c-4.42,0-9-.17-13.62-.5-49.79-3.52-102.63-48-145.09-83.75C41.77,160.31,17.32,139.71,0,135.92a.25.25,0,0,1-.19-.3.25.25,0,0,1,.29-.19c17.49,3.83,42,24.45,70.36,48.34,42.4,35.7,95.17,80.13,144.81,83.63,30,2.17,54.64-2.61,77.53-15,15.46-8.39,28.32-19.07,41.93-30.37,16.45-13.66,33.45-27.78,55.62-37.73a157.71,157.71,0,0,1,29.7-9.72c22.81-5.19,51.51,4.37,84.74,15.44,13,4.34,26.5,8.82,40.82,12.86,30.48,8.61,71.27,17.81,116.52,12.53,47.9-5.58,93-26.06,137.76-62.6a.25.25,0,0,1,.32.38c-44.89,36.61-90,57.12-138,62.71-45.34,5.29-86.19-3.92-116.72-12.54-14.33-4-27.8-8.53-40.84-12.87-33.16-11-61.8-20.59-84.47-15.43a156.28,156.28,0,0,0-29.61,9.7c-22.1,9.91-39.08,24-55.51,37.65-13.63,11.32-26.5,22-42,30.42C273.57,263.34,252.9,268.4,228.8,268.4Z" transform="translate(0.45 -95.19)"/></g><path class="cls-156" d="M225.78,268.63q-5.84,0-12.1-.4C162.25,264.89,108.34,218,65,180.39c-26.44-23-49.28-42.84-65.08-47.08a.24.24,0,0,1-.18-.3.24.24,0,0,1,.3-.18C16,137.1,38.86,157,65.35,180c43.26,37.6,97.1,84.39,148.36,87.72,58.69,3.8,87.18-20.15,117.35-45.52,23.36-19.65,47.53-40,87.22-47.83,22.19-4.39,50.23,5.32,82.7,16.56,38.32,13.26,81.75,28.3,131.82,27.49,58.28-.94,112.92-23.54,167-69.1a.26.26,0,0,1,.35,0,.25.25,0,0,1,0,.36c-122.3,103-224.63,67.55-299.34,41.69-32.4-11.22-60.39-20.9-82.44-16.54-39.57,7.84-63.68,28.11-87,47.72C303.28,246.22,276.64,268.63,225.78,268.63Z" transform="translate(0.45 -95.19)"/></svg>