<?xml version="1.0" encoding="UTF-8"?>
<svg width="1443px" height="189px" viewBox="0 0 1443 189" version="1.1" xmlns="http://www.w3.org/2000/svg" xmlns:xlink="http://www.w3.org/1999/xlink">
    <title>si-logo-with-text-web-white-medium-sm_icon</title>
    <g id="si-logo-with-text-web-white-medium-sm_icon" stroke="none" stroke-width="1" fill="none" fill-rule="evenodd">
        <g id="si-text-web-white" transform="translate(242.500000, 21.000000)" fill="#FFFFFF" fill-rule="nonzero">
            <path d="M35.148,115.392 C39.4786667,115.392 43.3453333,114.812 46.748,113.652 C50.1506667,112.492 53.0506667,110.906667 55.448,108.896 C57.8453333,106.885333 59.6626667,104.526667 60.9,101.82 C62.1373333,99.1133333 62.756,96.252 62.756,93.236 C62.756,90.452 62.3306667,87.9966667 61.48,85.87 C60.6293333,83.7433333 59.45,81.8873333 57.942,80.302 C56.434,78.7166667 54.6746667,77.3246667 52.664,76.126 C50.6533333,74.9273333 48.4493333,73.864 46.052,72.936 L46.052,72.936 L35.728,68.412 C34.0266667,67.716 32.3833333,67.0393333 30.798,66.382 C29.2126667,65.7246667 27.8013333,64.9513333 26.564,64.062 C25.3266667,63.1726667 24.3406667,62.1286667 23.606,60.93 C22.8713333,59.7313333 22.504,58.32 22.504,56.696 C22.504,53.6026667 23.722,51.1666667 26.158,49.388 C28.594,47.6093333 31.8226667,46.72 35.844,46.72 C39.788,46.72 43.21,47.3193333 46.11,48.518 C49.01,49.7166667 51.6973333,51.3986667 54.172,53.564 L54.172,53.564 L60.204,46.14 C57.2653333,43.2013333 53.7466667,40.8813333 49.648,39.18 C45.5493333,37.4786667 41.1413333,36.628 36.424,36.628 C32.6346667,36.628 29.174,37.15 26.042,38.194 C22.91,39.238 20.2033333,40.688 17.922,42.544 C15.6406667,44.4 13.8813333,46.604 12.644,49.156 C11.4066667,51.708 10.788,54.4533333 10.788,57.392 C10.788,60.176 11.2713333,62.6313333 12.238,64.758 C13.2046667,66.8846667 14.4613333,68.7406667 16.008,70.326 C17.5546667,71.9113333 19.2946667,73.2646667 21.228,74.386 C23.1613333,75.5073333 25.0946667,76.4546667 27.028,77.228 L27.028,77.228 L37.7,81.984 C39.6333333,82.7573333 41.412,83.5113333 43.036,84.246 C44.66,84.9806667 46.052,85.812 47.212,86.74 C48.372,87.668 49.2806667,88.7506667 49.938,89.988 C50.5953333,91.2253333 50.924,92.772 50.924,94.628 C50.924,97.7986667 49.6286667,100.37 47.038,102.342 C44.4473333,104.314 40.716,105.3 35.844,105.3 C31.668,105.3 27.724,104.468667 24.012,102.806 C20.3,101.143333 16.9746667,98.9586667 14.036,96.252 L14.036,96.252 L7.308,104.14 C10.9426667,107.697333 15.1186667,110.462 19.836,112.434 C24.5533333,114.406 29.6573333,115.392 35.148,115.392 Z M86.594,137.78 C89.9193333,137.78 92.858,137.296667 95.41,136.33 C97.962,135.363333 100.224,133.990667 102.196,132.212 C104.168,130.433333 105.888667,128.306667 107.358,125.832 C108.827333,123.357333 110.142,120.612 111.302,117.596 L111.302,117.596 L135.546,57.276 L124.642,57.276 L113.39,86.856 C112.462,89.4853333 111.495333,92.2306667 110.49,95.092 C109.484667,97.9533333 108.518,100.737333 107.59,103.444 L107.59,103.444 L107.126,103.444 C105.966,100.66 104.844667,97.8373333 103.762,94.976 C102.679333,92.1146667 101.596667,89.408 100.514,86.856 L100.514,86.856 L87.754,57.276 L76.27,57.276 L102.138,113.652 L100.63,117.596 C99.3153333,120.766667 97.498,123.376667 95.178,125.426 C92.858,127.475333 89.8033333,128.5 86.014,128.5 C85.1633333,128.5 84.3126667,128.422667 83.462,128.268 C82.6113333,128.113333 81.838,127.92 81.142,127.688 L81.142,127.688 L78.822,136.62 C79.9046667,137.006667 81.1226667,137.296667 82.476,137.49 C83.8293333,137.683333 85.202,137.78 86.594,137.78 Z M177.596,115.392 C181.772,115.392 185.464667,114.947333 188.674,114.058 C191.883333,113.168667 194.59,111.931333 196.794,110.346 C198.998,108.760667 200.68,106.924 201.84,104.836 C203,102.748 203.58,100.505333 203.58,98.108 C203.58,95.9426667 203.232,93.99 202.536,92.25 C201.84,90.51 200.622,88.944 198.882,87.552 C197.142,86.16 194.783333,84.884 191.806,83.724 C188.828667,82.564 185.02,81.4813333 180.38,80.476 C174.812,79.316 170.829333,78.156 168.432,76.996 C166.034667,75.836 164.836,74.1346667 164.836,71.892 C164.836,69.8813333 165.706,68.18 167.446,66.788 C169.186,65.396 172.221333,64.7 176.552,64.7 C180.032,64.7 183.376667,65.222 186.586,66.266 C189.795333,67.31 192.753333,68.7213333 195.46,70.5 L195.46,70.5 L200.796,63.308 C197.934667,61.3746667 194.474,59.654 190.414,58.146 C186.354,56.638 182.081333,55.884 177.596,55.884 C173.652,55.884 170.172,56.3093333 167.156,57.16 C164.14,58.0106667 161.607333,59.1706667 159.558,60.64 C157.508667,62.1093333 155.962,63.8493333 154.918,65.86 C153.874,67.8706667 153.352,70.0746667 153.352,72.472 C153.352,76.8026667 155.15,80.302 158.746,82.97 C162.342,85.638 167.890667,87.7453333 175.392,89.292 C178.949333,90.0653333 181.810667,90.8 183.976,91.496 C186.141333,92.192 187.823333,92.9073333 189.022,93.642 C190.220667,94.3766667 191.013333,95.1693333 191.4,96.02 C191.786667,96.8706667 191.98,97.7986667 191.98,98.804 C191.98,100.969333 190.936,102.806 188.848,104.314 C186.76,105.822 183.512,106.576 179.104,106.576 C174.154667,106.576 169.727333,105.918667 165.822,104.604 C161.916667,103.289333 158.301333,101.472 154.976,99.152 L154.976,99.152 L149.872,106.576 C153.352,108.973333 157.489333,111.042 162.284,112.782 C167.078667,114.522 172.182667,115.392 177.596,115.392 Z M258.622,115.392 C262.334,115.392 265.620667,115.063333 268.482,114.406 C271.343333,113.748667 274.05,112.994667 276.602,112.144 L276.602,112.144 L274.282,103.676 C272.271333,104.449333 270.222,105.048667 268.134,105.474 C266.046,105.899333 263.764667,106.112 261.29,106.112 C256.108667,106.112 252.532,104.913333 250.56,102.516 C248.588,100.118667 247.602,96.484 247.602,91.612 L247.602,91.612 L247.602,66.556 L274.398,66.556 L274.398,57.276 L247.602,57.276 L247.602,39.296 L238.09,39.296 L236.582,57.276 L220.574,57.856 L220.574,66.556 L236.118,66.556 L236.118,91.612 C236.118,95.1693333 236.504667,98.398 237.278,101.298 C238.051333,104.198 239.308,106.692 241.048,108.78 C242.788,110.868 245.108,112.492 248.008,113.652 C250.908,114.812 254.446,115.392 258.622,115.392 Z M322.48,115.392 C326.888,115.392 330.928667,114.754 334.602,113.478 C338.275333,112.202 341.581333,110.597333 344.52,108.664 L344.52,108.664 L340.46,101.356 C337.908,102.902667 335.317333,104.120667 332.688,105.01 C330.058667,105.899333 327.158667,106.344 323.988,106.344 C318.42,106.344 313.722,104.913333 309.894,102.052 C306.066,99.1906667 303.842667,94.8213333 303.224,88.944 L303.224,88.944 L346.376,88.944 C346.530667,88.1706667 346.646667,87.2426667 346.724,86.16 C346.801333,85.0773333 346.84,83.9173333 346.84,82.68 C346.84,78.736 346.26,75.1206667 345.1,71.834 C343.94,68.5473333 342.258,65.7246667 340.054,63.366 C337.85,61.0073333 335.124,59.1706667 331.876,57.856 C328.628,56.5413333 324.916,55.884 320.74,55.884 C316.950667,55.884 313.316,56.5606667 309.836,57.914 C306.356,59.2673333 303.282,61.22 300.614,63.772 C297.946,66.324 295.8,69.4366667 294.176,73.11 C292.552,76.7833333 291.74,80.94 291.74,85.58 C291.74,90.2973333 292.532667,94.512 294.118,98.224 C295.703333,101.936 297.888,105.068 300.672,107.62 C303.456,110.172 306.704,112.105333 310.416,113.42 C314.128,114.734667 318.149333,115.392 322.48,115.392 Z M336.516,80.476 L303.456,80.476 C303.92,77.924 304.693333,75.6813333 305.776,73.748 C306.858667,71.8146667 308.173333,70.1906667 309.72,68.876 C311.266667,67.5613333 313.006667,66.5753333 314.94,65.918 C316.873333,65.2606667 318.922667,64.932 321.088,64.932 C325.496,64.932 329.072667,66.2273333 331.818,68.818 C334.563333,71.4086667 336.129333,75.2946667 336.516,80.476 L336.516,80.476 Z M372.534,114 L372.534,73.632 C373.771333,71.0026667 375.008667,69.0306667 376.246,67.716 C377.483333,66.4013333 378.991333,65.744 380.77,65.744 C384.172667,65.744 385.874,68.644 385.874,74.444 L385.874,74.444 L385.874,114 L395.85,114 L395.85,73.632 C397.164667,71.0026667 398.402,69.0306667 399.562,67.716 C400.722,66.4013333 402.191333,65.744 403.97,65.744 C407.45,65.744 409.19,68.644 409.19,74.444 L409.19,74.444 L409.19,114 L420.442,114 L420.442,73.632 C420.442,67.9093333 419.34,63.5206667 417.136,60.466 C414.932,57.4113333 411.819333,55.884 407.798,55.884 C404.55,55.884 401.94,56.7733333 399.968,58.552 C397.996,60.3306667 396.236667,62.6893333 394.69,65.628 C393.143333,59.132 389.663333,55.884 384.25,55.884 C381.002,55.884 378.392,56.7153333 376.42,58.378 C374.448,60.0406667 372.804667,62.148 371.49,64.7 L371.49,64.7 L371.258,64.7 L370.33,57.276 L361.282,57.276 L361.282,114 L372.534,114 Z M556.51,114 L556.51,104.256 L537.95,104.256 L537.95,47.764 L556.51,47.764 L556.51,38.02 L507.79,38.02 L507.79,47.764 L526.35,47.764 L526.35,104.256 L507.79,104.256 L507.79,114 L556.51,114 Z M590.092,114 L590.092,74.908 C593.030667,71.892 595.698667,69.63 598.096,68.122 C600.493333,66.614 603.2,65.86 606.216,65.86 C610.546667,65.86 613.601333,67.0393333 615.38,69.398 C617.158667,71.7566667 618.048,75.4106667 618.048,80.36 L618.048,80.36 L618.048,114 L629.532,114 L629.532,78.852 C629.532,71.428 627.985333,65.744 624.892,61.8 C621.798667,57.856 616.926667,55.884 610.276,55.884 C605.868,55.884 602.001333,56.9086667 598.676,58.958 C595.350667,61.0073333 592.257333,63.5013333 589.396,66.44 L589.396,66.44 L588.932,66.44 L588.004,57.276 L578.608,57.276 L578.608,114 L590.092,114 Z M679.702,46.256 C682.176667,46.256 684.226,45.502 685.85,43.994 C687.474,42.486 688.286,40.4946667 688.286,38.02 C688.286,35.5453333 687.474,33.554 685.85,32.046 C684.226,30.538 682.176667,29.784 679.702,29.784 C677.227333,29.784 675.178,30.538 673.554,32.046 C671.93,33.554 671.118,35.5453333 671.118,38.02 C671.118,40.4946667 671.93,42.486 673.554,43.994 C675.178,45.502 677.227333,46.256 679.702,46.256 Z M686.43,114 L686.43,57.276 L649.542,57.276 L649.542,66.556 L674.946,66.556 L674.946,114 L686.43,114 Z M755.972,115.392 C759.684,115.392 762.970667,115.063333 765.832,114.406 C768.693333,113.748667 771.4,112.994667 773.952,112.144 L773.952,112.144 L771.632,103.676 C769.621333,104.449333 767.572,105.048667 765.484,105.474 C763.396,105.899333 761.114667,106.112 758.64,106.112 C753.458667,106.112 749.882,104.913333 747.91,102.516 C745.938,100.118667 744.952,96.484 744.952,91.612 L744.952,91.612 L744.952,66.556 L771.748,66.556 L771.748,57.276 L744.952,57.276 L744.952,39.296 L735.44,39.296 L733.932,57.276 L717.924,57.856 L717.924,66.556 L733.468,66.556 L733.468,91.612 C733.468,95.1693333 733.854667,98.398 734.628,101.298 C735.401333,104.198 736.658,106.692 738.398,108.78 C740.138,110.868 742.458,112.492 745.358,113.652 C748.258,114.812 751.796,115.392 755.972,115.392 Z M821.802,46.256 C824.276667,46.256 826.326,45.502 827.95,43.994 C829.574,42.486 830.386,40.4946667 830.386,38.02 C830.386,35.5453333 829.574,33.554 827.95,32.046 C826.326,30.538 824.276667,29.784 821.802,29.784 C819.327333,29.784 817.278,30.538 815.654,32.046 C814.03,33.554 813.218,35.5453333 813.218,38.02 C813.218,40.4946667 814.03,42.486 815.654,43.994 C817.278,45.502 819.327333,46.256 821.802,46.256 Z M828.53,114 L828.53,57.276 L791.642,57.276 L791.642,66.556 L817.046,66.556 L817.046,114 L828.53,114 Z M880.556,115.392 C884.5,115.392 888.347333,114.522 892.098,112.782 C895.848667,111.042 899.232,109.012 902.248,106.692 L902.248,106.692 L902.596,106.692 L903.524,114 L912.92,114 L912.92,79.896 C912.92,72.3946667 910.948,66.5173333 907.004,62.264 C903.06,58.0106667 897.144,55.884 889.256,55.884 C886.781333,55.884 884.364667,56.116 882.006,56.58 C879.647333,57.044 877.366,57.6626667 875.162,58.436 C872.958,59.2093333 870.889333,60.0793333 868.956,61.046 C867.022667,62.0126667 865.282667,62.96 863.736,63.888 L863.736,63.888 L868.028,71.66 C870.812,70.036 873.847333,68.5666667 877.134,67.252 C880.420667,65.9373333 883.804,65.28 887.284,65.28 C892.310667,65.28 895.887333,66.5173333 898.014,68.992 C900.140667,71.4666667 901.281333,74.444 901.436,77.924 C894.321333,78.4653333 888.231333,79.2773333 883.166,80.36 C878.100667,81.4426667 873.963333,82.8346667 870.754,84.536 C867.544667,86.2373333 865.186,88.2866667 863.678,90.684 C862.17,93.0813333 861.416,95.8653333 861.416,99.036 C861.416,101.510667 861.899333,103.753333 862.866,105.764 C863.832667,107.774667 865.166667,109.495333 866.868,110.926 C868.569333,112.356667 870.599333,113.458667 872.958,114.232 C875.316667,115.005333 877.849333,115.392 880.556,115.392 Z M883.804,106.228 C880.710667,106.228 878.062,105.609333 875.858,104.372 C873.654,103.134667 872.552,101.085333 872.552,98.224 C872.552,96.5226667 873.016,94.976 873.944,93.584 C874.872,92.192 876.438,90.9353333 878.642,89.814 C880.846,88.6926667 883.804,87.7646667 887.516,87.03 C891.228,86.2953333 895.868,85.696 901.436,85.232 L901.436,85.232 L901.436,98.688 C898.497333,101.085333 895.578,102.941333 892.678,104.256 C889.778,105.570667 886.82,106.228 883.804,106.228 Z M969.122,115.392 C972.834,115.392 976.120667,115.063333 978.982,114.406 C981.843333,113.748667 984.55,112.994667 987.102,112.144 L987.102,112.144 L984.782,103.676 C982.771333,104.449333 980.722,105.048667 978.634,105.474 C976.546,105.899333 974.264667,106.112 971.79,106.112 C966.608667,106.112 963.032,104.913333 961.06,102.516 C959.088,100.118667 958.102,96.484 958.102,91.612 L958.102,91.612 L958.102,66.556 L984.898,66.556 L984.898,57.276 L958.102,57.276 L958.102,39.296 L948.59,39.296 L947.082,57.276 L931.074,57.856 L931.074,66.556 L946.618,66.556 L946.618,91.612 C946.618,95.1693333 947.004667,98.398 947.778,101.298 C948.551333,104.198 949.808,106.692 951.548,108.78 C953.288,110.868 955.608,112.492 958.508,113.652 C961.408,114.812 964.946,115.392 969.122,115.392 Z M1034.952,46.256 C1037.42667,46.256 1039.476,45.502 1041.1,43.994 C1042.724,42.486 1043.536,40.4946667 1043.536,38.02 C1043.536,35.5453333 1042.724,33.554 1041.1,32.046 C1039.476,30.538 1037.42667,29.784 1034.952,29.784 C1032.47733,29.784 1030.428,30.538 1028.804,32.046 C1027.18,33.554 1026.368,35.5453333 1026.368,38.02 C1026.368,40.4946667 1027.18,42.486 1028.804,43.994 C1030.428,45.502 1032.47733,46.256 1034.952,46.256 Z M1041.68,114 L1041.68,57.276 L1004.792,57.276 L1004.792,66.556 L1030.196,66.556 L1030.196,114 L1041.68,114 Z M1107.278,114 L1130.014,57.276 L1118.994,57.276 L1107.046,88.132 C1105.96333,90.9933333 1104.958,93.816 1104.03,96.6 C1103.102,99.384 1102.13533,102.168 1101.13,104.952 L1101.13,104.952 L1100.666,104.952 C1099.66067,102.168 1098.67467,99.384 1097.708,96.6 C1096.74133,93.816 1095.71667,90.9933333 1094.634,88.132 L1094.634,88.132 L1082.686,57.276 L1071.086,57.276 L1094.286,114 L1107.278,114 Z M1175.08,115.392 C1179.488,115.392 1183.52867,114.754 1187.202,113.478 C1190.87533,112.202 1194.18133,110.597333 1197.12,108.664 L1197.12,108.664 L1193.06,101.356 C1190.508,102.902667 1187.91733,104.120667 1185.288,105.01 C1182.65867,105.899333 1179.75867,106.344 1176.588,106.344 C1171.02,106.344 1166.322,104.913333 1162.494,102.052 C1158.666,99.1906667 1156.44267,94.8213333 1155.824,88.944 L1155.824,88.944 L1198.976,88.944 C1199.13067,88.1706667 1199.24667,87.2426667 1199.324,86.16 C1199.40133,85.0773333 1199.44,83.9173333 1199.44,82.68 C1199.44,78.736 1198.86,75.1206667 1197.7,71.834 C1196.54,68.5473333 1194.858,65.7246667 1192.654,63.366 C1190.45,61.0073333 1187.724,59.1706667 1184.476,57.856 C1181.228,56.5413333 1177.516,55.884 1173.34,55.884 C1169.55067,55.884 1165.916,56.5606667 1162.436,57.914 C1158.956,59.2673333 1155.882,61.22 1153.214,63.772 C1150.546,66.324 1148.4,69.4366667 1146.776,73.11 C1145.152,76.7833333 1144.34,80.94 1144.34,85.58 C1144.34,90.2973333 1145.13267,94.512 1146.718,98.224 C1148.30333,101.936 1150.488,105.068 1153.272,107.62 C1156.056,110.172 1159.304,112.105333 1163.016,113.42 C1166.728,114.734667 1170.74933,115.392 1175.08,115.392 Z M1189.116,80.476 L1156.056,80.476 C1156.52,77.924 1157.29333,75.6813333 1158.376,73.748 C1159.45867,71.8146667 1160.77333,70.1906667 1162.32,68.876 C1163.86667,67.5613333 1165.60667,66.5753333 1167.54,65.918 C1169.47333,65.2606667 1171.52267,64.932 1173.688,64.932 C1178.096,64.932 1181.67267,66.2273333 1184.418,68.818 C1187.16333,71.4086667 1188.72933,75.2946667 1189.116,80.476 L1189.116,80.476 Z" id="SystemInitiative"></path>
        </g>
        <g id="si-logo-web-white" transform="translate(-23.000000, -13.000000)">
            <rect id="Rectangle" stroke="#FFFFFF" stroke-width="10" x="29" y="29" width="159" height="159" rx="30"></rect>
            <path d="M95.3860294,148 C103.879902,148 110.605699,146.083779 115.563419,142.251337 C120.52114,138.418895 123,133.258467 123,126.770053 C123,122.777184 122.147059,119.292335 120.441176,116.315508 C118.735294,113.338681 116.052083,110.700535 112.391544,108.40107 C108.731005,106.101604 103.879902,104.051693 97.8382353,102.251337 C91.7965686,100.45098 87.4607843,98.597148 84.8308824,96.6898396 C82.2009804,94.7825312 80.8860294,92.402852 80.8860294,89.5508021 C80.8860294,86.1639929 82.1032475,83.5258467 84.5376838,81.6363636 C86.9721201,79.7468806 90.3927696,78.802139 94.7996324,78.802139 C99.526348,78.802139 103.160233,79.9518717 105.701287,82.2513369 C108.242341,84.5508021 109.512868,87.7326203 109.512868,91.7967914 L109.512868,91.7967914 L122.946691,91.7967914 C122.946691,87.3048128 121.738358,83.2139037 119.321691,79.5240642 C116.905025,75.8342246 113.582108,72.9910873 109.352941,70.9946524 C105.123775,68.9982175 100.308211,68 94.90625,68 C86.7677696,68 80.1485907,70.0320856 75.0487132,74.0962567 C69.9488358,78.1604278 67.3988971,83.3297683 67.3988971,89.6042781 C67.3988971,96.7700535 70.935049,102.581105 78.0073529,107.037433 C81.7034314,109.354724 86.6789216,111.458111 92.9338235,113.347594 C99.1887255,115.237077 103.515625,117.108734 105.914522,118.962567 C108.313419,120.816399 109.512868,123.454545 109.512868,126.877005 C109.512868,130.01426 108.331189,132.536542 105.967831,134.44385 C103.604473,136.351159 100.077206,137.304813 95.3860294,137.304813 C89.9485294,137.304813 85.7726716,136.092692 82.8584559,133.668449 C79.9442402,131.244207 78.4871324,127.821747 78.4871324,123.40107 L78.4871324,123.40107 L65,123.40107 C65,128.285205 66.3060662,132.56328 68.9181985,136.235294 C71.5303309,139.907308 75.1908701,142.786096 79.8998162,144.871658 C84.6087623,146.957219 89.7708333,148 95.3860294,148 Z" id="S" fill="#FFFFFF" fill-rule="nonzero"></path>
            <polygon id="I" fill="#FFFFFF" fill-rule="nonzero" points="150 147 150 69 137 69 137 147"></polygon>
        </g>
    </g>
</svg>