<?xml version="1.0" encoding="UTF-8"?>
<svg width="231px" height="230px" viewBox="0 0 231 230" version="1.1" xmlns="http://www.w3.org/2000/svg" xmlns:xlink="http://www.w3.org/1999/xlink">
    <title>si-logo-web white transparent small</title>
    <g id="Logo-Current" stroke="none" stroke-width="1" fill="none" fill-rule="evenodd">
        <g id="si-logo-web-white-transparent-small" transform="translate(7.050000, 7.000000)">
            <rect id="Rectangle" stroke="#FFFFFF" stroke-width="14" x="0" y="0" width="216" height="216" rx="30"></rect>
            <path d="M85.403125,166.5625 C97.8510417,166.5625 107.707812,163.763021 114.973437,158.164062 C122.239062,152.565104 125.871875,145.026042 125.871875,135.546875 C125.871875,129.713542 124.621875,124.622396 122.121875,120.273438 C119.621875,115.924479 115.689583,112.070312 110.325,108.710938 C104.960417,105.351562 97.8510417,102.356771 88.996875,99.7265625 C80.1427083,97.0963542 73.7885417,94.3880208 69.934375,91.6015625 C66.0802083,88.8151042 64.153125,85.3385417 64.153125,81.171875 C64.153125,76.2239583 65.9369792,72.3697917 69.5046875,69.609375 C73.0723958,66.8489583 78.0854167,65.46875 84.54375,65.46875 C91.4708333,65.46875 96.7963542,67.1484375 100.520312,70.5078125 C104.244271,73.8671875 106.10625,78.515625 106.10625,84.453125 L106.10625,84.453125 L125.79375,84.453125 C125.79375,77.890625 124.022917,71.9140625 120.48125,66.5234375 C116.939583,61.1328125 112.069792,56.9791667 105.871875,54.0625 C99.6739583,51.1458333 92.6166667,49.6875 84.7,49.6875 C72.7729167,49.6875 63.0723958,52.65625 55.5984375,58.59375 C48.1244792,64.53125 44.3875,72.0833333 44.3875,81.25 C44.3875,91.71875 49.5697917,100.208333 59.934375,106.71875 C65.3510417,110.104167 72.6427083,113.177083 81.809375,115.9375 C90.9760417,118.697917 97.3171875,121.432292 100.832812,124.140625 C104.348437,126.848958 106.10625,130.703125 106.10625,135.703125 C106.10625,140.286458 104.374479,143.971354 100.910937,146.757812 C97.4473958,149.544271 92.278125,150.9375 85.403125,150.9375 C77.434375,150.9375 71.3145833,149.166667 67.04375,145.625 C62.7729167,142.083333 60.6375,137.083333 60.6375,130.625 L60.6375,130.625 L40.871875,130.625 C40.871875,137.760417 42.7859375,144.010417 46.6140625,149.375 C50.4421875,154.739583 55.8067708,158.945312 62.7078125,161.992188 C69.6088542,165.039062 77.1739583,166.5625 85.403125,166.5625 Z M166.075,165 L166.075,51.25 L146.3875,51.25 L146.3875,165 L166.075,165 Z" id="SI" fill="#FFFFFF" fill-rule="nonzero"></path>
        </g>
    </g>
</svg>