<svg width="24" height="24" viewBox="0 0 24 24" fill="none" xmlns="http://www.w3.org/2000/svg">
<path d="M9.83338 3.77649C10.0022 3.7765 10.2726 3.82947 10.4097 3.92794C10.5468 4.02641 10.6696 4.25365 10.7235 4.41361L15.091 19.1764C15.132 19.2978 15.1435 19.4272 15.1245 19.554C15.1056 19.6807 15.0567 19.801 14.982 19.9051C14.9072 20.0092 14.8088 20.094 14.6948 20.1524C14.5807 20.2108 14.1815 20.2413 14.0534 20.2412H20.331C20.4591 20.241 20.5852 20.2105 20.6991 20.152C20.813 20.0935 20.9114 20.0088 20.9861 19.9048C21.0608 19.8007 21.1097 19.6803 21.1286 19.5536C21.1476 19.4268 21.136 19.2974 21.095 19.176L16.1567 4.32537C16.1028 4.16537 16 4.02634 15.8628 3.92786C15.7257 3.82939 15.5611 3.77644 15.3922 3.77649H9.83338Z" fill="currentColor"/>
<path d="M9.25534 3.93437C9.08624 3.93436 8.9214 3.98742 8.78405 4.08606C8.6467 4.18471 8.54376 4.32396 8.48974 4.48421L2.90515 18.9989C2.86419 19.1202 2.85272 19.2496 2.87168 19.3762C2.89064 19.5029 2.93948 19.6232 3.01416 19.7272C3.08885 19.8312 3.18723 19.916 3.30117 19.9745C3.4151 20.0329 3.54132 20.0634 3.66938 20.0634H7.61243C7.78151 20.0634 7.94623 20.0074 8.08352 19.9115C8.22087 19.8129 8.32382 19.6737 8.37789 19.5135L9.33578 16.6872L7.55315 14.7826C7.51958 14.7454 7.36851 14.4723 7.50279 14.2365C7.654 14.0101 7.90606 14.0101 7.90606 14.0101L11.051 13.9635L12.0569 10.9588L10.0233 4.36971C10.0175 4.34173 9.89853 4.18342 9.71198 4.05855C9.52501 3.93368 9.25534 3.93437 9.25534 3.93437Z" fill="currentColor"/>
<path d="M8.62411 14.4115C8.5494 14.4113 8.47639 14.4337 8.4146 14.4757C8.35281 14.5177 8.3051 14.5774 8.2777 14.6469C8.2503 14.7164 8.24448 14.7925 8.26099 14.8654C8.27751 14.9382 8.31559 15.0044 8.37028 15.0553L13.0742 19.7408C13.2244 19.8814 13.4156 19.9634 13.621 19.9634C13.621 19.9634 13.796 19.9727 13.9015 19.9589C14.1494 19.9216 14.3825 19.7176 14.4596 19.6327C14.6585 19.3681 14.568 18.9572 14.568 18.9572L13.0804 14.2588L8.62411 14.4115Z" fill="currentColor"/>
</svg>
