<svg width="30" height="30" viewBox="0 0 30 30" fill="none" xmlns="http://www.w3.org/2000/svg">
<path fill-rule="evenodd" clip-rule="evenodd" d="M27 8L15 1L3 8V22L15 29L27 22V8ZM21.2954 11.1061C21.6301 10.6667 21.5454 10.0393 21.106 9.70458C20.6667 9.36987 20.0393 9.45466 19.7046 9.89396L12.5737 19.2532L9.84367 14.9631C9.54716 14.4972 8.92907 14.3598 8.46313 14.6563C7.99719 14.9529 7.85983 15.5709 8.15634 16.0369L11.6563 21.5369C11.8319 21.8127 12.1312 21.9853 12.4578 21.9991C12.7845 22.0129 13.0973 21.8661 13.2954 21.6061L21.2954 11.1061Z" fill="#22C55E"/>
</svg>
