<svg width="16" height="16" viewBox="0 0 16 16" fill="none" xmlns="http://www.w3.org/2000/svg">
<path d="M11.5 1.5C11.5874 1.5 11.6732 1.52289 11.749 1.56641C11.8248 1.6099 11.8876 1.67262 11.9316 1.74805L15.4316 7.74805C15.4763 7.82452 15.5 7.91147 15.5 8C15.5 8.08853 15.4763 8.17548 15.4316 8.25195L11.9316 14.252C11.8876 14.3274 11.8248 14.3901 11.749 14.4336C11.6732 14.4771 11.5874 14.5 11.5 14.5H4.5C4.41262 14.5 4.32675 14.4771 4.25098 14.4336C4.17523 14.3901 4.11239 14.3274 4.06836 14.252L0.568359 8.25195C0.523748 8.17548 0.5 8.08853 0.5 8C0.5 7.91147 0.523748 7.82452 0.568359 7.74805L4.06836 1.74805C4.11239 1.67261 4.17523 1.60991 4.25098 1.56641C4.32675 1.52289 4.41262 1.5 4.5 1.5H11.5ZM7 9.29297L5.20605 7.5L4.5 8.20605L7 10.707L11.5 6.20703L10.793 5.5L7 9.29297Z" fill="currentColor"/>
</svg>
