<svg width="20" height="20" viewBox="0 0 20 20" fill="none" xmlns="http://www.w3.org/2000/svg">
<path d="M8.62289 0.264286C8.92289 0.0928572 9.24432 0 9.57289 0C9.90147 0 10.2229 0.0857143 10.5229 0.264286L17.1872 4.1C17.4872 4.27143 17.7229 4.50714 17.8872 4.79286C18.0515 5.07857 18.1372 5.39286 18.1372 5.74286V9.79286C17.8515 9.58571 17.5515 9.40714 17.23 9.25714C16.9086 9.10714 16.58 8.97857 16.23 8.86429V6.77143L12.8015 8.75C11.9158 8.97143 11.1086 9.35 10.3872 9.87857C9.66575 10.4071 9.07289 11.0571 8.61575 11.8214V10.0857L2.90861 6.76429V13.2857L7.71575 16.0714C7.78004 16.5786 7.90146 17.0643 8.07289 17.5357C8.24432 18.0071 8.47289 18.4429 8.73718 18.8571C8.70861 18.8429 8.68718 18.8286 8.68004 18.8214C8.67289 18.8143 8.65146 18.8 8.62289 18.7857L1.95146 14.95C1.65146 14.7786 1.41575 14.5429 1.25146 14.2571C1.08718 13.9714 1.00146 13.6571 1.00146 13.3071V5.73571C1.00146 5.38571 1.08718 5.07143 1.25146 4.78571C1.41575 4.5 1.65146 4.27143 1.95146 4.09286L8.62289 0.264286ZM9.57289 1.90714L3.93004 5.16429L9.57289 8.42857L15.2158 5.16429L9.57289 1.90714ZM14.3372 18.1L17.1943 15.2429L16.53 14.5786L14.8158 16.2929V12.3857H13.8658V16.2929L12.1515 14.5786L11.4872 15.2429L14.3443 18.1H14.3372ZM14.3372 20.0071C13.0229 20.0071 11.8943 19.5429 10.9658 18.6143C10.0372 17.6857 9.57289 16.5643 9.57289 15.2429C9.57289 13.9286 10.0372 12.8 10.9658 11.8714C11.8943 10.9429 13.0158 10.4786 14.3372 10.4786C15.6515 10.4786 16.78 10.9429 17.7086 11.8714C18.6372 12.8 19.1015 13.9214 19.1015 15.2429C19.1015 16.5571 18.6372 17.6857 17.7086 18.6143C16.78 19.5429 15.6586 20.0071 14.3372 20.0071Z" fill="#59B7FF"/>
</svg>
