<svg width="29" height="29" viewBox="0 0 29 29" fill="none" xmlns="http://www.w3.org/2000/svg">
<path d="M17.6026 9.54342L22.6935 14.6343L17.6026 19.7252" stroke="currentColor" stroke-width="3" stroke-linecap="round" stroke-linejoin="round"/>
<path d="M10.8148 9.54342L5.72387 14.6343L10.8148 19.7252" stroke="currentColor" stroke-width="3" stroke-linecap="round" stroke-linejoin="round"/>
<path d="M10.7082 1.05843L23.784 1.05843C25.9931 1.05843 27.784 2.84929 27.784 5.05843V24.2099C27.784 26.4191 25.9931 28.2099 23.784 28.2099H4.63249C2.42335 28.2099 0.632488 26.4191 0.632488 24.2099L0.632488 10.7099" stroke="currentColor"/>
<path d="M2.77854 4.10975L0.498245 6.39004L0.498245 0.499947L6.38834 0.499947L4.10805 2.78024L3.7545 3.13379L4.10805 3.48735L7.47053 6.84983L6.84813 7.47224L3.48565 4.10975L3.13209 3.7562L2.77854 4.10975Z" fill="currentColor" stroke="currentColor"/>
</svg>
