<svg viewBox="0 0 15 15" version="1.1" xmlns="http://www.w3.org/2000/svg" xmlns:xlink="http://www.w3.org/1999/xlink" xml:space="preserve" xmlns:serif="http://www.serif.com/" style="fill-rule:evenodd;clip-rule:evenodd;stroke-linejoin:round;stroke-miterlimit:2;" fill="currentColor">
    <path d="M3.06,1.44C2.173,1.444 1.444,2.173 1.44,3.06L1.44,11.34C1.444,12.227 2.173,12.956 3.06,12.96L11.34,12.96C12.227,12.956 12.956,12.227 12.96,11.34L12.96,3.06C12.956,2.173 12.227,1.444 11.34,1.44L3.06,1.44ZM3.064,2.44L11.336,2.44C11.677,2.442 11.958,2.723 11.96,3.064C11.96,3.064 11.96,11.336 11.96,11.336C11.958,11.677 11.677,11.958 11.336,11.96C11.336,11.96 3.064,11.96 3.064,11.96C2.723,11.958 2.442,11.677 2.44,11.336C2.44,11.336 2.44,3.064 2.44,3.064C2.442,2.723 2.723,2.442 3.064,2.44L3.064,2.44Z"/>
</svg>
