<svg width="1.6em" height="1.6em" viewBox="2 4 14 10" fill="none" xmlns="http://www.w3.org/2000/svg">
<path d="M15.2321 5.98547C15.2424 5.98035 15.2911 5.97778 15.3783 5.97778H15.509L15.5475 6.00855C15.6295 6.09572 15.7295 6.24441 15.8474 6.45464C16.0166 6.77254 16.1294 7.13659 16.1858 7.54679C16.2781 8.22875 16.2115 9.00812 15.9859 9.88492C15.6577 11.1309 15.1398 12.1461 14.4322 12.9306C14.1964 13.1973 13.9503 13.4254 13.6939 13.6152C13.6836 13.6254 13.6734 13.6331 13.6631 13.6382L13.617 13.669H13.4862H13.3555L13.3324 13.6459C13.317 13.6305 13.3093 13.6126 13.3093 13.5921C13.3093 13.5767 13.335 13.5459 13.3862 13.4998C13.5401 13.3562 13.6606 13.2332 13.7477 13.1306C14.4348 12.3717 14.9527 11.3565 15.3014 10.0849C15.4706 9.47472 15.5834 8.89532 15.6398 8.34668C15.6654 8.04928 15.668 7.78522 15.6475 7.55448C15.6116 7.01097 15.4757 6.53924 15.2398 6.1393C15.2091 6.08802 15.1937 6.05982 15.1937 6.0547C15.1937 6.02393 15.2065 6.00086 15.2321 5.98547Z" fill="currentColor"/>
<path d="M11.4567 8.35435C11.6311 8.32871 11.808 8.35435 11.9874 8.43126C12.1259 8.49279 12.231 8.57996 12.3028 8.69276L12.3335 8.73122L12.3643 8.68507C12.4925 8.53124 12.6489 8.42613 12.8335 8.36973C13.0591 8.3082 13.2642 8.34922 13.4488 8.49279C13.4847 8.51843 13.5154 8.54663 13.5411 8.57739C13.6026 8.64918 13.6436 8.73378 13.6641 8.8312C13.7154 9.00041 13.7026 9.16705 13.6257 9.33113C13.5436 9.50547 13.4052 9.60289 13.2103 9.6234C13.0463 9.63878 12.9335 9.57981 12.8719 9.4465C12.8565 9.42086 12.8463 9.37984 12.8412 9.32344C12.8412 9.23627 12.8591 9.1568 12.895 9.08501C12.936 8.99272 13.0104 8.91837 13.118 8.86197C13.1642 8.84146 13.1873 8.82607 13.1873 8.81582C13.1668 8.78505 13.1309 8.75685 13.0796 8.73122C13.0539 8.72096 13.0155 8.71583 12.9642 8.71583C12.9129 8.71583 12.8745 8.72096 12.8488 8.73122C12.7207 8.803 12.6207 8.93888 12.5489 9.13885L12.1028 10.9155C12.0669 11.0745 12.0592 11.1924 12.0797 11.2693C12.1207 11.4078 12.231 11.4744 12.4105 11.4693C12.472 11.4642 12.5309 11.4513 12.5873 11.4308C12.7924 11.3539 12.9617 11.177 13.095 10.9001C13.1309 10.8284 13.1591 10.7566 13.1796 10.6848C13.2001 10.6181 13.2232 10.5822 13.2488 10.5771C13.2642 10.572 13.318 10.5694 13.4103 10.5694C13.5231 10.5694 13.5846 10.5745 13.5949 10.5848C13.6205 10.6053 13.6231 10.6489 13.6026 10.7156C13.5616 10.8848 13.4898 11.0411 13.3872 11.1847C13.1206 11.5744 12.795 11.7898 12.4105 11.8308C12.4002 11.8308 12.3899 11.8308 12.3797 11.8308C12.0823 11.8462 11.8439 11.7487 11.6644 11.5385C11.6541 11.5334 11.6465 11.5257 11.6413 11.5154C11.6106 11.4795 11.5926 11.459 11.5875 11.4539L11.5413 11.5077C11.4696 11.5898 11.3978 11.6513 11.326 11.6923C11.1722 11.7898 11.0209 11.8359 10.8722 11.8308C10.7748 11.8256 10.6774 11.8 10.5799 11.7539C10.4159 11.677 10.3082 11.5385 10.2569 11.3385C10.2005 11.0822 10.2467 10.8694 10.3954 10.7002C10.5389 10.5617 10.6953 10.5181 10.8645 10.5694C10.926 10.5899 10.9748 10.6207 11.0106 10.6617C11.1081 10.7694 11.1132 10.913 11.026 11.0924C10.9799 11.1898 10.9081 11.2642 10.8107 11.3155C10.7645 11.3411 10.7389 11.3539 10.7338 11.3539C10.7338 11.3744 10.7722 11.4052 10.8491 11.4462C10.8696 11.4565 10.9055 11.4616 10.9568 11.4616C11.0081 11.4616 11.0465 11.4565 11.0722 11.4462C11.2004 11.3796 11.2978 11.2462 11.3644 11.0463L11.8259 9.23115C11.8362 9.17987 11.8413 9.10809 11.8413 9.01579C11.8413 8.94401 11.8362 8.8953 11.8259 8.86966C11.7644 8.73634 11.6336 8.68763 11.4337 8.72353C11.2439 8.75942 11.0747 8.8876 10.926 9.10809C10.8389 9.24653 10.7748 9.3901 10.7338 9.53879C10.7184 9.56956 10.7081 9.58751 10.703 9.59263C10.6927 9.60289 10.6312 9.60802 10.5184 9.60802H10.3492L10.3261 9.58494C10.3107 9.56956 10.3031 9.54905 10.3031 9.52341C10.3236 9.3901 10.3954 9.22858 10.5184 9.03887C10.5235 9.02861 10.5287 9.01836 10.5338 9.0081C10.7594 8.6543 11.0491 8.43895 11.4029 8.36204C11.4234 8.36204 11.4414 8.35947 11.4567 8.35435Z" fill="currentColor"/>
<path d="M10.3942 6.00855L10.4404 5.97778H10.5711H10.7019L10.7249 6.00086C10.7403 6.01624 10.748 6.03419 10.748 6.0547C10.748 6.07008 10.7224 6.10084 10.6711 6.14699C10.5327 6.2803 10.4122 6.4008 10.3096 6.50848C9.62253 7.27247 9.10465 8.28771 8.75598 9.5542C8.58165 10.1746 8.46884 10.7566 8.41757 11.3001C8.39193 11.6026 8.38937 11.8641 8.40988 12.0846C8.44577 12.6332 8.58165 13.1075 8.81751 13.5075C8.8534 13.569 8.86622 13.61 8.85597 13.6305C8.83546 13.6562 8.77393 13.669 8.67138 13.669H8.54832L8.50986 13.6382C8.42782 13.5511 8.32784 13.4024 8.20991 13.1921C8.03557 12.8691 7.92277 12.5025 7.87149 12.0923C7.7792 11.4206 7.84585 10.6412 8.07146 9.75417C8.39962 8.51332 8.9175 7.50064 9.62509 6.71614C9.86095 6.44951 10.1071 6.22134 10.3634 6.03162C10.3737 6.02137 10.384 6.01368 10.3942 6.00855Z" fill="currentColor"/>
<path d="M6.6762 4.01099C6.71282 4.00366 6.78607 4 6.89595 4C7.06442 4.00732 7.21825 4.04761 7.35742 4.12086C7.64309 4.26736 7.78593 4.50176 7.78593 4.82406C7.78593 4.95591 7.75663 5.08043 7.69803 5.19763C7.66873 5.27088 7.62478 5.33314 7.56618 5.38442C7.49293 5.45767 7.43067 5.50528 7.37939 5.52726C7.17429 5.62248 6.98018 5.62614 6.79706 5.53824C6.61393 5.44302 6.54801 5.27454 6.59929 5.03282C6.60661 5.00352 6.61393 4.97422 6.62126 4.94492C6.67253 4.77645 6.7641 4.65192 6.89595 4.57135C6.93257 4.54937 6.90693 4.53106 6.81903 4.51641C6.76776 4.51641 6.73113 4.52374 6.70916 4.53839C6.65056 4.58234 6.61027 4.63361 6.5883 4.69221C6.559 4.75081 6.48209 5.08776 6.35756 5.70306C6.18909 6.5088 6.10485 6.94097 6.10485 6.99957C6.10485 7.0069 6.30262 7.01056 6.69817 7.01056H7.29149L7.33544 7.04352C7.36474 7.08015 7.36108 7.17904 7.32446 7.34019C7.28783 7.50134 7.25487 7.58923 7.22557 7.60388C7.2036 7.61853 6.99117 7.62586 6.5883 7.62586C6.18542 7.62586 5.98399 7.63318 5.98399 7.64783L5.69831 9.09818L5.36869 10.8012C5.17092 11.7535 4.98047 12.4347 4.79734 12.8449C4.56294 13.3869 4.26262 13.7422 3.89637 13.9107C3.79382 13.962 3.68395 13.9913 3.56675 13.9986C3.24445 14.0132 2.98808 13.9143 2.79763 13.7019C2.78298 13.6946 2.77199 13.6836 2.76466 13.669C2.66211 13.5225 2.61084 13.3613 2.61084 13.1855C2.61084 13.0463 2.64014 12.9181 2.69874 12.8009C2.72804 12.7277 2.77199 12.6654 2.83059 12.6142C2.90384 12.5409 2.9661 12.4933 3.01738 12.4713C3.22247 12.3761 3.41659 12.3724 3.59971 12.4603C3.78283 12.5556 3.84876 12.724 3.79748 12.9658C3.79016 12.9951 3.78283 13.0244 3.77551 13.0537C3.72424 13.2221 3.63267 13.3467 3.50082 13.4272C3.45687 13.4565 3.48251 13.4712 3.57774 13.4712C3.63634 13.4712 3.68029 13.4602 3.70959 13.4382C3.80481 13.365 3.87806 13.1745 3.92933 12.8669C4.00258 12.4054 4.11246 11.8853 4.25896 11.3067L4.47871 10.3178C4.82298 8.47922 4.99512 7.58557 4.99512 7.63685C4.99512 7.62952 4.82664 7.62586 4.48969 7.62586C4.13077 7.62586 3.93666 7.60022 3.90736 7.54895C3.89271 7.52697 3.9037 7.44274 3.94032 7.29624C3.97695 7.14974 4.00625 7.0655 4.02822 7.04352L4.06118 7.01056H4.58858H5.11598V6.98859L5.22585 6.4502C5.37235 5.68841 5.51519 5.15735 5.65436 4.85702C5.88144 4.39555 6.22205 4.11354 6.6762 4.01099Z" fill="currentColor"/>
</svg>
