<svg width="21" height="21" viewBox="0 0 21 21" fill="none" xmlns="http://www.w3.org/2000/svg">
<g clip-path="url(#clip0_2024_26470)">
<path d="M14.2781 17.6117L14.429 16.5346C15.0076 16.3983 15.5233 16.1392 15.9761 15.7575C16.4373 15.3666 16.8188 14.8804 17.1206 14.2987C17.4309 13.7079 17.6363 13.0534 17.737 12.3354L18.1394 9.66313C18.2485 8.92689 18.2359 8.26792 18.1017 7.68621C17.9676 7.1045 17.7244 6.61822 17.3722 6.22738C17.0284 5.82745 16.5924 5.55932 16.0641 5.42298L16.215 4.3868C16.9613 4.59586 17.5734 4.94579 18.0514 5.43661C18.5377 5.92743 18.8732 6.53187 19.0576 7.24992C19.2505 7.95889 19.2798 8.76329 19.1457 9.66313L18.7558 12.3354C18.6216 13.2352 18.3575 14.0442 17.9634 14.7622C17.5693 15.4803 17.0619 16.0802 16.4414 16.5619C15.8209 17.0436 15.0998 17.3936 14.2781 17.6117Z" fill="#F5F5F5"/>
<path d="M9.92594 14.9339L12.4595 11.58L11.004 8.5065H12.3085L13.0632 10.2828C13.0991 10.3763 13.1351 10.4776 13.171 10.5866C13.2141 10.6879 13.2429 10.7736 13.2573 10.8437C13.2932 10.7736 13.3399 10.6879 13.3974 10.5866C13.4621 10.4776 13.5268 10.3763 13.5915 10.2828L14.8529 8.5065H16.2113L13.8502 11.6618L15.4027 14.9339H14.0874L13.2573 13.0057C13.2213 12.9122 13.1818 12.807 13.1387 12.6902C13.0956 12.5733 13.0668 12.4798 13.0524 12.4097C13.0093 12.4798 12.9554 12.5733 12.8907 12.6902C12.826 12.807 12.7613 12.9122 12.6967 13.0057L11.2843 14.9339H9.92594Z" fill="#F5F5F5"/>
<path d="M10.54 17.6117C9.40802 17.2936 8.58627 16.6755 8.07477 15.7575C7.56328 14.8395 7.40815 13.6988 7.6094 12.3354L7.99931 9.66313C8.13347 8.76329 8.3976 7.95889 8.79171 7.24992C9.1942 6.53187 9.7057 5.92743 10.3262 5.43661C10.9551 4.94579 11.672 4.59586 12.477 4.3868L12.3261 5.42298C11.7475 5.55932 11.2276 5.82745 10.7664 6.22738C10.3052 6.61822 9.92371 7.1045 9.62184 7.68621C9.32836 8.26792 9.12712 8.92689 9.01811 9.66313L8.61562 12.3354C8.515 13.0534 8.52757 13.7079 8.65335 14.2987C8.78752 14.8804 9.02649 15.3666 9.37029 15.7575C9.72247 16.1392 10.1627 16.3983 10.691 16.5346L10.54 17.6117Z" fill="#F5F5F5"/>
<path d="M-0.112549 15.791L0.103071 14.3419H1.65553C2.05802 14.3419 2.36947 14.238 2.58988 14.0302C2.81988 13.8225 2.96362 13.516 3.02112 13.1109L3.9411 6.84712H1.69866L1.91427 5.32012H4.15672L4.32921 4.1515C4.40588 3.63211 4.57358 3.18544 4.83233 2.81148C5.10065 2.42713 5.44085 2.13108 5.85292 1.92333C6.265 1.71557 6.73457 1.61169 7.26164 1.61169H9.70533L9.48971 3.10753H7.04602C6.71061 3.10753 6.44229 3.19582 6.24104 3.37242C6.04938 3.54901 5.92959 3.8139 5.88167 4.16708L5.70918 5.32012H8.84285L8.61285 6.84712H5.47919L4.57358 13.1421C4.45859 13.9627 4.12318 14.6068 3.56736 15.0742C3.01154 15.552 2.30718 15.791 1.45429 15.791H-0.112549Z" fill="#F5F5F5"/>
</g>
<defs>
<clipPath id="clip0_2024_26470">
<rect width="20" height="20" fill="white" transform="translate(0.444092 0.514038)"/>
</clipPath>
</defs>
</svg>
