<svg xmlns="http://www.w3.org/2000/svg" viewBox="0 0 30 30" fill="none">
  <path fill="currentColor" fill-rule="evenodd" d="M1.6 0C0.716 0 0 0.716 0 1.6v26.8C0 29.284 0.716 30 1.6 30h26.8c0.884 0 1.6-0.716 1.6-1.6V1.6C30 0.716 29.284 0 28.4 0H1.6zM24.3 4.15h-3.07c-0.69 0-0.998 0.287-0.998 0.987v7.78H9.768V5.137c0-0.69-0.287-0.998-0.987-0.998H5.704c-0.7 0-1.009 0.287-1.009 0.987v20.024c0 0.7 0.309 0.987 1.009 0.987h3.014c0.69 0 0.987-0.287 0.987-0.987v-7.904h10.457v7.904c0 0.7 0.309 0.987 0.998 0.987h3.082c0.69 0 0.998-0.287 0.998-0.987V5.137c-0.02-0.67-0.32-0.987-1.009-0.987z"/>
</svg>