<svg width="131" height="16" viewBox="0 0 131 16" fill="none" xmlns="http://www.w3.org/2000/svg">
<g clip-path="url(#clip0_6769_23274)">
<path d="M125.678 10.1583C126.871 9.95307 127.994 9.45895 128.949 8.71942C129.385 8.26496 129.719 7.72321 129.928 7.13025C130.137 6.53729 130.217 5.90674 130.162 5.28058C130.166 4.24966 129.881 3.2382 129.339 2.35971C128.946 1.69119 128.391 1.13114 127.725 0.730372C127.059 0.329607 126.304 0.100812 125.527 0.0647482H124.74L122.898 0H114.565C114.06 0 113.843 0.208633 113.843 0.719424V15.2662C113.843 15.7698 114.053 15.9856 114.565 15.9856H116.732C117.237 15.9856 117.454 15.777 117.454 15.2662V10.446H120.104C120.687 10.4764 121.241 10.7078 121.671 11.1007L125.873 15.3094C126.256 15.6997 126.771 15.9354 127.317 15.9712H130.545C131.051 15.9712 131.173 15.6763 130.82 15.3165L125.678 10.1583ZM125.13 7.06475H117.439V3.39568H125.13C125.507 3.44183 125.853 3.62539 126.102 3.91098C126.352 4.19657 126.486 4.56399 126.48 4.94245V5.51079C126.486 5.89005 126.352 6.25838 126.103 6.54515C125.854 6.83192 125.507 7.01695 125.13 7.06475Z" fill="#D4D4D4"/>
<path d="M110.478 12.6043H98.5425V9.60432H108.067C108.572 9.60432 108.789 9.39568 108.789 8.88489V7.13669C108.789 6.63309 108.579 6.41727 108.067 6.41727H98.5352V3.42446H110.478C110.984 3.42446 111.201 3.21583 111.201 2.70504V0.719424C111.201 0.215827 110.991 0 110.478 0H95.5891C95.0837 0 94.8671 0.208633 94.8671 0.719424V15.2806C94.8671 15.7842 95.0765 16 95.5891 16H110.478C110.984 16 111.201 15.7914 111.201 15.2806V13.3165C111.201 12.813 110.962 12.6043 110.478 12.6043Z" fill="#D4D4D4"/>
<path d="M92.2315 5.2518C92.2472 4.23378 91.9636 3.23343 91.4155 2.3741C91.0194 1.68899 90.458 1.11312 89.7822 0.698589C89.1064 0.284058 88.3375 0.0439524 87.5452 0L76.5984 0C76.0857 0 75.8763 0.208633 75.8763 0.719424V15.2662C75.8763 15.7698 76.0857 15.9856 76.5984 15.9856H78.9524C79.4579 15.9856 79.6745 15.7842 79.6745 15.2662V3.40288H86.0144C87.3647 3.40288 88.6788 4.29496 88.6788 5.64029V15.2806C88.6788 15.7842 88.8882 16 89.4009 16H91.5311C92.0437 16 92.2531 15.7914 92.2531 15.2806L92.2315 5.2518Z" fill="#D4D4D4"/>
<path d="M72.5475 12.5108H62.2579L72.5692 3.48201C72.7761 3.32423 72.9473 3.12482 73.0717 2.89675C73.1961 2.66867 73.2709 2.41706 73.2913 2.15827V0.719424C73.2913 0.215827 73.0747 0 72.5692 0H57.6438C57.1383 0 56.9217 0.208633 56.9217 0.719424V2.71223C56.9217 3.21583 57.1311 3.43165 57.6438 3.43165H67.2114L57.6149 12.4029C57.4097 12.5622 57.2396 12.762 57.1153 12.9897C56.9911 13.2175 56.9153 13.4684 56.8928 13.7266V15.2878C56.8928 15.7914 57.1022 16.0072 57.6149 16.0072H72.5259C73.0313 16.0072 73.248 15.7986 73.248 15.2878V13.223C73.2624 12.7194 73.053 12.5108 72.5475 12.5108Z" fill="#D4D4D4"/>
<path d="M53.5712 0H38.6675C38.1548 0 37.9454 0.201439 37.9454 0.719424V2.70504C37.9454 3.20863 38.1476 3.42446 38.6675 3.42446H44.2852V15.2806C44.2852 15.7842 44.4947 16 45.0073 16H47.3902C47.8957 16 48.1123 15.7914 48.1123 15.2806V3.41727H53.5784C54.0839 3.41727 54.3005 3.20863 54.3005 2.69784V0.719424C54.2861 0.230216 54.0767 0 53.5712 0Z" fill="#D4D4D4"/>
<path d="M34.5949 12.6043H22.6806V9.60432H32.2048C32.7103 9.60432 32.9269 9.39568 32.9269 8.88489V7.13669C32.9269 6.63309 32.7247 6.41727 32.2048 6.41727H22.6806V3.42446H34.5949C35.1004 3.42446 35.317 3.21583 35.317 2.70504V0.719424C35.317 0.215827 35.1076 0 34.5949 0H19.7345C19.229 0 19.0124 0.208633 19.0124 0.719424V15.2806C19.0124 15.7842 19.2218 16 19.7345 16H34.5949C35.1004 16 35.317 15.7914 35.317 15.2806V13.3165C35.3098 12.813 35.1004 12.6043 34.5949 12.6043Z" fill="#D4D4D4"/>
<path d="M15.6186 0H13.3729C12.8675 0 12.6509 0.208633 12.6509 0.719424V6.38129H3.70428V0.719424C3.70428 0.215827 3.49487 0 2.9822 0H0.722081C0.209404 0 0 0.208633 0 0.719424V15.2878C0 15.7986 0.209404 16.0072 0.722081 16.0072H2.9822C3.48765 16.0072 3.70428 15.8058 3.70428 15.2878V9.53237H12.6581V15.2878C12.6581 15.7914 12.8675 16.0072 13.3802 16.0072H15.6258C16.1313 16.0072 16.3479 15.7986 16.3479 15.2878V0.719424C16.3335 0.230216 16.1241 0 15.6186 0Z" fill="#D4D4D4"/>
</g>
<defs>
<clipPath id="clip0_6769_23274">
<rect width="131" height="16" fill="white"/>
</clipPath>
</defs>
</svg>
