<svg fill="currentColor"  viewBox="0 0 32 32" version="1.1" xmlns="http://www.w3.org/2000/svg" xmlns:xlink="http://www.w3.org/1999/xlink" xml:space="preserve" xmlns:serif="http://www.serif.com/" style="fill-rule:evenodd;clip-rule:evenodd;stroke-linejoin:round;stroke-miterlimit:2;">
    <path d="M28,22C28,22.507 27.72,22.947 27.293,23.173L16.76,29.093C16.547,29.253 16.28,29.333 16,29.333C15.72,29.333 15.453,29.253 15.24,29.093L4.707,23.173C4.272,22.945 3.999,22.491 4,22L4,10C4,9.493 4.28,9.053 4.707,8.827L15.24,2.907C15.453,2.747 15.72,2.667 16,2.667C16.28,2.667 16.547,2.747 16.76,2.907L27.293,8.827C27.72,9.053 28,9.493 28,10L28,22ZM16,4.533L5.775,10.289L5.775,21.711L16,27.467L26.225,21.711L26.225,10.289L16,4.533Z" style="fill-rule:nonzero;"/>
    <g id="question" transform="matrix(1.45786,0,0,1.45786,-6.94159,1.70234)">
        <path d="M15.203,11.639C15.199,11.499 15.197,11.393 15.197,11.323C15.197,10.909 15.256,10.551 15.373,10.251C15.459,10.024 15.598,9.796 15.789,9.565C15.93,9.397 16.183,9.152 16.548,8.83C16.913,8.508 17.151,8.251 17.26,8.059C17.369,7.868 17.424,7.659 17.424,7.432C17.424,7.022 17.264,6.662 16.944,6.351C16.623,6.041 16.231,5.885 15.766,5.885C15.317,5.885 14.942,6.026 14.641,6.307C14.34,6.589 14.143,7.028 14.049,7.626L12.965,7.497C13.063,6.696 13.353,6.083 13.835,5.657C14.318,5.231 14.955,5.018 15.748,5.018C16.588,5.018 17.258,5.247 17.758,5.704C18.258,6.161 18.508,6.714 18.508,7.362C18.508,7.737 18.42,8.083 18.244,8.399C18.069,8.716 17.725,9.1 17.213,9.553C16.869,9.858 16.645,10.083 16.539,10.227C16.434,10.372 16.356,10.538 16.305,10.725C16.254,10.913 16.225,11.217 16.217,11.639L15.203,11.639ZM15.139,13.755L15.139,12.553L16.34,12.553L16.34,13.755L15.139,13.755Z" style="fill-rule:nonzero;"/>
    </g>
</svg>
