<svg width="28" height="39" viewBox="0 0 28 39" fill="none" xmlns="http://www.w3.org/2000/svg">
<path d="M3 35L2.5 35L2.5 35.5L3 35.5L3 35ZM3 5.66667C4.47276 5.66667 5.66667 4.47276 5.66667 3C5.66667 1.52724 4.47276 0.333336 3 0.333336C1.52724 0.333336 0.333332 1.52724 0.333332 3C0.333332 4.47276 1.52724 5.66667 3 5.66667ZM27.3536 35.3536C27.5488 35.1583 27.5488 34.8417 27.3536 34.6464L24.1716 31.4645C23.9763 31.2692 23.6597 31.2692 23.4645 31.4645C23.2692 31.6597 23.2692 31.9763 23.4645 32.1716L26.2929 35L23.4645 37.8284C23.2692 38.0237 23.2692 38.3403 23.4645 38.5355C23.6597 38.7308 23.9763 38.7308 24.1716 38.5355L27.3536 35.3536ZM3 35L3.5 35L3.5 3L3 3L2.5 3L2.5 35L3 35ZM3 35L3 35.5L27 35.5L27 35L27 34.5L3 34.5L3 35Z" fill="#A3A3A3"/>
</svg>
