<svg width="20" height="20" viewBox="0 0 20 20" fill="none" xmlns="http://www.w3.org/2000/svg">
<path d="M10.1725 9.00225H0.997749C0.712677 9.00225 0.480119 9.09978 0.28507 9.28732C0.0900212 9.48237 -6.56815e-07 9.71493 -6.56815e-07 10C-6.56815e-07 10.2851 0.0975231 10.5176 0.28507 10.7127C0.480119 10.9077 0.712677 10.9977 0.997749 10.9977H10.1725L8.29707 12.8957C8.11703 13.0758 8.0195 13.3083 8.012 13.5859C8.0045 13.8635 8.10202 14.096 8.29707 14.2986C8.47712 14.4786 8.71718 14.5761 8.99475 14.5761C9.27232 14.5761 9.51238 14.4861 9.69242 14.2986L13.2933 10.6977C13.4959 10.4951 13.5934 10.2626 13.5934 10C13.5934 9.73743 13.4959 9.49737 13.2933 9.30233L9.69242 5.70143C9.51238 5.52138 9.27982 5.42386 9.00225 5.41635C8.72468 5.40885 8.49212 5.50638 8.28957 5.70143C8.10953 5.88147 8.012 6.12153 8.012 6.3991C8.012 6.68417 8.10203 6.91673 8.28957 7.09677L10.165 8.99475L10.1725 9.00225ZM17.997 10C17.997 7.76444 17.2243 5.87397 15.6714 4.32108C14.1185 2.76819 12.2281 1.9955 9.9925 1.9955C9.44486 1.9955 8.89722 2.04801 8.36459 2.16054C7.83196 2.26557 7.31433 2.43061 6.8117 2.64816C6.52663 2.76819 6.24156 2.8057 5.96399 2.76069C5.67892 2.71568 5.43136 2.58815 5.2138 2.37059C5.01125 2.16804 4.96624 1.92798 5.07877 1.63541C5.1838 1.34284 5.40135 1.12528 5.71643 0.975244C6.3991 0.660165 7.09677 0.420105 7.80195 0.247562C8.50713 0.0750188 9.24231 0 9.9925 0C11.3728 0 12.6782 0.262566 13.8935 0.787697C15.1088 1.31283 16.1665 2.02551 17.0668 2.92573C17.967 3.82596 18.6797 4.88372 19.2048 6.09903C19.7374 7.32183 20 8.61966 20 10C20 11.3803 19.7374 12.6857 19.2123 13.901C18.6872 15.1163 17.9745 16.174 17.0743 17.0743C16.174 17.9745 15.1163 18.6872 13.901 19.2123C12.6857 19.7374 11.3803 20 10 20C9.24981 20 8.51463 19.9175 7.78695 19.7599C7.05926 19.6024 6.35409 19.3548 5.67142 19.0248C5.37134 18.8747 5.16879 18.6572 5.07127 18.3646C4.97374 18.072 5.01875 17.8245 5.2213 17.6294C5.42385 17.4269 5.66392 17.2993 5.94899 17.2393C6.23406 17.1793 6.50413 17.2093 6.77419 17.3293C7.29182 17.5619 7.81695 17.7344 8.36459 17.8395C8.90473 17.9445 9.45236 18.0045 10 18.0045C12.2356 18.0045 14.126 17.2318 15.6789 15.6789C17.2318 14.126 18.0045 12.2356 18.0045 10" fill="currentColor"/>
</svg>
