<svg width="24" height="24" viewBox="0 0 24 24" fill="none" xmlns="http://www.w3.org/2000/svg">
<path d="M14.6751 8.4059H15.2815L17.0097 6.67772L17.0945 5.944C16.1045 5.07018 14.9081 4.46317 13.6183 4.18031C12.3284 3.89745 10.9878 3.94807 9.72296 4.3274C8.45813 4.70672 7.31088 5.40223 6.38959 6.34822C5.46829 7.29421 4.80337 8.45945 4.45762 9.73387C4.65015 9.65495 4.86342 9.64216 5.064 9.69749L8.52036 9.12749C8.52036 9.12749 8.69621 8.83643 8.78716 8.85462C9.52775 8.04126 10.5512 7.54175 11.6481 7.45833C12.7449 7.37491 13.8321 7.7139 14.6872 8.4059H14.6751Z" fill="#E5E5E5"/>
<path d="M19.4715 9.73384C19.0743 8.27104 18.2587 6.95599 17.1248 5.95004L14.6993 8.37556C15.2048 8.7886 15.6099 9.31104 15.8841 9.90347C16.1582 10.4959 16.2943 11.1429 16.282 11.7955V12.2261C16.5654 12.2261 16.8461 12.2819 17.1081 12.3904C17.37 12.4989 17.6079 12.6579 17.8084 12.8583C18.0088 13.0588 18.1679 13.2968 18.2763 13.5587C18.3848 13.8206 18.4407 14.1013 18.4407 14.3848C18.4407 14.6683 18.3848 14.949 18.2763 15.2109C18.1679 15.4728 18.0088 15.7107 17.8084 15.9112C17.6079 16.1117 17.37 16.2707 17.1081 16.3792C16.8461 16.4876 16.5654 16.5435 16.282 16.5435H11.9645L11.534 16.9801V19.5693L11.9645 19.9998H16.282C17.4876 20.0092 18.6642 19.6303 19.6378 18.9191C20.6114 18.208 21.3302 17.2023 21.6879 16.0509C22.0456 14.8996 22.0232 13.6636 21.6241 12.526C21.2249 11.3883 20.4702 10.4093 19.4715 9.73384Z" fill="#E5E5E5"/>
<path d="M7.64106 19.9756H11.9585V16.5192H7.64106C7.33346 16.5191 7.02947 16.453 6.74968 16.3252L6.1433 16.5131L4.403 18.2413L4.2514 18.8477C5.22733 19.5846 6.41816 19.9809 7.64106 19.9756Z" fill="#E5E5E5"/>
<path d="M7.64109 8.76364C6.47128 8.77063 5.33286 9.14281 4.38484 9.8282C3.43681 10.5136 2.72653 11.478 2.35319 12.5866C1.97985 13.6953 1.96211 14.8929 2.30243 16.0121C2.64275 17.1313 3.32414 18.1163 4.25144 18.8295L6.75578 16.3252C6.43753 16.1814 6.15892 15.9626 5.94384 15.6874C5.72876 15.4123 5.58365 15.0891 5.52095 14.7455C5.45825 14.402 5.47983 14.0483 5.58384 13.715C5.68786 13.3816 5.8712 13.0784 6.11814 12.8315C6.36508 12.5846 6.66824 12.4012 7.00161 12.2972C7.33499 12.1932 7.68862 12.1716 8.03216 12.2343C8.37571 12.297 8.69892 12.4421 8.97405 12.6572C9.24919 12.8723 9.46804 13.1509 9.61182 13.4691L12.1162 10.9648C11.5905 10.2776 10.9131 9.72136 10.1367 9.33951C9.36039 8.95765 8.50625 8.76056 7.64109 8.76364Z" fill="#E5E5E5"/>
</svg>
