<svg width="29" height="29" viewBox="0 0 29 29" fill="none" xmlns="http://www.w3.org/2000/svg">
<path d="M15.0645 21.5H22.5645" stroke="currentColor" stroke-width="3" stroke-linecap="round"/>
<path d="M6.39648 11.5L11.3965 16.5L6.39648 21.5" stroke="currentColor" stroke-width="3" stroke-linecap="round" stroke-linejoin="round"/>
<path d="M10.71 1.05849L23.7858 1.05849C25.9949 1.05849 27.7858 2.84935 27.7858 5.05849V24.21C27.7858 26.4191 25.9949 28.21 23.7858 28.21H4.63425C2.42511 28.21 0.634243 26.4191 0.634243 24.21L0.634243 10.71" stroke="currentColor"/>
<path d="M2.78029 4.1098L0.5 6.3901L0.5 0.5L6.3901 0.5L4.1098 2.78029L3.75625 3.13385L4.1098 3.4874L7.47229 6.84988L6.84988 7.47229L3.4874 4.1098L3.13385 3.75625L2.78029 4.1098Z" fill="currentColor" stroke="currentColor"/>
</svg>
