<svg width="20" height="20" viewBox="0 0 20 20" fill="none" xmlns="http://www.w3.org/2000/svg">
<path d="M3.47126 11.0053L5.38697 12.9032C5.57088 13.0833 5.6705 13.3233 5.6705 13.6009C5.6705 13.8785 5.57854 14.1185 5.38697 14.2986C5.1954 14.4786 4.95785 14.5761 4.67433 14.5761C4.3908 14.5761 4.14559 14.4861 3.96169 14.2986L0.283526 10.6977C0.0996175 10.5176 4.1472e-08 10.2776 4.1472e-08 10C4.1472e-08 9.71493 0.0919547 9.48237 0.283526 9.30233L3.96169 5.70143C4.14559 5.52138 4.3908 5.42386 4.67433 5.42386C4.95785 5.42386 5.20307 5.51388 5.38697 5.70143C5.57088 5.88897 5.6705 6.12153 5.6705 6.3991C5.6705 6.67667 5.57854 6.91673 5.38697 7.09677L3.47126 8.99475H12.8506C13.1418 8.99475 13.3793 9.09227 13.5785 9.27982C13.7778 9.47487 13.8697 9.70743 13.8697 9.9925C13.8697 10.2776 13.7701 10.5101 13.5785 10.7052C13.3793 10.9002 13.1418 10.9902 12.8506 10.9902H3.47893L3.47126 11.0053ZM17.954 10C17.954 7.76444 17.1648 5.87397 15.5785 4.32108C13.9923 2.76819 12.0613 1.9955 9.77778 1.9955C9.21839 1.9955 8.659 2.04801 8.11494 2.16054C7.57088 2.26557 7.04215 2.43061 6.52874 2.64816C6.23755 2.76819 5.94636 2.8057 5.66284 2.76069C5.37165 2.71568 5.11877 2.58815 4.89655 2.37059C4.68966 2.16804 4.64368 1.92798 4.75862 1.63541C4.8659 1.34284 5.08812 1.12528 5.40996 0.975244C6.10728 0.660165 6.81992 0.420105 7.54023 0.247562C8.26054 0.0750188 9.01149 0 9.77778 0C11.1877 0 12.5211 0.262566 13.7625 0.787697C15.0038 1.31283 16.0843 2.02551 17.0038 2.92573C17.9234 3.82596 18.6513 4.88372 19.1877 6.09903C19.7318 7.32183 20 8.61966 20 10C20 11.3803 19.7318 12.6857 19.1954 13.901C18.659 15.1163 17.931 16.174 17.0115 17.0743C16.092 17.9745 15.0115 18.6872 13.7701 19.2123C12.5287 19.7374 11.1954 20 9.78544 20C9.01916 20 8.2682 19.9175 7.5249 19.7599C6.78161 19.6024 6.0613 19.3548 5.36398 19.0248C5.05747 18.8747 4.85058 18.6572 4.75096 18.3646C4.65134 18.072 4.69732 17.8245 4.90421 17.6294C5.11111 17.4269 5.35632 17.2993 5.64751 17.2393C5.9387 17.1793 6.21456 17.2093 6.49042 17.3293C7.01916 17.5619 7.55556 17.7344 8.11494 17.8395C8.66667 17.9445 9.22605 18.0045 9.78544 18.0045C12.069 18.0045 14 17.2318 15.5862 15.6789C17.1724 14.126 17.9617 12.2356 17.9617 10" fill="currentColor"/>
</svg>
