<svg viewBox="0 0 30 30" fill="none" xmlns="http://www.w3.org/2000/svg">
<path fill-rule="evenodd" clip-rule="evenodd" d="M3 7C3 4.79086 4.79086 3 7 3H23C25.2091 3 27 4.79086 27 7V23C27 25.2091 25.2091 27 23 27H7C4.79086 27 3 25.2091 3 23V7ZM15.9764 9.47644C15.9764 8.93717 15.5392 8.5 15 8.5C14.4607 8.5 14.0235 8.93717 14.0235 9.47644V14.0236H9.47644C8.93717 14.0236 8.5 14.4608 8.5 15C8.5 15.5393 8.93717 15.9765 9.47644 15.9765H14.0235V20.5236C14.0235 21.0628 14.4607 21.5 15 21.5C15.5392 21.5 15.9764 21.0628 15.9764 20.5236V15.9765H20.5236C21.0628 15.9765 21.5 15.5393 21.5 15C21.5 14.4608 21.0628 14.0236 20.5236 14.0236H15.9764V9.47644Z" fill="currentColor"/>
</svg>
