<svg width="30" height="30" viewBox="0 0 30 30" fill="none" xmlns="http://www.w3.org/2000/svg">
<path d="M4 8.57437L15 2.1577L26 8.57437V21.4256L15 27.8423L4 21.4256V8.57437Z" stroke="#22C55E" stroke-width="2"/>
<path fill-rule="evenodd" clip-rule="evenodd" d="M15 8.5C15.5392 8.5 15.9764 8.93717 15.9764 9.47644V14.0236H20.5236C21.0628 14.0236 21.5 14.4608 21.5 15C21.5 15.5393 21.0628 15.9765 20.5236 15.9765H15.9764V20.5236C15.9764 21.0628 15.5392 21.5 15 21.5C14.4607 21.5 14.0235 21.0628 14.0235 20.5236V15.9765H9.47644C8.93717 15.9765 8.5 15.5393 8.5 15C8.5 14.4608 8.93717 14.0236 9.47644 14.0236H14.0235V9.47644C14.0235 8.93717 14.4607 8.5 15 8.5Z" fill="#22C55E"/>
</svg>
