<svg fill="currentColor" viewBox="0 0 32 32" version="1.1" xmlns="http://www.w3.org/2000/svg" xmlns:xlink="http://www.w3.org/1999/xlink" xml:space="preserve" xmlns:serif="http://www.serif.com/" style="fill-rule:evenodd;clip-rule:evenodd;stroke-linejoin:round;stroke-miterlimit:2;">
    <path d="M28,22C28,22.507 27.72,22.947 27.293,23.173L16.76,29.093C16.547,29.253 16.28,29.333 16,29.333C15.72,29.333 15.453,29.253 15.24,29.093L4.707,23.173C4.272,22.945 3.999,22.491 4,22L4,10C4,9.493 4.28,9.053 4.707,8.827L15.24,2.907C15.453,2.747 15.72,2.667 16,2.667C16.28,2.667 16.547,2.747 16.76,2.907L27.293,8.827C27.72,9.053 28,9.493 28,10L28,22ZM16,4.533L5.775,10.289L5.775,21.711L16,27.467L26.225,21.711L26.225,10.289L16,4.533Z" style="fill-rule:nonzero;"/>
    <g id="refresh" transform="matrix(0.53125,0,0,0.53125,7.5,7.5)">
        <path d="M16,26.667C13.022,26.667 10.5,25.633 8.433,23.567C6.367,21.5 5.333,18.978 5.333,16C5.333,13.022 6.367,10.5 8.433,8.433C10.5,6.367 13.022,5.333 16,5.333C17.533,5.333 19,5.65 20.4,6.283C21.8,6.916 23,7.821 24,9L24,5.333L26.667,5.333L26.667,14.667L17.333,14.667L17.333,12L22.933,12C22.222,10.756 21.25,9.778 20.016,9.067C18.782,8.356 17.444,8 16,8C13.778,8 11.889,8.778 10.333,10.333C8.778,11.889 8,13.778 8,16C8,18.222 8.778,20.111 10.333,21.667C11.889,23.222 13.778,24 16,24C17.711,24 19.256,23.511 20.633,22.533C22.011,21.556 22.978,20.267 23.533,18.667L26.333,18.667C25.711,21.022 24.444,22.944 22.533,24.433C20.622,25.922 18.444,26.667 16,26.667Z" style="fill-rule:nonzero;"/>
    </g>
</svg>
