<svg viewBox="0 0 30 30" fill="none" xmlns="http://www.w3.org/2000/svg">
<path fill-rule="evenodd" clip-rule="evenodd" d="M3 7C3 4.79086 4.79086 3 7 3H23C25.2091 3 27 4.79086 27 7V23C27 25.2091 25.2091 27 23 27H7C4.79086 27 3 25.2091 3 23V7ZM9.49364 14.647C9.03214 15.1092 9.00547 15.6821 9.00547 15.6821C9.01008 15.8177 8.98705 15.9528 8.93778 16.0793C8.88851 16.2058 8.81402 16.3209 8.71884 16.4178C8.62366 16.5146 8.50977 16.5912 8.38408 16.6427C8.25839 16.6943 8.12353 16.7198 7.98766 16.7177C7.8518 16.7156 7.71778 16.686 7.59373 16.6306C7.46968 16.5753 7.35819 16.4953 7.26603 16.3956C7.17386 16.2959 7.10294 16.1785 7.05757 16.0506C7.0122 15.9226 6.99332 15.7868 7.00209 15.6514C7.05324 14.7423 7.43396 13.8829 8.07314 13.2336C8.7187 12.5861 9.76974 12 11.533 12C13.6404 12 14.7222 13.139 15.7652 14.3459C15.8086 14.3961 15.8518 14.4466 15.8951 14.4971C16.534 15.2428 17.1797 15.9964 18.4688 15.9964C19.4905 15.9964 20.1267 15.73 20.5029 15.353C20.967 14.8868 20.9964 14.3126 20.9964 14.3126C20.9993 14.1812 21.028 14.0517 21.0811 13.9314C21.1341 13.8112 21.2103 13.7025 21.3053 13.6116C21.4004 13.5208 21.5124 13.4495 21.6351 13.4019C21.7577 13.3543 21.8885 13.3313 22.0201 13.3341C22.1516 13.337 22.2813 13.3658 22.4017 13.4187C22.5222 13.4717 22.631 13.5478 22.7219 13.6427C22.8129 13.7377 22.8843 13.8496 22.9319 13.972C22.9796 14.0945 23.0026 14.2252 22.9998 14.3566C22.9998 14.3566 22.9891 15.6994 21.922 16.7678C21.2751 17.4139 20.2254 18 18.4688 18C16.3721 18 15.2904 16.861 14.2487 15.6528C14.2056 15.6032 14.1627 15.5533 14.1198 15.5034C13.4779 14.7573 12.8295 14.0036 11.533 14.0036C10.506 14.0036 9.86977 14.27 9.49364 14.647Z" fill="currentColor"/>
</svg>
