<svg width="30" height="30" viewBox="0 0 30 30" fill="none" xmlns="http://www.w3.org/2000/svg">
<path d="M4 8.57437L15 2.1577L26 8.57437V21.4256L15 27.8423L4 21.4256V8.57437Z" stroke="black" stroke-width="2"/>
<path fill-rule="evenodd" clip-rule="evenodd" d="M9.75478 15.6821C9.75478 15.6821 9.77812 15.1092 10.1819 14.647C10.5111 14.27 11.0677 14.0036 11.9664 14.0036C13.1767 14.0036 13.7415 14.8615 14.3426 15.6528C15.2541 16.861 16.2006 18 18.0352 18C19.5723 18 20.4908 17.4139 21.0568 16.7678C21.9905 15.6994 21.9998 14.3566 21.9998 14.3566C22.0023 14.2252 21.9822 14.0945 21.9404 13.972C21.8987 13.8496 21.8363 13.7377 21.7567 13.6427C21.6771 13.5478 21.5819 13.4717 21.4765 13.4187C21.3711 13.3658 21.2577 13.337 21.1426 13.3341C21.0275 13.3313 20.913 13.3543 20.8057 13.4019C20.6984 13.4495 20.6003 13.5208 20.5172 13.6116C20.434 13.7025 20.3673 13.8112 20.3209 13.9314C20.2745 14.0517 20.2494 14.1812 20.2468 14.3126C20.2468 14.3126 20.2212 14.8868 19.815 15.353C19.4859 15.73 18.9292 15.9964 18.0352 15.9964C16.8308 15.9964 16.2683 15.1372 15.6695 14.3459C14.7569 13.139 13.8104 12 11.9664 12C10.4235 12 9.50386 12.5861 8.93899 13.2336C8.37971 13.8829 8.04659 14.7423 8.00183 15.6514C7.99416 15.7868 8.01067 15.9226 8.05037 16.0506C8.09007 16.1785 8.15213 16.2959 8.23277 16.3956C8.31342 16.4953 8.41097 16.5753 8.51952 16.6306C8.62806 16.686 8.74533 16.7156 8.86421 16.7177C8.98308 16.7198 9.10109 16.6943 9.21107 16.6427C9.32105 16.5912 9.4207 16.5146 9.50399 16.4178C9.58727 16.3209 9.65244 16.2058 9.69556 16.0793C9.73867 15.9528 9.75882 15.8177 9.75478 15.6821Z" fill="black"/>
</svg>
