<svg width="16" height="16" viewBox="0 0 16 16" fill="none" xmlns="http://www.w3.org/2000/svg">
<rect width="16" height="16" fill="currentColor" fill-opacity="0.01" style="mix-blend-mode:multiply"/>
<path d="M8 1.40039C11.6451 1.40039 14.5996 4.35492 14.5996 8C14.5996 11.6451 11.6451 14.5996 8 14.5996C4.35492 14.5996 1.40039 11.6451 1.40039 8C1.40039 4.35492 4.35492 1.40039 8 1.40039ZM5.94238 6.5332C4.87731 6.53322 4.13076 7.14361 3.59961 7.6748L4.30371 8.37793C4.72354 7.9579 5.24689 7.52834 5.94238 7.52832C6.55087 7.52832 7.09778 7.85675 7.67676 8.2041C8.3152 8.58722 9.03951 9.02148 9.92383 9.02148C10.9883 9.02132 11.7346 8.41193 12.2656 7.88086L11.5625 7.17676C11.1424 7.59681 10.619 8.02619 9.92383 8.02637C9.31529 8.02637 8.76751 7.69797 8.18848 7.35059C7.55011 6.96752 6.82654 6.5332 5.94238 6.5332Z" fill="currentColor"/>
</svg>