<svg width="16" height="16" viewBox="0 0 16 16" fill="none" xmlns="http://www.w3.org/2000/svg">
<path d="M11.5 14.5H4.50002C4.41263 14.5 4.32677 14.4771 4.25099 14.4336C4.1752 14.3901 4.11215 14.3274 4.06812 14.252L0.568119 8.25195C0.523507 8.17548 0.5 8.08853 0.5 8C0.5 7.91147 0.523507 7.82452 0.568119 7.74805L4.06812 1.74805C4.11215 1.67257 4.1752 1.60994 4.25099 1.56642C4.32677 1.5229 4.41263 1.5 4.50002 1.5H11.5C11.5874 1.5 11.6733 1.5229 11.7491 1.56642C11.8248 1.60994 11.8879 1.67257 11.9319 1.74805L15.4319 7.74805C15.4765 7.82452 15.5 7.91147 15.5 8C15.5 8.08853 15.4765 8.17548 15.4319 8.25195L11.9319 14.252C11.8879 14.3274 11.8248 14.3901 11.7491 14.4336C11.6733 14.4771 11.5874 14.5 11.5 14.5ZM4.78712 13.5H11.2129L14.4212 8L11.2129 2.5H4.78712L1.57887 8L4.78712 13.5Z" fill="currentColor"/>
<path d="M10.3143 11L8 8.68571L5.68571 11L5 10.3143L7.31429 8L5 5.68571L5.68571 5L8 7.31429L10.3143 5L11 5.68571L8.68571 8L11 10.3143L10.3143 11Z" fill="currentColor"/>
</svg>