<svg width="30" height="30" viewBox="0 0 30 30" fill="none" xmlns="http://www.w3.org/2000/svg">
<path fill-rule="evenodd" clip-rule="evenodd" d="M3 7C3 4.79086 4.79086 3 7 3H23C25.2091 3 27 4.79086 27 7V23C27 25.2091 25.2091 27 23 27H7C4.79086 27 3 25.2091 3 23V7ZM19.7071 11.7071C20.0976 11.3166 20.0976 10.6834 19.7071 10.2929C19.3166 9.90235 18.6834 9.90235 18.2929 10.2929L15 13.5858L11.7071 10.2929C11.3166 9.90239 10.6834 9.90239 10.2929 10.2929C9.90237 10.6834 9.90237 11.3166 10.2929 11.7071L13.5858 15L10.2929 18.2929C9.90237 18.6834 9.90237 19.3166 10.2929 19.7071C10.6834 20.0976 11.3166 20.0976 11.7071 19.7071L15 16.4142L18.2929 19.7071C18.6834 20.0977 19.3166 20.0977 19.7071 19.7071C20.0976 19.3166 20.0976 18.6834 19.7071 18.2929L16.4142 15L19.7071 11.7071Z" fill="#EF4444"/>
</svg>
