<svg xmlns="http://www.w3.org/2000/svg" xml:space="preserve" width="1.2em" height="1.2em" fill="currentColor" style="fill-rule:evenodd;clip-rule:evenodd;stroke-linejoin:round;stroke-miterlimit:2" viewBox="0 0 20 20"><path d="M4.25 2A2.261 2.261 0 0 0 2 4.25v11.5A2.261 2.261 0 0 0 4.25 18h11.5A2.261 2.261 0 0 0 18 15.75V4.25A2.261 2.261 0 0 0 15.75 2H4.25Zm4.03 5.22a.752.752 0 0 0-.511-.201.753.753 0 0 0-.75.75c0 .189.072.372.201.511L8.94 10l-1.72 1.72a.752.752 0 0 0-.239.549c0 .411.339.75.75.75a.752.752 0 0 0 .549-.239L10 11.06l1.72 1.72a.752.752 0 0 0 .549.239c.411 0 .75-.339.75-.75a.752.752 0 0 0-.239-.549L11.06 10l1.72-1.72a.752.752 0 0 0 .201-.511.753.753 0 0 0-.75-.75.752.752 0 0 0-.511.201L10 8.94 8.28 7.22Z"/></svg>