<?xml version="1.0" encoding="UTF-8" standalone="no"?>
<svg viewBox="0 0 123 119" version="1.1" xmlns="http://www.w3.org/2000/svg" xmlns:xlink="http://www.w3.org/1999/xlink" xml:space="preserve" style="fill-rule:evenodd;clip-rule:evenodd;stroke-linejoin:round;stroke-miterlimit:2;" fill="currentColor">
    <path d="M112.13,26.42C111.43,24.17 109.74,22.34 107.63,21.22L64.78,0.7C63.65,0.14 62.39,0 61.26,0C60.13,0 58.87,0 57.75,0.28L14.89,20.94C12.78,21.92 11.24,23.75 10.67,26.14L0.14,72.37C-0.28,74.76 0.28,77.15 1.69,79.12L31.34,115.79C33.03,117.48 35.42,118.6 37.8,118.74L85.01,118.74C87.54,119.02 89.93,117.9 91.47,115.79L121.12,79.12C122.53,77.15 123.09,74.76 122.81,72.37L112.13,26.42ZM60.961,13.95C60.345,14.049 59.747,14.413 59.23,14.93C58.67,15.49 58.39,16.19 58.39,16.9L58.39,17.6C58.39,18.16 58.53,18.72 58.67,19.29C58.81,19.57 58.81,19.85 58.81,20.13L58.81,20.27C59.09,21.82 59.09,23.36 59.09,25.05C58.95,25.47 58.81,25.89 58.39,26.17L58.39,26.45L58.25,27.57C56.7,27.71 55.16,27.99 53.47,28.27C46.87,29.68 40.82,33.19 36.19,38.11L35.35,37.55L35.21,37.55C35.07,37.55 34.93,37.69 34.65,37.69C34.37,37.69 34.09,37.55 33.81,37.41C32.55,36.43 31.28,35.3 30.3,34.18C30.16,33.9 29.88,33.76 29.74,33.62C29.32,33.2 29.04,32.78 28.62,32.36C28.48,32.22 28.34,32.22 28.2,32.08L28.06,31.94C27.5,31.52 26.8,31.24 26.09,31.24C25.25,31.24 24.54,31.52 24.12,32.22C23.28,33.48 23.56,35.17 24.68,36.15C24.82,36.15 24.82,36.29 24.82,36.29C24.82,36.29 25.1,36.57 25.24,36.57C25.66,36.85 26.22,37.13 26.79,37.41C27.07,37.55 27.35,37.69 27.63,37.83C29.04,38.67 30.44,39.52 31.56,40.64C31.816,40.896 32.071,41.384 32.007,41.787L32.82,42.6C32.68,42.88 32.54,43.02 32.4,43.3C28.04,50.19 26.22,58.34 27.48,66.35L26.36,66.63C26.36,66.77 26.22,66.77 26.22,66.77C26.08,67.19 25.66,67.47 25.24,67.75C23.69,68.17 22.15,68.45 20.46,68.59C20.18,68.59 19.9,68.59 19.62,68.73C19.06,68.73 18.5,68.87 17.93,68.87C17.79,68.87 17.65,69.01 17.37,69.01C17.23,69.01 17.23,69.01 17.09,69.15C15.54,69.43 14.56,70.84 14.84,72.38C15.12,73.64 16.39,74.49 17.65,74.35C17.93,74.35 18.07,74.35 18.35,74.21C18.49,74.21 18.49,74.21 18.49,74.07C18.49,73.93 18.91,74.07 19.05,74.07C19.61,73.93 20.17,73.65 20.6,73.51C20.88,73.37 21.16,73.23 21.44,73.23L21.58,73.23C23.13,72.67 24.53,72.25 26.22,71.97L26.36,71.97C26.78,71.97 27.2,72.11 27.48,72.39C27.62,72.39 27.62,72.53 27.62,72.53L28.88,72.39C30.99,78.85 34.92,84.62 40.4,88.83C41.66,89.81 42.79,90.66 44.19,91.36L43.49,92.34C43.49,92.48 43.63,92.48 43.63,92.48C43.91,92.9 43.91,93.46 43.77,93.89C43.21,95.3 42.36,96.7 41.52,97.97L41.52,98.11C41.38,98.39 41.24,98.53 40.96,98.81C40.68,99.09 40.4,99.65 39.98,100.22C39.84,100.36 39.84,100.5 39.7,100.64C39.7,100.64 39.7,100.78 39.56,100.78C38.86,102.19 39.42,103.87 40.68,104.57C40.96,104.71 41.38,104.85 41.66,104.85C42.78,104.85 43.77,104.15 44.33,103.16C44.33,103.16 44.33,103.02 44.47,103.02C44.47,102.88 44.61,102.74 44.75,102.6C44.89,102.04 45.17,101.62 45.31,101.05L45.59,100.21C46.01,98.66 46.71,97.26 47.42,95.85C47.7,95.43 48.12,95.15 48.54,95.01C48.68,95.01 48.68,95.01 48.68,94.87L49.24,93.75C53.17,95.3 57.25,96 61.46,96C63.99,96 66.52,95.72 69.05,95.02C70.6,94.74 72.14,94.18 73.55,93.76L74.11,94.74C74.25,94.74 74.25,94.74 74.25,94.88C74.67,95.02 75.09,95.3 75.37,95.72C76.07,97.13 76.78,98.53 77.2,100.08L77.2,100.22L77.48,101.06C77.62,101.62 77.76,102.18 78.04,102.61C78.101,102.671 78.136,102.733 78.167,102.794L78.193,102.846C78.224,102.908 78.259,102.969 78.32,103.03C78.32,103.03 78.32,103.17 78.46,103.17C79.02,104.15 80.01,104.86 81.13,104.86C81.55,104.86 81.83,104.72 82.25,104.58C82.81,104.3 83.37,103.74 83.51,103.03C83.65,102.33 83.65,101.62 83.37,100.92C83.37,100.78 83.23,100.78 83.23,100.78C83.23,100.64 83.09,100.5 82.95,100.36C82.67,99.8 82.39,99.38 81.97,98.95C81.83,98.67 81.69,98.53 81.41,98.25L81.41,97.97C80.43,96.71 79.72,95.3 79.16,93.89C79.02,93.47 79.02,92.91 79.3,92.48C79.3,92.34 79.44,92.34 79.44,92.34L79.02,91.22C86.19,86.86 91.67,80.12 94.2,72.11L95.32,72.25C95.46,72.25 95.46,72.11 95.46,72.11C95.74,71.83 96.16,71.69 96.58,71.69L96.72,71.69C98.27,71.97 99.81,72.39 101.22,72.95L101.36,72.95C101.64,73.09 101.92,73.23 102.2,73.23C102.76,73.51 103.18,73.79 103.75,73.93C103.89,73.93 104.03,74.07 104.31,74.07C104.45,74.07 104.45,74.07 104.59,74.21C104.87,74.35 105.01,74.35 105.29,74.35C106.55,74.35 107.68,73.51 108.1,72.38C107.98,70.86 106.85,69.73 105.59,69.45C105.45,69.45 105.31,69.45 105.31,69.31C105.31,69.17 105.03,69.17 104.75,69.17C104.19,69.03 103.63,69.03 103.06,69.03C102.78,69.03 102.5,69.03 102.22,68.89L102.08,68.89C100.53,68.75 98.85,68.47 97.3,68.05C97.09,67.98 96.88,67.84 96.705,67.665L96.32,67.07L95.2,66.79C95.76,62.71 95.48,58.5 94.64,54.42C93.66,50.34 91.97,46.41 89.72,42.9L90.56,42.06L90.56,41.92C90.56,41.5 90.7,40.94 90.98,40.66C92.24,39.54 93.51,38.69 94.91,37.85C95.19,37.71 95.47,37.57 95.75,37.43C96.31,37.15 96.73,36.87 97.3,36.59C97.44,36.45 97.58,36.45 97.72,36.31C97.86,36.17 97.72,36.17 97.72,36.03C98.98,35.05 99.27,33.36 98.28,32.1C97.86,31.54 97.02,31.12 96.31,31.12C95.61,31.12 94.9,31.4 94.34,31.82L94.2,31.96C94.06,32.1 93.92,32.24 93.78,32.24C93.36,32.66 92.94,33.08 92.66,33.5C92.52,33.78 92.24,33.92 92.1,34.06C91.12,35.18 89.85,36.31 88.59,37.15C88.31,37.29 88.03,37.43 87.75,37.43C87.61,37.43 87.33,37.43 87.19,37.29L87.05,37.29L85.93,37.99C84.81,36.87 83.54,35.74 82.42,34.62C77.22,30.54 70.76,28.02 64.15,27.31L64.01,26.19L64.01,26.33C63.59,26.05 63.45,25.63 63.31,25.21C63.31,23.66 63.31,22.12 63.59,20.43L63.59,20.29C63.59,20.01 63.73,19.73 63.73,19.45C63.87,18.89 63.87,18.33 64.01,17.76L64.01,16.9C64.15,15.49 63.03,14.09 61.62,13.95L60.991,13.946L60.961,13.95ZM67.23,88.84C65.26,89.26 63.3,89.54 61.19,89.54C58.24,89.54 55.15,88.98 52.34,88.13L59.23,75.62C59.93,74.78 61.06,74.5 62.04,75.06C62.46,75.34 62.74,75.62 63.16,76.04L69.91,88.27C69.05,88.42 68.21,88.56 67.23,88.84ZM35.33,71.42L49.24,69.03C50.36,69.03 51.49,69.73 51.63,70.86C51.77,71.28 51.77,71.84 51.49,72.27L46.15,85.2C41.23,81.96 37.29,77.04 35.33,71.42ZM84.37,76.62C82.26,79.99 79.31,82.94 75.94,85.05L70.46,71.84C70.18,70.72 70.74,69.59 71.72,69.17C72.14,69.03 72.56,68.89 72.98,68.89L87.03,71.28C86.34,73.24 85.49,75.07 84.37,76.62ZM64.98,65.09L61.19,66.92L57.4,65.09L56.42,61.01L59.09,57.64L63.31,57.64L65.98,61.01L64.98,65.09ZM87.88,55.96C88.58,58.91 88.72,61.86 88.44,64.81L75.09,61.02C73.83,60.74 73.12,59.47 73.4,58.21C73.54,57.79 73.68,57.51 73.96,57.23L84.5,47.67C86.05,50.2 87.18,53.01 87.88,55.96ZM37.72,47.67L48.12,56.94C49.1,57.78 49.24,59.19 48.4,60.17C48.12,60.59 47.84,60.73 47.28,60.87L33.65,64.8C33.22,58.91 34.62,52.87 37.72,47.67ZM54.86,35.3L57.67,34.74L56.97,48.79C56.97,50.05 55.85,51.04 54.58,51.04C54.16,51.04 53.88,50.9 53.46,50.76L41.8,42.47C45.44,38.96 49.94,36.43 54.86,35.3ZM80.29,42.47L68.77,50.62C67.79,51.18 66.38,51.04 65.68,50.06C65.4,49.78 65.26,49.5 65.26,49.08L64.42,34.89C70.6,35.59 76.08,38.26 80.29,42.47ZM32.007,41.787L31.98,41.76L31.98,41.9C31.992,41.863 32.001,41.826 32.007,41.787Z"/>
</svg>
