<svg width="63" height="36" viewBox="0 0 63 36" fill="none" xmlns="http://www.w3.org/2000/svg">
<path d="M20.2043 13.6C20.2043 14.2667 20.294 14.8 20.3838 15.2C20.5183 15.6 20.6977 16 20.9668 16.4889C21.0565 16.6222 21.1014 16.7556 21.1014 16.8889C21.1014 17.0667 21.0117 17.2444 20.7426 17.4222L19.6213 18.1778C19.4419 18.2667 19.3073 18.3556 19.1728 18.3556C18.9934 18.3556 18.814 18.2667 18.6346 18.0889C18.3655 17.8222 18.1861 17.5556 18.0067 17.2444C17.8273 16.9333 17.6479 16.6222 17.4685 16.1778C16.0781 17.8222 14.3289 18.6222 12.1761 18.6222C10.6512 18.6222 9.48508 18.1778 8.58807 17.3333C7.69106 16.4889 7.24255 15.3333 7.24255 13.9111C7.24255 12.4 7.78076 11.1556 8.85717 10.2667C9.93358 9.37778 11.4137 8.88889 13.2525 8.88889C13.8804 8.88889 14.5083 8.93334 15.1362 9.02223C15.809 9.11112 16.4818 9.24445 17.1994 9.42223V8.13334C17.1994 6.8 16.9303 5.82223 16.3472 5.28889C15.7641 4.75556 14.8223 4.48889 13.4319 4.48889C12.804 4.48889 12.1761 4.57778 11.5034 4.71112C10.8306 4.88889 10.2027 5.06667 9.57478 5.33334C9.30568 5.42223 9.08142 5.51112 8.94687 5.55556C8.81232 5.55556 8.72262 5.6 8.67777 5.6C8.40867 5.6 8.31897 5.42223 8.31897 5.06667V4.17778C8.31897 3.91112 8.36382 3.68889 8.45352 3.55556C8.54322 3.42223 8.72262 3.28889 8.94687 3.2C9.57478 2.88889 10.3372 2.62223 11.1894 2.4C12.0864 2.17778 12.9834 2.04445 13.9701 2.04445C16.123 2.04445 17.6479 2.53334 18.6794 3.46667C19.6661 4.44445 20.1595 5.86667 20.1595 7.86667L20.2043 13.6ZM12.9386 16.3111C13.5216 16.3111 14.1495 16.2222 14.7774 16C15.4053 15.7778 15.9884 15.3778 16.4818 14.8444C16.7509 14.4889 16.9751 14.1333 17.1097 13.6889C17.1994 13.2444 17.2891 12.7556 17.2891 12.1333V11.3778C16.7509 11.2444 16.2127 11.1556 15.6296 11.0667C15.0465 10.9778 14.5083 10.9778 13.9253 10.9778C12.7143 10.9778 11.8622 11.2 11.2342 11.6889C10.6512 12.1778 10.3372 12.8444 10.3372 13.7333C10.3372 14.5778 10.5615 15.2 11.01 15.6C11.4585 16.1333 12.0864 16.3111 12.9386 16.3111ZM27.3356 18.2667C27.0216 18.2667 26.7974 18.2222 26.6628 18.0889C26.5283 18 26.3937 17.7333 26.304 17.3778L22.0881 3.6C21.9984 3.24445 21.9087 3.02223 21.9087 2.88889C21.9087 2.62223 22.0432 2.44445 22.3572 2.44445H24.1063C24.4651 2.44445 24.6894 2.48889 24.824 2.62223C24.9585 2.71112 25.0931 2.97778 25.1828 3.33334L28.1877 15.1111L30.9685 3.33334C31.0582 2.97778 31.1479 2.75556 31.3273 2.62223C31.4618 2.53334 31.7309 2.44445 32.0449 2.44445H33.4801C33.8389 2.44445 34.0632 2.48889 34.1977 2.62223C34.3323 2.71112 34.4668 2.97778 34.5565 3.33334L37.3821 15.2444L40.4768 3.33334C40.5665 2.97778 40.701 2.75556 40.8356 2.62223C40.9701 2.53334 41.1944 2.44445 41.5532 2.44445H43.2127C43.4818 2.44445 43.6612 2.57778 43.6612 2.88889C43.6612 2.97778 43.6612 3.06667 43.6163 3.15556C43.6163 3.24445 43.5715 3.42223 43.4818 3.6L39.1313 17.3778C39.0416 17.7333 38.907 17.9556 38.7725 18.0889C38.6379 18.1778 38.4137 18.2667 38.0997 18.2667H36.5748C36.216 18.2667 35.9917 18.2222 35.8572 18.0889C35.7226 17.9556 35.5881 17.7333 35.4984 17.3778L32.7176 5.91112L29.9369 17.3778C29.8472 17.7333 29.7575 17.9556 29.5781 18.0889C29.4436 18.2222 29.1744 18.2667 28.8605 18.2667H27.3356ZM50.4336 18.7111C49.4917 18.7111 48.5499 18.6222 47.6529 18.4C46.7558 18.1778 46.0382 17.9556 45.5897 17.6889C45.3206 17.5111 45.0964 17.3333 45.0515 17.2C45.0067 17.0667 44.917 16.8444 44.917 16.7111V15.8222C44.917 15.4667 45.0515 15.2889 45.3206 15.2889C45.4103 15.2889 45.5449 15.2889 45.6346 15.3333C45.7243 15.3778 45.9037 15.4222 46.0831 15.5111C46.711 15.7778 47.3389 16 48.0565 16.1333C48.7741 16.2667 49.4917 16.3556 50.2093 16.3556C51.3306 16.3556 52.2276 16.1778 52.8107 15.7778C53.4386 15.3778 53.7525 14.8 53.7525 14.0889C53.7525 13.6 53.5731 13.2 53.2592 12.8444C52.9452 12.4889 52.3173 12.2222 51.4651 11.9111L48.8638 11.1111C47.5632 10.7111 46.5764 10.0889 45.9934 9.28889C45.4103 8.48889 45.0964 7.64445 45.0964 6.71112C45.0964 5.95556 45.2758 5.28889 45.5897 4.75556C45.9037 4.22223 46.3522 3.68889 46.8904 3.28889C47.4286 2.88889 48.0565 2.57778 48.7741 2.35556C49.4917 2.13334 50.2542 2.04445 51.0166 2.04445C51.4203 2.04445 51.824 2.04445 52.2276 2.13334C52.6313 2.17778 53.0349 2.26667 53.3937 2.31112C53.7525 2.4 54.1113 2.48889 54.4253 2.57778C54.7392 2.66667 55.0083 2.8 55.1877 2.88889C55.4568 3.02223 55.6362 3.15556 55.7259 3.33334C55.8156 3.46667 55.9053 3.68889 55.9053 3.91112V4.75556C55.9053 5.11112 55.7708 5.33334 55.5017 5.33334C55.3671 5.33334 55.1429 5.24445 54.8289 5.11112C53.7974 4.66667 52.6761 4.4 51.3754 4.4C50.3439 4.4 49.5366 4.57778 48.9984 4.88889C48.4602 5.2 48.1462 5.73334 48.1462 6.48889C48.1462 6.97778 48.3256 7.42223 48.6844 7.73334C49.0432 8.08889 49.716 8.4 50.6578 8.71112L53.2143 9.51111C54.515 9.91111 55.4568 10.4889 55.995 11.2C56.5333 11.9111 56.8024 12.7556 56.8024 13.6889C56.8024 14.4444 56.623 15.1556 56.3539 15.7333C56.0399 16.3556 55.5914 16.8889 55.0532 17.2889C54.515 17.7333 53.8422 18.0444 53.0798 18.2667C52.1828 18.6222 51.3306 18.7111 50.4336 18.7111Z" fill="white"/>
<path d="M53.8422 27.3778C47.9219 31.6889 39.3106 34 31.9551 34C21.5947 34 12.2658 30.2222 5.22425 23.9111C4.68604 23.4222 5.1794 22.7555 5.85216 23.1111C13.4767 27.5111 22.8505 30.1333 32.5831 30.1333C39.1312 30.1333 46.3522 28.8 52.99 26C53.9319 25.6 54.784 26.6667 53.8422 27.3778Z" fill="#FF9900"/>
<path d="M56.2641 24.6222C55.5017 23.6444 51.2857 24.1778 49.3572 24.4C48.7741 24.4889 48.6844 23.9556 49.2226 23.6C52.5864 21.2444 58.1479 21.9111 58.7758 22.7111C59.4037 23.5111 58.5964 29.0222 55.4568 31.6444C54.9635 32.0444 54.515 31.8222 54.7392 31.2889C55.4568 29.5111 57.0266 25.5556 56.2641 24.6222Z" fill="#FF9900"/>
<path d="M20.2043 13.6C20.2043 14.2667 20.294 14.8 20.3838 15.2C20.5183 15.6 20.6977 16 20.9668 16.4889C21.0565 16.6222 21.1014 16.7556 21.1014 16.8889C21.1014 17.0667 21.0117 17.2444 20.7426 17.4222L19.6213 18.1778C19.4419 18.2667 19.3073 18.3556 19.1728 18.3556C18.9934 18.3556 18.814 18.2667 18.6346 18.0889C18.3655 17.8222 18.1861 17.5556 18.0067 17.2444C17.8273 16.9333 17.6479 16.6222 17.4685 16.1778C16.0781 17.8222 14.3289 18.6222 12.1761 18.6222C10.6512 18.6222 9.48508 18.1778 8.58807 17.3333C7.69106 16.4889 7.24255 15.3333 7.24255 13.9111C7.24255 12.4 7.78076 11.1556 8.85717 10.2667C9.93358 9.37778 11.4137 8.88889 13.2525 8.88889C13.8804 8.88889 14.5083 8.93334 15.1362 9.02223C15.809 9.11112 16.4818 9.24445 17.1994 9.42223V8.13334C17.1994 6.8 16.9303 5.82223 16.3472 5.28889C15.7641 4.75556 14.8223 4.48889 13.4319 4.48889C12.804 4.48889 12.1761 4.57778 11.5034 4.71112C10.8306 4.88889 10.2027 5.06667 9.57478 5.33334C9.30568 5.42223 9.08142 5.51112 8.94687 5.55556C8.81232 5.55556 8.72262 5.6 8.67777 5.6C8.40867 5.6 8.31897 5.42223 8.31897 5.06667V4.17778C8.31897 3.91112 8.36382 3.68889 8.45352 3.55556C8.54322 3.42223 8.72262 3.28889 8.94687 3.2C9.57478 2.88889 10.3372 2.62223 11.1894 2.4C12.0864 2.17778 12.9834 2.04445 13.9701 2.04445C16.123 2.04445 17.6479 2.53334 18.6794 3.46667C19.6661 4.44445 20.1595 5.86667 20.1595 7.86667L20.2043 13.6ZM12.9386 16.3111C13.5216 16.3111 14.1495 16.2222 14.7774 16C15.4053 15.7778 15.9884 15.3778 16.4818 14.8444C16.7509 14.4889 16.9751 14.1333 17.1097 13.6889C17.1994 13.2444 17.2891 12.7556 17.2891 12.1333V11.3778C16.7509 11.2444 16.2127 11.1556 15.6296 11.0667C15.0465 10.9778 14.5083 10.9778 13.9253 10.9778C12.7143 10.9778 11.8622 11.2 11.2342 11.6889C10.6512 12.1778 10.3372 12.8444 10.3372 13.7333C10.3372 14.5778 10.5615 15.2 11.01 15.6C11.4585 16.1333 12.0864 16.3111 12.9386 16.3111ZM27.3356 18.2667C27.0216 18.2667 26.7974 18.2222 26.6628 18.0889C26.5283 18 26.3937 17.7333 26.304 17.3778L22.0881 3.6C21.9984 3.24445 21.9087 3.02223 21.9087 2.88889C21.9087 2.62223 22.0432 2.44445 22.3572 2.44445H24.1063C24.4651 2.44445 24.6894 2.48889 24.824 2.62223C24.9585 2.71112 25.0931 2.97778 25.1828 3.33334L28.1877 15.1111L30.9685 3.33334C31.0582 2.97778 31.1479 2.75556 31.3273 2.62223C31.4618 2.53334 31.7309 2.44445 32.0449 2.44445H33.4801C33.8389 2.44445 34.0632 2.48889 34.1977 2.62223C34.3323 2.71112 34.4668 2.97778 34.5565 3.33334L37.3821 15.2444L40.4768 3.33334C40.5665 2.97778 40.701 2.75556 40.8356 2.62223C40.9701 2.53334 41.1944 2.44445 41.5532 2.44445H43.2127C43.4818 2.44445 43.6612 2.57778 43.6612 2.88889C43.6612 2.97778 43.6612 3.06667 43.6163 3.15556C43.6163 3.24445 43.5715 3.42223 43.4818 3.6L39.1313 17.3778C39.0416 17.7333 38.907 17.9556 38.7725 18.0889C38.6379 18.1778 38.4137 18.2667 38.0997 18.2667H36.5748C36.216 18.2667 35.9917 18.2222 35.8572 18.0889C35.7226 17.9556 35.5881 17.7333 35.4984 17.3778L32.7176 5.91112L29.9369 17.3778C29.8472 17.7333 29.7575 17.9556 29.5781 18.0889C29.4436 18.2222 29.1744 18.2667 28.8605 18.2667H27.3356ZM50.4336 18.7111C49.4917 18.7111 48.5499 18.6222 47.6529 18.4C46.7558 18.1778 46.0382 17.9556 45.5897 17.6889C45.3206 17.5111 45.0964 17.3333 45.0515 17.2C45.0067 17.0667 44.917 16.8444 44.917 16.7111V15.8222C44.917 15.4667 45.0515 15.2889 45.3206 15.2889C45.4103 15.2889 45.5449 15.2889 45.6346 15.3333C45.7243 15.3778 45.9037 15.4222 46.0831 15.5111C46.711 15.7778 47.3389 16 48.0565 16.1333C48.7741 16.2667 49.4917 16.3556 50.2093 16.3556C51.3306 16.3556 52.2276 16.1778 52.8107 15.7778C53.4386 15.3778 53.7525 14.8 53.7525 14.0889C53.7525 13.6 53.5731 13.2 53.2592 12.8444C52.9452 12.4889 52.3173 12.2222 51.4651 11.9111L48.8638 11.1111C47.5632 10.7111 46.5764 10.0889 45.9934 9.28889C45.4103 8.48889 45.0964 7.64445 45.0964 6.71112C45.0964 5.95556 45.2758 5.28889 45.5897 4.75556C45.9037 4.22223 46.3522 3.68889 46.8904 3.28889C47.4286 2.88889 48.0565 2.57778 48.7741 2.35556C49.4917 2.13334 50.2542 2.04445 51.0166 2.04445C51.4203 2.04445 51.824 2.04445 52.2276 2.13334C52.6313 2.17778 53.0349 2.26667 53.3937 2.31112C53.7525 2.4 54.1113 2.48889 54.4253 2.57778C54.7392 2.66667 55.0083 2.8 55.1877 2.88889C55.4568 3.02223 55.6362 3.15556 55.7259 3.33334C55.8156 3.46667 55.9053 3.68889 55.9053 3.91112V4.75556C55.9053 5.11112 55.7708 5.33334 55.5017 5.33334C55.3671 5.33334 55.1429 5.24445 54.8289 5.11112C53.7974 4.66667 52.6761 4.4 51.3754 4.4C50.3439 4.4 49.5366 4.57778 48.9984 4.88889C48.4602 5.2 48.1462 5.73334 48.1462 6.48889C48.1462 6.97778 48.3256 7.42223 48.6844 7.73334C49.0432 8.08889 49.716 8.4 50.6578 8.71112L53.2143 9.51111C54.515 9.91111 55.4568 10.4889 55.995 11.2C56.5333 11.9111 56.8024 12.7556 56.8024 13.6889C56.8024 14.4444 56.623 15.1556 56.3539 15.7333C56.0399 16.3556 55.5914 16.8889 55.0532 17.2889C54.515 17.7333 53.8422 18.0444 53.0798 18.2667C52.1828 18.6222 51.3306 18.7111 50.4336 18.7111Z" fill="black"/>
<path d="M53.8422 27.3778C47.9219 31.6889 39.3106 34 31.9551 34C21.5947 34 12.2658 30.2222 5.22425 23.9111C4.68604 23.4222 5.1794 22.7555 5.85216 23.1111C13.4767 27.5111 22.8505 30.1333 32.5831 30.1333C39.1312 30.1333 46.3522 28.8 52.99 26C53.9319 25.6 54.784 26.6667 53.8422 27.3778Z" fill="#FF9900"/>
<path d="M56.2641 24.6222C55.5017 23.6444 51.2857 24.1778 49.3572 24.4C48.7741 24.4889 48.6844 23.9556 49.2226 23.6C52.5864 21.2444 58.1479 21.9111 58.7758 22.7111C59.4037 23.5111 58.5964 29.0222 55.4568 31.6444C54.9635 32.0444 54.515 31.8222 54.7392 31.2889C55.4568 29.5111 57.0266 25.5556 56.2641 24.6222Z" fill="#FF9900"/>
</svg>
