<svg width="211" height="36" viewBox="0 0 211 36" fill="none" xmlns="http://www.w3.org/2000/svg">
<g clip-path="url(#clip0_941_1834)">
<path d="M18.2307 35.6854V28.8349C25.509 28.8349 31.1077 21.6349 28.3433 14.0155C27.2936 11.1845 25.0541 8.91262 22.2198 7.89902C14.5916 5.13786 7.38328 10.7301 7.38328 18H0.524902C0.524902 6.43106 11.7222 -2.58641 23.8644 1.18834C29.1831 2.83106 33.3821 7.06019 35.0267 12.3379C38.8058 24.501 29.813 35.6854 18.2307 35.6854Z" fill="#0080FF"/>
<path fill-rule="evenodd" clip-rule="evenodd" d="M18.2306 28.8349H11.4072V22.0194H18.2306V28.8349Z" fill="#0080FF"/>
<path fill-rule="evenodd" clip-rule="evenodd" d="M11.4072 34.0777H6.15845V28.835H11.4072V34.0777Z" fill="#0080FF"/>
<path fill-rule="evenodd" clip-rule="evenodd" d="M6.15847 28.8349H1.74951V24.466H6.15847V28.8349Z" fill="#0080FF"/>
<path d="M63.5099 10.5553C61.4804 9.15729 58.961 8.42331 56.0216 8.42331H49.6182V28.7301H56.0216C58.961 28.7301 61.4804 27.9961 63.5099 26.4932C64.6296 25.7243 65.5044 24.6058 66.0993 23.2427C66.6941 21.8796 67.009 20.2719 67.009 18.4544C67.009 16.6719 66.6941 15.0641 66.0993 13.701C65.5044 12.3728 64.6296 11.2893 63.5099 10.5553ZM53.3623 11.8835H55.3918C57.6313 11.8835 59.4858 12.3379 60.8855 13.1767C62.4251 14.1204 63.2299 15.9029 63.2299 18.4544C63.2299 21.1107 62.4251 22.9631 60.8855 23.9767C59.5558 24.8505 57.7012 25.3049 55.4268 25.3049H53.3973V11.8835H53.3623Z" fill="#0080FF"/>
<path d="M71.488 8.17865C70.8582 8.17865 70.3333 8.38836 69.9134 8.80778C69.4935 9.22719 69.2485 9.75147 69.2485 10.3456C69.2485 10.9748 69.4585 11.499 69.9134 11.9185C70.3333 12.3379 70.8582 12.5825 71.488 12.5825C72.1179 12.5825 72.6427 12.3728 73.0626 11.9185C73.4825 11.499 73.7275 10.9398 73.7275 10.3456C73.7275 9.71651 73.5175 9.19224 73.0626 8.80778C72.6427 8.38836 72.0829 8.17865 71.488 8.17865Z" fill="#0080FF"/>
<path d="M73.2374 14.435H69.6333V28.7651H73.2374V14.435Z" fill="#0080FF"/>
<path d="M86.3595 15.6233C85.2748 14.6447 84.05 14.0854 82.7553 14.0854C80.7608 14.0854 79.1162 14.7845 77.8215 16.1126C76.5268 17.4408 75.897 19.1884 75.897 21.2505C75.897 23.2777 76.5268 24.9903 77.8215 26.3884C79.1162 27.7165 80.7608 28.4155 82.7553 28.4155C84.155 28.4155 85.3447 28.0311 86.3245 27.2621V27.6117C86.3245 28.8 86.0096 29.7088 85.3797 30.3728C84.7499 31.002 83.8751 31.3165 82.7903 31.3165C81.1107 31.3165 80.096 30.6524 78.8013 28.9398L76.3519 31.2816L76.4218 31.3864C76.9467 32.1204 77.7515 32.8544 78.8363 33.5534C79.921 34.2524 81.2507 34.602 82.8603 34.602C84.9948 34.602 86.7444 33.9379 88.0041 32.6447C89.2988 31.3515 89.9286 29.6039 89.9286 27.4369V14.435H86.3945V15.6233H86.3595ZM85.4147 24.0816C84.7849 24.7806 83.9801 25.1301 82.9303 25.1301C81.8806 25.1301 81.0757 24.7806 80.4809 24.0816C79.851 23.3825 79.5361 22.4388 79.5361 21.2854C79.5361 20.1321 79.851 19.1534 80.4809 18.4544C81.1107 17.7554 81.9155 17.3709 82.9303 17.3709C83.9801 17.3709 84.7849 17.7204 85.4147 18.4544C86.0446 19.1534 86.3595 20.1321 86.3595 21.2854C86.3595 22.4388 86.0096 23.3825 85.4147 24.0816Z" fill="#0080FF"/>
<path d="M96.577 14.435H92.9729V28.7651H96.577V14.435Z" fill="#0080FF"/>
<path d="M94.8274 8.17865C94.1975 8.17865 93.6726 8.38836 93.2527 8.80778C92.8328 9.22719 92.5879 9.75147 92.5879 10.3456C92.5879 10.9748 92.7978 11.499 93.2527 11.9185C93.6726 12.3379 94.1975 12.5825 94.8274 12.5825C95.4572 12.5825 95.9821 12.3728 96.402 11.9185C96.8219 11.499 97.0668 10.9398 97.0668 10.3456C97.0668 9.71651 96.8569 9.19224 96.402 8.80778C95.9821 8.38836 95.4222 8.17865 94.8274 8.17865Z" fill="#0080FF"/>
<path d="M104.485 10.5903H100.951V14.4699H98.8865V17.7553H100.951V23.6971C100.951 25.5495 101.336 26.8777 102.071 27.6466C102.806 28.4155 104.1 28.8 105.955 28.8C106.55 28.8 107.145 28.7651 107.704 28.7301H107.879V25.4447L106.655 25.5146C105.78 25.5146 105.22 25.3748 104.94 25.0602C104.66 24.7456 104.52 24.1165 104.52 23.1728V17.7204H107.879V14.435H104.52V10.5903H104.485Z" fill="#0080FF"/>
<path d="M128.35 8.42331H124.745V28.7301H128.35V8.42331Z" fill="#0080FF"/>
<path d="M164.776 23.6272C164.146 24.3612 163.481 24.9903 162.956 25.3049C162.466 25.6194 161.837 25.7942 161.102 25.7942C160.052 25.7942 159.177 25.4097 158.477 24.6058C157.778 23.802 157.428 22.7884 157.428 21.5651C157.428 20.3418 157.778 19.3282 158.442 18.5592C159.142 17.7554 159.982 17.3709 161.032 17.3709C162.187 17.3709 163.411 18.1049 164.461 19.3282L166.84 17.0563C165.301 15.0291 163.306 14.0854 160.927 14.0854C158.932 14.0854 157.218 14.8194 155.818 16.2175C154.418 17.6155 153.719 19.433 153.719 21.5651C153.719 23.6971 154.418 25.4796 155.818 26.9126C157.218 28.3456 158.932 29.0447 160.927 29.0447C163.551 29.0447 165.651 27.9262 167.05 25.8641L164.776 23.6272Z" fill="#0080FF"/>
<path d="M179.577 16.4272C179.052 15.7282 178.353 15.134 177.513 14.7146C176.638 14.2952 175.658 14.0854 174.538 14.0854C172.509 14.0854 170.864 14.8194 169.64 16.2874C168.45 17.7554 167.82 19.5379 167.82 21.6699C167.82 23.8369 168.485 25.6194 169.815 27.0175C171.109 28.3806 172.894 29.0796 175.028 29.0796C177.443 29.0796 179.472 28.101 180.942 26.1437L181.012 26.0388L178.667 23.767C178.458 24.0466 178.143 24.3262 177.863 24.6058C177.513 24.9554 177.163 25.2 176.813 25.3748C176.288 25.6544 175.658 25.7592 174.993 25.7592C173.979 25.7592 173.174 25.4796 172.544 24.8854C171.949 24.3612 171.599 23.6272 171.529 22.7185H181.082L181.117 21.3903C181.117 20.4466 180.977 19.5728 180.732 18.734C180.487 17.9301 180.102 17.1612 179.577 16.4272ZM171.704 19.8175C171.879 19.1185 172.194 18.5592 172.649 18.1049C173.139 17.6155 173.769 17.3709 174.538 17.3709C175.413 17.3709 176.078 17.6155 176.533 18.1049C176.953 18.5592 177.198 19.1185 177.268 19.7825H171.704V19.8175Z" fill="#0080FF"/>
<path d="M193.434 15.5185C192.349 14.5748 190.845 14.1204 188.955 14.1204C187.765 14.1204 186.646 14.4 185.631 14.8893C184.686 15.3786 183.776 16.1476 183.181 17.1961L183.216 17.2311L185.526 19.433C186.471 17.9301 187.52 17.4058 188.92 17.4058C189.69 17.4058 190.285 17.6155 190.775 18C191.265 18.3845 191.474 18.9087 191.474 19.5379V20.2369C190.565 19.9573 189.69 19.8175 188.815 19.8175C187.031 19.8175 185.561 20.2369 184.476 21.0757C183.391 21.9146 182.832 23.1379 182.832 24.6408C182.832 25.9689 183.286 27.0874 184.231 27.8913C185.176 28.6602 186.331 29.0796 187.695 29.0796C189.06 29.0796 190.355 28.5204 191.509 27.5767V28.7651H195.044V19.5379C195.114 17.8252 194.554 16.4621 193.434 15.5185ZM187.031 23.2777C187.45 22.9981 188.01 22.8583 188.745 22.8583C189.62 22.8583 190.53 23.033 191.474 23.3825V24.7806C190.705 25.5146 189.655 25.8641 188.36 25.8641C187.73 25.8641 187.241 25.7243 186.926 25.4447C186.611 25.1651 186.436 24.8505 186.436 24.3961C186.436 23.9418 186.646 23.5573 187.031 23.2777Z" fill="#0080FF"/>
<path d="M208.97 15.7981C207.956 14.6796 206.556 14.1204 204.771 14.1204C203.337 14.1204 202.182 14.5398 201.307 15.3437V14.4699H197.773V28.8H201.377V20.866C201.377 19.7825 201.622 18.9087 202.147 18.3146C202.672 17.6854 203.337 17.4058 204.281 17.4058C205.086 17.4058 205.716 17.6854 206.171 18.2097C206.626 18.7689 206.871 19.5029 206.871 20.4466V28.7301H210.475V20.4466C210.475 18.4893 209.985 16.9165 208.97 15.7981Z" fill="#0080FF"/>
<path d="M120.231 15.5185C119.147 14.5748 117.642 14.1204 115.752 14.1204C114.563 14.1204 113.443 14.4 112.428 14.8893C111.483 15.3786 110.574 16.1476 109.979 17.1961L110.014 17.2311L112.323 19.433C113.268 17.9301 114.318 17.4058 115.717 17.4058C116.487 17.4058 117.082 17.6155 117.572 18C118.062 18.3845 118.272 18.9087 118.272 19.5379V20.2369C117.362 19.9573 116.487 19.8175 115.612 19.8175C113.828 19.8175 112.358 20.2369 111.274 21.0757C110.189 21.9146 109.629 23.1379 109.629 24.6408C109.629 25.9689 110.084 27.0874 111.029 27.8913C111.973 28.6602 113.128 29.0796 114.493 29.0796C115.857 29.0796 117.152 28.5204 118.307 27.5767V28.7651H121.841V19.5379C121.876 17.8252 121.316 16.4621 120.231 15.5185ZM113.828 23.2777C114.248 22.9981 114.808 22.8583 115.543 22.8583C116.417 22.8583 117.327 23.033 118.272 23.3825V24.7806C117.502 25.5146 116.452 25.8641 115.158 25.8641C114.528 25.8641 114.038 25.7243 113.723 25.4447C113.408 25.1651 113.233 24.8505 113.233 24.3961C113.233 23.9418 113.408 23.5573 113.828 23.2777Z" fill="#0080FF"/>
<path d="M141.436 29.0447C135.663 29.0447 130.939 24.3612 130.939 18.5592C130.939 12.7573 135.628 8.07379 141.436 8.07379C147.21 8.07379 151.934 12.7573 151.934 18.5592C151.934 24.3612 147.21 29.0447 141.436 29.0447ZM141.436 11.8136C137.692 11.8136 134.648 14.8544 134.648 18.5942C134.648 22.334 137.692 25.3748 141.436 25.3748C145.181 25.3748 148.225 22.334 148.225 18.5942C148.225 14.8544 145.181 11.8136 141.436 11.8136Z" fill="#0080FF"/>
</g>
<defs>
<clipPath id="clip0_941_1834">
<rect width="211" height="36" fill="white"/>
</clipPath>
</defs>
</svg>
