<svg width="170" height="36" viewBox="0 0 170 36" fill="none" xmlns="http://www.w3.org/2000/svg">
<g clip-path="url(#clip0_941_1860)">
<path d="M163.378 20.6978C164.862 20.4413 166.259 19.8237 167.448 18.8993C167.99 18.3312 168.406 17.654 168.666 16.9128C168.926 16.1716 169.026 15.3834 168.958 14.6007C168.962 13.3121 168.607 12.0477 167.933 10.9496C167.444 10.114 166.753 9.41392 165.925 8.91297C165.097 8.41201 164.156 8.12602 163.19 8.08094H162.21L159.919 8H149.551C148.922 8 148.652 8.26079 148.652 8.89928V27.0827C148.652 27.7122 148.913 27.982 149.551 27.982H152.246C152.875 27.982 153.145 27.7212 153.145 27.0827V21.0576H156.442C157.167 21.0955 157.856 21.3848 158.392 21.8759L163.621 27.1367C164.098 27.6246 164.737 27.9192 165.418 27.964H169.434C170.063 27.964 170.216 27.5953 169.775 27.1457L163.378 20.6978ZM162.695 16.8309H153.127V12.2446H162.695C163.165 12.3023 163.596 12.5317 163.906 12.8887C164.216 13.2457 164.383 13.705 164.376 14.1781V14.8885C164.384 15.3626 164.217 15.823 163.907 16.1814C163.597 16.5399 163.165 16.7712 162.695 16.8309Z" fill="#D50C2D"/>
<path d="M144.466 23.7554H129.614V20.0054H141.465C142.094 20.0054 142.363 19.7446 142.363 19.1061V16.9209C142.363 16.2914 142.103 16.0216 141.465 16.0216H129.605V12.2806H144.466C145.095 12.2806 145.364 12.0198 145.364 11.3813V8.89928C145.364 8.26978 145.104 8 144.466 8H125.939C125.31 8 125.041 8.26079 125.041 8.89928V27.1007C125.041 27.7302 125.301 28 125.939 28H144.466C145.095 28 145.364 27.7392 145.364 27.1007V24.6457C145.364 24.0162 145.068 23.7554 144.466 23.7554Z" fill="#D50C2D"/>
<path d="M121.761 14.5647C121.781 13.2922 121.428 12.0418 120.746 10.9676C120.253 10.1112 119.554 9.3914 118.714 8.87324C117.873 8.35507 116.916 8.05494 115.93 8H102.309C101.671 8 101.411 8.26079 101.411 8.89928V27.0827C101.411 27.7122 101.671 27.982 102.309 27.982H105.238C105.867 27.982 106.137 27.7302 106.137 27.0827V12.2536H114.025C115.706 12.2536 117.341 13.3687 117.341 15.0504V27.1007C117.341 27.7302 117.601 28 118.239 28H120.89C121.528 28 121.788 27.7392 121.788 27.1007L121.761 14.5647Z" fill="#D50C2D"/>
<path d="M97.2691 23.6385H84.4659L97.296 12.3525C97.5534 12.1553 97.7665 11.906 97.9213 11.6209C98.0761 11.3358 98.1692 11.0213 98.1945 10.6978V8.89928C98.1945 8.26978 97.9249 8 97.296 8H78.7247C78.0958 8 77.8262 8.26079 77.8262 8.89928V11.3903C77.8262 12.0198 78.0868 12.2896 78.7247 12.2896H90.6294L78.6888 23.5036C78.4334 23.7027 78.2218 23.9525 78.0672 24.2372C77.9126 24.5219 77.8183 24.8355 77.7903 25.1583V27.1097C77.7903 27.7392 78.0508 28.009 78.6888 28.009H97.2421C97.871 28.009 98.1406 27.7482 98.1406 27.1097V24.5288C98.1585 23.8993 97.898 23.6385 97.2691 23.6385Z" fill="#D50C2D"/>
<path d="M73.6572 8H55.1128C54.4749 8 54.2144 8.2518 54.2144 8.89928V11.3813C54.2144 12.0108 54.4659 12.2806 55.1128 12.2806H62.1029V27.1007C62.1029 27.7302 62.3635 28 63.0014 28H65.9663C66.5952 28 66.8648 27.7392 66.8648 27.1007V12.2716H73.6662C74.2951 12.2716 74.5646 12.0108 74.5646 11.3723V8.89928C74.5467 8.28777 74.2861 8 73.6572 8Z" fill="#D50C2D"/>
<path d="M50.0457 23.7554H35.221V20.0054H47.0717C47.7007 20.0054 47.9702 19.7446 47.9702 19.1061V16.9209C47.9702 16.2914 47.7186 16.0216 47.0717 16.0216H35.221V12.2806H50.0457C50.6746 12.2806 50.9441 12.0198 50.9441 11.3813V8.89928C50.9441 8.26978 50.6836 8 50.0457 8H31.5552C30.9263 8 30.6567 8.26079 30.6567 8.89928V27.1007C30.6567 27.7302 30.9173 28 31.5552 28H50.0457C50.6746 28 50.9441 27.7392 50.9441 27.1007V24.6457C50.9352 24.0162 50.6746 23.7554 50.0457 23.7554Z" fill="#D50C2D"/>
<path d="M26.4339 8H23.6396C23.0107 8 22.7412 8.26079 22.7412 8.89928V15.9766H11.6091V8.89928C11.6091 8.26978 11.3486 8 10.7107 8H7.89847C7.26056 8 7 8.26079 7 8.89928V27.1097C7 27.7482 7.26056 28.009 7.89847 28.009H10.7107C11.3396 28.009 11.6091 27.7572 11.6091 27.1097V19.9155H22.7501V27.1097C22.7501 27.7392 23.0107 28.009 23.6486 28.009H26.4428C27.0718 28.009 27.3413 27.7482 27.3413 27.1097V8.89928C27.3233 8.28777 27.0628 8 26.4339 8Z" fill="#D50C2D"/>
</g>
<defs>
<clipPath id="clip0_941_1860">
<rect width="170" height="36" fill="white"/>
</clipPath>
</defs>
</svg>
