<svg width="126" height="36" viewBox="0 0 126 36" fill="none" xmlns="http://www.w3.org/2000/svg">
<g clip-path="url(#clip0_941_1820)">
<path d="M0 -0.0645142H16.8169V17.1074H0V-0.0645142Z" fill="#F25022"/>
<path d="M18.5662 -0.0645142H35.3831V17.1074H18.5662V-0.0645142Z" fill="#7FBA00"/>
<path d="M0 18.8926H16.8169V36.0645H0V18.8926Z" fill="#00A4EF"/>
<path d="M18.5662 18.8926H35.3831V36.0645H18.5662V18.8926Z" fill="#FFB900"/>
<path d="M68.1605 25.6569H64.3309L62.4161 20.1738H54.0908L52.2593 25.6569H48.4297L56.3386 4.06451H60.2931L68.1605 25.6569ZM61.4587 17.241L58.5032 8.61252C58.4199 8.31499 58.3367 7.88994 58.2118 7.25237H58.1702C58.0869 7.80493 58.0037 8.27248 57.8788 8.61252L54.965 17.241H61.4587Z" fill="black"/>
<path d="M81.8149 11.6728L73.6561 22.8941H81.7732V25.6144H68.8691V24.2968L77.1944 12.9055H69.66V10.1852H81.8149V11.6728Z" fill="black"/>
<path d="M97.8817 25.6569H94.4684V23.2341H94.4268C93.4278 25.1044 91.8876 26.0395 89.8063 26.0395C86.2264 26.0395 84.4365 23.8717 84.4365 19.4937V10.2277H87.8499V19.0687C87.8499 21.8315 88.8905 23.2341 90.9718 23.2341C91.9708 23.2341 92.8034 22.8516 93.4694 22.0865C94.1354 21.3214 94.4684 20.3438 94.4684 19.0687V10.2277H97.8817V25.6569Z" fill="black"/>
<path d="M111.077 13.5431C110.661 13.203 110.078 13.033 109.287 13.033C108.288 13.033 107.414 13.5005 106.748 14.4357C106.082 15.3708 105.749 16.6459 105.749 18.2611V25.6569H102.336V10.2277H105.749V13.4155H105.791C106.124 12.3104 106.623 11.5028 107.331 10.8653C108.039 10.2277 108.788 9.97266 109.662 9.97266C110.287 9.97266 110.744 10.0577 111.077 10.2702V13.5431Z" fill="black"/>
<path d="M126.021 18.8987H115.739C115.781 20.3438 116.197 21.4065 117.03 22.214C117.862 22.9791 118.986 23.3617 120.401 23.3617C122.025 23.3617 123.482 22.8516 124.855 21.874V24.6793C123.482 25.5719 121.65 25.997 119.402 25.997C117.196 25.997 115.448 25.3169 114.157 23.9142C112.867 22.5116 112.243 20.5564 112.243 18.0061C112.243 15.6258 112.95 13.6706 114.324 12.1404C115.698 10.6102 117.446 9.88766 119.527 9.88766C121.609 9.88766 123.19 10.5677 124.314 11.9279C125.438 13.288 126.021 15.1583 126.021 17.581V18.8987ZM122.732 16.3909C122.732 15.1157 122.441 14.1806 121.858 13.4581C121.276 12.778 120.485 12.3954 119.486 12.3954C118.487 12.3954 117.654 12.778 116.988 13.5006C116.322 14.2231 115.864 15.2008 115.739 16.3909H122.732Z" fill="black"/>
</g>
<defs>
<clipPath id="clip0_941_1820">
<rect width="126" height="36" fill="white"/>
</clipPath>
</defs>
</svg>
