<svg viewBox="0 0 331.15 64.73" xmlns="http://www.w3.org/2000/svg" fill="currentColor"><path d="m21.61 35.85h3.6c-.15 2.77 1.91 4.62 5.48 4.62 2.98 0 4.59-1.2 4.59-3.05 0-4.53-11.57-2.07-11.57-9.43 0-4.07 3.29-6.72 8.37-6.72s8.56 2.59 8.13 6.97h-3.71c.12-2.62-1.75-4.04-4.71-4.04-2.8 0-4.4 1.33-4.4 3.24 0 4.62 11.48 1.88 11.48 9.4 0 4.07-3.11 6.63-8.4 6.63-5.29-.01-9.29-2.88-8.86-7.62z"/><path d="m56.78 21.58h4.37l-11.14 14.27-1.57 7.31h-3.64l1.51-7.24-5.14-14.33h3.94l3.6 10.57z"/><path d="m58.89 35.85h3.6c-.15 2.77 1.91 4.62 5.48 4.62 2.98 0 4.59-1.2 4.59-3.05 0-4.53-11.57-2.07-11.57-9.43 0-4.07 3.29-6.72 8.37-6.72s8.56 2.59 8.13 6.97h-3.69c.12-2.62-1.75-4.04-4.71-4.04-2.8 0-4.4 1.33-4.4 3.24 0 4.62 11.48 1.88 11.48 9.4 0 4.07-3.11 6.63-8.4 6.63-5.31-.01-9.31-2.88-8.88-7.62z"/><path d="m97.87 21.58-.65 3.02h-7.11l-3.94 18.55h-3.69l3.94-18.55h-7.17l.62-3.02z"/><path d="m115.33 24.6h-11.66l-1.29 6.1h10.28l-.66 3.05h-10.3l-1.35 6.38h11.73l-.65 3.02h-15.4l4.55-21.57h15.39z"/><path d="m137.33 21.58h6.37l-4.56 21.57h-3.69l3.05-14.33.89-4.34-10.71 18.68h-3.69l-2.77-18.83-.95 4.5-3.02 14.33h-3.69l4.55-21.57h6.09l2.55 16.58z"/><path d="m148.1 43.15 4.56-21.57h5.54l-4.56 21.57z"/><path d="m176.81 21.58h5.38l-4.56 21.57h-6.16l-5.79-14.08-1.08 5.12-1.88 8.97h-5.42l4.56-21.57h6l5.88 14.3 1.17-5.52z"/><path d="m181.32 43.15 4.56-21.57h5.54l-4.56 21.57z"/><path d="m212.06 21.58-.92 4.5h-6.31l-3.63 17.07h-5.54l3.63-17.07h-6.4l.92-4.5z"/><path d="m209.93 43.15 4.56-21.57h5.54l-4.56 21.57z"/><path d="m234.83 43.15-.62-4.34h-8.77l-2.46 4.34h-5.94l12.53-21.57h7.38l3.45 21.57zm-6.95-8.66h5.72l-1.02-7.18-.12-.96-.55.96z"/><path d="m260.14 21.58-.92 4.5h-6.31l-3.63 17.07h-5.54l3.63-17.07h-6.4l.92-4.5z"/><path d="m258.01 43.15 4.56-21.57h5.54l-4.56 21.57z"/><path d="m285.7 21.58h5.94l-11.73 21.57h-7.66l-2.55-21.57h5.48l1.51 13.34.34 3.05 1.63-3.05z"/><path d="m308.62 26.11h-10.74l-.83 3.88h9.39l-.95 4.53h-9.42l-.89 4.1h10.8l-.95 4.53h-16.31l4.56-21.57h16.31z"/></svg>