<svg viewBox="0 0 364.97 163.61" xmlns="http://www.w3.org/2000/svg" fill="currentColor"><path d="m50.34 63.93h6.42c-.27 4.95 3.4 8.24 9.77 8.24 5.32 0 8.18-2.14 8.18-5.44 0-8.08-20.64-3.68-20.64-16.82 0-7.26 5.88-11.98 14.93-11.98 9.06 0 15.26 4.62 14.49 12.43h-6.59c.22-4.67-3.13-7.2-8.4-7.2-5 0-7.85 2.37-7.85 5.77 0 8.25 20.47 3.35 20.47 16.77 0 7.26-5.54 11.82-14.98 11.82-9.43-.01-16.57-5.12-15.8-13.59z"/><path d="m113.07 38.48h7.8l-19.87 25.45-2.8 13.03h-6.48l2.69-12.92-9.16-25.56h7.03l6.42 18.86z"/><path d="m116.83 63.93h6.42c-.27 4.95 3.4 8.24 9.77 8.24 5.32 0 8.18-2.14 8.18-5.44 0-8.08-20.64-3.68-20.64-16.82 0-7.26 5.88-11.98 14.93-11.98s15.26 4.62 14.49 12.43h-6.59c.22-4.67-3.13-7.2-8.4-7.2-5 0-7.85 2.37-7.85 5.77 0 8.25 20.47 3.35 20.47 16.77 0 7.26-5.54 11.82-14.98 11.82-9.43-.01-16.57-5.12-15.8-13.59z"/><path d="m186.35 38.48-1.15 5.39h-12.68l-7.03 33.09h-6.59l7.03-33.09h-12.79l1.1-5.39z"/><path d="m217.49 43.87h-20.8l-2.3 10.88h18.33l-1.15 5.44h-18.39l-2.42 11.38h20.91l-1.15 5.39h-27.44l8.12-38.48h27.44z"/><path d="m256.75 38.48h11.36l-8.13 38.48h-6.59l5.43-25.56 1.59-7.75-19.1 33.31h-6.59l-4.94-33.59-1.7 8.03-5.38 25.56h-6.59l8.12-38.48h10.87l4.55 29.57z"/><path d="m38.48 125.13 8.13-38.48h9.88l-8.13 38.48z"/><path d="m89.69 86.65h9.6l-8.13 38.48h-10.97l-10.32-25.12-1.92 9.13-3.35 16h-9.66l8.13-38.48h10.71l10.48 25.5 2.09-9.84z"/><path d="m97.74 125.13 8.13-38.48h9.88l-8.13 38.48z"/><path d="m152.56 86.65-1.65 8.03h-11.25l-6.48 30.45h-9.88l6.48-30.45h-11.42l1.65-8.03z"/><path d="m148.76 125.13 8.13-38.48h9.88l-8.13 38.48z"/><path d="m193.17 125.13-1.1-7.75h-15.64l-4.39 7.75h-10.59l22.34-38.48h13.17l6.15 38.48zm-12.4-15.45h10.21l-1.81-12.81-.22-1.7-.99 1.7z"/><path d="m238.31 86.65-1.65 8.03h-11.25l-6.48 30.45h-9.88l6.48-30.45h-11.42l1.65-8.03z"/><path d="m234.51 125.13 8.13-38.48h9.88l-8.13 38.48z"/><path d="m283.9 86.65h10.59l-20.91 38.48h-13.67l-4.55-38.48h9.77l2.69 23.8.6 5.44 2.91-5.44z"/><path d="m324.78 94.73h-19.16l-1.48 6.93h16.74l-1.7 8.08h-16.8l-1.59 7.31h19.27l-1.7 8.08h-29.09l8.13-38.48h29.09z"/></svg>