<svg viewBox="0 0 250 168" fill="none" xmlns="http://www.w3.org/2000/svg">
<g opacity="0.5">
<path d="M168.618 53.9403H169.118V53.4403V40.6128C169.118 38.1275 167.103 36.1128 164.618 36.1128L64.7704 36.1128C62.2852 36.1128 60.2704 38.1275 60.2704 40.6128V53.4403V53.9403H60.7704L168.618 53.9403Z" fill="#F5F5F5" stroke="#A3A3A3"/>
<path d="M60.7704 52.9388H60.2704V53.4388V104.511C60.2704 106.996 62.2852 109.011 64.7704 109.011H164.618C167.103 109.011 169.118 106.996 169.118 104.511V53.4388V52.9388H168.618L60.7704 52.9388Z" fill="#F5F5F5" stroke="#A3A3A3"/>
<rect x="61.7704" y="37.6128" width="105.847" height="69.8979" stroke="#525252" stroke-width="2"/>
<circle cx="170.416" cy="79.1772" r="7.13915" fill="#F5F5F5" stroke="#A3A3A3"/>
<circle cx="138.856" cy="95.5053" r="5.58562" fill="#A3A3A3"/>
<circle cx="153.751" cy="95.5053" r="5.58562" fill="#A3A3A3"/>
<circle cx="58.9737" cy="79.1772" r="7.13915" fill="#F5F5F5" stroke="#A3A3A3"/>
<rect x="69.5569" y="63.2943" width="43.8534" height="4.965" rx="2.4825" fill="#A3A3A3"/>
<rect x="69.5569" y="71.3207" width="56.2659" height="4.965" rx="2.4825" fill="#A3A3A3"/>
</g>
<path opacity="0.8" d="M177.155 31.7132L191.534 22.3665M177.155 41.7789L185.063 46.0928M167.808 28.1183V16.6147" stroke="#D4D4D4" stroke-width="3" stroke-linecap="round" stroke-linejoin="round"/>
<path opacity="0.7" d="M78.8108 68.0775C77.8826 68.1568 77.3771 68.8089 77.4487 69.3632C77.5204 69.9175 78.1817 70.4699 79.1099 70.3906C80.0381 70.3113 80.5436 69.6592 80.472 69.1049C80.4003 68.5506 79.739 67.9982 78.8108 68.0775Z" fill="#D4D4D4" stroke="#D4D4D4"/>
<path opacity="0.6" d="M79.7917 85.0206C78.8635 85.0999 78.358 85.7521 78.4296 86.3064C78.5013 86.8607 79.1626 87.4131 80.0908 87.3338C81.0189 87.2545 81.5245 86.6024 81.4528 86.0481C81.3812 85.4938 80.7199 84.9413 79.7917 85.0206Z" fill="#D4D4D4" stroke="#D4D4D4"/>
<g opacity="0.7">
<path d="M108.096 68.3596L97.9896 69.223" stroke="#D4D4D4" stroke-width="2" stroke-linecap="round"/>
<path d="M103.58 72.9453L102.506 64.6362" stroke="#D4D4D4" stroke-width="2" stroke-linecap="round"/>
</g>
<g opacity="0.6">
<path d="M69.8242 79.1678L63.76 76.8692" stroke="#D4D4D4" stroke-width="2" stroke-linecap="round"/>
<path d="M65.3607 80.5118L68.221 75.5258" stroke="#D4D4D4" stroke-width="2" stroke-linecap="round"/>
</g>
<g filter="url(#filter0_b_344_6891)">
<circle cx="114.962" cy="70.2083" r="46.7336" fill="white" fill-opacity="0.4"/>
<circle cx="114.962" cy="70.2083" r="44.7336" stroke="#A3A3A3" stroke-width="4"/>
</g>
<path d="M148.756 100.532L174.79 126.566" stroke="#A3A3A3" stroke-width="3"/>
<rect x="168.233" y="110.547" width="41.1387" height="12.3796" rx="2" transform="rotate(45 168.233 110.547)" fill="#D4D4D4" stroke="#A3A3A3" stroke-width="2"/>
<path fill-rule="evenodd" clip-rule="evenodd" d="M105.282 68.3549C106.094 69.1674 109.282 72.5111 109.282 72.5111L111.032 70.6986L108.282 67.8549L113.563 62.2299C113.563 62.2299 111.188 59.9174 112.219 60.8236C113.219 57.1049 112.313 52.9799 109.5 50.0736C106.688 47.1986 102.719 46.2611 99.1567 47.2299L105.188 53.4799L103.594 59.6049L97.688 61.2299L91.6567 54.9799C90.688 58.6674 91.5942 62.7611 94.4067 65.6361C97.3442 68.6986 101.563 69.5736 105.282 68.3549V68.3549ZM125.407 74.4174L118.125 81.6049L130.125 94.0424C131.094 95.0736 132.407 95.5736 133.688 95.5736C134.969 95.5736 136.25 95.0736 137.25 94.0424C139.219 92.0111 139.219 88.7299 137.25 86.6986L125.407 74.4174ZM141.282 53.5424L133.625 45.6361L111.063 68.9486L113.813 71.7924L100.344 85.7299L97.2505 87.3861L92.9067 94.4799L94.0005 95.6361L100.875 91.1361L102.469 87.9486L115.969 74.0111L118.719 76.8549L141.282 53.5424Z" fill="#A3A3A3"/>
<defs>
<filter id="filter0_b_344_6891" x="65.2287" y="20.4746" width="99.4673" height="99.4673" filterUnits="userSpaceOnUse" color-interpolation-filters="sRGB">
<feFlood flood-opacity="0" result="BackgroundImageFix"/>
<feGaussianBlur in="BackgroundImageFix" stdDeviation="1.5"/>
<feComposite in2="SourceAlpha" operator="in" result="effect1_backgroundBlur_344_6891"/>
<feBlend mode="normal" in="SourceGraphic" in2="effect1_backgroundBlur_344_6891" result="shape"/>
</filter>
</defs>
</svg>
