<svg viewBox="0 0 251 167" fill="none" xmlns="http://www.w3.org/2000/svg">
<circle cx="1.41769" cy="1.41769" r="0.917685" transform="matrix(0.707107 -0.707107 -0.707107 -0.707107 236.474 67.476)" fill="#A3A3A3" stroke="#A3A3A3"/>
<circle opacity="0.4" cx="1.41769" cy="1.41769" r="0.917685" transform="matrix(0.707107 -0.707107 -0.707107 -0.707107 186.436 56.4258)" fill="#A3A3A3" stroke="#A3A3A3"/>
<circle opacity="0.2" cx="1.41769" cy="1.41769" r="0.917685" transform="matrix(0.707107 -0.707107 -0.707107 -0.707107 160.264 56.7411)" fill="#A3A3A3" stroke="#A3A3A3"/>
<circle cx="1.41769" cy="1.41769" r="0.917685" transform="matrix(0.707107 -0.707107 -0.707107 -0.707107 224.043 55.0455)" fill="#A3A3A3" stroke="#A3A3A3"/>
<circle opacity="0.5" cx="1.41769" cy="1.41769" r="0.917685" transform="matrix(0.707107 -0.707107 -0.707107 -0.707107 196.658 66.7454)" fill="#A3A3A3" stroke="#A3A3A3"/>
<path d="M227.453 66.4739L223.443 62.4641" stroke="#A3A3A3" stroke-width="2" stroke-linecap="round"/>
<path d="M223.442 66.4739L227.452 62.4641" stroke="#A3A3A3" stroke-width="2" stroke-linecap="round"/>
<g opacity="0.5">
<path d="M211.321 59.5199L205.672 59.0257" stroke="#A3A3A3" stroke-width="2" stroke-linecap="round"/>
<path d="M208.249 62.0972L208.743 56.448" stroke="#A3A3A3" stroke-width="2" stroke-linecap="round"/>
</g>
<g opacity="0.2">
<path d="M173.754 52.8506L170.501 48.2054" stroke="#A3A3A3" stroke-width="2" stroke-linecap="round"/>
<path d="M169.805 52.1537L174.45 48.9011" stroke="#A3A3A3" stroke-width="2" stroke-linecap="round"/>
</g>
<circle cx="1.41769" cy="1.41769" r="0.917685" transform="matrix(0.707107 -0.707107 -0.707107 -0.707107 163.116 47.4832)" fill="#A3A3A3" stroke="#A3A3A3"/>
<circle opacity="0.4" cx="1.41769" cy="1.41769" r="0.917685" transform="matrix(0.707107 -0.707107 -0.707107 -0.707107 113.076 36.4325)" fill="#A3A3A3" stroke="#A3A3A3"/>
<circle opacity="0.2" cx="1.41769" cy="1.41769" r="0.917685" transform="matrix(0.707107 -0.707107 -0.707107 -0.707107 86.9044 36.7485)" fill="#A3A3A3" stroke="#A3A3A3"/>
<circle cx="1.41769" cy="1.41769" r="0.917685" transform="matrix(0.707107 -0.707107 -0.707107 -0.707107 150.685 35.053)" fill="#A3A3A3" stroke="#A3A3A3"/>
<circle opacity="0.5" cx="1.41769" cy="1.41769" r="0.917685" transform="matrix(0.707107 -0.707107 -0.707107 -0.707107 123.298 46.7523)" fill="#A3A3A3" stroke="#A3A3A3"/>
<path d="M154.093 46.481L150.083 42.4711" stroke="#A3A3A3" stroke-width="2" stroke-linecap="round"/>
<path d="M150.082 46.4812L154.092 42.4714" stroke="#A3A3A3" stroke-width="2" stroke-linecap="round"/>
<g opacity="0.5">
<path d="M137.963 39.527L132.314 39.0327" stroke="#A3A3A3" stroke-width="2" stroke-linecap="round"/>
<path d="M134.893 42.1046L135.387 36.4555" stroke="#A3A3A3" stroke-width="2" stroke-linecap="round"/>
</g>
<g opacity="0.2">
<path d="M100.393 32.8582L97.1408 28.213" stroke="#A3A3A3" stroke-width="2" stroke-linecap="round"/>
<path d="M96.4445 32.1621L101.09 28.9095" stroke="#A3A3A3" stroke-width="2" stroke-linecap="round"/>
</g>
<circle cx="236.474" cy="101.488" r="0.917685" transform="rotate(45 236.474 101.488)" fill="#A3A3A3" stroke="#A3A3A3"/>
<circle opacity="0.4" cx="186.436" cy="112.539" r="0.917685" transform="rotate(45 186.436 112.539)" fill="#A3A3A3" stroke="#A3A3A3"/>
<circle opacity="0.2" cx="160.264" cy="112.223" r="0.917685" transform="rotate(45 160.264 112.223)" fill="#A3A3A3" stroke="#A3A3A3"/>
<circle cx="224.043" cy="113.919" r="0.917685" transform="rotate(45 224.043 113.919)" fill="#A3A3A3" stroke="#A3A3A3"/>
<circle opacity="0.5" cx="196.658" cy="102.219" r="0.917685" transform="rotate(45 196.658 102.219)" fill="#A3A3A3" stroke="#A3A3A3"/>
<path d="M227.453 100.486L223.443 104.496" stroke="#A3A3A3" stroke-width="2" stroke-linecap="round"/>
<path d="M223.442 100.486L227.452 104.496" stroke="#A3A3A3" stroke-width="2" stroke-linecap="round"/>
<g opacity="0.5">
<path d="M211.321 107.439L205.672 107.934" stroke="#A3A3A3" stroke-width="2" stroke-linecap="round"/>
<path d="M208.249 104.862L208.744 110.511" stroke="#A3A3A3" stroke-width="2" stroke-linecap="round"/>
</g>
<g opacity="0.2">
<path d="M173.754 114.109L170.501 118.754" stroke="#A3A3A3" stroke-width="2" stroke-linecap="round"/>
<path d="M169.805 114.806L174.45 118.059" stroke="#A3A3A3" stroke-width="2" stroke-linecap="round"/>
</g>
<circle cx="163.116" cy="121.481" r="0.917685" transform="rotate(45 163.116 121.481)" fill="#A3A3A3" stroke="#A3A3A3"/>
<circle opacity="0.4" cx="113.077" cy="132.532" r="0.917685" transform="rotate(45 113.077 132.532)" fill="#A3A3A3" stroke="#A3A3A3"/>
<circle opacity="0.2" cx="86.9044" cy="132.216" r="0.917685" transform="rotate(45 86.9044 132.216)" fill="#A3A3A3" stroke="#A3A3A3"/>
<circle cx="150.685" cy="133.911" r="0.917685" transform="rotate(45 150.685 133.911)" fill="#A3A3A3" stroke="#A3A3A3"/>
<circle opacity="0.5" cx="123.298" cy="122.212" r="0.917685" transform="rotate(45 123.298 122.212)" fill="#A3A3A3" stroke="#A3A3A3"/>
<path d="M154.093 120.478L150.083 124.488" stroke="#A3A3A3" stroke-width="2" stroke-linecap="round"/>
<path d="M150.082 120.478L154.092 124.488" stroke="#A3A3A3" stroke-width="2" stroke-linecap="round"/>
<g opacity="0.5">
<path d="M137.964 127.433L132.314 127.927" stroke="#A3A3A3" stroke-width="2" stroke-linecap="round"/>
<path d="M134.893 124.855L135.387 130.504" stroke="#A3A3A3" stroke-width="2" stroke-linecap="round"/>
</g>
<g opacity="0.2">
<path d="M100.393 134.101L97.1408 138.746" stroke="#A3A3A3" stroke-width="2" stroke-linecap="round"/>
<path d="M96.4445 134.797L101.09 138.05" stroke="#A3A3A3" stroke-width="2" stroke-linecap="round"/>
</g>
<path d="M52.8843 15.9903C51.8394 13.4342 48.9202 12.2092 46.3641 13.2541C43.808 14.299 42.583 17.2182 43.6279 19.7743L52.8843 15.9903ZM219.044 79.6301L214.054 79.3257L213.445 89.3071L218.435 89.6116L219.044 79.6301ZM48.2561 17.8823C43.6279 19.7743 43.6289 19.7769 43.6301 19.7796C43.6306 19.7808 43.6318 19.7838 43.6328 19.7863C43.6349 19.7913 43.6373 19.7972 43.6401 19.8041C43.6458 19.8178 43.6531 19.8354 43.662 19.8567C43.6799 19.8994 43.7042 19.9571 43.7351 20.0294C43.7969 20.1739 43.8851 20.3767 44.0003 20.634C44.2308 21.1486 44.5697 21.8814 45.023 22.802C45.9292 24.6424 47.2945 27.2372 49.1664 30.3401C52.9062 36.5392 58.6924 44.8073 66.9132 53.1441C83.4036 69.8672 109.692 86.8446 148.598 87.893L148.867 77.8967C113.051 76.9314 89.1008 61.4026 74.0336 46.1228C66.4756 38.4582 61.1532 30.8507 57.729 25.1746C56.0189 22.3399 54.7885 19.9972 53.9944 18.3845C53.5975 17.5785 53.3101 16.9559 53.1268 16.5466C53.0352 16.342 52.9696 16.1909 52.9294 16.0969C52.9093 16.0499 52.8956 16.0172 52.8881 15.9993C52.8843 15.9903 52.8822 15.985 52.8815 15.9835C52.8812 15.9828 52.8813 15.983 52.8818 15.9841C52.882 15.9846 52.8826 15.9862 52.8827 15.9865C52.8835 15.9883 52.8843 15.9903 48.2561 17.8823ZM148.598 87.893C185.96 88.8999 203.472 89.3317 211.647 89.5117C215.723 89.6015 217.507 89.6294 218.278 89.6342C218.471 89.6354 218.628 89.6354 218.753 89.6336C218.812 89.6328 218.899 89.6311 218.994 89.6268C219.039 89.6247 219.122 89.6204 219.224 89.6115C219.259 89.6084 219.558 89.5852 219.923 89.5006C219.977 89.4882 220.699 89.3417 221.468 88.8565C221.813 88.6387 222.939 87.884 223.501 86.3288C224.225 84.327 223.519 82.5543 222.749 81.5625C222.128 80.7614 221.425 80.364 221.189 80.2356C220.874 80.0643 220.606 79.9631 220.463 79.9126C220.174 79.8103 219.939 79.758 219.849 79.7388C219.645 79.6947 219.482 79.6733 219.434 79.667C219.362 79.6576 219.303 79.6514 219.268 79.648C219.198 79.641 219.141 79.6367 219.114 79.6348C219.097 79.6336 219.083 79.6326 219.072 79.6319C219.066 79.6315 219.061 79.6312 219.056 79.6309C219.054 79.6307 219.052 79.6306 219.05 79.6305C219.049 79.6304 219.048 79.6303 219.047 79.6303C219.046 79.6302 219.044 79.6301 218.74 84.6208C218.435 89.6116 218.434 89.6115 218.433 89.6114C218.432 89.6114 218.431 89.6113 218.43 89.6112C218.429 89.6111 218.427 89.611 218.425 89.6109C218.422 89.6107 218.418 89.6105 218.414 89.6102C218.407 89.6097 218.398 89.6092 218.389 89.6084C218.375 89.6074 218.335 89.6045 218.281 89.5992C218.255 89.5966 218.204 89.5913 218.139 89.5828C218.097 89.5774 217.94 89.5569 217.74 89.5138C217.653 89.4951 217.42 89.4432 217.132 89.3414C216.99 89.2912 216.723 89.1902 216.409 89.0192C216.173 88.891 215.47 88.4939 214.849 87.693C214.079 86.7014 213.373 84.929 214.097 82.9274C214.66 81.3725 215.785 80.6181 216.13 80.4006C216.898 79.9158 217.618 79.7698 217.67 79.7579C218.031 79.6744 218.323 79.6521 218.348 79.6499C218.438 79.6419 218.507 79.6386 218.535 79.6373C218.594 79.6346 218.627 79.6344 218.612 79.6346C218.588 79.6349 218.51 79.6355 218.34 79.6344C217.66 79.6302 215.953 79.6042 211.867 79.5142C203.719 79.3347 186.228 78.9035 148.867 77.8967L148.598 87.893Z" fill="#E5E5E5"/>
<path d="M48.2561 151.387C48.2561 151.387 74.01 88.3886 148.733 86.3749C223.455 84.3613 220.191 84.6489 220.191 84.6489" stroke="#E5E5E5" stroke-width="10" stroke-linecap="round" stroke-linejoin="round"/>
<path d="M236.632 85.2386L214.457 93.3503L217.518 85.6078L211.818 73.9872L236.632 85.2386Z" fill="white"/>
<path d="M217.799 77.56C216.942 77.1712 216.048 78.0637 216.456 78.9007L218.845 83.7965C218.976 84.0642 218.976 84.3771 218.846 84.6485L216.198 90.169C215.794 91.0127 216.677 91.8776 217.533 91.4761L230.8 85.255C231.575 84.8914 231.581 83.8091 230.809 83.4591L217.799 77.56ZM214.373 82.3153C214.373 82.173 214.336 82.0336 214.265 81.9104L208.884 72.5414C208.404 71.7048 209.308 70.7404 210.196 71.1429L238.379 83.9221C239.141 84.2677 239.148 85.3321 238.391 85.708L210.704 99.4464C209.846 99.8717 208.939 99.0031 209.349 98.1492L214.193 88.0482C214.196 88.0418 214.205 88.0446 214.204 88.0515L214.373 82.3153Z" fill="#D4D4D4"/>
<path d="M91.2093 35.8839H91.7093V35.3839V27.8811C91.7093 25.3958 89.6946 23.3811 87.2093 23.3811L21.4883 23.3811C19.003 23.3811 16.9883 25.3958 16.9883 27.8811V35.3839V35.8839H17.4883H91.2093Z" fill="#F5F5F5" stroke="#A3A3A3"/>
<path d="M17.4883 34.8828H16.9883V35.3828V69.0282C16.9883 71.5135 19.003 73.5282 21.4883 73.5282H87.2093C89.6946 73.5282 91.7093 71.5135 91.7093 69.0282V35.3828V34.8828H91.2093L17.4883 34.8828Z" fill="#F5F5F5" stroke="#A3A3A3"/>
<path d="M97.1598 52.977C97.1598 55.5848 95.0458 57.6989 92.4379 57.6989C89.8301 57.6989 87.7161 55.5848 87.7161 52.977C87.7161 50.3692 89.8301 48.2551 92.4379 48.2551C95.0458 48.2551 97.1598 50.3692 97.1598 52.977Z" fill="#A3A3A3" stroke="#A3A3A3"/>
<path d="M92.6116 53.2407L125.112 87.4907L92.6116 124.741" stroke="#A3A3A3" stroke-width="2"/>
<circle cx="70.8645" cy="64.138" r="3.81816" fill="#A3A3A3"/>
<circle cx="81.0465" cy="64.138" r="3.81816" fill="#A3A3A3"/>
<path d="M20.9816 52.9768C20.9816 55.5846 18.8676 57.6987 16.2597 57.6987C13.6519 57.6987 11.5378 55.5846 11.5378 52.9768C11.5378 50.3689 13.6519 48.2549 16.2597 48.2549C18.8676 48.2549 20.9816 50.3689 20.9816 52.9768Z" fill="#F5F5F5" stroke="#A3A3A3"/>
<rect x="23.494" y="42.1199" width="29.9768" height="3.39392" rx="1.69696" fill="#A3A3A3"/>
<path d="M23.4943 49.3029C23.4943 48.3657 24.254 47.606 25.1912 47.606H60.2589C61.1961 47.606 61.9558 48.3657 61.9558 49.3029V49.3029C61.9558 50.2401 61.1961 50.9999 60.2589 50.9999H25.1912C24.254 50.9999 23.4943 50.2401 23.4943 49.3029V49.3029Z" fill="#A3A3A3"/>
<path d="M91.2093 107.357H91.7093V106.857V99.3538C91.7093 96.8685 89.6946 94.8538 87.2093 94.8538H21.4883C19.003 94.8538 16.9883 96.8685 16.9883 99.3538V106.857V107.357H17.4883H91.2093Z" fill="#F5F5F5" stroke="#A3A3A3"/>
<path d="M17.4883 106.355H16.9883V106.855V140.501C16.9883 142.986 19.003 145.001 21.4883 145.001H87.2093C89.6946 145.001 91.7093 142.986 91.7093 140.501V106.855V106.355H91.2093H17.4883Z" fill="#F5F5F5" stroke="#A3A3A3"/>
<path d="M97.1598 124.45C97.1598 127.058 95.0458 129.172 92.4379 129.172C89.8301 129.172 87.7161 127.058 87.7161 124.45C87.7161 121.842 89.8301 119.728 92.4379 119.728C95.0458 119.728 97.1598 121.842 97.1598 124.45Z" fill="#A3A3A3" stroke="#A3A3A3"/>
<circle cx="70.8645" cy="135.611" r="3.81816" fill="#A3A3A3"/>
<circle cx="81.0465" cy="135.611" r="3.81816" fill="#A3A3A3"/>
<path d="M20.9816 124.45C20.9816 127.057 18.8676 129.171 16.2597 129.171C13.6519 129.171 11.5378 127.057 11.5378 124.45C11.5378 121.842 13.6519 119.728 16.2597 119.728C18.8676 119.728 20.9816 121.842 20.9816 124.45Z" fill="#F5F5F5" stroke="#A3A3A3"/>
<rect x="23.494" y="113.593" width="29.9768" height="3.39392" rx="1.69696" fill="#A3A3A3"/>
<path d="M23.4943 120.776C23.4943 119.839 24.254 119.079 25.1912 119.079H60.2589C61.1961 119.079 61.9558 119.839 61.9558 120.776V120.776C61.9558 121.713 61.1961 122.473 60.2589 122.473H25.1912C24.254 122.473 23.4943 121.713 23.4943 120.776V120.776Z" fill="#A3A3A3"/>
<path d="M200.157 70.2017H200.657V69.7017V62.199C200.657 59.7137 198.642 57.699 196.157 57.699L130.436 57.699C127.951 57.699 125.936 59.7137 125.936 62.199V69.7017V70.2017H126.436H200.157Z" fill="#F5F5F5" stroke="#A3A3A3"/>
<path d="M126.436 69.2007H125.936V69.7007V103.346C125.936 105.831 127.951 107.846 130.436 107.846H196.157C198.642 107.846 200.657 105.831 200.657 103.346V69.7007V69.2007H200.157H126.436Z" fill="#F5F5F5" stroke="#A3A3A3"/>
<path d="M206.107 87.295C206.107 89.9028 203.993 92.0169 201.385 92.0169C198.778 92.0169 196.664 89.9028 196.664 87.295C196.664 84.6872 198.778 82.5731 201.385 82.5731C203.993 82.5731 206.107 84.6872 206.107 87.295Z" fill="#F5F5F5" stroke="#A3A3A3"/>
<circle cx="179.812" cy="98.456" r="3.81816" fill="#A3A3A3"/>
<circle cx="189.994" cy="98.456" r="3.81816" fill="#A3A3A3"/>
<path d="M129.929 87.2948C129.929 89.9026 127.815 92.0166 125.207 92.0166C122.599 92.0166 120.485 89.9026 120.485 87.2948C120.485 84.6869 122.599 82.5729 125.207 82.5729C127.815 82.5729 129.929 84.6869 129.929 87.2948Z" fill="#A3A3A3" stroke="#A3A3A3"/>
<rect x="132.442" y="76.4376" width="29.9768" height="3.39392" rx="1.69696" fill="#A3A3A3"/>
<path d="M132.442 83.6208C132.442 82.6836 133.202 81.9238 134.139 81.9238H169.206C170.144 81.9238 170.903 82.6836 170.903 83.6208V83.6208C170.903 84.558 170.144 85.3177 169.206 85.3177H134.139C133.202 85.3177 132.442 84.558 132.442 83.6208V83.6208Z" fill="#A3A3A3"/>
</svg>
