<svg viewBox="0 0 251 168" fill="none" xmlns="http://www.w3.org/2000/svg">
<circle cx="1.41769" cy="1.41769" r="0.917685" transform="matrix(0.707107 -0.707107 -0.707107 -0.707107 236.474 68.376)" fill="#A3A3A3" stroke="#A3A3A3"/>
<circle opacity="0.4" cx="1.41769" cy="1.41769" r="0.917685" transform="matrix(0.707107 -0.707107 -0.707107 -0.707107 186.436 57.3257)" fill="#A3A3A3" stroke="#A3A3A3"/>
<circle opacity="0.2" cx="1.41769" cy="1.41769" r="0.917685" transform="matrix(0.707107 -0.707107 -0.707107 -0.707107 160.264 57.6411)" fill="#A3A3A3" stroke="#A3A3A3"/>
<circle cx="1.41769" cy="1.41769" r="0.917685" transform="matrix(0.707107 -0.707107 -0.707107 -0.707107 224.043 55.9456)" fill="#A3A3A3" stroke="#A3A3A3"/>
<circle opacity="0.5" cx="1.41769" cy="1.41769" r="0.917685" transform="matrix(0.707107 -0.707107 -0.707107 -0.707107 196.658 67.6453)" fill="#A3A3A3" stroke="#A3A3A3"/>
<path d="M227.453 67.3738L223.443 63.364" stroke="#A3A3A3" stroke-width="2" stroke-linecap="round"/>
<path d="M223.442 67.3738L227.452 63.364" stroke="#A3A3A3" stroke-width="2" stroke-linecap="round"/>
<g opacity="0.5">
<path d="M211.321 60.4199L205.672 59.9257" stroke="#A3A3A3" stroke-width="2" stroke-linecap="round"/>
<path d="M208.249 62.9971L208.743 57.3479" stroke="#A3A3A3" stroke-width="2" stroke-linecap="round"/>
</g>
<g opacity="0.2">
<path d="M173.754 53.7505L170.501 49.1053" stroke="#A3A3A3" stroke-width="2" stroke-linecap="round"/>
<path d="M169.805 53.0535L174.45 49.8009" stroke="#A3A3A3" stroke-width="2" stroke-linecap="round"/>
</g>
<circle cx="1.41769" cy="1.41769" r="0.917685" transform="matrix(0.707107 -0.707107 -0.707107 -0.707107 163.116 48.3831)" fill="#A3A3A3" stroke="#A3A3A3"/>
<circle opacity="0.4" cx="1.41769" cy="1.41769" r="0.917685" transform="matrix(0.707107 -0.707107 -0.707107 -0.707107 113.076 37.3323)" fill="#A3A3A3" stroke="#A3A3A3"/>
<circle opacity="0.2" cx="1.41769" cy="1.41769" r="0.917685" transform="matrix(0.707107 -0.707107 -0.707107 -0.707107 86.9044 37.6484)" fill="#A3A3A3" stroke="#A3A3A3"/>
<circle cx="1.41769" cy="1.41769" r="0.917685" transform="matrix(0.707107 -0.707107 -0.707107 -0.707107 150.685 35.9529)" fill="#A3A3A3" stroke="#A3A3A3"/>
<circle opacity="0.5" cx="1.41769" cy="1.41769" r="0.917685" transform="matrix(0.707107 -0.707107 -0.707107 -0.707107 123.298 47.6523)" fill="#A3A3A3" stroke="#A3A3A3"/>
<path d="M154.093 47.3809L150.083 43.371" stroke="#A3A3A3" stroke-width="2" stroke-linecap="round"/>
<path d="M150.082 47.3811L154.092 43.3713" stroke="#A3A3A3" stroke-width="2" stroke-linecap="round"/>
<g opacity="0.5">
<path d="M137.963 40.4268L132.314 39.9325" stroke="#A3A3A3" stroke-width="2" stroke-linecap="round"/>
<path d="M134.893 43.0044L135.387 37.3552" stroke="#A3A3A3" stroke-width="2" stroke-linecap="round"/>
</g>
<g opacity="0.2">
<path d="M100.393 33.7578L97.1408 29.1126" stroke="#A3A3A3" stroke-width="2" stroke-linecap="round"/>
<path d="M96.4445 33.0618L101.09 29.8092" stroke="#A3A3A3" stroke-width="2" stroke-linecap="round"/>
</g>
<circle cx="236.474" cy="102.388" r="0.917685" transform="rotate(45 236.474 102.388)" fill="#A3A3A3" stroke="#A3A3A3"/>
<circle opacity="0.4" cx="186.436" cy="113.439" r="0.917685" transform="rotate(45 186.436 113.439)" fill="#A3A3A3" stroke="#A3A3A3"/>
<circle opacity="0.2" cx="160.264" cy="113.123" r="0.917685" transform="rotate(45 160.264 113.123)" fill="#A3A3A3" stroke="#A3A3A3"/>
<circle cx="224.043" cy="114.819" r="0.917685" transform="rotate(45 224.043 114.819)" fill="#A3A3A3" stroke="#A3A3A3"/>
<circle opacity="0.5" cx="196.658" cy="103.119" r="0.917685" transform="rotate(45 196.658 103.119)" fill="#A3A3A3" stroke="#A3A3A3"/>
<path d="M227.453 101.386L223.443 105.396" stroke="#A3A3A3" stroke-width="2" stroke-linecap="round"/>
<path d="M223.442 101.386L227.452 105.396" stroke="#A3A3A3" stroke-width="2" stroke-linecap="round"/>
<g opacity="0.5">
<path d="M211.321 108.339L205.672 108.833" stroke="#A3A3A3" stroke-width="2" stroke-linecap="round"/>
<path d="M208.249 105.762L208.744 111.411" stroke="#A3A3A3" stroke-width="2" stroke-linecap="round"/>
</g>
<g opacity="0.2">
<path d="M173.754 115.009L170.501 119.654" stroke="#A3A3A3" stroke-width="2" stroke-linecap="round"/>
<path d="M169.805 115.706L174.45 118.958" stroke="#A3A3A3" stroke-width="2" stroke-linecap="round"/>
</g>
<circle cx="163.116" cy="122.381" r="0.917685" transform="rotate(45 163.116 122.381)" fill="#A3A3A3" stroke="#A3A3A3"/>
<circle opacity="0.4" cx="113.077" cy="133.432" r="0.917685" transform="rotate(45 113.077 133.432)" fill="#A3A3A3" stroke="#A3A3A3"/>
<circle opacity="0.2" cx="86.9044" cy="133.116" r="0.917685" transform="rotate(45 86.9044 133.116)" fill="#A3A3A3" stroke="#A3A3A3"/>
<circle cx="150.685" cy="134.811" r="0.917685" transform="rotate(45 150.685 134.811)" fill="#A3A3A3" stroke="#A3A3A3"/>
<circle opacity="0.5" cx="123.298" cy="123.112" r="0.917685" transform="rotate(45 123.298 123.112)" fill="#A3A3A3" stroke="#A3A3A3"/>
<path d="M154.093 121.378L150.083 125.388" stroke="#A3A3A3" stroke-width="2" stroke-linecap="round"/>
<path d="M150.082 121.378L154.092 125.388" stroke="#A3A3A3" stroke-width="2" stroke-linecap="round"/>
<g opacity="0.5">
<path d="M137.964 128.333L132.314 128.827" stroke="#A3A3A3" stroke-width="2" stroke-linecap="round"/>
<path d="M134.893 125.755L135.387 131.404" stroke="#A3A3A3" stroke-width="2" stroke-linecap="round"/>
</g>
<g opacity="0.2">
<path d="M100.393 135.001L97.1408 139.646" stroke="#A3A3A3" stroke-width="2" stroke-linecap="round"/>
<path d="M96.4445 135.697L101.09 138.95" stroke="#A3A3A3" stroke-width="2" stroke-linecap="round"/>
</g>
<path d="M52.8843 16.8902C51.8394 14.3341 48.9202 13.1091 46.3641 14.154C43.808 15.1989 42.583 18.1182 43.6279 20.6742L52.8843 16.8902ZM219.044 80.53L214.054 80.2256L213.445 90.207L218.435 90.5115L219.044 80.53ZM48.2561 18.7822C43.6279 20.6742 43.6289 20.6768 43.6301 20.6795C43.6306 20.6807 43.6318 20.6837 43.6328 20.6862C43.6349 20.6912 43.6373 20.6971 43.6401 20.704C43.6458 20.7177 43.6531 20.7353 43.662 20.7566C43.6799 20.7993 43.7042 20.857 43.7351 20.9293C43.7969 21.0738 43.8851 21.2766 44.0003 21.5339C44.2308 22.0485 44.5697 22.7813 45.023 23.7019C45.9292 25.5423 47.2945 28.1371 49.1664 31.24C52.9062 37.4391 58.6924 45.7072 66.9132 54.044C83.4036 70.7671 109.692 87.7445 148.598 88.7929L148.867 78.7966C113.051 77.8314 89.1008 62.3025 74.0336 47.0227C66.4756 39.3581 61.1532 31.7506 57.729 26.0745C56.0189 23.2398 54.7885 20.8971 53.9944 19.2844C53.5975 18.4784 53.3101 17.8558 53.1268 17.4465C53.0352 17.2419 52.9696 17.0908 52.9294 16.9968C52.9093 16.9498 52.8956 16.9171 52.8881 16.8992C52.8843 16.8902 52.8822 16.8849 52.8815 16.8834C52.8812 16.8827 52.8813 16.8829 52.8818 16.884C52.882 16.8845 52.8826 16.8861 52.8827 16.8864C52.8835 16.8882 52.8843 16.8902 48.2561 18.7822ZM148.598 88.7929C185.96 89.7998 203.472 90.2316 211.647 90.4116C215.723 90.5014 217.507 90.5293 218.278 90.5341C218.471 90.5353 218.628 90.5353 218.753 90.5335C218.812 90.5327 218.899 90.531 218.994 90.5267C219.039 90.5246 219.122 90.5203 219.224 90.5114C219.259 90.5083 219.558 90.4851 219.923 90.4005C219.977 90.3881 220.699 90.2417 221.468 89.7564C221.813 89.5386 222.939 88.7839 223.501 87.2287C224.225 85.2269 223.519 83.4542 222.749 82.4624C222.128 81.6613 221.425 81.2639 221.189 81.1355C220.874 80.9642 220.606 80.863 220.463 80.8125C220.174 80.7102 219.939 80.6579 219.849 80.6387C219.645 80.5946 219.482 80.5732 219.434 80.5669C219.362 80.5575 219.303 80.5513 219.268 80.5479C219.198 80.5409 219.141 80.5366 219.114 80.5347C219.097 80.5335 219.083 80.5325 219.072 80.5318C219.066 80.5314 219.061 80.5311 219.056 80.5308C219.054 80.5306 219.052 80.5305 219.05 80.5304C219.049 80.5303 219.048 80.5302 219.047 80.5302C219.046 80.5301 219.044 80.53 218.74 85.5207C218.435 90.5115 218.434 90.5114 218.433 90.5113C218.432 90.5113 218.431 90.5112 218.43 90.5111C218.429 90.511 218.427 90.5109 218.425 90.5108C218.422 90.5106 218.418 90.5104 218.414 90.5101C218.407 90.5096 218.398 90.5091 218.389 90.5083C218.375 90.5073 218.335 90.5044 218.281 90.4991C218.255 90.4965 218.204 90.4912 218.139 90.4827C218.097 90.4773 217.94 90.4568 217.74 90.4137C217.653 90.395 217.42 90.3431 217.132 90.2413C216.99 90.1911 216.723 90.0901 216.409 89.9191C216.173 89.7909 215.47 89.3938 214.849 88.5929C214.079 87.6014 213.373 85.8289 214.097 83.8274C214.66 82.2725 215.785 81.518 216.13 81.3005C216.898 80.8157 217.618 80.6697 217.67 80.6578C218.031 80.5743 218.323 80.552 218.348 80.5498C218.438 80.5419 218.507 80.5385 218.535 80.5372C218.594 80.5345 218.627 80.5343 218.612 80.5345C218.588 80.5348 218.51 80.5354 218.34 80.5343C217.66 80.5301 215.953 80.5041 211.867 80.4141C203.719 80.2346 186.228 79.8034 148.867 78.7966L148.598 88.7929Z" fill="#525252"/>
<path d="M48.2561 152.287C48.2561 152.287 74.01 89.2885 148.733 87.2748C223.455 85.2612 220.191 85.5488 220.191 85.5488" stroke="#525252" stroke-width="10" stroke-linecap="round" stroke-linejoin="round"/>
<path d="M236.632 86.1385L214.457 94.2502L217.518 86.5077L211.818 74.887L236.632 86.1385Z" fill="#525252"/>
<path d="M217.799 78.4599C216.941 78.0711 216.048 78.9636 216.456 79.8006L218.845 84.6964C218.975 84.9641 218.976 85.277 218.846 85.5485L216.198 91.0689C215.794 91.9126 216.677 92.7775 217.533 92.3761L230.8 86.1549C231.575 85.7913 231.58 84.709 230.809 84.359L217.799 78.4599ZM214.373 83.2152C214.373 83.0729 214.336 82.9335 214.265 82.8103L208.884 73.4413C208.404 72.6047 209.308 71.6403 210.196 72.0428L238.379 84.822C239.141 85.1676 239.148 86.232 238.391 86.6079L210.703 100.346C209.846 100.772 208.939 99.903 209.349 99.0491L214.192 88.9481C214.196 88.9417 214.205 88.9445 214.204 88.9514L214.373 83.2152Z" fill="#A3A3A3"/>
<path d="M91.2093 36.7838H91.7093V36.2838V28.781C91.7093 26.2957 89.6946 24.281 87.2093 24.281L21.4883 24.281C19.003 24.281 16.9883 26.2957 16.9883 28.781V36.2838V36.7838H17.4883H91.2093Z" fill="#525252" stroke="#A3A3A3"/>
<path d="M17.4883 35.7827H16.9883V36.2827V69.9281C16.9883 72.4134 19.003 74.4281 21.4883 74.4281H87.2093C89.6946 74.4281 91.7093 72.4134 91.7093 69.9281V36.2827V35.7827H91.2093L17.4883 35.7827Z" fill="#525252" stroke="#A3A3A3"/>
<path d="M97.1598 53.8769C97.1598 56.4847 95.0458 58.5988 92.4379 58.5988C89.8301 58.5988 87.7161 56.4847 87.7161 53.8769C87.7161 51.2691 89.8301 49.155 92.4379 49.155C95.0458 49.155 97.1598 51.2691 97.1598 53.8769Z" fill="#D4D4D4" stroke="#D4D4D4"/>
<path d="M92.6116 54.1406L125.112 88.3906L92.6116 125.641" stroke="#D4D4D4" stroke-width="2"/>
<circle cx="70.8645" cy="65.0379" r="3.81816" fill="#A3A3A3"/>
<circle cx="81.0465" cy="65.0379" r="3.81816" fill="#A3A3A3"/>
<path d="M20.9816 53.8767C20.9816 56.4845 18.8676 58.5986 16.2597 58.5986C13.6519 58.5986 11.5378 56.4845 11.5378 53.8767C11.5378 51.2688 13.6519 49.1548 16.2597 49.1548C18.8676 49.1548 20.9816 51.2688 20.9816 53.8767Z" fill="#525252" stroke="#A3A3A3"/>
<rect x="23.494" y="43.0198" width="29.9768" height="3.39392" rx="1.69696" fill="#A3A3A3"/>
<path d="M23.4943 50.2028C23.4943 49.2656 24.254 48.5059 25.1912 48.5059H60.2589C61.1961 48.5059 61.9558 49.2656 61.9558 50.2028C61.9558 51.14 61.1961 51.8998 60.2589 51.8998H25.1912C24.254 51.8998 23.4943 51.14 23.4943 50.2028Z" fill="#A3A3A3"/>
<path d="M91.2093 108.256H91.7093V107.756V100.254C91.7093 97.7684 89.6946 95.7537 87.2093 95.7537H21.4883C19.003 95.7537 16.9883 97.7684 16.9883 100.254V107.756V108.256H17.4883H91.2093Z" fill="#525252" stroke="#A3A3A3"/>
<path d="M17.4883 107.255H16.9883V107.755V141.401C16.9883 143.886 19.003 145.901 21.4883 145.901H87.2093C89.6946 145.901 91.7093 143.886 91.7093 141.401V107.755V107.255H91.2093H17.4883Z" fill="#525252" stroke="#A3A3A3"/>
<path d="M97.1598 125.35C97.1598 127.958 95.0458 130.072 92.4379 130.072C89.8301 130.072 87.7161 127.958 87.7161 125.35C87.7161 122.742 89.8301 120.628 92.4379 120.628C95.0458 120.628 97.1598 122.742 97.1598 125.35Z" fill="#D4D4D4" stroke="#D4D4D4"/>
<circle cx="70.8645" cy="136.511" r="3.81816" fill="#A3A3A3"/>
<circle cx="81.0465" cy="136.511" r="3.81816" fill="#A3A3A3"/>
<path d="M20.9816 125.35C20.9816 127.957 18.8676 130.071 16.2597 130.071C13.6519 130.071 11.5378 127.957 11.5378 125.35C11.5378 122.742 13.6519 120.628 16.2597 120.628C18.8676 120.628 20.9816 122.742 20.9816 125.35Z" fill="#525252" stroke="#A3A3A3"/>
<rect x="23.494" y="114.492" width="29.9768" height="3.39392" rx="1.69696" fill="#A3A3A3"/>
<path d="M23.4943 121.676C23.4943 120.739 24.254 119.979 25.1912 119.979H60.2589C61.1961 119.979 61.9558 120.739 61.9558 121.676C61.9558 122.613 61.1961 123.373 60.2589 123.373H25.1912C24.254 123.373 23.4943 122.613 23.4943 121.676Z" fill="#A3A3A3"/>
<path d="M200.157 71.1016H200.657V70.6016V63.0989C200.657 60.6136 198.642 58.5989 196.157 58.5989L130.436 58.5989C127.951 58.5989 125.936 60.6136 125.936 63.0989V70.6016V71.1016H126.436H200.157Z" fill="#525252" stroke="#A3A3A3"/>
<path d="M126.436 70.1006H125.936V70.6006V104.246C125.936 106.731 127.951 108.746 130.436 108.746H196.157C198.642 108.746 200.657 106.731 200.657 104.246V70.6006V70.1006H200.157H126.436Z" fill="#525252" stroke="#A3A3A3"/>
<path d="M206.107 88.1948C206.107 90.8026 203.993 92.9167 201.385 92.9167C198.778 92.9167 196.664 90.8026 196.664 88.1948C196.664 85.587 198.778 83.4729 201.385 83.4729C203.993 83.4729 206.107 85.587 206.107 88.1948Z" fill="#525252" stroke="#A3A3A3"/>
<circle cx="179.812" cy="99.3558" r="3.81816" fill="#A3A3A3"/>
<circle cx="189.994" cy="99.3558" r="3.81816" fill="#A3A3A3"/>
<path d="M129.929 88.1948C129.929 90.8026 127.815 92.9167 125.207 92.9167C122.599 92.9167 120.485 90.8026 120.485 88.1948C120.485 85.587 122.599 83.4729 125.207 83.4729C127.815 83.4729 129.929 85.587 129.929 88.1948Z" fill="#D4D4D4" stroke="#D4D4D4"/>
<rect x="132.442" y="77.3376" width="29.9768" height="3.39392" rx="1.69696" fill="#A3A3A3"/>
<path d="M132.442 84.5207C132.442 83.5835 133.202 82.8237 134.139 82.8237H169.206C170.144 82.8237 170.903 83.5835 170.903 84.5207C170.903 85.4579 170.144 86.2176 169.206 86.2176H134.139C133.202 86.2176 132.442 85.4579 132.442 84.5207Z" fill="#A3A3A3"/>
</svg>
