<svg viewBox="0 0 249 167" fill="none" xmlns="http://www.w3.org/2000/svg">
<path d="M98.1068 37.5984H98.6068V37.0984V28.2175C98.6068 25.7322 96.592 23.7175 94.1068 23.7175L19.5535 23.7175C17.0682 23.7175 15.0535 25.7322 15.0535 28.2175V37.0984V37.5984H15.5535H98.1068Z" fill="#F5F5F5" stroke="#A3A3A3"/>
<path d="M15.5535 36.5972H15.0535V37.0972L15.0535 75.2528C15.0535 77.7381 17.0682 79.7528 19.5535 79.7528H94.1068C96.592 79.7528 98.6068 77.7381 98.6068 75.2528V37.0972V36.5972H98.1068L15.5535 36.5972Z" fill="#F5F5F5" stroke="#A3A3A3"/>
<circle cx="99.4828" cy="56.7993" r="5.3475" fill="#A3A3A3" stroke="#A3A3A3"/>
<ellipse cx="75.3247" cy="69.2977" rx="4.2756" ry="4.2756" fill="#A3A3A3"/>
<ellipse cx="86.7265" cy="69.2975" rx="4.2756" ry="4.2756" fill="#A3A3A3"/>
<circle cx="14.1777" cy="56.7991" r="5.3475" fill="#F5F5F5" stroke="#A3A3A3"/>
<rect x="22.2789" y="44.6414" width="33.5682" height="3.80053" rx="1.90027" fill="#A3A3A3"/>
<path d="M22.2791 52.6853C22.2791 51.6358 23.1298 50.785 24.1793 50.785H63.4483C64.4978 50.785 65.3486 51.6358 65.3486 52.6853V52.6853C65.3486 53.7348 64.4978 54.5856 63.4483 54.5856H24.1793C23.1298 54.5856 22.2791 53.7348 22.2791 52.6853V52.6853Z" fill="#A3A3A3"/>
<path d="M90.1068 111.598H90.6068V111.098V102.218C90.6068 99.7322 88.592 97.7175 86.1068 97.7175H11.5535C9.06819 97.7175 7.05347 99.7322 7.05347 102.218L7.05347 111.098V111.598H7.55347H90.1068Z" fill="#F5F5F5" stroke="#A3A3A3"/>
<path d="M7.55347 110.597H7.05347V111.097L7.05347 149.253C7.05347 151.738 9.06819 153.753 11.5535 153.753H86.1068C88.592 153.753 90.6068 151.738 90.6068 149.253V111.097V110.597H90.1068H7.55347Z" fill="#F5F5F5" stroke="#A3A3A3"/>
<circle cx="91.4828" cy="130.799" r="5.3475" fill="#F5F5F5" stroke="#A3A3A3"/>
<ellipse cx="67.3247" cy="143.298" rx="4.2756" ry="4.2756" fill="#A3A3A3"/>
<ellipse cx="78.7265" cy="143.298" rx="4.2756" ry="4.2756" fill="#A3A3A3"/>
<circle cx="6.1777" cy="130.799" r="5.3475" fill="#F5F5F5" stroke="#A3A3A3"/>
<rect x="14.2789" y="118.641" width="33.5682" height="3.80053" rx="1.90027" fill="#A3A3A3"/>
<path d="M14.2791 126.685C14.2791 125.636 15.1298 124.785 16.1793 124.785H55.4483C56.4978 124.785 57.3486 125.636 57.3486 126.685V126.685C57.3486 127.735 56.4978 128.586 55.4483 128.586H16.1793C15.1298 128.586 14.2791 127.735 14.2791 126.685V126.685Z" fill="#A3A3A3"/>
<path opacity="0.8" d="M239.002 54.9449L248.657 48.6694M239.002 61.7031L244.312 64.5994M232.727 52.5313V44.8076" stroke="#D4D4D4" stroke-width="3" stroke-linecap="round" stroke-linejoin="round"/>
<path d="M233.468 71.6929H233.968V71.1929V62.312C233.968 59.8267 231.953 57.812 229.468 57.812L154.915 57.812C152.43 57.812 150.415 59.8267 150.415 62.312V71.1929V71.6929H150.915H233.468Z" fill="#F5F5F5" stroke="#A3A3A3"/>
<path d="M150.915 70.6917H150.415V71.1917V109.347C150.415 111.833 152.43 113.847 154.915 113.847H229.468C231.953 113.847 233.968 111.833 233.968 109.347V71.1917V70.6917H233.468H150.915Z" fill="#F5F5F5" stroke="#A3A3A3"/>
<circle cx="234.844" cy="90.8938" r="5.3475" fill="#F5F5F5" stroke="#A3A3A3"/>
<ellipse cx="210.686" cy="103.392" rx="4.2756" ry="4.2756" fill="#A3A3A3"/>
<ellipse cx="222.088" cy="103.392" rx="4.2756" ry="4.2756" fill="#A3A3A3"/>
<circle cx="149.539" cy="90.8936" r="5.3475" fill="#F5F5F5" stroke="#A3A3A3"/>
<rect x="157.64" y="78.7357" width="33.5682" height="3.80053" rx="1.90027" fill="#A3A3A3"/>
<path d="M157.64 86.7798C157.64 85.7303 158.491 84.8795 159.541 84.8795H198.81C199.859 84.8795 200.71 85.7303 200.71 86.7798V86.7798C200.71 87.8293 199.859 88.68 198.81 88.68H159.541C158.491 88.68 157.64 87.8293 157.64 86.7798V86.7798Z" fill="#A3A3A3"/>
<circle cx="230.823" cy="36.987" r="0.759516" transform="rotate(59 230.823 36.987)" fill="#D4D4D4" stroke="#D4D4D4"/>
<circle opacity="0.4" cx="185.311" cy="35.758" r="0.759516" transform="rotate(59 185.311 35.758)" fill="#D4D4D4" stroke="#D4D4D4"/>
<circle opacity="0.2" cx="162.817" cy="29.8605" r="0.759516" transform="rotate(59 162.817 29.8605)" fill="#D4D4D4" stroke="#D4D4D4"/>
<circle cx="217.434" cy="45.0307" r="0.759516" transform="rotate(59 217.434 45.0307)" fill="#D4D4D4" stroke="#D4D4D4"/>
<circle opacity="0.5" cx="196.341" cy="29.0589" r="0.759516" transform="rotate(59 196.341 29.0589)" fill="#D4D4D4" stroke="#D4D4D4"/>
<path d="M223.26 34.1839L218.941 36.7787" stroke="#D4D4D4" stroke-width="2" stroke-linecap="round"/>
<path d="M219.802 33.3218L222.397 37.6403" stroke="#D4D4D4" stroke-width="2" stroke-linecap="round"/>
<g opacity="0.5">
<path d="M207.861 36.7114L202.885 35.9232" stroke="#D4D4D4" stroke-width="2" stroke-linecap="round"/>
<path d="M205.767 33.8293L204.979 38.8054" stroke="#D4D4D4" stroke-width="2" stroke-linecap="round"/>
</g>
<g opacity="0.2">
<path d="M174.042 34.3853L170.24 37.6905" stroke="#D4D4D4" stroke-width="2" stroke-linecap="round"/>
<path d="M170.487 34.1368L173.793 37.9391" stroke="#D4D4D4" stroke-width="2" stroke-linecap="round"/>
</g>
<circle cx="1.25952" cy="1.25952" r="0.759516" transform="matrix(0.707107 -0.707107 -0.707107 -0.707107 210.609 137.875)" fill="#D4D4D4" stroke="#D4D4D4"/>
<circle opacity="0.4" cx="1.25952" cy="1.25952" r="0.759516" transform="matrix(0.707107 -0.707107 -0.707107 -0.707107 166.152 128.057)" fill="#D4D4D4" stroke="#D4D4D4"/>
<circle opacity="0.2" cx="1.25952" cy="1.25952" r="0.759516" transform="matrix(0.707107 -0.707107 -0.707107 -0.707107 142.901 128.338)" fill="#D4D4D4" stroke="#D4D4D4"/>
<circle cx="1.25952" cy="1.25952" r="0.759516" transform="matrix(0.707107 -0.707107 -0.707107 -0.707107 199.565 126.831)" fill="#D4D4D4" stroke="#D4D4D4"/>
<circle opacity="0.5" cx="1.25952" cy="1.25952" r="0.759516" transform="matrix(0.707107 -0.707107 -0.707107 -0.707107 175.234 137.226)" fill="#D4D4D4" stroke="#D4D4D4"/>
<path d="M202.594 136.984L199.031 133.421" stroke="#D4D4D4" stroke-width="2" stroke-linecap="round"/>
<path d="M199.031 136.984L202.593 133.421" stroke="#D4D4D4" stroke-width="2" stroke-linecap="round"/>
<g opacity="0.5">
<path d="M188.263 130.806L183.244 130.367" stroke="#D4D4D4" stroke-width="2" stroke-linecap="round"/>
<path d="M185.534 133.096L185.973 128.077" stroke="#D4D4D4" stroke-width="2" stroke-linecap="round"/>
</g>
<g opacity="0.2">
<path d="M154.886 124.881L151.997 120.754" stroke="#D4D4D4" stroke-width="2" stroke-linecap="round"/>
<path d="M151.378 124.263L155.505 121.373" stroke="#D4D4D4" stroke-width="2" stroke-linecap="round"/>
</g>
<path opacity="0.2" d="M99.3702 57.3605L108.593 43.6974" stroke="#A3A3A3" stroke-linecap="round" stroke-linejoin="round"/>
<path opacity="0.3" d="M98.6888 58.0435L120.208 45.7468" stroke="#A3A3A3" stroke-linecap="round" stroke-linejoin="round"/>
<path opacity="0.4" d="M99.3702 58.3849L129.087 53.2613" stroke="#A3A3A3" stroke-linecap="round" stroke-linejoin="round"/>
<path opacity="0.6" d="M99.3702 58.0438L135.919 67.608" stroke="#A3A3A3" stroke-linecap="round" stroke-linejoin="round"/>
<g opacity="0.6">
<path d="M136.276 65.7767L132.055 59.8849L134.486 59.8659L137.73 57.5284L136.276 65.7767Z" fill="white" stroke="white" stroke-linecap="round" stroke-linejoin="round"/>
<g clip-path="url(#clip0_128_13472)">
<path d="M137.416 58.7791L135.341 60.5437L132.455 60.0348L136.39 64.6017L137.416 58.7791ZM134.234 53.8542L135.616 58.9886L138.782 55.9117L136.852 66.8577L129.457 58.6551L133.806 59.4219L132.43 54.3356L134.234 53.8542Z" fill="#A3A3A3"/>
</g>
</g>
<g opacity="0.4">
<path d="M129.277 50.9756L125.244 47.0277L127.105 46.6844L129.277 44.453V50.9756Z" fill="white" stroke="white" stroke-linecap="round" stroke-linejoin="round"/>
<g clip-path="url(#clip1_128_13472)">
<path d="M129.202 45.4551L127.849 47.089L125.567 47.089L129.202 50.0594V45.4551ZM126.095 42.1084L127.849 45.8592L129.861 43.0713V51.7272L123.08 46.4363H126.52L124.777 42.7215L126.095 42.1084Z" fill="#A3A3A3"/>
</g>
</g>
<g opacity="0.3">
<path d="M119.182 44.5936L115.16 44.9891L115.829 43.8102L115.605 41.5921L119.182 44.5936Z" fill="white" stroke="white" stroke-linecap="round" stroke-linejoin="round"/>
<g clip-path="url(#clip2_128_13472)">
<path d="M116.117 42.0936L116.391 43.5873L115.341 44.839L118.643 44.2124L116.117 42.0936ZM112.852 42.2573L115.717 43.0214L115.114 40.6351L119.861 44.6183L113.839 45.9021L115.421 44.0159L112.582 43.2625L112.852 42.2573Z" fill="#A3A3A3"/>
</g>
</g>
<g opacity="0.2">
<path d="M106.569 43.0224L104.588 44.4417L104.582 43.6243L103.796 42.5333L106.569 43.0224Z" fill="white" stroke="white" stroke-linecap="round" stroke-linejoin="round"/>
<g clip-path="url(#clip3_128_13472)">
<path d="M104.217 42.6396L104.81 43.3373L104.639 44.3079L106.175 42.9849L104.217 42.6396ZM102.561 43.7098L104.287 43.2451L103.253 42.1805L106.934 42.8295L104.175 45.3162L104.433 43.8537L102.723 44.3164L102.561 43.7098Z" fill="#A3A3A3"/>
</g>
</g>
<path d="M140.376 83.3491L145.007 79.4747M141.264 85.1282L143.795 86.2344M138.93 82.5377L138.084 78.5559" stroke="#D4D4D4" stroke-linecap="round" stroke-linejoin="round"/>
<path opacity="0.9" d="M99.7126 58.0438L137.969 85.37" stroke="#A3A3A3" stroke-linecap="round" stroke-linejoin="round"/>
<circle cx="99.4828" cy="56.7994" r="5.3475" fill="#A3A3A3" stroke="#A3A3A3"/>
<g clip-path="url(#clip4_128_13472)">
<path d="M136.289 87.3436L131.189 95.4509L130.195 91.6249L125.654 89.4218L136.289 87.3436Z" fill="white" stroke="white" stroke-linecap="round" stroke-linejoin="round"/>
<path d="M127.364 89.2497L130.518 91.0426L131.196 94.8866L135.119 87.8824L127.364 89.2497ZM122.65 95.4761L128.447 91.4078L123.154 88.8471L137.732 86.2765L130.835 99.2677L129.813 93.4752L124.074 97.5144L122.65 95.4761Z" fill="#A3A3A3"/>
</g>
<defs>
<clipPath id="clip0_128_13472">
<rect width="8.70674" height="12.3514" fill="white" transform="translate(136.852 66.8577) rotate(-170)"/>
</clipPath>
<clipPath id="clip1_128_13472">
<rect width="6.78048" height="9.61881" fill="white" transform="matrix(-1 0 0 -1 129.861 51.7272)"/>
</clipPath>
<clipPath id="clip2_128_13472">
<rect width="4.8542" height="6.88619" fill="white" transform="translate(119.861 44.6183) rotate(130)"/>
</clipPath>
<clipPath id="clip3_128_13472">
<rect width="2.92793" height="4.15358" fill="white" transform="translate(106.934 42.8295) rotate(100)"/>
</clipPath>
<clipPath id="clip4_128_13472">
<rect width="11.5962" height="16.4504" fill="white" transform="translate(137.732 86.2765) rotate(80)"/>
</clipPath>
</defs>
</svg>
