<svg width="250" height="121" viewBox="0 0 250 121" fill="none" xmlns="http://www.w3.org/2000/svg">
<rect x="51.8438" y="1.41495" width="146.005" height="99.1848" rx="5.5" fill="#F5F5F5" stroke="#A3A3A3"/>
<mask id="path-2-inside-1_128_13276" fill="white">
<path d="M53.7466 14.0021H72.759V91.5702H53.7466V14.0021Z"/>
</mask>
<path d="M53.7466 14.0021H72.759V91.5702H53.7466V14.0021Z" fill="#E5E5E5"/>
<path d="M53.7466 14.0021V13.0021H52.7466V14.0021H53.7466ZM53.7466 91.5702H52.7466V92.5702H53.7466V91.5702ZM53.7466 15.0021H72.759V13.0021H53.7466V15.0021ZM72.759 90.5702H53.7466V92.5702H72.759V90.5702ZM54.7466 91.5702V14.0021H52.7466V91.5702H54.7466Z" fill="#A3A3A3" mask="url(#path-2-inside-1_128_13276)"/>
<mask id="path-4-inside-2_128_13276" fill="white">
<path d="M72.7589 14.0021H194.826V91.5703H72.7589V14.0021Z"/>
</mask>
<path d="M72.7589 14.0021H194.826V91.5703H72.7589V14.0021Z" fill="#F5F5F5"/>
<path d="M72.7589 14.0021V13.0021H71.7589V14.0021H72.7589ZM194.826 14.0021H195.826V13.0021H194.826V14.0021ZM194.826 91.5703V92.5703H195.826V91.5703H194.826ZM72.7589 91.5703H71.7589V92.5703H72.7589V91.5703ZM72.7589 15.0021H194.826V13.0021H72.7589V15.0021ZM193.826 14.0021V91.5703H195.826V14.0021H193.826ZM194.826 90.5703H72.7589V92.5703H194.826V90.5703ZM73.7589 91.5703V14.0021H71.7589V91.5703H73.7589Z" fill="#A3A3A3" mask="url(#path-4-inside-2_128_13276)"/>
<path d="M80.5093 40.4998C80.5093 39.2399 81.5306 38.2186 82.7905 38.2186H85.8376V42.781H82.7905C81.5306 42.781 80.5093 41.7597 80.5093 40.4998Z" fill="#A3A3A3"/>
<rect x="56.1685" y="18.2144" width="13.563" height="4.56237" rx="2.28118" fill="#A3A3A3"/>
<rect x="56.1685" y="27.9532" width="13.563" height="4.56237" rx="2.28118" fill="#A3A3A3"/>
<rect x="56.1685" y="38.2186" width="13.563" height="4.56237" rx="2.28118" fill="#A3A3A3"/>
<rect x="56.1685" y="47.9655" width="13.563" height="4.56237" rx="2.28118" fill="#A3A3A3"/>
<rect x="56.1685" y="57.7044" width="13.563" height="4.56237" rx="2.28118" fill="#A3A3A3"/>
<rect x="56.1685" y="67.4513" width="13.563" height="4.56237" rx="2.28118" fill="#A3A3A3"/>
<rect x="56.1685" y="77.1982" width="13.563" height="4.56237" rx="2.28118" fill="#A3A3A3"/>
<path d="M80.5093 51.6984C80.5093 50.4385 81.5306 49.4172 82.7905 49.4172H85.8376V53.9795H82.7905C81.5306 53.9795 80.5093 52.9582 80.5093 51.6984Z" fill="#A3A3A3"/>
<path d="M107.151 40.4998C107.151 39.2399 108.172 38.2186 109.432 38.2186H112.479V42.781H109.432C108.172 42.781 107.151 41.7597 107.151 40.4998Z" fill="#D4D4D4"/>
<path d="M101.822 51.6984C101.822 50.4385 102.844 49.4172 104.103 49.4172H107.151V53.9795H104.103C102.844 53.9795 101.822 52.9582 101.822 51.6984Z" fill="#737373"/>
<path d="M80.5093 62.8968C80.5093 61.637 81.5306 60.6157 82.7905 60.6157H85.8376V65.178H82.7905C81.5306 65.178 80.5093 64.1567 80.5093 62.8968Z" fill="#333333"/>
<rect x="128.464" y="38.2186" width="5.32832" height="4.56237" fill="#D4D4D4"/>
<rect x="123.136" y="49.4172" width="5.32832" height="4.56237" fill="#737373"/>
<rect x="101.822" y="60.6157" width="5.32832" height="4.56237" fill="#E5E5E5"/>
<rect x="133.793" y="60.6157" width="5.32832" height="4.56237" fill="#D4D4D4"/>
<rect x="155.121" y="49.4172" width="5.32832" height="4.56237" fill="#D4D4D4"/>
<rect x="128.464" y="49.4172" width="5.32832" height="4.56237" fill="#262626"/>
<path d="M107.151 60.6157H110.198C111.458 60.6157 112.479 61.637 112.479 62.8968C112.479 64.1567 111.458 65.178 110.198 65.178H107.151V60.6157Z" fill="#F5F5F5"/>
<rect x="139.121" y="60.6157" width="5.32832" height="4.56237" fill="#A3A3A3"/>
<path d="M144.449 60.6157H147.496C148.756 60.6157 149.778 61.637 149.778 62.8968C149.778 64.1567 148.756 65.178 147.496 65.178H144.449V60.6157Z" fill="#737373"/>
<path d="M155.121 62.8968C155.121 61.637 156.142 60.6157 157.402 60.6157H160.449V65.178H157.402C156.142 65.178 155.121 64.1567 155.121 62.8968Z" fill="black"/>
<rect x="160.449" y="60.6157" width="5.32832" height="4.56237" fill="#A3A3A3"/>
<path d="M165.778 60.6157H168.825C170.085 60.6157 171.106 61.637 171.106 62.8968C171.106 64.1567 170.085 65.178 168.825 65.178H165.778V60.6157Z" fill="#D4D4D4"/>
<rect x="160.449" y="49.4172" width="5.32832" height="4.56237" fill="#A3A3A3"/>
<path d="M133.793 49.4172H136.84C138.1 49.4172 139.121 50.4385 139.121 51.6984C139.121 52.9582 138.1 53.9795 136.84 53.9795H133.793V49.4172Z" fill="#737373"/>
<path d="M165.778 49.4172H168.825C170.085 49.4172 171.106 50.4385 171.106 51.6984C171.106 52.9582 170.085 53.9795 168.825 53.9795H165.778V49.4172Z" fill="#333333"/>
<rect x="149.778" y="38.2186" width="5.32832" height="4.56237" fill="#A3A3A3"/>
<rect x="85.8379" y="38.2186" width="5.32832" height="4.56237" fill="#F5F5F5"/>
<rect x="85.8379" y="49.4172" width="5.32832" height="4.56237" fill="#A3A3A3"/>
<rect x="112.479" y="38.2186" width="5.32832" height="4.56237" fill="#A3A3A3"/>
<rect x="107.151" y="49.4172" width="5.32832" height="4.56237" fill="#D4D4D4"/>
<rect x="85.8379" y="60.6157" width="5.32832" height="4.56237" fill="#525252"/>
<path d="M117.807 62.8968C117.807 61.637 118.828 60.6157 120.088 60.6157H123.135V65.178H120.088C118.828 65.178 117.807 64.1567 117.807 62.8968Z" fill="#D4D4D4"/>
<rect x="133.793" y="38.2186" width="5.32832" height="4.56237" fill="#D4D4D4"/>
<path d="M155.106 38.2186H158.153C159.413 38.2186 160.434 39.2399 160.434 40.4998C160.434 41.7597 159.413 42.781 158.153 42.781H155.106V38.2186Z" fill="black"/>
<rect x="91.166" y="38.2186" width="5.32832" height="4.56237" fill="#525252"/>
<rect x="91.166" y="49.4172" width="5.32832" height="4.56237" fill="#333333"/>
<rect x="117.807" y="38.2186" width="5.32832" height="4.56237" fill="#737373"/>
<rect x="112.479" y="49.4172" width="5.32832" height="4.56237" fill="#E5E5E5"/>
<rect x="91.166" y="60.6157" width="5.32832" height="4.56237" fill="#A3A3A3"/>
<rect x="123.136" y="60.6157" width="5.32832" height="4.56237" fill="#F5F5F5"/>
<path d="M144.464 51.6984C144.464 50.4385 145.485 49.4172 146.745 49.4172H149.792V53.9795H146.745C145.485 53.9795 144.464 52.9582 144.464 51.6984Z" fill="#A3A3A3"/>
<rect x="139.121" y="38.2186" width="5.32832" height="4.56237" fill="#525252"/>
<path d="M165.778 40.4998C165.778 39.2399 166.799 38.2186 168.059 38.2186H171.106V42.781H168.059C166.799 42.781 165.778 41.7597 165.778 40.4998Z" fill="black"/>
<path d="M96.4941 38.2186H99.5413C100.801 38.2186 101.822 39.2399 101.822 40.4998C101.822 41.7597 100.801 42.781 99.5413 42.781H96.4941V38.2186Z" fill="#333333"/>
<rect x="123.136" y="38.2186" width="5.32832" height="4.56237" fill="#F5F5F5"/>
<rect x="117.807" y="49.4172" width="5.32832" height="4.56237" fill="#262626"/>
<rect x="96.4941" y="60.6157" width="5.32832" height="4.56237" fill="#D4D4D4"/>
<rect x="128.464" y="60.6157" width="5.32832" height="4.56237" fill="#E5E5E5"/>
<rect x="149.793" y="49.4172" width="5.32832" height="4.56237" fill="#F5F5F5"/>
<rect x="144.449" y="38.2186" width="5.32832" height="4.56237" fill="black"/>
<rect x="171.106" y="38.2186" width="5.32832" height="4.56237" fill="#E5E5E5"/>
<path d="M176.434 38.2186H179.481C180.741 38.2186 181.762 39.2399 181.762 40.4998C181.762 41.7597 180.741 42.781 179.481 42.781H176.434V38.2186Z" fill="white"/>
<rect x="93.9058" y="23.8057" width="18.1647" height="4.14761" rx="2.0738" fill="#A3A3A3"/>
<path fill-rule="evenodd" clip-rule="evenodd" d="M117.991 26.9059C118.457 26.5067 118.457 25.7858 117.991 25.3867L113.927 21.9069C113.461 21.5078 113.461 20.7868 113.927 20.3877L115.815 18.7714C116.189 18.4509 116.741 18.4509 117.116 18.7714L125.625 26.0575C125.643 26.073 125.643 26.1011 125.625 26.1167C125.607 26.1322 125.607 26.1603 125.625 26.1759C125.643 26.1914 125.643 26.2195 125.625 26.235L117.116 33.5211C116.741 33.8417 116.189 33.8417 115.815 33.5211L113.927 31.9048C113.461 31.5057 113.461 30.7848 113.927 30.3856L117.991 26.9059Z" fill="#A3A3A3"/>
<path fill-rule="evenodd" clip-rule="evenodd" d="M117.663 80.3457C118.13 79.9466 118.13 79.2256 117.663 78.8265L113.599 75.3467C113.133 74.9476 113.133 74.2267 113.599 73.8275L115.487 72.2112C115.861 71.8907 116.414 71.8907 116.788 72.2112L125.297 79.4973C125.315 79.5129 125.315 79.541 125.297 79.5565C125.279 79.572 125.279 79.6001 125.297 79.6157C125.315 79.6312 125.315 79.6593 125.297 79.6749L116.788 86.9609C116.414 87.2815 115.861 87.2815 115.487 86.9609L113.599 85.3446C113.133 84.9455 113.133 84.2246 113.599 83.8255L117.663 80.3457Z" fill="#A3A3A3"/>
<path fill-rule="evenodd" clip-rule="evenodd" d="M87.985 26.9059C87.5189 26.5067 87.5189 25.7858 87.985 25.3867L92.049 21.9069C92.5151 21.5078 92.5151 20.7868 92.049 20.3877L90.1613 18.7714C89.7869 18.4509 89.2349 18.4509 88.8605 18.7714L80.3512 26.0575C80.333 26.073 80.333 26.1011 80.3512 26.1167C80.3694 26.1322 80.3694 26.1603 80.3512 26.1759C80.333 26.1914 80.333 26.2195 80.3512 26.235L88.8605 33.5211C89.2349 33.8417 89.7869 33.8417 90.1613 33.5211L92.049 31.9048C92.5151 31.5057 92.5151 30.7848 92.049 30.3856L87.985 26.9059Z" fill="#A3A3A3"/>
<path fill-rule="evenodd" clip-rule="evenodd" d="M87.985 80.3457C87.5189 79.9466 87.5189 79.2256 87.985 78.8265L92.049 75.3467C92.5151 74.9476 92.5151 74.2267 92.049 73.8275L90.1613 72.2112C89.7869 71.8907 89.2349 71.8907 88.8605 72.2112L80.3512 79.4973C80.333 79.5129 80.333 79.541 80.3512 79.5565C80.3694 79.572 80.3694 79.6001 80.3512 79.6157C80.333 79.6312 80.333 79.6593 80.3512 79.6749L88.8605 86.9609C89.2349 87.2815 89.7869 87.2815 90.1613 86.9609L92.049 85.3446C92.5151 84.9455 92.5151 84.2246 92.049 83.8255L87.985 80.3457Z" fill="#A3A3A3"/>
<rect width="16.2457" height="4.67957" rx="2.33978" transform="matrix(0.559062 -0.829126 0.896442 0.443161 95.085 85.2839)" fill="#A3A3A3"/>
<circle cx="212.395" cy="14.8738" r="0.759516" transform="rotate(-41 212.395 14.8738)" fill="#D4D4D4" stroke="#D4D4D4"/>
<circle opacity="0.4" cx="219.088" cy="59.9076" r="0.759516" transform="rotate(-41 219.088 59.9076)" fill="#D4D4D4" stroke="#D4D4D4"/>
<circle opacity="0.2" cx="217.186" cy="83.0836" r="0.759516" transform="rotate(-41 217.186 83.0836)" fill="#D4D4D4" stroke="#D4D4D4"/>
<circle cx="222.641" cy="26.6624" r="0.759516" transform="rotate(-41 222.641 26.6624)" fill="#D4D4D4" stroke="#D4D4D4"/>
<circle opacity="0.5" cx="210.575" cy="50.2085" r="0.759516" transform="rotate(-41 210.575 50.2085)" fill="#D4D4D4" stroke="#D4D4D4"/>
<path d="M210.948 22.8087L214.253 26.6109" stroke="#D4D4D4" stroke-width="2" stroke-linecap="round"/>
<path d="M210.699 26.363L214.501 23.0578" stroke="#D4D4D4" stroke-width="2" stroke-linecap="round"/>
<g opacity="0.5">
<path d="M216.111 37.5341L216.199 42.5714" stroke="#D4D4D4" stroke-width="2" stroke-linecap="round"/>
<path d="M213.636 40.0972L218.673 40.0093" stroke="#D4D4D4" stroke-width="2" stroke-linecap="round"/>
</g>
<g opacity="0.2">
<path d="M219.693 71.2436L223.608 74.4141" stroke="#D4D4D4" stroke-width="2" stroke-linecap="round"/>
<path d="M220.065 74.7872L223.236 70.8719" stroke="#D4D4D4" stroke-width="2" stroke-linecap="round"/>
</g>
<circle cx="1.25952" cy="1.25952" r="0.759516" transform="matrix(-0.75471 -0.656059 -0.656059 0.75471 40.0454 14.7496)" fill="#D4D4D4" stroke="#D4D4D4"/>
<circle opacity="0.4" cx="1.25952" cy="1.25952" r="0.759516" transform="matrix(-0.75471 -0.656059 -0.656059 0.75471 33.3525 59.7835)" fill="#D4D4D4" stroke="#D4D4D4"/>
<circle opacity="0.2" cx="1.25952" cy="1.25952" r="0.759516" transform="matrix(-0.75471 -0.656059 -0.656059 0.75471 35.2545 82.9595)" fill="#D4D4D4" stroke="#D4D4D4"/>
<circle cx="1.25952" cy="1.25952" r="0.759516" transform="matrix(-0.75471 -0.656059 -0.656059 0.75471 29.7988 26.5383)" fill="#D4D4D4" stroke="#D4D4D4"/>
<circle opacity="0.5" cx="1.25952" cy="1.25952" r="0.759516" transform="matrix(-0.75471 -0.656059 -0.656059 0.75471 41.8654 50.0844)" fill="#D4D4D4" stroke="#D4D4D4"/>
<path d="M39.7157 22.8088L36.4104 26.6111" stroke="#D4D4D4" stroke-width="2" stroke-linecap="round"/>
<path d="M39.9644 26.3632L36.1621 23.0579" stroke="#D4D4D4" stroke-width="2" stroke-linecap="round"/>
<g opacity="0.5">
<path d="M34.5527 37.5342L34.4648 42.5715" stroke="#D4D4D4" stroke-width="2" stroke-linecap="round"/>
<path d="M37.0272 40.0974L31.9899 40.0094" stroke="#D4D4D4" stroke-width="2" stroke-linecap="round"/>
</g>
<g opacity="0.2">
<path d="M30.9708 71.2437L27.0555 74.4143" stroke="#D4D4D4" stroke-width="2" stroke-linecap="round"/>
<path d="M30.5983 74.7874L27.4277 70.872" stroke="#D4D4D4" stroke-width="2" stroke-linecap="round"/>
</g>
<rect x="53.7466" y="7.44403" width="141.079" height="6.55799" fill="#D4D4D4"/>
<rect x="104.987" y="101.6" width="39.9409" height="13.6638" fill="#E5E5E5" stroke="#A3A3A3"/>
<path d="M86.668 119.545C86.9127 117.693 88.4977 116.264 90.4167 116.264H159.522C161.441 116.264 163.026 117.693 163.27 119.545H86.668Z" fill="#E5E5E5" stroke="#A3A3A3"/>
</svg>
