<svg viewBox="0 0 250 167" fill="none" xmlns="http://www.w3.org/2000/svg">
<rect x="51.8438" y="24.4149" width="146.005" height="99.1848" rx="5.5" fill="#F5F5F5" stroke="#A3A3A3"/>
<mask id="path-2-inside-1_128_13275" fill="white">
<path d="M53.7466 37.0021H72.759V114.57H53.7466V37.0021Z"/>
</mask>
<path d="M53.7466 37.0021H72.759V114.57H53.7466V37.0021Z" fill="#E5E5E5"/>
<path d="M53.7466 37.0021V36.0021H52.7466V37.0021H53.7466ZM53.7466 114.57H52.7466V115.57H53.7466V114.57ZM53.7466 38.0021H72.759V36.0021H53.7466V38.0021ZM72.759 113.57H53.7466V115.57H72.759V113.57ZM54.7466 114.57V37.0021H52.7466V114.57H54.7466Z" fill="#A3A3A3" mask="url(#path-2-inside-1_128_13275)"/>
<mask id="path-4-inside-2_128_13275" fill="white">
<path d="M72.7589 37.0021H194.826V114.57H72.7589V37.0021Z"/>
</mask>
<path d="M72.7589 37.0021H194.826V114.57H72.7589V37.0021Z" fill="#F5F5F5"/>
<path d="M72.7589 37.0021V36.0021H71.7589V37.0021H72.7589ZM194.826 37.0021H195.826V36.0021H194.826V37.0021ZM194.826 114.57V115.57H195.826V114.57H194.826ZM72.7589 114.57H71.7589V115.57H72.7589V114.57ZM72.7589 38.0021H194.826V36.0021H72.7589V38.0021ZM193.826 37.0021V114.57H195.826V37.0021H193.826ZM194.826 113.57H72.7589V115.57H194.826V113.57ZM73.7589 114.57V37.0021H71.7589V114.57H73.7589Z" fill="#A3A3A3" mask="url(#path-4-inside-2_128_13275)"/>
<path d="M80.5093 63.4998C80.5093 62.2399 81.5306 61.2186 82.7905 61.2186H85.8376V65.781H82.7905C81.5306 65.781 80.5093 64.7597 80.5093 63.4998V63.4998Z" fill="#A3A3A3"/>
<rect x="56.1685" y="41.2144" width="13.563" height="4.56237" rx="2.28118" fill="#A3A3A3"/>
<rect x="56.1685" y="50.9532" width="13.563" height="4.56237" rx="2.28118" fill="#A3A3A3"/>
<rect x="56.1685" y="61.2186" width="13.563" height="4.56237" rx="2.28118" fill="#A3A3A3"/>
<rect x="56.1685" y="70.9655" width="13.563" height="4.56237" rx="2.28118" fill="#A3A3A3"/>
<rect x="56.1685" y="80.7044" width="13.563" height="4.56237" rx="2.28118" fill="#A3A3A3"/>
<rect x="56.1685" y="90.4513" width="13.563" height="4.56237" rx="2.28118" fill="#A3A3A3"/>
<rect x="56.1685" y="100.198" width="13.563" height="4.56237" rx="2.28118" fill="#A3A3A3"/>
<path d="M80.5093 74.6984C80.5093 73.4385 81.5306 72.4172 82.7905 72.4172H85.8376V76.9795H82.7905C81.5306 76.9795 80.5093 75.9582 80.5093 74.6984V74.6984Z" fill="#A3A3A3"/>
<path d="M107.151 63.4998C107.151 62.2399 108.172 61.2186 109.432 61.2186H112.479V65.781H109.432C108.172 65.781 107.151 64.7597 107.151 63.4998V63.4998Z" fill="#D4D4D4"/>
<path d="M101.822 74.6984C101.822 73.4385 102.844 72.4172 104.103 72.4172H107.151V76.9795H104.103C102.844 76.9795 101.822 75.9582 101.822 74.6984V74.6984Z" fill="#737373"/>
<path d="M80.5093 85.8968C80.5093 84.637 81.5306 83.6157 82.7905 83.6157H85.8376V88.178H82.7905C81.5306 88.178 80.5093 87.1567 80.5093 85.8968V85.8968Z" fill="#333333"/>
<rect x="128.464" y="61.2186" width="5.32832" height="4.56237" fill="#D4D4D4"/>
<rect x="123.136" y="72.4172" width="5.32832" height="4.56237" fill="#737373"/>
<rect x="101.822" y="83.6157" width="5.32832" height="4.56237" fill="#E5E5E5"/>
<rect x="133.793" y="83.6157" width="5.32832" height="4.56237" fill="#D4D4D4"/>
<rect x="155.121" y="72.4172" width="5.32832" height="4.56237" fill="#D4D4D4"/>
<rect x="128.464" y="72.4172" width="5.32832" height="4.56237" fill="#262626"/>
<path d="M107.151 83.6157H110.198C111.458 83.6157 112.479 84.637 112.479 85.8968V85.8968C112.479 87.1567 111.458 88.178 110.198 88.178H107.151V83.6157Z" fill="#F5F5F5"/>
<rect x="139.121" y="83.6157" width="5.32832" height="4.56237" fill="#A3A3A3"/>
<path d="M144.449 83.6157H147.496C148.756 83.6157 149.778 84.637 149.778 85.8968V85.8968C149.778 87.1567 148.756 88.178 147.496 88.178H144.449V83.6157Z" fill="#737373"/>
<path d="M155.121 85.8968C155.121 84.637 156.142 83.6157 157.402 83.6157H160.449V88.178H157.402C156.142 88.178 155.121 87.1567 155.121 85.8968V85.8968Z" fill="black"/>
<rect x="160.449" y="83.6157" width="5.32832" height="4.56237" fill="#A3A3A3"/>
<path d="M165.778 83.6157H168.825C170.085 83.6157 171.106 84.637 171.106 85.8968V85.8968C171.106 87.1567 170.085 88.178 168.825 88.178H165.778V83.6157Z" fill="#D4D4D4"/>
<rect x="160.449" y="72.4172" width="5.32832" height="4.56237" fill="#A3A3A3"/>
<path d="M133.793 72.4172H136.84C138.1 72.4172 139.121 73.4385 139.121 74.6984V74.6984C139.121 75.9582 138.1 76.9795 136.84 76.9795H133.793V72.4172Z" fill="#737373"/>
<path d="M165.778 72.4172H168.825C170.085 72.4172 171.106 73.4385 171.106 74.6984V74.6984C171.106 75.9582 170.085 76.9795 168.825 76.9795H165.778V72.4172Z" fill="#333333"/>
<rect x="149.778" y="61.2186" width="5.32832" height="4.56237" fill="#A3A3A3"/>
<rect x="85.8379" y="61.2186" width="5.32832" height="4.56237" fill="#F5F5F5"/>
<rect x="85.8379" y="72.4172" width="5.32832" height="4.56237" fill="#A3A3A3"/>
<rect x="112.479" y="61.2186" width="5.32832" height="4.56237" fill="#A3A3A3"/>
<rect x="107.151" y="72.4172" width="5.32832" height="4.56237" fill="#D4D4D4"/>
<rect x="85.8379" y="83.6157" width="5.32832" height="4.56237" fill="#525252"/>
<path d="M117.807 85.8968C117.807 84.637 118.828 83.6157 120.088 83.6157H123.135V88.178H120.088C118.828 88.178 117.807 87.1567 117.807 85.8968V85.8968Z" fill="#D4D4D4"/>
<rect x="133.793" y="61.2186" width="5.32832" height="4.56237" fill="#D4D4D4"/>
<path d="M155.106 61.2186H158.153C159.413 61.2186 160.434 62.2399 160.434 63.4998V63.4998C160.434 64.7597 159.413 65.781 158.153 65.781H155.106V61.2186Z" fill="black"/>
<rect x="91.166" y="61.2186" width="5.32832" height="4.56237" fill="#525252"/>
<rect x="91.166" y="72.4172" width="5.32832" height="4.56237" fill="#333333"/>
<rect x="117.807" y="61.2186" width="5.32832" height="4.56237" fill="#737373"/>
<rect x="112.479" y="72.4172" width="5.32832" height="4.56237" fill="#E5E5E5"/>
<rect x="91.166" y="83.6157" width="5.32832" height="4.56237" fill="#A3A3A3"/>
<rect x="123.136" y="83.6157" width="5.32832" height="4.56237" fill="#F5F5F5"/>
<path d="M144.464 74.6984C144.464 73.4385 145.485 72.4172 146.745 72.4172H149.792V76.9795H146.745C145.485 76.9795 144.464 75.9582 144.464 74.6984V74.6984Z" fill="#A3A3A3"/>
<rect x="139.121" y="61.2186" width="5.32832" height="4.56237" fill="#525252"/>
<path d="M165.778 63.4998C165.778 62.2399 166.799 61.2186 168.059 61.2186H171.106V65.781H168.059C166.799 65.781 165.778 64.7597 165.778 63.4998V63.4998Z" fill="black"/>
<path d="M96.4941 61.2186H99.5413C100.801 61.2186 101.822 62.2399 101.822 63.4998V63.4998C101.822 64.7597 100.801 65.781 99.5413 65.781H96.4941V61.2186Z" fill="#333333"/>
<rect x="123.136" y="61.2186" width="5.32832" height="4.56237" fill="#F5F5F5"/>
<rect x="117.807" y="72.4172" width="5.32832" height="4.56237" fill="#262626"/>
<rect x="96.4941" y="83.6157" width="5.32832" height="4.56237" fill="#D4D4D4"/>
<rect x="128.464" y="83.6157" width="5.32832" height="4.56237" fill="#E5E5E5"/>
<rect x="149.793" y="72.4172" width="5.32832" height="4.56237" fill="#F5F5F5"/>
<rect x="144.449" y="61.2186" width="5.32832" height="4.56237" fill="black"/>
<rect x="171.106" y="61.2186" width="5.32832" height="4.56237" fill="#E5E5E5"/>
<path d="M176.434 61.2186H179.481C180.741 61.2186 181.762 62.2399 181.762 63.4998V63.4998C181.762 64.7597 180.741 65.781 179.481 65.781H176.434V61.2186Z" fill="white"/>
<rect x="93.9058" y="46.8057" width="18.1647" height="4.14761" rx="2.0738" fill="#A3A3A3"/>
<path fill-rule="evenodd" clip-rule="evenodd" d="M117.991 49.9059C118.457 49.5067 118.457 48.7858 117.991 48.3867L113.927 44.9069C113.461 44.5078 113.461 43.7868 113.927 43.3877L115.815 41.7714C116.189 41.4509 116.741 41.4509 117.116 41.7714L125.625 49.0575C125.643 49.073 125.643 49.1011 125.625 49.1167V49.1167C125.607 49.1322 125.607 49.1603 125.625 49.1759V49.1759C125.643 49.1914 125.643 49.2195 125.625 49.235L117.116 56.5211C116.741 56.8417 116.189 56.8417 115.815 56.5211L113.927 54.9048C113.461 54.5057 113.461 53.7848 113.927 53.3856L117.991 49.9059Z" fill="#A3A3A3"/>
<path fill-rule="evenodd" clip-rule="evenodd" d="M117.663 103.346C118.13 102.947 118.13 102.226 117.663 101.826L113.599 98.3467C113.133 97.9476 113.133 97.2267 113.599 96.8275L115.487 95.2112C115.861 94.8907 116.414 94.8907 116.788 95.2112L125.297 102.497C125.315 102.513 125.315 102.541 125.297 102.556V102.556C125.279 102.572 125.279 102.6 125.297 102.616V102.616C125.315 102.631 125.315 102.659 125.297 102.675L116.788 109.961C116.414 110.281 115.861 110.281 115.487 109.961L113.599 108.345C113.133 107.946 113.133 107.225 113.599 106.825L117.663 103.346Z" fill="#A3A3A3"/>
<path fill-rule="evenodd" clip-rule="evenodd" d="M87.985 49.9059C87.5189 49.5067 87.5189 48.7858 87.985 48.3867L92.049 44.9069C92.5151 44.5078 92.5151 43.7868 92.049 43.3877L90.1613 41.7714C89.7869 41.4509 89.2349 41.4509 88.8605 41.7714L80.3512 49.0575C80.333 49.073 80.333 49.1011 80.3512 49.1167V49.1167C80.3694 49.1322 80.3694 49.1603 80.3512 49.1759V49.1759C80.333 49.1914 80.333 49.2195 80.3512 49.235L88.8605 56.5211C89.2349 56.8417 89.7869 56.8417 90.1613 56.5211L92.049 54.9048C92.5151 54.5057 92.5151 53.7848 92.049 53.3856L87.985 49.9059Z" fill="#A3A3A3"/>
<path fill-rule="evenodd" clip-rule="evenodd" d="M87.985 103.346C87.5189 102.947 87.5189 102.226 87.985 101.826L92.049 98.3467C92.5151 97.9476 92.5151 97.2267 92.049 96.8275L90.1613 95.2112C89.7869 94.8907 89.2349 94.8907 88.8605 95.2112L80.3512 102.497C80.333 102.513 80.333 102.541 80.3512 102.556V102.556C80.3694 102.572 80.3694 102.6 80.3512 102.616V102.616C80.333 102.631 80.333 102.659 80.3512 102.675L88.8605 109.961C89.2349 110.281 89.7869 110.281 90.1613 109.961L92.049 108.345C92.5151 107.946 92.5151 107.225 92.049 106.825L87.985 103.346Z" fill="#A3A3A3"/>
<rect width="16.2457" height="4.67957" rx="2.33978" transform="matrix(0.559062 -0.829126 0.896442 0.443161 95.085 108.284)" fill="#A3A3A3"/>
<circle cx="212.395" cy="37.8738" r="0.759516" transform="rotate(-41 212.395 37.8738)" fill="#D4D4D4" stroke="#D4D4D4"/>
<circle opacity="0.4" cx="219.088" cy="82.9076" r="0.759516" transform="rotate(-41 219.088 82.9076)" fill="#D4D4D4" stroke="#D4D4D4"/>
<circle opacity="0.2" cx="217.186" cy="106.084" r="0.759516" transform="rotate(-41 217.186 106.084)" fill="#D4D4D4" stroke="#D4D4D4"/>
<circle cx="222.641" cy="49.6624" r="0.759516" transform="rotate(-41 222.641 49.6624)" fill="#D4D4D4" stroke="#D4D4D4"/>
<circle opacity="0.5" cx="210.575" cy="73.2085" r="0.759516" transform="rotate(-41 210.575 73.2085)" fill="#D4D4D4" stroke="#D4D4D4"/>
<path d="M210.948 45.8087L214.253 49.6109" stroke="#D4D4D4" stroke-width="2" stroke-linecap="round"/>
<path d="M210.699 49.363L214.501 46.0578" stroke="#D4D4D4" stroke-width="2" stroke-linecap="round"/>
<g opacity="0.5">
<path d="M216.111 60.5341L216.199 65.5714" stroke="#D4D4D4" stroke-width="2" stroke-linecap="round"/>
<path d="M213.636 63.0972L218.673 63.0093" stroke="#D4D4D4" stroke-width="2" stroke-linecap="round"/>
</g>
<g opacity="0.2">
<path d="M219.693 94.2436L223.608 97.4141" stroke="#D4D4D4" stroke-width="2" stroke-linecap="round"/>
<path d="M220.065 97.7872L223.236 93.8719" stroke="#D4D4D4" stroke-width="2" stroke-linecap="round"/>
</g>
<circle cx="1.25952" cy="1.25952" r="0.759516" transform="matrix(-0.75471 -0.656059 -0.656059 0.75471 40.0454 37.7496)" fill="#D4D4D4" stroke="#D4D4D4"/>
<circle opacity="0.4" cx="1.25952" cy="1.25952" r="0.759516" transform="matrix(-0.75471 -0.656059 -0.656059 0.75471 33.3525 82.7835)" fill="#D4D4D4" stroke="#D4D4D4"/>
<circle opacity="0.2" cx="1.25952" cy="1.25952" r="0.759516" transform="matrix(-0.75471 -0.656059 -0.656059 0.75471 35.2545 105.959)" fill="#D4D4D4" stroke="#D4D4D4"/>
<circle cx="1.25952" cy="1.25952" r="0.759516" transform="matrix(-0.75471 -0.656059 -0.656059 0.75471 29.7988 49.5383)" fill="#D4D4D4" stroke="#D4D4D4"/>
<circle opacity="0.5" cx="1.25952" cy="1.25952" r="0.759516" transform="matrix(-0.75471 -0.656059 -0.656059 0.75471 41.8654 73.0844)" fill="#D4D4D4" stroke="#D4D4D4"/>
<path d="M39.7157 45.8088L36.4104 49.6111" stroke="#D4D4D4" stroke-width="2" stroke-linecap="round"/>
<path d="M39.9644 49.3632L36.1621 46.0579" stroke="#D4D4D4" stroke-width="2" stroke-linecap="round"/>
<g opacity="0.5">
<path d="M34.5527 60.5342L34.4648 65.5715" stroke="#D4D4D4" stroke-width="2" stroke-linecap="round"/>
<path d="M37.0272 63.0974L31.9899 63.0094" stroke="#D4D4D4" stroke-width="2" stroke-linecap="round"/>
</g>
<g opacity="0.2">
<path d="M30.9708 94.2437L27.0555 97.4143" stroke="#D4D4D4" stroke-width="2" stroke-linecap="round"/>
<path d="M30.5983 97.7874L27.4277 93.872" stroke="#D4D4D4" stroke-width="2" stroke-linecap="round"/>
</g>
<rect x="53.7466" y="30.444" width="141.079" height="6.55799" fill="#D4D4D4"/>
<rect x="104.987" y="124.6" width="39.9409" height="13.6638" fill="#E5E5E5" stroke="#A3A3A3"/>
<path d="M90.4167 139.264H159.522C161.441 139.264 163.026 140.693 163.27 142.545H86.668C86.9127 140.693 88.4977 139.264 90.4167 139.264Z" fill="#E5E5E5" stroke="#A3A3A3"/>
</svg>
