<svg viewBox="0 0 250 168" fill="none" xmlns="http://www.w3.org/2000/svg">
<rect x="51.8438" y="25.3149" width="146.005" height="99.1848" rx="5.5" fill="#404040" stroke="#A3A3A3"/>
<mask id="path-2-inside-1_128_14170" fill="white">
<path d="M53.7466 37.902H72.759V115.47H53.7466V37.902Z"/>
</mask>
<path d="M53.7466 37.902H72.759V115.47H53.7466V37.902Z" fill="#404040"/>
<path d="M53.7466 37.902V36.902H52.7466V37.902H53.7466ZM53.7466 115.47H52.7466V116.47H53.7466V115.47ZM53.7466 38.902H72.759V36.902H53.7466V38.902ZM72.759 114.47H53.7466V116.47H72.759V114.47ZM54.7466 115.47V37.902H52.7466V115.47H54.7466Z" fill="#A3A3A3" mask="url(#path-2-inside-1_128_14170)"/>
<mask id="path-4-inside-2_128_14170" fill="white">
<path d="M72.7589 37.902H194.826V115.47H72.7589V37.902Z"/>
</mask>
<path d="M72.7589 37.902H194.826V115.47H72.7589V37.902Z" fill="#333333"/>
<path d="M72.7589 37.902V36.902H71.7589V37.902H72.7589ZM194.826 37.902H195.826V36.902H194.826V37.902ZM194.826 115.47V116.47H195.826V115.47H194.826ZM72.7589 115.47H71.7589V116.47H72.7589V115.47ZM72.7589 38.902H194.826V36.902H72.7589V38.902ZM193.826 37.902V115.47H195.826V37.902H193.826ZM194.826 114.47H72.7589V116.47H194.826V114.47ZM73.7589 115.47V37.902H71.7589V115.47H73.7589Z" fill="#A3A3A3" mask="url(#path-4-inside-2_128_14170)"/>
<path d="M80.5093 64.3997C80.5093 63.1399 81.5306 62.1185 82.7905 62.1185H85.8376V66.6809H82.7905C81.5306 66.6809 80.5093 65.6596 80.5093 64.3997Z" fill="#A3A3A3"/>
<rect x="56.1685" y="42.1143" width="13.563" height="4.56237" rx="2.28118" fill="#A3A3A3"/>
<rect x="56.1685" y="51.8531" width="13.563" height="4.56237" rx="2.28118" fill="#A3A3A3"/>
<rect x="56.1685" y="62.1185" width="13.563" height="4.56237" rx="2.28118" fill="#A3A3A3"/>
<rect x="56.1685" y="71.8654" width="13.563" height="4.56237" rx="2.28118" fill="#A3A3A3"/>
<rect x="56.1685" y="81.6043" width="13.563" height="4.56237" rx="2.28118" fill="#A3A3A3"/>
<rect x="56.1685" y="91.3512" width="13.563" height="4.56237" rx="2.28118" fill="#A3A3A3"/>
<rect x="56.1685" y="101.098" width="13.563" height="4.56237" rx="2.28118" fill="#A3A3A3"/>
<path d="M80.5093 75.5983C80.5093 74.3384 81.5306 73.3171 82.7905 73.3171H85.8376V77.8794H82.7905C81.5306 77.8794 80.5093 76.8581 80.5093 75.5983Z" fill="#A3A3A3"/>
<path d="M107.151 64.3997C107.151 63.1399 108.172 62.1185 109.432 62.1185H112.479V66.6809H109.432C108.172 66.6809 107.151 65.6596 107.151 64.3997Z" fill="#D4D4D4"/>
<path d="M101.822 75.5983C101.822 74.3384 102.844 73.3171 104.103 73.3171H107.151V77.8794H104.103C102.844 77.8794 101.822 76.8581 101.822 75.5983Z" fill="#737373"/>
<path d="M80.5093 86.7967C80.5093 85.5369 81.5306 84.5156 82.7905 84.5156H85.8376V89.0779H82.7905C81.5306 89.0779 80.5093 88.0566 80.5093 86.7967Z" fill="#333333"/>
<rect x="128.464" y="62.1185" width="5.32832" height="4.56237" fill="#D4D4D4"/>
<rect x="123.136" y="73.3171" width="5.32832" height="4.56237" fill="#737373"/>
<rect x="101.822" y="84.5156" width="5.32832" height="4.56237" fill="#E5E5E5"/>
<rect x="133.793" y="84.5156" width="5.32832" height="4.56237" fill="#D4D4D4"/>
<rect x="155.121" y="73.3171" width="5.32832" height="4.56237" fill="#D4D4D4"/>
<rect x="128.464" y="73.3171" width="5.32832" height="4.56237" fill="#262626"/>
<path d="M107.151 84.5156H110.198C111.458 84.5156 112.479 85.5369 112.479 86.7967C112.479 88.0566 111.458 89.0779 110.198 89.0779H107.151V84.5156Z" fill="#F5F5F5"/>
<rect x="139.121" y="84.5156" width="5.32832" height="4.56237" fill="#A3A3A3"/>
<path d="M144.449 84.5156H147.496C148.756 84.5156 149.778 85.5369 149.778 86.7967C149.778 88.0566 148.756 89.0779 147.496 89.0779H144.449V84.5156Z" fill="#737373"/>
<path d="M155.121 86.7967C155.121 85.5369 156.142 84.5156 157.402 84.5156H160.449V89.0779H157.402C156.142 89.0779 155.121 88.0566 155.121 86.7967Z" fill="black"/>
<rect x="160.449" y="84.5156" width="5.32832" height="4.56237" fill="#A3A3A3"/>
<path d="M165.778 84.5156H168.825C170.085 84.5156 171.106 85.5369 171.106 86.7967C171.106 88.0566 170.085 89.0779 168.825 89.0779H165.778V84.5156Z" fill="#D4D4D4"/>
<rect x="160.449" y="73.3171" width="5.32832" height="4.56237" fill="#A3A3A3"/>
<path d="M133.793 73.3171H136.84C138.1 73.3171 139.121 74.3384 139.121 75.5983C139.121 76.8581 138.1 77.8794 136.84 77.8794H133.793V73.3171Z" fill="#737373"/>
<path d="M165.778 73.3171H168.825C170.085 73.3171 171.106 74.3384 171.106 75.5983C171.106 76.8581 170.085 77.8794 168.825 77.8794H165.778V73.3171Z" fill="#333333"/>
<rect x="149.778" y="62.1185" width="5.32832" height="4.56237" fill="#A3A3A3"/>
<rect x="85.8379" y="62.1185" width="5.32832" height="4.56237" fill="#F5F5F5"/>
<rect x="85.8379" y="73.3171" width="5.32832" height="4.56237" fill="#A3A3A3"/>
<rect x="112.479" y="62.1185" width="5.32832" height="4.56237" fill="#A3A3A3"/>
<rect x="107.151" y="73.3171" width="5.32832" height="4.56237" fill="#D4D4D4"/>
<rect x="85.8379" y="84.5156" width="5.32832" height="4.56237" fill="#525252"/>
<path d="M117.807 86.7967C117.807 85.5369 118.828 84.5156 120.088 84.5156H123.135V89.0779H120.088C118.828 89.0779 117.807 88.0566 117.807 86.7967Z" fill="#D4D4D4"/>
<rect x="133.793" y="62.1185" width="5.32832" height="4.56237" fill="#D4D4D4"/>
<path d="M155.106 62.1185H158.153C159.413 62.1185 160.434 63.1399 160.434 64.3997C160.434 65.6596 159.413 66.6809 158.153 66.6809H155.106V62.1185Z" fill="black"/>
<rect x="91.166" y="62.1185" width="5.32832" height="4.56237" fill="#525252"/>
<rect x="91.166" y="73.3171" width="5.32832" height="4.56237" fill="#333333"/>
<rect x="117.807" y="62.1185" width="5.32832" height="4.56237" fill="#737373"/>
<rect x="112.479" y="73.3171" width="5.32832" height="4.56237" fill="#E5E5E5"/>
<rect x="91.166" y="84.5156" width="5.32832" height="4.56237" fill="#A3A3A3"/>
<rect x="123.136" y="84.5156" width="5.32832" height="4.56237" fill="#F5F5F5"/>
<path d="M144.464 75.5983C144.464 74.3384 145.485 73.3171 146.745 73.3171H149.792V77.8794H146.745C145.485 77.8794 144.464 76.8581 144.464 75.5983Z" fill="#A3A3A3"/>
<rect x="139.121" y="62.1185" width="5.32832" height="4.56237" fill="#525252"/>
<path d="M165.778 64.3997C165.778 63.1399 166.799 62.1185 168.059 62.1185H171.106V66.6809H168.059C166.799 66.6809 165.778 65.6596 165.778 64.3997Z" fill="black"/>
<path d="M96.4941 62.1185H99.5413C100.801 62.1185 101.822 63.1399 101.822 64.3997C101.822 65.6596 100.801 66.6809 99.5413 66.6809H96.4941V62.1185Z" fill="#333333"/>
<rect x="123.136" y="62.1185" width="5.32832" height="4.56237" fill="#F5F5F5"/>
<rect x="117.807" y="73.3171" width="5.32832" height="4.56237" fill="#262626"/>
<rect x="96.4941" y="84.5156" width="5.32832" height="4.56237" fill="#D4D4D4"/>
<rect x="128.464" y="84.5156" width="5.32832" height="4.56237" fill="#E5E5E5"/>
<rect x="149.793" y="73.3171" width="5.32832" height="4.56237" fill="#F5F5F5"/>
<rect x="144.449" y="62.1185" width="5.32832" height="4.56237" fill="black"/>
<rect x="171.106" y="62.1185" width="5.32832" height="4.56237" fill="#E5E5E5"/>
<path d="M176.434 62.1185H179.481C180.741 62.1185 181.762 63.1399 181.762 64.3997C181.762 65.6596 180.741 66.6809 179.481 66.6809H176.434V62.1185Z" fill="white"/>
<rect x="93.9058" y="47.7056" width="18.1647" height="4.14761" rx="2.0738" fill="#A3A3A3"/>
<path fill-rule="evenodd" clip-rule="evenodd" d="M117.991 50.8058C118.457 50.4066 118.457 49.6857 117.991 49.2866L113.927 45.8068C113.461 45.4077 113.461 44.6867 113.927 44.2876L115.815 42.6713C116.189 42.3508 116.741 42.3508 117.116 42.6713L125.625 49.9574C125.643 49.973 125.643 50.001 125.625 50.0166C125.607 50.0321 125.607 50.0602 125.625 50.0758C125.643 50.0913 125.643 50.1194 125.625 50.1349L117.116 57.421C116.741 57.7416 116.189 57.7416 115.815 57.421L113.927 55.8047C113.461 55.4056 113.461 54.6847 113.927 54.2855L117.991 50.8058Z" fill="#A3A3A3"/>
<path fill-rule="evenodd" clip-rule="evenodd" d="M117.663 104.246C118.13 103.846 118.13 103.126 117.663 102.726L113.599 99.2466C113.133 98.8475 113.133 98.1266 113.599 97.7274L115.487 96.1111C115.861 95.7906 116.414 95.7906 116.788 96.1111L125.297 103.397C125.315 103.413 125.315 103.441 125.297 103.456C125.279 103.472 125.279 103.5 125.297 103.516C125.315 103.531 125.315 103.559 125.297 103.575L116.788 110.861C116.414 111.181 115.861 111.181 115.487 110.861L113.599 109.245C113.133 108.845 113.133 108.124 113.599 107.725L117.663 104.246Z" fill="#A3A3A3"/>
<path fill-rule="evenodd" clip-rule="evenodd" d="M87.985 50.8058C87.5189 50.4066 87.5189 49.6857 87.985 49.2866L92.049 45.8068C92.5151 45.4077 92.5151 44.6867 92.049 44.2876L90.1613 42.6713C89.7869 42.3508 89.2349 42.3508 88.8605 42.6713L80.3512 49.9574C80.333 49.973 80.333 50.001 80.3512 50.0166C80.3694 50.0321 80.3694 50.0602 80.3512 50.0758C80.333 50.0913 80.333 50.1194 80.3512 50.1349L88.8605 57.421C89.2349 57.7416 89.7869 57.7416 90.1613 57.421L92.049 55.8047C92.5151 55.4056 92.5151 54.6847 92.049 54.2855L87.985 50.8058Z" fill="#A3A3A3"/>
<path fill-rule="evenodd" clip-rule="evenodd" d="M87.985 104.246C87.5189 103.846 87.5189 103.126 87.985 102.726L92.049 99.2466C92.5151 98.8475 92.5151 98.1266 92.049 97.7274L90.1613 96.1111C89.7869 95.7906 89.2349 95.7906 88.8605 96.1111L80.3512 103.397C80.333 103.413 80.333 103.441 80.3512 103.456C80.3694 103.472 80.3694 103.5 80.3512 103.516C80.333 103.531 80.333 103.559 80.3512 103.575L88.8605 110.861C89.2349 111.181 89.7869 111.181 90.1613 110.861L92.049 109.245C92.5151 108.845 92.5151 108.124 92.049 107.725L87.985 104.246Z" fill="#A3A3A3"/>
<rect width="16.2457" height="4.67957" rx="2.33978" transform="matrix(0.559062 -0.829126 0.896442 0.443161 95.085 109.184)" fill="#A3A3A3"/>
<circle cx="212.395" cy="38.7737" r="0.759516" transform="rotate(-41 212.395 38.7737)" fill="#A3A3A3" stroke="#A3A3A3"/>
<circle opacity="0.4" cx="219.088" cy="83.8075" r="0.759516" transform="rotate(-41 219.088 83.8075)" fill="#A3A3A3" stroke="#A3A3A3"/>
<circle opacity="0.2" cx="217.186" cy="106.984" r="0.759516" transform="rotate(-41 217.186 106.984)" fill="#A3A3A3" stroke="#A3A3A3"/>
<circle cx="222.641" cy="50.5623" r="0.759516" transform="rotate(-41 222.641 50.5623)" fill="#A3A3A3" stroke="#A3A3A3"/>
<circle opacity="0.5" cx="210.575" cy="74.1084" r="0.759516" transform="rotate(-41 210.575 74.1084)" fill="#A3A3A3" stroke="#A3A3A3"/>
<path d="M210.948 46.7086L214.253 50.5108" stroke="#A3A3A3" stroke-width="2" stroke-linecap="round"/>
<path d="M210.699 50.2629L214.501 46.9577" stroke="#A3A3A3" stroke-width="2" stroke-linecap="round"/>
<g opacity="0.5">
<path d="M216.111 61.434L216.199 66.4713" stroke="#A3A3A3" stroke-width="2" stroke-linecap="round"/>
<path d="M213.636 63.9971L218.673 63.9092" stroke="#A3A3A3" stroke-width="2" stroke-linecap="round"/>
</g>
<g opacity="0.2">
<path d="M219.693 95.1436L223.608 98.3141" stroke="#A3A3A3" stroke-width="2" stroke-linecap="round"/>
<path d="M220.065 98.6873L223.236 94.7719" stroke="#A3A3A3" stroke-width="2" stroke-linecap="round"/>
</g>
<circle cx="1.25952" cy="1.25952" r="0.759516" transform="matrix(-0.75471 -0.656059 -0.656059 0.75471 40.0454 38.6495)" fill="#A3A3A3" stroke="#A3A3A3"/>
<circle opacity="0.4" cx="1.25952" cy="1.25952" r="0.759516" transform="matrix(-0.75471 -0.656059 -0.656059 0.75471 33.3525 83.6834)" fill="#A3A3A3" stroke="#A3A3A3"/>
<circle opacity="0.2" cx="1.25952" cy="1.25952" r="0.759516" transform="matrix(-0.75471 -0.656059 -0.656059 0.75471 35.2545 106.859)" fill="#A3A3A3" stroke="#A3A3A3"/>
<circle cx="1.25952" cy="1.25952" r="0.759516" transform="matrix(-0.75471 -0.656059 -0.656059 0.75471 29.7988 50.4382)" fill="#A3A3A3" stroke="#A3A3A3"/>
<circle opacity="0.5" cx="1.25952" cy="1.25952" r="0.759516" transform="matrix(-0.75471 -0.656059 -0.656059 0.75471 41.8654 73.9843)" fill="#A3A3A3" stroke="#A3A3A3"/>
<path d="M39.7157 46.7087L36.4104 50.511" stroke="#A3A3A3" stroke-width="2" stroke-linecap="round"/>
<path d="M39.9644 50.2631L36.1621 46.9578" stroke="#A3A3A3" stroke-width="2" stroke-linecap="round"/>
<g opacity="0.5">
<path d="M34.5527 61.4341L34.4648 66.4714" stroke="#A3A3A3" stroke-width="2" stroke-linecap="round"/>
<path d="M37.0272 63.9973L31.9899 63.9093" stroke="#A3A3A3" stroke-width="2" stroke-linecap="round"/>
</g>
<g opacity="0.2">
<path d="M30.9708 95.1437L27.0555 98.3142" stroke="#A3A3A3" stroke-width="2" stroke-linecap="round"/>
<path d="M30.5983 98.6874L27.4277 94.7721" stroke="#A3A3A3" stroke-width="2" stroke-linecap="round"/>
</g>
<rect x="53.7466" y="31.344" width="141.079" height="6.55799" fill="#525252"/>
<rect x="104.987" y="125.5" width="39.9409" height="13.6638" fill="#404040" stroke="#A3A3A3"/>
<path d="M86.668 143.445C86.9127 141.593 88.4977 140.164 90.4167 140.164H159.522C161.441 140.164 163.026 141.593 163.27 143.445H86.668Z" fill="#404040" stroke="#A3A3A3"/>
</svg>
