<svg width="250" height="168" viewBox="0 0 250 168" fill="none" xmlns="http://www.w3.org/2000/svg">
<g opacity="0.5">
<rect x="61.4353" y="38.2888" width="105.847" height="69.8979" stroke="#525252" stroke-width="2"/>
<path d="M168.283 54.6163H168.783V54.1163V41.2888C168.783 38.8036 166.768 36.7888 164.283 36.7888L64.4353 36.7888C61.95 36.7888 59.9353 38.8036 59.9353 41.2888V54.1163V54.6163H60.4353L168.283 54.6163Z" fill="#525252" stroke="#A3A3A3"/>
<path d="M60.4353 53.6149H59.9353V54.1149V105.187C59.9353 107.672 61.95 109.687 64.4353 109.687H164.283C166.768 109.687 168.783 107.672 168.783 105.187V54.1149V53.6149H168.283L60.4353 53.6149Z" fill="#525252" stroke="#A3A3A3"/>
<circle cx="170.081" cy="79.8532" r="7.13915" fill="#404040" stroke="#A3A3A3"/>
<circle cx="138.521" cy="96.1813" r="5.58562" fill="#333333"/>
<circle cx="153.416" cy="96.1813" r="5.58562" fill="#333333"/>
<circle cx="58.6387" cy="79.8532" r="7.13915" fill="#404040" stroke="#A3A3A3"/>
<rect x="69.2219" y="63.9703" width="43.8534" height="4.965" rx="2.4825" fill="#A3A3A3"/>
<rect x="69.2219" y="71.9967" width="56.2659" height="4.965" rx="2.4825" fill="#A3A3A3"/>
</g>
<path opacity="0.8" d="M176.82 32.3892L191.199 23.0425M176.82 42.4549L184.728 46.7688M167.473 28.7943V17.2907" stroke="#A3A3A3" stroke-width="3" stroke-linecap="round" stroke-linejoin="round"/>
<path opacity="0.7" d="M78.4759 68.7535C77.5477 68.8328 77.0421 69.4849 77.1138 70.0392C77.1855 70.5935 77.8468 71.1459 78.775 71.0666C79.7031 70.9873 80.2087 70.3352 80.137 69.7809C80.0654 69.2266 79.404 68.6742 78.4759 68.7535Z" fill="#D4D4D4" stroke="#D4D4D4"/>
<path opacity="0.6" d="M79.4566 85.6966C78.5284 85.7759 78.0228 86.428 78.0945 86.9823C78.1662 87.5366 78.8275 88.0891 79.7557 88.0098C80.6838 87.9305 81.1894 87.2783 81.1177 86.7241C81.0461 86.1698 80.3848 85.6173 79.4566 85.6966Z" fill="#D4D4D4" stroke="#D4D4D4"/>
<g opacity="0.7">
<path d="M107.76 69.0355L97.6545 69.8989" stroke="#D4D4D4" stroke-width="2" stroke-linecap="round"/>
<path d="M103.245 73.6213L102.171 65.3122" stroke="#D4D4D4" stroke-width="2" stroke-linecap="round"/>
</g>
<g opacity="0.6">
<path d="M69.4893 79.8438L63.425 77.5452" stroke="#D4D4D4" stroke-width="2" stroke-linecap="round"/>
<path d="M65.0256 81.1878L67.8859 76.2018" stroke="#D4D4D4" stroke-width="2" stroke-linecap="round"/>
</g>
<g filter="url(#filter0_b_531_65506)">
<circle cx="115.23" cy="72.4857" r="39.3352" fill="white" fill-opacity="0.25"/>
<circle cx="115.23" cy="72.4857" r="37.3352" stroke="#A3A3A3" stroke-width="4"/>
</g>
<path d="M143.674 98.0088L165.587 119.921" stroke="#A3A3A3" stroke-width="3"/>
<rect x="160.066" y="106.662" width="34.3094" height="10.1031" rx="2" transform="rotate(45 160.066 106.662)" fill="#737373" stroke="#A3A3A3" stroke-width="2"/>
<g filter="url(#filter1_d_531_65506)">
<path d="M125.017 88.5001L125.329 86.2787C126.522 85.9975 127.586 85.4632 128.519 84.6758C129.471 83.8697 130.258 82.8668 130.88 81.667C131.52 80.4484 131.944 79.0987 132.151 77.6177L132.981 72.1062C133.206 70.5877 133.18 69.2285 132.904 68.0288C132.627 66.829 132.125 65.826 131.399 65.0199C130.69 64.1951 129.791 63.642 128.701 63.3608L129.012 61.2237C130.552 61.6549 131.814 62.3766 132.8 63.389C133.803 64.4013 134.495 65.6479 134.875 67.1289C135.273 68.5912 135.334 70.2502 135.057 72.1062L134.253 77.6177C133.976 79.4736 133.431 81.1421 132.618 82.6231C131.805 84.104 130.759 85.3413 129.479 86.3349C128.2 87.3285 126.712 88.0502 125.017 88.5001Z" fill="#E5E5E5"/>
<path d="M116.043 82.9769L121.269 76.0593L118.267 69.7203H120.958L122.514 73.3839C122.588 73.5768 122.662 73.7856 122.736 74.0106C122.825 74.2195 122.885 74.3962 122.914 74.5409C122.988 74.3962 123.085 74.2195 123.203 74.0106C123.337 73.7856 123.47 73.5768 123.604 73.3839L126.205 69.7203H129.007L124.137 76.2281L127.339 82.9769H124.626L122.914 78.9999C122.84 78.8071 122.759 78.5901 122.67 78.3491C122.581 78.1081 122.521 77.9153 122.492 77.7707C122.403 77.9153 122.292 78.1081 122.158 78.3491C122.025 78.5901 121.891 78.8071 121.758 78.9999L118.845 82.9769H116.043Z" fill="#E5E5E5"/>
<path d="M117.304 88.5001C114.969 87.844 113.274 86.5692 112.219 84.6758C111.164 82.7824 110.844 80.4297 111.259 77.6177L112.063 72.1062C112.34 70.2502 112.885 68.5912 113.698 67.1289C114.528 65.6479 115.583 64.4013 116.863 63.389C118.16 62.3766 119.638 61.6549 121.299 61.2237L120.987 63.3608C119.794 63.642 118.722 64.1951 117.771 65.0199C116.819 65.826 116.033 66.829 115.41 68.0288C114.805 69.2285 114.39 70.5877 114.165 72.1062L113.335 77.6177C113.127 79.0987 113.153 80.4484 113.412 81.667C113.689 82.8668 114.182 83.8697 114.891 84.6758C115.618 85.4632 116.525 85.9975 117.615 86.2787L117.304 88.5001Z" fill="#E5E5E5"/>
<path d="M95.3359 84.745L95.7807 81.7562H98.9826C99.8128 81.7562 100.455 81.5419 100.91 81.1135C101.384 80.685 101.681 80.0529 101.799 79.2174L103.697 66.2982H99.0716L99.5163 63.1488H104.141L104.497 60.7385C104.655 59.6672 105.001 58.746 105.535 57.9747C106.088 57.182 106.79 56.5714 107.64 56.1429C108.49 55.7144 109.458 55.5001 110.545 55.5001H115.585L115.141 58.5853H110.101C109.409 58.5853 108.855 58.7674 108.44 59.1316C108.045 59.4958 107.798 60.0422 107.699 60.7706L107.343 63.1488H113.807L113.332 66.2982H106.869L105.001 79.2816C104.764 80.9742 104.072 82.3025 102.926 83.2666C101.779 84.2522 100.327 84.745 98.5675 84.745H95.3359Z" fill="#E5E5E5"/>
</g>
<path opacity="0.7" d="M149.326 127.481C149.326 126.986 148.919 126.576 148.405 126.576C147.89 126.576 147.483 126.986 147.483 127.481C147.483 127.976 147.89 128.386 148.405 128.386C148.919 128.386 149.326 127.976 149.326 127.481Z" fill="#A3A3A3" stroke="#A3A3A3"/>
<g opacity="0.7">
<mask id="path-26-inside-1_531_65506" fill="white">
<ellipse cx="0.976479" cy="0.965397" rx="0.976479" ry="0.965397" transform="matrix(1 0 0 -1 124.926 108.311)"/>
</mask>
<ellipse cx="0.976479" cy="0.965397" rx="0.976479" ry="0.965397" transform="matrix(1 0 0 -1 124.926 108.311)" fill="#A3A3A3"/>
<path d="M125.878 107.346C125.878 107.35 125.88 107.357 125.882 107.363C125.885 107.369 125.888 107.372 125.889 107.374C125.891 107.376 125.894 107.377 125.896 107.379C125.9 107.38 125.902 107.38 125.902 107.38V105.38C126.983 105.38 127.878 106.249 127.878 107.346H125.878ZM125.902 107.38C125.902 107.38 125.904 107.38 125.908 107.379C125.91 107.377 125.913 107.376 125.915 107.374C125.917 107.372 125.919 107.369 125.922 107.363C125.924 107.357 125.926 107.35 125.926 107.346H123.926C123.926 106.249 124.821 105.38 125.902 105.38V107.38ZM125.926 107.346C125.926 107.341 125.924 107.334 125.922 107.328C125.919 107.322 125.917 107.319 125.915 107.317C125.913 107.315 125.91 107.314 125.908 107.313C125.904 107.311 125.902 107.311 125.902 107.311V109.311C124.821 109.311 123.926 108.442 123.926 107.346H125.926ZM125.902 107.311C125.902 107.311 125.9 107.311 125.896 107.313C125.894 107.314 125.891 107.315 125.889 107.317C125.888 107.319 125.885 107.322 125.882 107.328C125.88 107.334 125.878 107.341 125.878 107.346H127.878C127.878 108.442 126.983 109.311 125.902 109.311V107.311Z" fill="#A3A3A3" mask="url(#path-26-inside-1_531_65506)"/>
</g>
<path opacity="0.6" d="M134.839 126.644C134.839 126.149 134.432 125.739 133.917 125.739C133.403 125.739 132.996 126.149 132.996 126.644C132.996 127.139 133.403 127.549 133.917 127.549C134.432 127.549 134.839 127.139 134.839 126.644Z" fill="#A3A3A3" stroke="#A3A3A3"/>
<g opacity="0.7">
<path d="M147.031 147.71V140.643" stroke="#A3A3A3" stroke-width="2" stroke-linecap="round"/>
<path d="M143.458 144.177H150.605" stroke="#A3A3A3" stroke-width="2" stroke-linecap="round"/>
</g>
<g opacity="0.6">
<path d="M140.617 120.274L143.014 116.285" stroke="#A3A3A3" stroke-width="2" stroke-linecap="round"/>
<path d="M139.798 117.067L143.832 119.491" stroke="#A3A3A3" stroke-width="2" stroke-linecap="round"/>
</g>
<g opacity="0.6">
<path d="M113.449 98.7252L115.438 95.4152" stroke="#A3A3A3" stroke-linecap="round"/>
<path d="M112.769 96.0639L116.117 98.0756" stroke="#A3A3A3" stroke-linecap="round"/>
</g>
<path opacity="0.7" d="M71.4457 19.1522C70.951 19.1522 70.5403 19.5594 70.5403 20.0737C70.5403 20.588 70.951 20.9952 71.4457 20.9952C71.9404 20.9952 72.3511 20.588 72.3511 20.0737C72.3511 19.5594 71.9404 19.1522 71.4457 19.1522Z" fill="#A3A3A3" stroke="#A3A3A3"/>
<g opacity="0.7">
<mask id="path-36-inside-2_531_65506" fill="white">
<ellipse cx="0.976479" cy="0.965397" rx="0.976479" ry="0.965397" transform="matrix(0 -1 -1 0 52.2759 43.5529)"/>
</mask>
<ellipse cx="0.976479" cy="0.965397" rx="0.976479" ry="0.965397" transform="matrix(0 -1 -1 0 52.2759 43.5529)" fill="#A3A3A3"/>
<path d="M51.3105 42.5999C51.3151 42.5999 51.3217 42.5988 51.328 42.596C51.3337 42.5936 51.3371 42.5909 51.339 42.589C51.3409 42.5871 51.3424 42.5848 51.3435 42.5821C51.345 42.5787 51.3451 42.5762 51.3451 42.5764H49.3451C49.3451 41.4956 50.2143 40.5999 51.3105 40.5999V42.5999ZM51.3451 42.5764C51.3451 42.5766 51.345 42.5741 51.3435 42.5707C51.3424 42.5679 51.3409 42.5657 51.339 42.5638C51.3371 42.5619 51.3337 42.5592 51.328 42.5567C51.3217 42.554 51.3151 42.5529 51.3105 42.5529V44.5529C50.2143 44.5529 49.3451 43.6572 49.3451 42.5764H51.3451ZM51.3105 42.5529C51.3059 42.5529 51.2993 42.554 51.2929 42.5567C51.2873 42.5592 51.2839 42.5619 51.282 42.5638C51.2801 42.5657 51.2786 42.5679 51.2774 42.5707C51.276 42.5741 51.2759 42.5766 51.2759 42.5764H53.2759C53.2759 43.6572 52.4067 44.5529 51.3105 44.5529V42.5529ZM51.2759 42.5764C51.2759 42.5762 51.276 42.5787 51.2774 42.5821C51.2786 42.5848 51.2801 42.5871 51.282 42.589C51.2839 42.5909 51.2873 42.5936 51.2929 42.596C51.2993 42.5988 51.3059 42.5999 51.3105 42.5999V40.5999C52.4067 40.5999 53.2759 41.4956 53.2759 42.5764H51.2759Z" fill="#A3A3A3" mask="url(#path-36-inside-2_531_65506)"/>
</g>
<path opacity="0.6" d="M70.609 33.6394C70.1144 33.6394 69.7037 34.0466 69.7037 34.5609C69.7037 35.0753 70.1144 35.4825 70.609 35.4825C71.1037 35.4825 71.5144 35.0753 71.5144 34.5609C71.5144 34.0466 71.1037 33.6394 70.609 33.6394Z" fill="#A3A3A3" stroke="#A3A3A3"/>
<g opacity="0.7">
<path d="M91.6746 21.4475H84.6079" stroke="#A3A3A3" stroke-width="2" stroke-linecap="round"/>
<path d="M88.1414 25.0209V17.8731" stroke="#A3A3A3" stroke-width="2" stroke-linecap="round"/>
</g>
<g opacity="0.6">
<path d="M64.2388 27.8616L60.2502 25.465" stroke="#A3A3A3" stroke-width="2" stroke-linecap="round"/>
<path d="M61.0315 28.6807L63.4556 24.6463" stroke="#A3A3A3" stroke-width="2" stroke-linecap="round"/>
</g>
<g opacity="0.6">
<path d="M42.6899 55.0295L39.3799 53.0406" stroke="#A3A3A3" stroke-linecap="round"/>
<path d="M40.0288 55.709L42.0405 52.361" stroke="#A3A3A3" stroke-linecap="round"/>
</g>
<defs>
<filter id="filter0_b_531_65506" x="72.8945" y="30.1505" width="84.6704" height="84.6703" filterUnits="userSpaceOnUse" color-interpolation-filters="sRGB">
<feFlood flood-opacity="0" result="BackgroundImageFix"/>
<feGaussianBlur in="BackgroundImageFix" stdDeviation="1.5"/>
<feComposite in2="SourceAlpha" operator="in" result="effect1_backgroundBlur_531_65506"/>
<feBlend mode="normal" in="SourceGraphic" in2="effect1_backgroundBlur_531_65506" result="shape"/>
</filter>
<filter id="filter1_d_531_65506" x="91.3359" y="51.5001" width="47.8911" height="41" filterUnits="userSpaceOnUse" color-interpolation-filters="sRGB">
<feFlood flood-opacity="0" result="BackgroundImageFix"/>
<feColorMatrix in="SourceAlpha" type="matrix" values="0 0 0 0 0 0 0 0 0 0 0 0 0 0 0 0 0 0 127 0" result="hardAlpha"/>
<feOffset/>
<feGaussianBlur stdDeviation="2"/>
<feComposite in2="hardAlpha" operator="out"/>
<feColorMatrix type="matrix" values="0 0 0 0 0 0 0 0 0 0 0 0 0 0 0 0 0 0 0.5 0"/>
<feBlend mode="normal" in2="BackgroundImageFix" result="effect1_dropShadow_531_65506"/>
<feBlend mode="normal" in="SourceGraphic" in2="effect1_dropShadow_531_65506" result="shape"/>
</filter>
</defs>
</svg>
