<svg width="166" height="131" viewBox="0 0 166 131" fill="none" xmlns="http://www.w3.org/2000/svg">
<g opacity="0.2">
<path d="M67.5669 93.988L68.0475 94.1258L68.1853 93.6452L69.5249 88.9735C70.21 86.5845 68.8286 84.0925 66.4396 83.4075L19.5464 69.9611C17.1574 69.2761 14.6654 70.6574 13.9804 73.0464L12.6408 77.718L12.503 78.1987L12.9836 78.3365L67.5669 93.988Z" fill="#525252" stroke="#A3A3A3"/>
<path d="M13.2595 77.3745L12.7789 77.2367L12.641 77.7173L5.75121 101.745C5.06617 104.134 6.44751 106.626 8.83652 107.311L55.7297 120.757C58.1187 121.442 60.6107 120.061 61.2957 117.672L68.1856 93.6444L68.3234 93.1638L67.8428 93.026L13.2595 77.3745Z" fill="#525252" stroke="#A3A3A3"/>
<rect x="16.2492" y="70.5761" width="54.7829" height="35.8551" transform="rotate(16 16.2492 70.5761)" stroke="#525252" stroke-width="2"/>
<circle cx="64.8796" cy="106.794" r="3.52211" transform="rotate(16 64.8796 106.794)" fill="#404040" stroke="#A3A3A3"/>
<circle cx="46.5369" cy="110.478" r="2.9409" transform="rotate(16 46.5369 110.478)" fill="#333333"/>
<circle cx="54.0754" cy="112.639" r="2.9409" transform="rotate(16 54.0754 112.639)" fill="#333333"/>
<circle cx="8.47689" cy="90.6209" r="3.52211" transform="rotate(16 8.47689 90.6209)" fill="#404040" stroke="#A3A3A3"/>
<rect x="16.1383" y="84.1182" width="23.0893" height="2.61413" rx="1.30707" transform="rotate(16 16.1383 84.1182)" fill="#A3A3A3"/>
<rect x="14.9735" y="88.1805" width="29.6247" height="2.61413" rx="1.30707" transform="rotate(16 14.9735 88.1805)" fill="#A3A3A3"/>
</g>
<g opacity="0.5">
<path d="M85.4685 49.2329L85.9383 49.0619L85.7673 48.5921L83.5297 42.4442C82.6797 40.1088 80.0974 38.9047 77.762 39.7547L21.7883 60.1275C19.4529 60.9775 18.2488 63.5598 19.0988 65.8952L21.3364 72.043L21.5074 72.5128L21.9773 72.3418L85.4685 49.2329Z" fill="#525252" stroke="#A3A3A3"/>
<path d="M21.6349 71.4012L21.1651 71.5723L21.3361 72.0421L31.7685 100.705C32.6185 103.04 35.2008 104.244 37.5362 103.394L93.5098 83.0217C95.8453 82.1717 97.0494 79.5894 96.1994 77.254L85.767 48.5912L85.596 48.1213L85.1261 48.2923L21.6349 71.4012Z" fill="#525252" stroke="#A3A3A3"/>
<rect x="19.4823" y="62.5631" width="65.5659" height="43.0437" transform="rotate(-20 19.4823 62.5631)" stroke="#525252" stroke-width="2"/>
<circle cx="91.8709" cy="63.5295" r="4.2859" transform="rotate(-20 91.8709 63.5295)" fill="#404040" stroke="#A3A3A3"/>
<circle cx="76.7896" cy="79.9045" r="3.49937" transform="rotate(-20 76.7896 79.9045)" fill="#333333"/>
<circle cx="85.5585" cy="76.7129" r="3.49937" transform="rotate(-20 85.5585 76.7129)" fill="#333333"/>
<circle cx="26.2632" cy="87.4087" r="4.2859" transform="rotate(-20 26.2632 87.4087)" fill="#404040" stroke="#A3A3A3"/>
<rect x="29.0905" y="75.7905" width="27.4739" height="3.11055" rx="1.55528" transform="rotate(-20 29.0905 75.7905)" fill="#A3A3A3"/>
<rect x="30.8104" y="80.5156" width="35.2503" height="3.11055" rx="1.55528" transform="rotate(-20 30.8104 80.5156)" fill="#A3A3A3"/>
</g>
<path d="M133.723 34.2976H134.223V33.7976V23.0526C134.223 20.5673 132.209 18.5526 129.723 18.5526L43.2228 18.5526C40.7376 18.5526 38.7228 20.5673 38.7228 23.0526V33.7976V34.2976H39.2228L133.723 34.2976Z" fill="#525252" stroke="#A3A3A3"/>
<path d="M39.2228 33.2963H38.7228V33.7963V78.0526C38.7228 80.5379 40.7376 82.5526 43.2228 82.5526H129.723C132.209 82.5526 134.223 80.5379 134.223 78.0526V33.7963V33.2963H133.723L39.2228 33.2963Z" fill="#525252" stroke="#A3A3A3"/>
<rect x="40.2228" y="20.0526" width="92.5004" height="61" stroke="#525252" stroke-width="2"/>
<circle cx="135.299" cy="56.3493" r="6.19375" fill="#404040" stroke="#A3A3A3"/>
<circle cx="107.645" cy="70.6567" r="4.89436" fill="#333333"/>
<circle cx="120.696" cy="70.6567" r="4.89436" fill="#333333"/>
<circle cx="37.6484" cy="56.3493" r="6.19375" fill="#404040" stroke="#A3A3A3"/>
<rect x="46.922" y="42.4321" width="38.4262" height="4.35054" rx="2.17527" fill="#A3A3A3"/>
<rect x="46.922" y="49.4651" width="49.3025" height="4.35054" rx="2.17527" fill="#A3A3A3"/>
<path opacity="0.8" d="M141.454 12.6453L151.454 6.14526M141.454 19.6453L146.954 22.6453M134.954 10.1453V2.14526" stroke="#A3A3A3" stroke-width="3" stroke-linecap="round" stroke-linejoin="round"/>
<path d="M128.392 75.4965L142.562 89.3646L136.022 90.5705L128.392 98.409V75.4965Z" fill="#525252" stroke="#525252" stroke-linecap="round" stroke-linejoin="round"/>
<path d="M128.653 94.89L133.405 89.1504L141.422 89.1504L128.653 78.7159L128.653 94.89ZM139.566 106.646L133.405 93.4702L126.337 103.264V72.8574L150.155 91.4431H138.074L144.197 104.492L139.566 106.646Z" fill="#D4D4D4"/>
<path opacity="0.7" d="M96.9106 89.2411C96.4187 89.2928 96.0528 89.7407 96.1065 90.2522C96.1603 90.7637 96.6113 91.1257 97.1033 91.074C97.5952 91.0223 97.9611 90.5744 97.9073 90.0629C97.8536 89.5514 97.4026 89.1894 96.9106 89.2411Z" fill="#A3A3A3" stroke="#A3A3A3"/>
<g opacity="0.7">
<mask id="path-32-inside-1_111_6477" fill="white">
<ellipse cx="0.976479" cy="0.965397" rx="0.976479" ry="0.965397" transform="matrix(-0.104528 -0.994522 -0.994522 0.104528 80.3962 115.512)"/>
</mask>
<ellipse cx="0.976479" cy="0.965397" rx="0.976479" ry="0.965397" transform="matrix(-0.104528 -0.994522 -0.994522 0.104528 80.3962 115.512)" fill="#A3A3A3"/>
<path d="M79.3365 114.665C79.3411 114.665 79.3476 114.663 79.3536 114.659C79.3589 114.656 79.362 114.653 79.3637 114.651C79.3654 114.649 79.3667 114.647 79.3675 114.644C79.3686 114.64 79.3685 114.638 79.3685 114.638L77.3794 114.847C77.2665 113.772 78.0373 112.791 79.1275 112.676L79.3365 114.665ZM79.3685 114.638C79.3685 114.638 79.3681 114.636 79.3663 114.633C79.3649 114.63 79.3632 114.628 79.3611 114.626C79.359 114.624 79.3553 114.622 79.3495 114.62C79.3429 114.618 79.3362 114.618 79.3316 114.618L79.5407 116.607C78.4505 116.722 77.4924 115.922 77.3794 114.847L79.3685 114.638ZM79.3316 114.618C79.327 114.619 79.3206 114.621 79.3145 114.624C79.3092 114.627 79.3061 114.63 79.3044 114.632C79.3027 114.634 79.3014 114.637 79.3006 114.639C79.2995 114.643 79.2997 114.646 79.2996 114.645L81.2887 114.436C81.4017 115.511 80.6308 116.493 79.5407 116.607L79.3316 114.618ZM79.2996 114.645C79.2996 114.645 79.3 114.648 79.3018 114.651C79.3032 114.653 79.305 114.655 79.307 114.657C79.3091 114.659 79.3128 114.661 79.3187 114.663C79.3252 114.665 79.332 114.666 79.3365 114.665L79.1275 112.676C80.2176 112.561 81.1757 113.361 81.2887 114.436L79.2996 114.645Z" fill="#A3A3A3" mask="url(#path-32-inside-1_111_6477)"/>
</g>
<path opacity="0.6" d="M97.5927 103.736C97.1008 103.788 96.7349 104.236 96.7886 104.748C96.8424 105.259 97.2934 105.621 97.7854 105.569C98.2773 105.518 98.6432 105.07 98.5895 104.558C98.5357 104.047 98.0847 103.685 97.5927 103.736Z" fill="#A3A3A3" stroke="#A3A3A3"/>
<g opacity="0.7">
<path d="M117.269 89.4093L110.241 90.148" stroke="#A3A3A3" stroke-width="2" stroke-linecap="round"/>
<path d="M114.128 93.3325L113.381 86.2239" stroke="#A3A3A3" stroke-width="2" stroke-linecap="round"/>
</g>
<g opacity="0.6">
<path d="M90.6535 98.6561L86.4362 96.6896" stroke="#A3A3A3" stroke-width="2" stroke-linecap="round"/>
<path d="M87.5495 99.806L89.5386 95.5403" stroke="#A3A3A3" stroke-width="2" stroke-linecap="round"/>
</g>
<g opacity="0.6">
<path d="M72.0626 127.928L68.5628 126.296" stroke="#A3A3A3" stroke-linecap="round"/>
<path d="M69.4869 128.882L71.1376 125.342" stroke="#A3A3A3" stroke-linecap="round"/>
</g>
<g opacity="0.8">
<circle cx="164.396" cy="95.3918" r="0.75" fill="#A3A3A3" stroke="#A3A3A3"/>
<circle cx="164.396" cy="110.892" r="0.75" fill="#A3A3A3" stroke="#A3A3A3"/>
<path d="M158.146 100.392V105.392" stroke="#A3A3A3" stroke-width="2" stroke-linecap="round"/>
<path d="M155.646 102.892H160.646" stroke="#A3A3A3" stroke-width="2" stroke-linecap="round"/>
</g>
<ellipse cx="138.294" cy="113.142" rx="12.4" ry="1.5" fill="#737373"/>
</svg>
