<svg width="166" height="130" viewBox="0 0 166 130" fill="none" xmlns="http://www.w3.org/2000/svg">
<g opacity="0.2">
<path d="M67.5668 93.532L68.0474 93.6698L68.1853 93.1892L69.5248 88.5175C70.2099 86.1285 68.8285 83.6365 66.4395 82.9515L19.5463 69.5051C17.1573 68.8201 14.6653 70.2014 13.9803 72.5904L12.6407 77.262L12.5029 77.7427L12.9835 77.8805L67.5668 93.532Z" fill="#F5F5F5" stroke="#A3A3A3"/>
<path d="M13.2594 76.9184L12.7788 76.7806L12.641 77.2612L5.75111 101.289C5.06608 103.678 6.44742 106.17 8.83642 106.855L55.7296 120.301C58.1186 120.986 60.6106 119.605 61.2956 117.216L68.1855 93.1884L68.3233 92.7077L67.8427 92.5699L13.2594 76.9184Z" fill="#F5F5F5" stroke="#A3A3A3"/>
<rect x="16.2491" y="70.1201" width="54.7829" height="35.8551" transform="rotate(16 16.2491 70.1201)" stroke="#525252" stroke-width="2"/>
<circle cx="64.8792" cy="106.338" r="3.52211" transform="rotate(16 64.8792 106.338)" fill="#F5F5F5" stroke="#A3A3A3"/>
<circle cx="46.5369" cy="110.022" r="2.9409" transform="rotate(16 46.5369 110.022)" fill="#A3A3A3"/>
<circle cx="54.0754" cy="112.183" r="2.9409" transform="rotate(16 54.0754 112.183)" fill="#A3A3A3"/>
<circle cx="8.47689" cy="90.165" r="3.52211" transform="rotate(16 8.47689 90.165)" fill="#F5F5F5" stroke="#A3A3A3"/>
<rect x="16.1382" y="83.6624" width="23.0893" height="2.61413" rx="1.30707" transform="rotate(16 16.1382 83.6624)" fill="#A3A3A3"/>
<rect x="14.9731" y="87.7245" width="29.6247" height="2.61413" rx="1.30707" transform="rotate(16 14.9731 87.7245)" fill="#A3A3A3"/>
</g>
<g opacity="0.5">
<path d="M85.4686 48.777L85.9384 48.606L85.7674 48.1362L83.5298 41.9884C82.6798 39.653 80.0975 38.4488 77.7621 39.2989L21.7884 59.6716C19.453 60.5216 18.2489 63.1039 19.0989 65.4393L21.3365 71.5871L21.5075 72.057L21.9774 71.8859L85.4686 48.777Z" fill="#F5F5F5" stroke="#A3A3A3"/>
<path d="M21.6351 70.9454L21.1653 71.1164L21.3363 71.5863L31.7687 100.249C32.6187 102.584 35.201 103.789 37.5364 102.939L93.5101 82.5659C95.8455 81.7159 97.0496 79.1336 96.1996 76.7982L85.7672 48.1354L85.5962 47.6655L85.1263 47.8365L21.6351 70.9454Z" fill="#F5F5F5" stroke="#A3A3A3"/>
<rect x="19.4824" y="62.1072" width="65.5659" height="43.0437" transform="rotate(-20 19.4824 62.1072)" stroke="#525252" stroke-width="2"/>
<circle cx="91.871" cy="63.0735" r="4.2859" transform="rotate(-20 91.871 63.0735)" fill="#F5F5F5" stroke="#A3A3A3"/>
<circle cx="76.7894" cy="79.4487" r="3.49937" transform="rotate(-20 76.7894 79.4487)" fill="#A3A3A3"/>
<circle cx="85.5584" cy="76.257" r="3.49937" transform="rotate(-20 85.5584 76.257)" fill="#A3A3A3"/>
<circle cx="26.2631" cy="86.9528" r="4.2859" transform="rotate(-20 26.2631 86.9528)" fill="#F5F5F5" stroke="#A3A3A3"/>
<rect x="29.0903" y="75.3346" width="27.4739" height="3.11055" rx="1.55528" transform="rotate(-20 29.0903 75.3346)" fill="#A3A3A3"/>
<rect x="30.8105" y="80.0597" width="35.2503" height="3.11055" rx="1.55528" transform="rotate(-20 30.8105 80.0597)" fill="#A3A3A3"/>
</g>
<path d="M133.723 33.8417H134.223V33.3417V22.5967C134.223 20.1114 132.208 18.0967 129.723 18.0967L43.2227 18.0967C40.7374 18.0967 38.7227 20.1114 38.7227 22.5967V33.3417V33.8417H39.2227L133.723 33.8417Z" fill="#F5F5F5" stroke="#A3A3A3"/>
<path d="M39.2227 32.8403H38.7227V33.3403V77.5967C38.7227 80.0819 40.7374 82.0967 43.2227 82.0967H129.723C132.208 82.0967 134.223 80.0819 134.223 77.5967V33.3403V32.8403H133.723L39.2227 32.8403Z" fill="#F5F5F5" stroke="#A3A3A3"/>
<rect x="40.2227" y="19.5967" width="92.5004" height="61" stroke="#525252" stroke-width="2"/>
<circle cx="135.299" cy="55.8935" r="6.19375" fill="#F5F5F5" stroke="#A3A3A3"/>
<circle cx="107.644" cy="70.2008" r="4.89436" fill="#A3A3A3"/>
<circle cx="120.696" cy="70.2008" r="4.89436" fill="#A3A3A3"/>
<circle cx="37.6483" cy="55.8935" r="6.19375" fill="#F5F5F5" stroke="#A3A3A3"/>
<rect x="46.9219" y="41.9762" width="38.4262" height="4.35054" rx="2.17527" fill="#A3A3A3"/>
<rect x="46.9219" y="49.0092" width="49.3025" height="4.35054" rx="2.17527" fill="#A3A3A3"/>
<path opacity="0.8" d="M141.454 12.1893L151.454 5.68933M141.454 19.1893L146.954 22.1893M134.954 9.68933V1.68933" stroke="#D4D4D4" stroke-width="3" stroke-linecap="round" stroke-linejoin="round"/>
<g clip-path="url(#clip0_763_11643)">
<path d="M128.392 75.0405L142.562 88.9086L136.022 90.1145L128.392 97.953V75.0405Z" fill="white" stroke="white" stroke-linecap="round" stroke-linejoin="round"/>
<path d="M128.653 94.434L133.405 88.6944L141.422 88.6944L128.653 78.2599L128.653 94.434ZM139.567 106.19L133.405 93.0142L126.337 102.808V72.4014L150.155 90.9872H138.074L144.198 104.036L139.567 106.19Z" fill="#A3A3A3"/>
</g>
<path opacity="0.7" d="M96.9106 88.7851C96.4187 88.8368 96.0528 89.2847 96.1065 89.7962C96.1603 90.3077 96.6113 90.6697 97.1033 90.618C97.5952 90.5663 97.9611 90.1184 97.9074 89.6069C97.8536 89.0954 97.4026 88.7334 96.9106 88.7851Z" fill="#D4D4D4" stroke="#D4D4D4"/>
<g opacity="0.7">
<mask id="path-32-inside-1_763_11643" fill="white">
<ellipse cx="0.976479" cy="0.965397" rx="0.976479" ry="0.965397" transform="matrix(-0.104528 -0.994522 -0.994522 0.104528 80.3965 115.056)"/>
</mask>
<ellipse cx="0.976479" cy="0.965397" rx="0.976479" ry="0.965397" transform="matrix(-0.104528 -0.994522 -0.994522 0.104528 80.3965 115.056)" fill="#D4D4D4"/>
<path d="M79.3368 114.209C79.3413 114.209 79.3478 114.207 79.3538 114.203C79.3592 114.2 79.3623 114.197 79.364 114.195C79.3656 114.193 79.3669 114.191 79.3678 114.188C79.3688 114.184 79.3687 114.182 79.3687 114.182L77.3797 114.391C77.2667 113.316 78.0375 112.335 79.1277 112.22L79.3368 114.209ZM79.3687 114.182C79.3687 114.182 79.3683 114.18 79.3666 114.177C79.3652 114.174 79.3634 114.172 79.3613 114.17C79.3593 114.168 79.3556 114.166 79.3497 114.164C79.3431 114.162 79.3364 114.162 79.3318 114.162L79.5409 116.151C78.4507 116.266 77.4926 115.466 77.3797 114.391L79.3687 114.182ZM79.3318 114.162C79.3273 114.163 79.3208 114.165 79.3148 114.168C79.3094 114.171 79.3063 114.174 79.3047 114.176C79.303 114.178 79.3017 114.181 79.3008 114.183C79.2998 114.187 79.2999 114.19 79.2999 114.189L81.2889 113.98C81.4019 115.055 80.6311 116.037 79.5409 116.151L79.3318 114.162ZM79.2999 114.189C79.2999 114.189 79.3003 114.192 79.302 114.195C79.3035 114.197 79.3052 114.199 79.3073 114.201C79.3094 114.203 79.313 114.205 79.3189 114.207C79.3255 114.209 79.3322 114.21 79.3368 114.209L79.1277 112.22C80.2179 112.105 81.176 112.905 81.2889 113.98L79.2999 114.189Z" fill="#D4D4D4" mask="url(#path-32-inside-1_763_11643)"/>
</g>
<path opacity="0.6" d="M97.5928 103.28C97.1008 103.332 96.7349 103.78 96.7887 104.292C96.8424 104.803 97.2935 105.165 97.7854 105.113C98.2774 105.062 98.6433 104.614 98.5895 104.102C98.5357 103.591 98.0847 103.229 97.5928 103.28Z" fill="#D4D4D4" stroke="#D4D4D4"/>
<g opacity="0.7">
<path d="M117.269 88.9532L110.241 89.6919" stroke="#D4D4D4" stroke-width="2" stroke-linecap="round"/>
<path d="M114.128 92.8765L113.381 85.7678" stroke="#D4D4D4" stroke-width="2" stroke-linecap="round"/>
</g>
<g opacity="0.6">
<path d="M90.6533 98.2001L86.4361 96.2335" stroke="#D4D4D4" stroke-width="2" stroke-linecap="round"/>
<path d="M87.5493 99.35L89.5384 95.0843" stroke="#D4D4D4" stroke-width="2" stroke-linecap="round"/>
</g>
<g opacity="0.6">
<path d="M72.063 127.472L68.5632 125.84" stroke="#D4D4D4" stroke-linecap="round"/>
<path d="M69.4868 128.426L71.1375 124.886" stroke="#D4D4D4" stroke-linecap="round"/>
</g>
<g opacity="0.8">
<circle cx="164.396" cy="94.9358" r="0.75" fill="#D4D4D4" stroke="#D4D4D4"/>
<circle cx="164.396" cy="110.436" r="0.75" fill="#D4D4D4" stroke="#D4D4D4"/>
<path d="M158.146 99.9358V104.936" stroke="#D4D4D4" stroke-width="2" stroke-linecap="round"/>
<path d="M155.646 102.436H160.646" stroke="#D4D4D4" stroke-width="2" stroke-linecap="round"/>
</g>
<ellipse cx="138.294" cy="112.686" rx="12.4" ry="1.5" fill="#D4D4D4"/>
<defs>
<clipPath id="clip0_763_11643">
<rect width="23.8184" height="33.7889" fill="white" transform="translate(126.337 72.4014)"/>
</clipPath>
</defs>
</svg>
