<svg width="166" height="131" viewBox="0 0 166 131" fill="none" xmlns="http://www.w3.org/2000/svg">
<g opacity="0.2">
<path d="M67.5669 94.1332L68.0475 94.2711L68.1853 93.7904L69.5249 89.1188C70.21 86.7298 68.8286 84.2378 66.4396 83.5528L19.5464 70.1064C17.1574 69.4213 14.6654 70.8027 13.9804 73.1917L12.6408 77.8633L12.503 78.3439L12.9836 78.4817L67.5669 94.1332Z" fill="#F5F5F5" stroke="#A3A3A3"/>
<path d="M13.2595 77.5197L12.7789 77.3819L12.641 77.8625L5.75121 101.89C5.06617 104.279 6.44751 106.771 8.83652 107.456L55.7297 120.903C58.1187 121.588 60.6107 120.206 61.2957 117.817L68.1856 93.7897L68.3234 93.3091L67.8428 93.1712L13.2595 77.5197Z" fill="#F5F5F5" stroke="#A3A3A3"/>
<circle cx="64.8796" cy="106.939" r="3.52211" transform="rotate(16 64.8796 106.939)" fill="#F5F5F5" stroke="#A3A3A3"/>
<circle cx="46.5369" cy="110.623" r="2.9409" transform="rotate(16 46.5369 110.623)" fill="#A3A3A3"/>
<circle cx="54.0754" cy="112.785" r="2.9409" transform="rotate(16 54.0754 112.785)" fill="#A3A3A3"/>
<circle cx="8.47689" cy="90.7662" r="3.52211" transform="rotate(16 8.47689 90.7662)" fill="#F5F5F5" stroke="#A3A3A3"/>
<rect x="16.1383" y="84.2635" width="23.0893" height="2.61413" rx="1.30707" transform="rotate(16 16.1383 84.2635)" fill="#A3A3A3"/>
<rect x="14.9735" y="88.3257" width="29.6247" height="2.61413" rx="1.30707" transform="rotate(16 14.9735 88.3257)" fill="#A3A3A3"/>
</g>
<g opacity="0.5">
<path d="M85.4685 49.3782L85.9383 49.2072L85.7673 48.7374L83.5297 42.5896C82.6797 40.2542 80.0974 39.05 77.762 39.9L21.7883 60.2728C19.4529 61.1228 18.2488 63.7051 19.0988 66.0405L21.3364 72.1883L21.5074 72.6582L21.9773 72.4871L85.4685 49.3782Z" fill="#F5F5F5" stroke="#A3A3A3"/>
<path d="M21.6349 71.5466L21.1651 71.7176L21.3361 72.1874L31.7685 100.85C32.6185 103.186 35.2008 104.39 37.5362 103.54L93.5098 83.167C95.8453 82.317 97.0494 79.7347 96.1994 77.3993L85.767 48.7365L85.596 48.2667L85.1261 48.4377L21.6349 71.5466Z" fill="#F5F5F5" stroke="#A3A3A3"/>
<circle cx="91.8709" cy="63.6747" r="4.2859" transform="rotate(-20 91.8709 63.6747)" fill="#F5F5F5" stroke="#A3A3A3"/>
<circle cx="76.7896" cy="80.0498" r="3.49937" transform="rotate(-20 76.7896 80.0498)" fill="#A3A3A3"/>
<circle cx="85.5585" cy="76.8582" r="3.49937" transform="rotate(-20 85.5585 76.8582)" fill="#A3A3A3"/>
<circle cx="26.2632" cy="87.554" r="4.2859" transform="rotate(-20 26.2632 87.554)" fill="#F5F5F5" stroke="#A3A3A3"/>
<rect x="29.0905" y="75.9358" width="27.4739" height="3.11055" rx="1.55528" transform="rotate(-20 29.0905 75.9358)" fill="#A3A3A3"/>
<rect x="30.8104" y="80.6609" width="35.2503" height="3.11055" rx="1.55528" transform="rotate(-20 30.8104 80.6609)" fill="#A3A3A3"/>
</g>
<path d="M133.723 34.4429H134.223V33.9429V23.1979C134.223 20.7126 132.209 18.6979 129.723 18.6979L43.2228 18.6979C40.7376 18.6979 38.7228 20.7126 38.7228 23.1979V33.9429V34.4429H39.2228L133.723 34.4429Z" fill="#F5F5F5" stroke="#A3A3A3"/>
<path d="M39.2228 33.4416H38.7228V33.9416V78.1979C38.7228 80.6832 40.7376 82.6979 43.2228 82.6979H129.723C132.209 82.6979 134.223 80.6832 134.223 78.1979V33.9416V33.4416H133.723L39.2228 33.4416Z" fill="#F5F5F5" stroke="#A3A3A3"/>
<circle cx="135.299" cy="56.4947" r="6.19375" fill="#F5F5F5" stroke="#A3A3A3"/>
<circle cx="107.645" cy="70.802" r="4.89436" fill="#A3A3A3"/>
<circle cx="120.696" cy="70.802" r="4.89436" fill="#A3A3A3"/>
<circle cx="37.6484" cy="56.4947" r="6.19375" fill="#F5F5F5" stroke="#A3A3A3"/>
<rect x="46.922" y="42.5774" width="38.4262" height="4.35054" rx="2.17527" fill="#A3A3A3"/>
<rect x="46.922" y="49.6104" width="49.3025" height="4.35054" rx="2.17527" fill="#A3A3A3"/>
<path opacity="0.8" d="M141.454 12.7906L151.454 6.29056M141.454 19.7906L146.954 22.7906M134.954 10.2906V2.29056" stroke="#D4D4D4" stroke-width="3" stroke-linecap="round" stroke-linejoin="round"/>
<path d="M128.392 75.6418L142.562 89.5099L136.022 90.7158L128.392 98.5543V75.6418Z" fill="white" stroke="white" stroke-linecap="round" stroke-linejoin="round"/>
<path d="M128.653 95.0353L133.405 89.2957L141.422 89.2957L128.653 78.8612L128.653 95.0353ZM139.566 106.792L133.405 93.6155L126.337 103.409V73.0027L150.155 91.5884H138.074L144.197 104.638L139.566 106.792Z" fill="#A3A3A3"/>
<path opacity="0.7" d="M96.9106 89.3864C96.4187 89.4381 96.0528 89.886 96.1065 90.3975C96.1603 90.909 96.6113 91.271 97.1033 91.2193C97.5952 91.1676 97.9611 90.7198 97.9073 90.2082C97.8536 89.6967 97.4026 89.3347 96.9106 89.3864Z" fill="#D4D4D4" stroke="#D4D4D4"/>
<g opacity="0.7">
<mask id="path-32-inside-1_111_6424" fill="white">
<ellipse cx="0.976479" cy="0.965397" rx="0.976479" ry="0.965397" transform="matrix(-0.104528 -0.994522 -0.994522 0.104528 80.3962 115.657)"/>
</mask>
<ellipse cx="0.976479" cy="0.965397" rx="0.976479" ry="0.965397" transform="matrix(-0.104528 -0.994522 -0.994522 0.104528 80.3962 115.657)" fill="#D4D4D4"/>
<path d="M79.3365 114.81C79.3411 114.81 79.3476 114.808 79.3536 114.805C79.3589 114.802 79.362 114.799 79.3637 114.797C79.3654 114.794 79.3667 114.792 79.3675 114.789C79.3686 114.786 79.3685 114.783 79.3685 114.783L77.3794 114.992C77.2665 113.918 78.0373 112.936 79.1275 112.821L79.3365 114.81ZM79.3685 114.783C79.3685 114.784 79.3681 114.781 79.3663 114.778C79.3649 114.775 79.3632 114.773 79.3611 114.772C79.359 114.77 79.3553 114.767 79.3495 114.766C79.3429 114.764 79.3362 114.763 79.3316 114.764L79.5407 116.753C78.4505 116.867 77.4924 116.067 77.3794 114.992L79.3685 114.783ZM79.3316 114.764C79.327 114.764 79.3206 114.766 79.3145 114.769C79.3092 114.772 79.3061 114.775 79.3044 114.777C79.3027 114.78 79.3014 114.782 79.3006 114.785C79.2995 114.788 79.2997 114.791 79.2996 114.791L81.2887 114.582C81.4017 115.656 80.6308 116.638 79.5407 116.753L79.3316 114.764ZM79.2996 114.791C79.2996 114.79 79.3 114.793 79.3018 114.796C79.3032 114.799 79.305 114.801 79.307 114.803C79.3091 114.804 79.3128 114.807 79.3187 114.808C79.3252 114.81 79.332 114.811 79.3365 114.81L79.1275 112.821C80.2176 112.707 81.1757 113.507 81.2887 114.582L79.2996 114.791Z" fill="#D4D4D4" mask="url(#path-32-inside-1_111_6424)"/>
</g>
<path opacity="0.6" d="M97.5927 103.882C97.1008 103.933 96.7349 104.381 96.7886 104.893C96.8424 105.404 97.2934 105.766 97.7854 105.715C98.2773 105.663 98.6432 105.215 98.5895 104.704C98.5357 104.192 98.0847 103.83 97.5927 103.882Z" fill="#D4D4D4" stroke="#D4D4D4"/>
<g opacity="0.7">
<path d="M117.269 89.5546L110.241 90.2933" stroke="#D4D4D4" stroke-width="2" stroke-linecap="round"/>
<path d="M114.128 93.4778L113.381 86.3692" stroke="#D4D4D4" stroke-width="2" stroke-linecap="round"/>
</g>
<g opacity="0.6">
<path d="M90.6535 98.8015L86.4362 96.8349" stroke="#D4D4D4" stroke-width="2" stroke-linecap="round"/>
<path d="M87.5495 99.9513L89.5386 95.6856" stroke="#D4D4D4" stroke-width="2" stroke-linecap="round"/>
</g>
<g opacity="0.6">
<path d="M72.0626 128.073L68.5628 126.441" stroke="#D4D4D4" stroke-linecap="round"/>
<path d="M69.4869 129.027L71.1376 125.487" stroke="#D4D4D4" stroke-linecap="round"/>
</g>
<g opacity="0.8">
<circle cx="164.396" cy="95.5371" r="0.75" fill="#D4D4D4" stroke="#D4D4D4"/>
<circle cx="164.396" cy="111.037" r="0.75" fill="#D4D4D4" stroke="#D4D4D4"/>
<path d="M158.146 100.537V105.537" stroke="#D4D4D4" stroke-width="2" stroke-linecap="round"/>
<path d="M155.646 103.037H160.646" stroke="#D4D4D4" stroke-width="2" stroke-linecap="round"/>
</g>
<ellipse cx="138.294" cy="113.287" rx="12.4" ry="1.5" fill="#D4D4D4"/>
</svg>
