<svg viewBox="0 0 250 167" fill="none" xmlns="http://www.w3.org/2000/svg">
<g opacity="0.3">
<path d="M133.678 72.043L134.176 72.0866L134.219 71.5885L135.2 60.3797C135.417 57.9039 133.585 55.7212 131.109 55.5046L41.7035 47.6826C39.2277 47.466 37.0451 49.2975 36.8285 51.7733L35.8478 62.9821L35.8042 63.4802L36.3023 63.5238L133.678 72.043Z" fill="#F5F5F5" stroke="#A3A3A3"/>
<path d="M36.3896 62.5262L35.8915 62.4826L35.8479 62.9807L31.8462 108.72C31.6296 111.196 33.4611 113.379 35.9369 113.595L125.343 121.417C127.819 121.634 130.001 119.803 130.218 117.327L134.219 71.5871L134.263 71.089L133.765 71.0454L36.3896 62.5262Z" fill="#F5F5F5" stroke="#A3A3A3"/>
<circle cx="133.311" cy="94.925" r="6.42374" transform="rotate(5 133.311 94.925)" fill="#F5F5F5" stroke="#A3A3A3"/>
<circle cx="103.526" cy="107.174" r="5.06253" transform="rotate(5 103.526 107.174)" fill="#A3A3A3"/>
<circle cx="116.975" cy="108.351" r="5.06253" transform="rotate(5 116.975 108.351)" fill="#A3A3A3"/>
<circle cx="32.6901" cy="86.1217" r="6.42374" transform="rotate(5 32.6901 86.1217)" fill="#F5F5F5" stroke="#A3A3A3"/>
<rect x="43.5005" y="72.6169" width="39.7465" height="4.50002" rx="2.25001" transform="rotate(5 43.5005 72.6169)" fill="#A3A3A3"/>
<path d="M42.6706 82.1051C42.7789 80.8672 43.8702 79.9514 45.1081 80.0597L91.4277 84.1122C92.6656 84.2205 93.5814 85.3118 93.4731 86.5497V86.5497C93.3648 87.7877 92.2734 88.7034 91.0355 88.5951L44.7159 84.5426C43.478 84.4343 42.5623 83.343 42.6706 82.1051V82.1051Z" fill="#A3A3A3"/>
</g>
<circle cx="221.735" cy="127.575" r="0.857596" transform="rotate(170 221.735 127.575)" fill="#D4D4D4" stroke="#D4D4D4"/>
<path d="M208.472 146.18L206.964 137.623" stroke="#D4D4D4" stroke-width="2" stroke-linecap="round"/>
<path d="M211.996 141.147L203.44 142.656" stroke="#D4D4D4" stroke-width="2" stroke-linecap="round"/>
<path d="M212.755 121.99L211.812 116.642" stroke="#D4D4D4" stroke-width="2" stroke-linecap="round"/>
<path d="M214.957 118.844L209.609 119.787" stroke="#D4D4D4" stroke-width="2" stroke-linecap="round"/>
<circle cx="120.832" cy="23.3762" r="0.857596" transform="rotate(49 120.832 23.3762)" fill="#A3A3A3" stroke="#A3A3A3"/>
<circle opacity="0.4" cx="72.2916" cy="30.5898" r="0.857596" transform="rotate(49 72.2916 30.5898)" fill="#A3A3A3" stroke="#A3A3A3"/>
<circle opacity="0.2" cx="47.3115" cy="28.5401" r="0.857596" transform="rotate(49 47.3115 28.5401)" fill="#A3A3A3" stroke="#A3A3A3"/>
<circle cx="108.126" cy="34.4203" r="0.857596" transform="rotate(49 108.126 34.4203)" fill="#A3A3A3" stroke="#A3A3A3"/>
<circle opacity="0.5" cx="82.7464" cy="21.4146" r="0.857596" transform="rotate(49 82.7464 21.4146)" fill="#A3A3A3" stroke="#A3A3A3"/>
<path d="M112.28 21.8158L108.182 25.3784" stroke="#A3A3A3" stroke-width="2" stroke-linecap="round"/>
<path d="M108.45 21.5478L112.013 25.6462" stroke="#A3A3A3" stroke-width="2" stroke-linecap="round"/>
<g opacity="0.5">
<path d="M96.4069 27.3812L90.9773 27.476" stroke="#A3A3A3" stroke-width="2" stroke-linecap="round"/>
<path d="M93.6445 24.7138L93.7393 30.1434" stroke="#A3A3A3" stroke-width="2" stroke-linecap="round"/>
</g>
<g opacity="0.2">
<path d="M60.0715 31.2423L56.654 35.4625" stroke="#A3A3A3" stroke-width="2" stroke-linecap="round"/>
<path d="M56.2529 31.6435L60.4731 35.0609" stroke="#A3A3A3" stroke-width="2" stroke-linecap="round"/>
</g>
<circle cx="136.827" cy="18.0289" r="0.857596" transform="rotate(39 136.827 18.0289)" fill="#D4D4D4" stroke="#D4D4D4"/>
<circle opacity="0.4" cx="90.277" cy="33.5618" r="0.857596" transform="rotate(39 90.277 33.5618)" fill="#D4D4D4" stroke="#D4D4D4"/>
<circle opacity="0.2" cx="65.3206" cy="35.881" r="0.857596" transform="rotate(39 65.3206 35.881)" fill="#D4D4D4" stroke="#D4D4D4"/>
<circle cx="126.232" cy="31.1116" r="0.857596" transform="rotate(39 126.232 31.1116)" fill="#D4D4D4" stroke="#D4D4D4"/>
<circle opacity="0.5" cx="98.9794" cy="22.7105" r="0.857596" transform="rotate(39 98.9794 22.7105)" fill="#D4D4D4" stroke="#D4D4D4"/>
<path d="M128.134 17.977L124.716 22.1972" stroke="#D4D4D4" stroke-width="2" stroke-linecap="round"/>
<path d="M124.315 18.3783L128.536 21.7958" stroke="#D4D4D4" stroke-width="2" stroke-linecap="round"/>
<g opacity="0.5">
<path d="M113.469 26.2144L108.138 27.2505" stroke="#D4D4D4" stroke-width="2" stroke-linecap="round"/>
<path d="M110.285 24.0672L111.321 29.3978" stroke="#D4D4D4" stroke-width="2" stroke-linecap="round"/>
</g>
<g opacity="0.2">
<path d="M78.3559 36.3265L75.7232 41.076" stroke="#D4D4D4" stroke-width="2" stroke-linecap="round"/>
<path d="M74.6655 37.3846L79.415 40.0173" stroke="#D4D4D4" stroke-width="2" stroke-linecap="round"/>
</g>
<path opacity="0.8" d="M209.919 52.3669L220.78 45.3074M209.919 59.9695L215.893 63.2277M202.86 49.6517V40.9631" stroke="#D4D4D4" stroke-width="3" stroke-linecap="round" stroke-linejoin="round"/>
<g opacity="0.5">
<path d="M165.577 71.4618L166.069 71.5486L166.156 71.0562L168.11 59.9755C168.541 57.528 166.907 55.194 164.46 54.7625L76.0757 39.178C73.6282 38.7465 71.2943 40.3807 70.8627 42.8282L68.9089 53.9089L68.822 54.4013L69.3144 54.4881L165.577 71.4618Z" fill="#F5F5F5" stroke="#A3A3A3"/>
<path d="M69.4883 53.502L68.9959 53.4152L68.9091 53.9076L60.9361 99.1244C60.5046 101.572 62.1388 103.906 64.5864 104.337L152.97 119.922C155.418 120.353 157.752 118.719 158.183 116.272L166.156 71.0549L166.243 70.5625L165.751 70.4756L69.4883 53.502Z" fill="#F5F5F5" stroke="#A3A3A3"/>
<circle cx="163.217" cy="94.2247" r="6.42374" transform="rotate(10 163.217 94.2247)" fill="#F5F5F5" stroke="#A3A3A3"/>
<circle cx="132.478" cy="103.832" r="5.06253" transform="rotate(10 132.478 103.832)" fill="#A3A3A3"/>
<circle cx="145.773" cy="106.176" r="5.06253" transform="rotate(10 145.773 106.176)" fill="#A3A3A3"/>
<circle cx="63.7464" cy="76.6853" r="6.42374" transform="rotate(10 63.7464 76.6853)" fill="#F5F5F5" stroke="#A3A3A3"/>
<rect x="75.6927" y="64.174" width="39.7465" height="4.50002" rx="2.25001" transform="rotate(10 75.6927 64.174)" fill="#A3A3A3"/>
<path d="M74.039 73.5538C74.2548 72.33 75.4218 71.5129 76.6456 71.7287L122.436 79.8027C123.659 80.0185 124.477 81.1855 124.261 82.4092V82.4092C124.045 83.633 122.878 84.4501 121.654 84.2344L75.8642 76.1603C74.6404 75.9445 73.8233 74.7775 74.039 73.5538V73.5538Z" fill="#A3A3A3"/>
</g>
<path d="M196.206 70.4501L196.675 70.6211L196.846 70.1512L200.695 59.5782C201.545 57.2428 200.341 54.6605 198.005 53.8105L113.67 23.1151C111.335 22.2651 108.753 23.4692 107.902 25.8046L104.054 36.3777L103.883 36.8475L104.353 37.0185L196.206 70.4501Z" fill="#F5F5F5" stroke="#A3A3A3"/>
<path d="M104.696 36.0776L104.226 35.9066L104.055 36.3764L88.3511 79.5218C87.501 81.8572 88.7052 84.4395 91.0406 85.2895L175.375 115.985C177.711 116.835 180.293 115.631 181.143 113.295L196.847 70.15L197.018 69.6802L196.548 69.5091L104.696 36.0776Z" fill="#F5F5F5" stroke="#A3A3A3"/>
<circle cx="189.929" cy="92.4575" r="6.42374" transform="rotate(20 189.929 92.4575)" fill="#F5F5F5" stroke="#A3A3A3"/>
<circle cx="157.988" cy="96.5805" r="5.06253" transform="rotate(20 157.988 96.5805)" fill="#A3A3A3"/>
<circle cx="170.675" cy="101.198" r="5.06253" transform="rotate(20 170.675 101.198)" fill="#A3A3A3"/>
<circle cx="95.0151" cy="57.9116" r="6.42374" transform="rotate(20 95.0151 57.9116)" fill="#F5F5F5" stroke="#A3A3A3"/>
<rect x="108.953" y="47.6648" width="39.7465" height="4.50002" rx="2.25001" transform="rotate(20 108.953 47.6648)" fill="#A3A3A3"/>
<path d="M105.695 56.6149C106.12 55.4472 107.411 54.8451 108.579 55.2702L152.271 71.1729C153.439 71.5979 154.041 72.8891 153.616 74.0568V74.0568C153.191 75.2245 151.9 75.8265 150.732 75.4015L107.04 59.4988C105.872 59.0738 105.27 57.7826 105.695 56.6149V56.6149Z" fill="#A3A3A3"/>
<g clip-path="url(#clip0_128_13390)">
<path d="M176.812 107.008L192.753 122.61L185.396 123.966L176.812 132.785V107.008Z" fill="white" stroke="white" stroke-linecap="round" stroke-linejoin="round"/>
<path d="M177.106 128.826L182.451 122.369L191.471 122.369L177.106 110.63V128.826ZM189.384 142.052L182.451 127.228L174.5 138.246V104.039L201.296 124.948H187.704L194.593 139.629L189.384 142.052Z" fill="#A3A3A3"/>
</g>
<ellipse cx="110.902" cy="153.114" rx="69.7804" ry="1.62912" fill="#D4D4D4"/>
<defs>
<clipPath id="clip0_128_13390">
<rect width="26.7958" height="38.0127" fill="white" transform="translate(174.5 104.039)"/>
</clipPath>
</defs>
</svg>
