<svg width="148" height="136" viewBox="0 0 148 136" fill="none" xmlns="http://www.w3.org/2000/svg">
    <g opacity="0.5">
        <path d="M117.283 39.3258H117.783V38.8258V25.9983C117.783 23.513 115.768 21.4983 113.283 21.4983L13.4355 21.4983C10.9503 21.4983 8.93555 23.513 8.93555 25.9983L8.93555 38.8258V39.3258H9.43555L117.283 39.3258Z"
              fill="#525252" stroke="#D4D4D4"/>
        <path d="M9.43555 38.3242H8.93555V38.8242L8.93555 89.8961C8.93555 92.3814 10.9503 94.3961 13.4355 94.3961H113.283C115.768 94.3961 117.783 92.3814 117.783 89.8961V38.8242V38.3242H117.283L9.43555 38.3242Z"
              fill="#525252" stroke="#D4D4D4"/>
        <rect x="10.4355" y="22.9983" width="105.847" height="69.8979" stroke="#525252" stroke-width="2"/>
        <circle cx="119.082" cy="64.5627" r="7.13915" fill="#525252" stroke="#D4D4D4"/>
        <circle cx="87.5207" cy="80.8908" r="5.58562" fill="#A3A3A3"/>
        <circle cx="102.416" cy="80.8908" r="5.58562" fill="#A3A3A3"/>
        <circle cx="7.63915" cy="64.5627" r="7.13915" fill="#525252" stroke="#D4D4D4"/>
        <rect x="18.2222" y="48.6797" width="43.8534" height="4.965" rx="2.4825" fill="#A3A3A3"/>
        <rect x="18.2222" y="56.7061" width="56.2659" height="4.965" rx="2.4825" fill="#A3A3A3"/>
    </g>
    <path opacity="0.5" d="M125.82 17.0986L140.199 7.75183M125.82 27.1643L133.729 31.4781M116.473 13.5037V2"
          stroke="#D4D4D4" stroke-width="3" stroke-linecap="round" stroke-linejoin="round"/>
    <path opacity="0.7"
          d="M27.4761 53.4628C26.5479 53.5421 26.0424 54.1942 26.114 54.7485C26.1857 55.3028 26.847 55.8552 27.7752 55.7759C28.7034 55.6966 29.2089 55.0445 29.1373 54.4902C29.0656 53.9359 28.4043 53.3835 27.4761 53.4628Z"
          fill="#D4D4D4" stroke="#D4D4D4"/>
    <path opacity="0.6"
          d="M28.4571 70.4059C27.5289 70.4852 27.0233 71.1373 27.095 71.6916C27.1667 72.2459 27.828 72.7983 28.7562 72.719C29.6843 72.6398 30.1899 71.9876 30.1182 71.4333C30.0466 70.879 29.3852 70.3266 28.4571 70.4059Z"
          fill="#D4D4D4" stroke="#D4D4D4"/>
    <g opacity="0.7">
        <path d="M56.7607 53.7449L46.6548 54.6083" stroke="#D4D4D4" stroke-width="2" stroke-linecap="round"/>
        <path d="M52.2451 58.3306L51.1707 50.0215" stroke="#D4D4D4" stroke-width="2" stroke-linecap="round"/>
    </g>
    <g opacity="0.6">
        <path d="M18.4893 64.553L12.425 62.2544" stroke="#D4D4D4" stroke-width="2" stroke-linecap="round"/>
        <path d="M14.0259 65.897L16.8861 60.911" stroke="#D4D4D4" stroke-width="2" stroke-linecap="round"/>
    </g>
    <g filter="url(#filter0_b_250_6064)">
        <circle cx="63.6272" cy="55.5937" r="46.7336" fill="white" fill-opacity="0.3"/>
        <circle cx="63.6272" cy="55.5937" r="44.7336" stroke="#A3A3A3" stroke-width="4"/>
    </g>
    <path d="M97.4209 85.9172L123.455 111.951" stroke="#A3A3A3" stroke-width="3"/>
    <rect x="116.898" y="95.932" width="41.1387" height="12.3796" rx="2" transform="rotate(45 116.898 95.932)"
          fill="#A3A3A3" stroke="#A3A3A3" stroke-width="2"/>
    <path fill-rule="evenodd" clip-rule="evenodd"
          d="M53.9466 53.7402C54.7591 54.5527 57.9466 57.8965 57.9466 57.8965L59.6966 56.084L56.9466 53.2402L62.2279 47.6152C62.2279 47.6152 59.8529 45.3027 60.8841 46.209C61.8841 42.4902 60.9779 38.3652 58.1654 35.459C55.3529 32.584 51.3841 31.6465 47.8216 32.6152L53.8529 38.8652L52.2591 44.9902L46.3529 46.6152L40.3216 40.3652C39.3529 44.0527 40.2591 48.1465 43.0716 51.0215C46.0091 54.084 50.2279 54.959 53.9466 53.7402V53.7402ZM74.0716 59.8027L66.7904 66.9902L78.7904 79.4277C79.7591 80.459 81.0716 80.959 82.3529 80.959C83.6341 80.959 84.9154 80.459 85.9154 79.4277C87.8841 77.3965 87.8841 74.1152 85.9154 72.084L74.0716 59.8027ZM89.9466 38.9277L82.2904 31.0215L59.7279 54.334L62.4779 57.1777L49.0091 71.1152L45.9154 72.7715L41.5716 79.8652L42.6654 81.0215L49.5404 76.5215L51.1341 73.334L64.6341 59.3965L67.3841 62.2402L89.9466 38.9277Z"
          fill="#404040"/>
    <defs>
        <filter id="filter0_b_250_6064" x="13.8936" y="5.86011" width="99.4673" height="99.4673"
                filterUnits="userSpaceOnUse" color-interpolation-filters="sRGB">
            <feFlood flood-opacity="0" result="BackgroundImageFix"/>
            <feGaussianBlur in="BackgroundImageFix" stdDeviation="1.5"/>
            <feComposite in2="SourceAlpha" operator="in" result="effect1_backgroundBlur_250_6064"/>
            <feBlend mode="normal" in="SourceGraphic" in2="effect1_backgroundBlur_250_6064" result="shape"/>
        </filter>
    </defs>
</svg>
