<svg width="204" height="167" viewBox="0 0 204 167" fill="none" xmlns="http://www.w3.org/2000/svg">
<g opacity="0.3">
<path d="M111.012 84.1712L111.51 84.2148L111.554 83.7167L112.535 72.5079C112.751 70.0321 110.92 67.8494 108.444 67.6328L19.038 59.8108C16.5622 59.5942 14.3795 61.4257 14.1629 63.9015L13.1823 75.1103L13.1387 75.6084L13.6368 75.652L111.012 84.1712Z" fill="#F5F5F5" stroke="#A3A3A3"/>
<path d="M13.7241 74.6544L13.226 74.6109L13.1824 75.1089L9.18075 120.849C8.96414 123.324 10.7956 125.507 13.2714 125.724L102.677 133.546C105.153 133.762 107.336 131.931 107.552 129.455L111.554 83.7153L111.598 83.2172L111.1 83.1737L13.7241 74.6544Z" fill="#F5F5F5" stroke="#A3A3A3"/>
<circle cx="110.646" cy="107.053" r="6.42374" transform="rotate(5 110.646 107.053)" fill="#F5F5F5" stroke="#A3A3A3"/>
<circle cx="80.8603" cy="119.303" r="5.06253" transform="rotate(5 80.8603 119.303)" fill="#A3A3A3"/>
<circle cx="94.3094" cy="120.479" r="5.06253" transform="rotate(5 94.3094 120.479)" fill="#A3A3A3"/>
<circle cx="10.0245" cy="98.2499" r="6.42374" transform="rotate(5 10.0245 98.2499)" fill="#F5F5F5" stroke="#A3A3A3"/>
<rect x="20.835" y="84.7451" width="39.7465" height="4.50002" rx="2.25001" transform="rotate(5 20.835 84.7451)" fill="#A3A3A3"/>
<path d="M20.0051 94.2333C20.1134 92.9954 21.2047 92.0796 22.4426 92.188L68.7622 96.2404C70.0001 96.3487 70.9158 97.44 70.8075 98.6779V98.6779C70.6992 99.9159 69.6079 100.832 68.37 100.723L22.0504 96.6709C20.8125 96.5625 19.8968 95.4712 20.0051 94.2333V94.2333Z" fill="#A3A3A3"/>
</g>
<circle cx="199.071" cy="139.703" r="0.857596" transform="rotate(170 199.071 139.703)" fill="#D4D4D4" stroke="#D4D4D4"/>
<path d="M185.808 158.309L184.299 149.752" stroke="#D4D4D4" stroke-width="2" stroke-linecap="round"/>
<path d="M189.332 153.276L180.775 154.785" stroke="#D4D4D4" stroke-width="2" stroke-linecap="round"/>
<path d="M190.09 134.119L189.147 128.771" stroke="#D4D4D4" stroke-width="2" stroke-linecap="round"/>
<path d="M192.292 130.973L186.945 131.916" stroke="#D4D4D4" stroke-width="2" stroke-linecap="round"/>
<circle cx="98.166" cy="35.5044" r="0.857596" transform="rotate(49 98.166 35.5044)" fill="#A3A3A3" stroke="#A3A3A3"/>
<circle opacity="0.4" cx="49.6261" cy="42.718" r="0.857596" transform="rotate(49 49.6261 42.718)" fill="#A3A3A3" stroke="#A3A3A3"/>
<circle opacity="0.2" cx="24.646" cy="40.6683" r="0.857596" transform="rotate(49 24.646 40.6683)" fill="#A3A3A3" stroke="#A3A3A3"/>
<circle cx="85.4601" cy="46.5485" r="0.857596" transform="rotate(49 85.4601 46.5485)" fill="#A3A3A3" stroke="#A3A3A3"/>
<circle opacity="0.5" cx="60.0809" cy="33.5428" r="0.857596" transform="rotate(49 60.0809 33.5428)" fill="#A3A3A3" stroke="#A3A3A3"/>
<path d="M89.6147 33.944L85.5164 37.5066" stroke="#A3A3A3" stroke-width="2" stroke-linecap="round"/>
<path d="M85.7843 33.676L89.347 37.7744" stroke="#A3A3A3" stroke-width="2" stroke-linecap="round"/>
<g opacity="0.5">
<path d="M73.7413 39.5094L68.3118 39.6042" stroke="#A3A3A3" stroke-width="2" stroke-linecap="round"/>
<path d="M70.979 36.842L71.0738 42.2716" stroke="#A3A3A3" stroke-width="2" stroke-linecap="round"/>
</g>
<g opacity="0.2">
<path d="M37.4059 43.3705L33.9884 47.5907" stroke="#A3A3A3" stroke-width="2" stroke-linecap="round"/>
<path d="M33.5874 43.7717L37.8076 47.1891" stroke="#A3A3A3" stroke-width="2" stroke-linecap="round"/>
</g>
<circle cx="114.161" cy="30.1571" r="0.857596" transform="rotate(39 114.161 30.1571)" fill="#D4D4D4" stroke="#D4D4D4"/>
<circle opacity="0.4" cx="67.6115" cy="45.69" r="0.857596" transform="rotate(39 67.6115 45.69)" fill="#D4D4D4" stroke="#D4D4D4"/>
<circle opacity="0.2" cx="42.655" cy="48.0092" r="0.857596" transform="rotate(39 42.655 48.0092)" fill="#D4D4D4" stroke="#D4D4D4"/>
<circle cx="103.566" cy="43.2398" r="0.857596" transform="rotate(39 103.566 43.2398)" fill="#D4D4D4" stroke="#D4D4D4"/>
<circle opacity="0.5" cx="76.3139" cy="34.8387" r="0.857596" transform="rotate(39 76.3139 34.8387)" fill="#D4D4D4" stroke="#D4D4D4"/>
<path d="M105.468 30.1052L102.051 34.3254" stroke="#D4D4D4" stroke-width="2" stroke-linecap="round"/>
<path d="M101.65 30.5065L105.87 33.924" stroke="#D4D4D4" stroke-width="2" stroke-linecap="round"/>
<g opacity="0.5">
<path d="M90.8032 38.3426L85.4726 39.3787" stroke="#D4D4D4" stroke-width="2" stroke-linecap="round"/>
<path d="M87.6196 36.1954L88.6558 41.526" stroke="#D4D4D4" stroke-width="2" stroke-linecap="round"/>
</g>
<g opacity="0.2">
<path d="M55.6904 48.4547L53.0577 53.2042" stroke="#D4D4D4" stroke-width="2" stroke-linecap="round"/>
<path d="M52 49.5128L56.7495 52.1455" stroke="#D4D4D4" stroke-width="2" stroke-linecap="round"/>
</g>
<path opacity="0.8" d="M187.254 64.4951L198.115 57.4356M187.254 72.0977L193.227 75.3559M180.194 61.78V53.0913" stroke="#D4D4D4" stroke-width="3" stroke-linecap="round" stroke-linejoin="round"/>
<g opacity="0.5">
<path d="M142.911 83.59L143.404 83.6768L143.49 83.1844L145.444 72.1037C145.876 69.6562 144.242 67.3222 141.794 66.8907L53.4102 51.3062C50.9627 50.8747 48.6287 52.5089 48.1972 54.9564L46.2433 66.0371L46.1565 66.5295L46.6489 66.6163L142.911 83.59Z" fill="#F5F5F5" stroke="#A3A3A3"/>
<path d="M46.8228 65.6302L46.3304 65.5434L46.2436 66.0358L38.2706 111.253C37.839 113.7 39.4733 116.034 41.9208 116.466L130.305 132.05C132.752 132.482 135.086 130.847 135.518 128.4L143.491 83.1831L143.578 82.6907L143.085 82.6038L46.8228 65.6302Z" fill="#F5F5F5" stroke="#A3A3A3"/>
<circle cx="140.552" cy="106.353" r="6.42374" transform="rotate(10 140.552 106.353)" fill="#F5F5F5" stroke="#A3A3A3"/>
<circle cx="109.812" cy="115.96" r="5.06253" transform="rotate(10 109.812 115.96)" fill="#A3A3A3"/>
<circle cx="123.108" cy="118.304" r="5.06253" transform="rotate(10 123.108 118.304)" fill="#A3A3A3"/>
<circle cx="41.081" cy="88.8135" r="6.42374" transform="rotate(10 41.081 88.8135)" fill="#F5F5F5" stroke="#A3A3A3"/>
<rect x="53.0272" y="76.3022" width="39.7465" height="4.50002" rx="2.25001" transform="rotate(10 53.0272 76.3022)" fill="#A3A3A3"/>
<path d="M51.3734 85.682C51.5892 84.4582 52.7562 83.6411 53.98 83.8569L99.7701 91.9309C100.994 92.1467 101.811 93.3137 101.595 94.5375V94.5375C101.379 95.7612 100.212 96.5784 98.9887 96.3626L53.1986 88.2886C51.9748 88.0728 51.1577 86.9058 51.3734 85.682V85.682Z" fill="#A3A3A3"/>
</g>
<path d="M173.54 82.5783L174.01 82.7493L174.181 82.2794L178.029 71.7064C178.879 69.371 177.675 66.7887 175.34 65.9387L91.0047 35.2433C88.6693 34.3933 86.087 35.5974 85.237 37.9328L81.3888 48.5059L81.2177 48.9757L81.6876 49.1467L173.54 82.5783Z" fill="#F5F5F5" stroke="#A3A3A3"/>
<path d="M82.03 48.2058L81.5602 48.0347L81.3892 48.5046L65.6855 91.65C64.8355 93.9854 66.0397 96.5677 68.3751 97.4177L152.71 128.113C155.045 128.963 157.628 127.759 158.478 125.424L174.181 82.2782L174.352 81.8083L173.882 81.6373L82.03 48.2058Z" fill="#F5F5F5" stroke="#A3A3A3"/>
<circle cx="167.264" cy="104.586" r="6.42374" transform="rotate(20 167.264 104.586)" fill="#F5F5F5" stroke="#A3A3A3"/>
<circle cx="135.323" cy="108.709" r="5.06253" transform="rotate(20 135.323 108.709)" fill="#A3A3A3"/>
<circle cx="148.009" cy="113.326" r="5.06253" transform="rotate(20 148.009 113.326)" fill="#A3A3A3"/>
<circle cx="72.3497" cy="70.0398" r="6.42374" transform="rotate(20 72.3497 70.0398)" fill="#F5F5F5" stroke="#A3A3A3"/>
<rect x="86.287" y="59.793" width="39.7465" height="4.50002" rx="2.25001" transform="rotate(20 86.287 59.793)" fill="#A3A3A3"/>
<path d="M83.0296 68.7432C83.4547 67.5755 84.7458 66.9734 85.9135 67.3984L129.606 83.3011C130.774 83.7261 131.376 85.0173 130.951 86.185V86.185C130.526 87.3527 129.235 87.9548 128.067 87.5298L84.3744 71.627C83.2067 71.202 82.6046 69.9109 83.0296 68.7432V68.7432Z" fill="#A3A3A3"/>
<g clip-path="url(#clip0_198_6246)">
<path d="M154.147 119.136L170.088 134.738L162.731 136.094L154.147 144.913V119.136Z" fill="white" stroke="white" stroke-linecap="round" stroke-linejoin="round"/>
<path d="M154.44 140.954L159.786 134.497L168.805 134.497L154.44 122.758V140.954ZM166.718 154.18L159.786 139.357L151.835 150.374V116.167L178.63 137.076L165.039 137.076L171.928 151.757L166.718 154.18Z" fill="#A3A3A3"/>
</g>
<ellipse cx="88.2364" cy="165.243" rx="69.7804" ry="1.62912" fill="#D4D4D4"/>
<defs>
<clipPath id="clip0_198_6246">
<rect width="26.7958" height="38.0127" fill="white" transform="translate(151.835 116.167)"/>
</clipPath>
</defs>
</svg>
