<svg viewBox="0 0 250 168" fill="none" xmlns="http://www.w3.org/2000/svg">
<g opacity="0.5">
<path d="M168.582 59.731H169.082V59.231V46.4035C169.082 43.9182 167.067 41.9035 164.582 41.9035L64.7344 41.9035C62.2491 41.9035 60.2344 43.9182 60.2344 46.4035V59.231V59.731H60.7344L168.582 59.731Z" fill="#525252" stroke="#D4D4D4"/>
<path d="M60.7344 58.7295H60.2344V59.2295V110.301C60.2344 112.787 62.2491 114.801 64.7344 114.801H164.582C167.067 114.801 169.082 112.787 169.082 110.301V59.2295V58.7295H168.582L60.7344 58.7295Z" fill="#525252" stroke="#D4D4D4"/>
<circle cx="170.38" cy="84.9679" r="7.13915" fill="#525252" stroke="#D4D4D4"/>
<circle cx="138.82" cy="101.296" r="5.58562" fill="#A3A3A3"/>
<circle cx="153.715" cy="101.296" r="5.58562" fill="#A3A3A3"/>
<circle cx="58.938" cy="84.9679" r="7.13915" fill="#525252" stroke="#D4D4D4"/>
<rect x="69.5205" y="69.085" width="43.8534" height="4.965" rx="2.4825" fill="#A3A3A3"/>
<rect x="69.5205" y="77.1114" width="56.2659" height="4.965" rx="2.4825" fill="#A3A3A3"/>
</g>
<path opacity="0.5" d="M177.118 37.5039L191.498 28.1572M177.118 47.5696L185.027 51.8835M167.771 33.909V22.4054" stroke="#D4D4D4" stroke-width="3" stroke-linecap="round" stroke-linejoin="round"/>
<path opacity="0.7" d="M78.7745 73.8682C77.8463 73.9475 77.3407 74.5996 77.4124 75.1539C77.4841 75.7082 78.1454 76.2606 79.0735 76.1813C80.0017 76.102 80.5073 75.4499 80.4356 74.8956C80.3639 74.3413 79.7026 73.7889 78.7745 73.8682Z" fill="#D4D4D4" stroke="#D4D4D4"/>
<path opacity="0.6" d="M79.7559 90.8113C78.8277 90.8906 78.3222 91.5427 78.3938 92.097C78.4655 92.6513 79.1268 93.2038 80.055 93.1245C80.9832 93.0452 81.4887 92.393 81.4171 91.8387C81.3454 91.2844 80.6841 90.732 79.7559 90.8113Z" fill="#D4D4D4" stroke="#D4D4D4"/>
<g opacity="0.7">
<path d="M108.06 74.1502L97.9536 75.0136" stroke="#D4D4D4" stroke-width="2" stroke-linecap="round"/>
<path d="M103.544 78.7359L102.47 70.4269" stroke="#D4D4D4" stroke-width="2" stroke-linecap="round"/>
</g>
<g opacity="0.6">
<path d="M69.7881 84.9585L63.7239 82.6598" stroke="#D4D4D4" stroke-width="2" stroke-linecap="round"/>
<path d="M65.3242 86.3025L68.1845 81.3165" stroke="#D4D4D4" stroke-width="2" stroke-linecap="round"/>
</g>
<g filter="url(#filter0_b_459_6831)">
<circle cx="114.926" cy="75.999" r="46.7336" fill="white" fill-opacity="0.3"/>
<circle cx="114.926" cy="75.999" r="44.7336" stroke="#A3A3A3" stroke-width="4"/>
</g>
<path d="M148.72 106.322L174.754 132.356" stroke="#A3A3A3" stroke-width="3"/>
<rect x="168.196" y="116.337" width="41.1387" height="12.3796" rx="2" transform="rotate(45 168.196 116.337)" fill="#A3A3A3" stroke="#A3A3A3" stroke-width="2"/>
<path fill-rule="evenodd" clip-rule="evenodd" d="M105.246 74.1456C106.058 74.9581 109.246 78.3018 109.246 78.3018L110.996 76.4893L108.246 73.6456L113.527 68.0206C113.527 68.0206 111.152 65.7081 112.183 66.6143C113.183 62.8956 112.277 58.7706 109.465 55.8643C106.652 52.9893 102.683 52.0518 99.1209 53.0206L105.152 59.2706L103.558 65.3956L97.6522 67.0206L91.6209 60.7706C90.6522 64.4581 91.5584 68.5518 94.3709 71.4268C97.3084 74.4893 101.527 75.3643 105.246 74.1456V74.1456ZM125.371 80.2081L118.09 87.3956L130.09 99.8331C131.058 100.864 132.371 101.364 133.652 101.364C134.933 101.364 136.215 100.864 137.215 99.8331C139.183 97.8018 139.183 94.5206 137.215 92.4893L125.371 80.2081ZM141.246 59.3331L133.59 51.4268L111.027 74.7393L113.777 77.5831L100.308 91.5206L97.2147 93.1768L92.8709 100.271L93.9647 101.427L100.84 96.9268L102.433 93.7393L115.933 79.8018L118.683 82.6456L141.246 59.3331Z" fill="#404040"/>
<defs>
<filter id="filter0_b_459_6831" x="65.1924" y="26.2653" width="99.4668" height="99.4673" filterUnits="userSpaceOnUse" color-interpolation-filters="sRGB">
<feFlood flood-opacity="0" result="BackgroundImageFix"/>
<feGaussianBlur in="BackgroundImageFix" stdDeviation="1.5"/>
<feComposite in2="SourceAlpha" operator="in" result="effect1_backgroundBlur_459_6831"/>
<feBlend mode="normal" in="SourceGraphic" in2="effect1_backgroundBlur_459_6831" result="shape"/>
</filter>
</defs>
</svg>
