<svg width="204" height="167" viewBox="0 0 204 167" fill="none" xmlns="http://www.w3.org/2000/svg">
<g opacity="0.3">
<path d="M111.013 84.1712L111.511 84.2148L111.554 83.7167L112.535 72.5079C112.752 70.0321 110.92 67.8495 108.444 67.6328L19.0385 59.8109C16.5627 59.5942 14.38 61.4257 14.1634 63.9015L13.1828 75.1103L13.1392 75.6084L13.6373 75.652L111.013 84.1712Z" fill="#525252" stroke="#A3A3A3"/>
<path d="M13.7246 74.6544L13.2265 74.6109L13.1829 75.1089L9.18123 120.849C8.96463 123.324 10.7961 125.507 13.2719 125.724L102.678 133.546C105.154 133.762 107.336 131.931 107.553 129.455L111.555 83.7153L111.598 83.2172L111.1 83.1737L13.7246 74.6544Z" fill="#525252" stroke="#A3A3A3"/>
<circle cx="110.646" cy="107.053" r="6.42374" transform="rotate(5 110.646 107.053)" fill="#525252" stroke="#A3A3A3"/>
<circle cx="80.8608" cy="119.303" r="5.06253" transform="rotate(5 80.8608 119.303)" fill="#A3A3A3"/>
<circle cx="94.3099" cy="120.479" r="5.06253" transform="rotate(5 94.3099 120.479)" fill="#A3A3A3"/>
<circle cx="10.025" cy="98.25" r="6.42374" transform="rotate(5 10.025 98.25)" fill="#525252" stroke="#A3A3A3"/>
<rect x="20.8354" y="84.7451" width="39.7465" height="4.50002" rx="2.25001" transform="rotate(5 20.8354 84.7451)" fill="#A3A3A3"/>
<path d="M20.0056 94.2333C20.1139 92.9954 21.2052 92.0797 22.4431 92.188L68.7627 96.2404C70.0006 96.3487 70.9163 97.4401 70.808 98.678V98.678C70.6997 99.9159 69.6084 100.832 68.3705 100.723L22.0509 96.6709C20.813 96.5626 19.8973 95.4713 20.0056 94.2333V94.2333Z" fill="#A3A3A3"/>
</g>
<circle cx="199.071" cy="139.703" r="0.857596" transform="rotate(170 199.071 139.703)" fill="#A3A3A3" stroke="#A3A3A3"/>
<path d="M185.808 158.308L184.299 149.752" stroke="#A3A3A3" stroke-width="2" stroke-linecap="round"/>
<path d="M189.332 153.276L180.775 154.785" stroke="#A3A3A3" stroke-width="2" stroke-linecap="round"/>
<path d="M190.09 134.119L189.147 128.771" stroke="#A3A3A3" stroke-width="2" stroke-linecap="round"/>
<path d="M192.292 130.973L186.945 131.916" stroke="#A3A3A3" stroke-width="2" stroke-linecap="round"/>
<circle cx="98.1665" cy="35.5044" r="0.857596" transform="rotate(49 98.1665 35.5044)" fill="#A3A3A3" stroke="#A3A3A3"/>
<circle opacity="0.4" cx="49.6266" cy="42.718" r="0.857596" transform="rotate(49 49.6266 42.718)" fill="#A3A3A3" stroke="#A3A3A3"/>
<circle opacity="0.2" cx="24.6465" cy="40.6684" r="0.857596" transform="rotate(49 24.6465 40.6684)" fill="#A3A3A3" stroke="#A3A3A3"/>
<circle cx="85.4606" cy="46.5485" r="0.857596" transform="rotate(49 85.4606 46.5485)" fill="#A3A3A3" stroke="#A3A3A3"/>
<circle opacity="0.5" cx="60.0814" cy="33.5428" r="0.857596" transform="rotate(49 60.0814 33.5428)" fill="#A3A3A3" stroke="#A3A3A3"/>
<path d="M89.6152 33.944L85.5169 37.5067" stroke="#A3A3A3" stroke-width="2" stroke-linecap="round"/>
<path d="M85.7848 33.6761L89.3474 37.7744" stroke="#A3A3A3" stroke-width="2" stroke-linecap="round"/>
<g opacity="0.5">
<path d="M73.7418 39.5094L68.3123 39.6042" stroke="#A3A3A3" stroke-width="2" stroke-linecap="round"/>
<path d="M70.9795 36.842L71.0743 42.2716" stroke="#A3A3A3" stroke-width="2" stroke-linecap="round"/>
</g>
<g opacity="0.2">
<path d="M37.4064 43.3705L33.9889 47.5907" stroke="#A3A3A3" stroke-width="2" stroke-linecap="round"/>
<path d="M33.5879 43.7717L37.8081 47.1892" stroke="#A3A3A3" stroke-width="2" stroke-linecap="round"/>
</g>
<circle cx="114.162" cy="30.1571" r="0.857596" transform="rotate(39 114.162 30.1571)" fill="#A3A3A3" stroke="#A3A3A3"/>
<circle opacity="0.4" cx="67.6119" cy="45.6901" r="0.857596" transform="rotate(39 67.6119 45.6901)" fill="#A3A3A3" stroke="#A3A3A3"/>
<circle opacity="0.2" cx="42.6555" cy="48.0093" r="0.857596" transform="rotate(39 42.6555 48.0093)" fill="#A3A3A3" stroke="#A3A3A3"/>
<circle cx="103.567" cy="43.2398" r="0.857596" transform="rotate(39 103.567 43.2398)" fill="#A3A3A3" stroke="#A3A3A3"/>
<circle opacity="0.5" cx="76.3143" cy="34.8387" r="0.857596" transform="rotate(39 76.3143 34.8387)" fill="#A3A3A3" stroke="#A3A3A3"/>
<path d="M105.469 30.1052L102.051 34.3254" stroke="#A3A3A3" stroke-width="2" stroke-linecap="round"/>
<path d="M101.65 30.5066L105.871 33.924" stroke="#A3A3A3" stroke-width="2" stroke-linecap="round"/>
<g opacity="0.5">
<path d="M90.8037 38.3426L85.4731 39.3788" stroke="#A3A3A3" stroke-width="2" stroke-linecap="round"/>
<path d="M87.6201 36.1954L88.6563 41.526" stroke="#A3A3A3" stroke-width="2" stroke-linecap="round"/>
</g>
<g opacity="0.2">
<path d="M55.6909 48.4547L53.0582 53.2042" stroke="#A3A3A3" stroke-width="2" stroke-linecap="round"/>
<path d="M52.0005 49.5128L56.75 52.1455" stroke="#A3A3A3" stroke-width="2" stroke-linecap="round"/>
</g>
<path opacity="0.8" d="M187.254 64.4952L198.115 57.4357M187.254 72.0977L193.228 75.3559M180.195 61.78V53.0914" stroke="#A3A3A3" stroke-width="3" stroke-linecap="round" stroke-linejoin="round"/>
<g opacity="0.5">
<path d="M142.912 83.59L143.404 83.6768L143.491 83.1844L145.445 72.1038C145.876 69.6562 144.242 67.3223 141.795 66.8907L53.4107 51.3063C50.9632 50.8747 48.6292 52.509 48.1976 54.9565L46.2438 66.0371L46.157 66.5295L46.6494 66.6164L142.912 83.59Z" fill="#525252" stroke="#A3A3A3"/>
<path d="M46.8233 65.6302L46.3309 65.5434L46.244 66.0358L38.2711 111.253C37.8395 113.7 39.4738 116.034 41.9213 116.466L130.305 132.05C132.753 132.482 135.087 130.847 135.518 128.4L143.491 83.1831L143.578 82.6907L143.086 82.6039L46.8233 65.6302Z" fill="#525252" stroke="#A3A3A3"/>
<circle cx="140.552" cy="106.353" r="6.42374" transform="rotate(10 140.552 106.353)" fill="#525252" stroke="#A3A3A3"/>
<circle cx="109.813" cy="115.96" r="5.06253" transform="rotate(10 109.813 115.96)" fill="#A3A3A3"/>
<circle cx="123.108" cy="118.304" r="5.06253" transform="rotate(10 123.108 118.304)" fill="#A3A3A3"/>
<circle cx="41.0815" cy="88.8135" r="6.42374" transform="rotate(10 41.0815 88.8135)" fill="#525252" stroke="#A3A3A3"/>
<rect x="53.0277" y="76.3022" width="39.7465" height="4.50002" rx="2.25001" transform="rotate(10 53.0277 76.3022)" fill="#A3A3A3"/>
<path d="M51.3739 85.682C51.5897 84.4582 52.7567 83.6411 53.9805 83.8569L99.7706 91.9309C100.994 92.1467 101.811 93.3137 101.596 94.5375V94.5375C101.38 95.7612 100.213 96.5784 98.9892 96.3626L53.1991 88.2886C51.9753 88.0728 51.1582 86.9058 51.3739 85.682V85.682Z" fill="#A3A3A3"/>
</g>
<path d="M173.541 82.5783L174.01 82.7493L174.181 82.2795L178.03 71.7064C178.88 69.371 177.676 66.7887 175.34 65.9387L91.0052 35.2433C88.6698 34.3933 86.0875 35.5975 85.2375 37.9329L81.3892 48.5059L81.2182 48.9757L81.6881 49.1468L173.541 82.5783Z" fill="#525252" stroke="#A3A3A3"/>
<path d="M82.0305 48.2058L81.5607 48.0348L81.3897 48.5046L65.686 91.65C64.836 93.9854 66.0401 96.5677 68.3755 97.4177L152.71 128.113C155.046 128.963 157.628 127.759 158.478 125.424L174.182 82.2782L174.353 81.8084L173.883 81.6374L82.0305 48.2058Z" fill="#525252" stroke="#A3A3A3"/>
<circle cx="167.264" cy="104.586" r="6.42374" transform="rotate(20 167.264 104.586)" fill="#525252" stroke="#A3A3A3"/>
<circle cx="135.323" cy="108.709" r="5.06253" transform="rotate(20 135.323 108.709)" fill="#A3A3A3"/>
<circle cx="148.01" cy="113.326" r="5.06253" transform="rotate(20 148.01 113.326)" fill="#A3A3A3"/>
<circle cx="72.3502" cy="70.0398" r="6.42374" transform="rotate(20 72.3502 70.0398)" fill="#525252" stroke="#A3A3A3"/>
<rect x="86.2875" y="59.793" width="39.7465" height="4.50002" rx="2.25001" transform="rotate(20 86.2875 59.793)" fill="#A3A3A3"/>
<path d="M83.0301 68.7432C83.4551 67.5755 84.7463 66.9734 85.914 67.3984L129.606 83.3011C130.774 83.7261 131.376 85.0173 130.951 86.185V86.185C130.526 87.3527 129.235 87.9548 128.067 87.5298L84.3749 71.627C83.2072 71.202 82.6051 69.9109 83.0301 68.7432V68.7432Z" fill="#A3A3A3"/>
<g clip-path="url(#clip0_198_6327)">
<path d="M154.147 119.136L170.088 134.738L162.731 136.094L154.147 144.913V119.136Z" fill="#525252" stroke="#525252" stroke-linecap="round" stroke-linejoin="round"/>
<path d="M154.441 140.954L159.786 134.497L168.806 134.497L154.441 122.758V140.954ZM166.718 154.18L159.786 139.357L151.835 150.374V116.167L178.631 137.076L165.039 137.076L171.928 151.757L166.718 154.18Z" fill="#E5E5E5"/>
</g>
<ellipse cx="88.2369" cy="165.243" rx="69.7804" ry="1.62912" fill="#737373"/>
<defs>
<clipPath id="clip0_198_6327">
<rect width="26.7958" height="38.0127" fill="white" transform="translate(151.835 116.167)"/>
</clipPath>
</defs>
</svg>
