<svg viewBox="0 0 250 168" fill="none" xmlns="http://www.w3.org/2000/svg">
<g clip-path="url(#clip0_128_14536)">
<g opacity="0.3">
<path d="M134.019 72.9429L134.517 72.9865L134.561 72.4884L135.541 61.2796C135.758 58.8038 133.927 56.6211 131.451 56.4045L42.045 48.5825C39.5691 48.3659 37.3865 50.1974 37.1699 52.6732L36.1892 63.882L36.1457 64.3801L36.6438 64.4237L134.019 72.9429Z" fill="#525252" stroke="#A3A3A3"/>
<path d="M36.731 63.4261L36.2329 63.3825L36.1893 63.8806L32.1876 109.62C31.971 112.096 33.8025 114.279 36.2783 114.495L125.684 122.317C128.16 122.534 130.343 120.702 130.559 118.227L134.561 72.487L134.604 71.9889L134.106 71.9453L36.731 63.4261Z" fill="#525252" stroke="#A3A3A3"/>
<circle cx="133.653" cy="95.8249" r="6.42374" transform="rotate(5 133.653 95.8249)" fill="#525252" stroke="#A3A3A3"/>
<circle cx="103.867" cy="108.074" r="5.06253" transform="rotate(5 103.867 108.074)" fill="#A3A3A3"/>
<circle cx="117.316" cy="109.251" r="5.06253" transform="rotate(5 117.316 109.251)" fill="#A3A3A3"/>
<circle cx="33.0316" cy="87.0217" r="6.42374" transform="rotate(5 33.0316 87.0217)" fill="#525252" stroke="#A3A3A3"/>
<rect x="43.8419" y="73.5168" width="39.7465" height="4.50002" rx="2.25001" transform="rotate(5 43.8419 73.5168)" fill="#A3A3A3"/>
<path d="M43.012 83.005C43.1203 81.7671 44.2117 80.8513 45.4496 80.9597L91.7691 85.0121C93.0071 85.1204 93.9228 86.2117 93.8145 87.4496V87.4496C93.7062 88.6876 92.6149 89.6033 91.3769 89.495L45.0574 85.4426C43.8195 85.3342 42.9037 84.2429 43.012 83.005V83.005Z" fill="#A3A3A3"/>
</g>
<circle cx="222.077" cy="128.475" r="0.857596" transform="rotate(170 222.077 128.475)" fill="#A3A3A3" stroke="#A3A3A3"/>
<path d="M208.815 147.08L207.306 138.523" stroke="#A3A3A3" stroke-width="2" stroke-linecap="round"/>
<path d="M212.339 142.048L203.782 143.556" stroke="#A3A3A3" stroke-width="2" stroke-linecap="round"/>
<path d="M213.097 122.89L212.154 117.542" stroke="#A3A3A3" stroke-width="2" stroke-linecap="round"/>
<path d="M215.299 119.745L209.951 120.688" stroke="#A3A3A3" stroke-width="2" stroke-linecap="round"/>
<circle cx="121.173" cy="24.2761" r="0.857596" transform="rotate(49 121.173 24.2761)" fill="#A3A3A3" stroke="#A3A3A3"/>
<circle opacity="0.4" cx="72.633" cy="31.4897" r="0.857596" transform="rotate(49 72.633 31.4897)" fill="#A3A3A3" stroke="#A3A3A3"/>
<circle opacity="0.2" cx="47.6529" cy="29.44" r="0.857596" transform="rotate(49 47.6529 29.44)" fill="#A3A3A3" stroke="#A3A3A3"/>
<circle cx="108.467" cy="35.3202" r="0.857596" transform="rotate(49 108.467 35.3202)" fill="#A3A3A3" stroke="#A3A3A3"/>
<circle opacity="0.5" cx="83.0879" cy="22.3144" r="0.857596" transform="rotate(49 83.0879 22.3144)" fill="#A3A3A3" stroke="#A3A3A3"/>
<path d="M112.622 22.7157L108.523 26.2784" stroke="#A3A3A3" stroke-width="2" stroke-linecap="round"/>
<path d="M108.791 22.4478L112.354 26.5461" stroke="#A3A3A3" stroke-width="2" stroke-linecap="round"/>
<g opacity="0.5">
<path d="M96.7483 28.2811L91.3187 28.3758" stroke="#A3A3A3" stroke-width="2" stroke-linecap="round"/>
<path d="M93.986 25.6137L94.0807 31.0433" stroke="#A3A3A3" stroke-width="2" stroke-linecap="round"/>
</g>
<g opacity="0.2">
<path d="M60.4129 32.1422L56.9955 36.3624" stroke="#A3A3A3" stroke-width="2" stroke-linecap="round"/>
<path d="M56.5943 32.5434L60.8145 35.9608" stroke="#A3A3A3" stroke-width="2" stroke-linecap="round"/>
</g>
<circle cx="137.168" cy="18.9288" r="0.857596" transform="rotate(39 137.168 18.9288)" fill="#A3A3A3" stroke="#A3A3A3"/>
<circle opacity="0.4" cx="90.6185" cy="34.4617" r="0.857596" transform="rotate(39 90.6185 34.4617)" fill="#A3A3A3" stroke="#A3A3A3"/>
<circle opacity="0.2" cx="65.662" cy="36.7809" r="0.857596" transform="rotate(39 65.662 36.7809)" fill="#A3A3A3" stroke="#A3A3A3"/>
<circle cx="126.573" cy="32.0115" r="0.857596" transform="rotate(39 126.573 32.0115)" fill="#A3A3A3" stroke="#A3A3A3"/>
<circle opacity="0.5" cx="99.3208" cy="23.6104" r="0.857596" transform="rotate(39 99.3208 23.6104)" fill="#A3A3A3" stroke="#A3A3A3"/>
<path d="M128.475 18.8769L125.058 23.0971" stroke="#A3A3A3" stroke-width="2" stroke-linecap="round"/>
<path d="M124.657 19.2783L128.877 22.6957" stroke="#A3A3A3" stroke-width="2" stroke-linecap="round"/>
<g opacity="0.5">
<path d="M113.81 27.1143L108.48 28.1504" stroke="#A3A3A3" stroke-width="2" stroke-linecap="round"/>
<path d="M110.627 24.9671L111.663 30.2977" stroke="#A3A3A3" stroke-width="2" stroke-linecap="round"/>
</g>
<g opacity="0.2">
<path d="M78.6973 37.2264L76.0646 41.9759" stroke="#A3A3A3" stroke-width="2" stroke-linecap="round"/>
<path d="M75.007 38.2845L79.7565 40.9172" stroke="#A3A3A3" stroke-width="2" stroke-linecap="round"/>
</g>
<path opacity="0.8" d="M210.261 53.2668L221.122 46.2073M210.261 60.8694L216.234 64.1276M203.201 50.5517V41.863" stroke="#A3A3A3" stroke-width="3" stroke-linecap="round" stroke-linejoin="round"/>
<g opacity="0.5">
<path d="M165.918 72.3617L166.411 72.4485L166.497 71.9561L168.451 60.8754C168.883 58.4279 167.249 56.0939 164.801 55.6624L76.4172 40.0779C73.9696 39.6464 71.6357 41.2806 71.2041 43.7281L69.2503 54.8088L69.1635 55.3012L69.6559 55.388L165.918 72.3617Z" fill="#525252" stroke="#A3A3A3"/>
<path d="M69.8297 54.4019L69.3373 54.3151L69.2505 54.8075L61.2776 100.024C60.846 102.472 62.4803 104.806 64.9278 105.237L153.312 120.822C155.759 121.253 158.093 119.619 158.525 117.172L166.498 71.9548L166.584 71.4624L166.092 71.3755L69.8297 54.4019Z" fill="#525252" stroke="#A3A3A3"/>
<circle cx="163.559" cy="95.1246" r="6.42374" transform="rotate(10 163.559 95.1246)" fill="#525252" stroke="#A3A3A3"/>
<circle cx="132.819" cy="104.731" r="5.06253" transform="rotate(10 132.819 104.731)" fill="#A3A3A3"/>
<circle cx="146.115" cy="107.076" r="5.06253" transform="rotate(10 146.115 107.076)" fill="#A3A3A3"/>
<circle cx="64.0879" cy="77.5852" r="6.42374" transform="rotate(10 64.0879 77.5852)" fill="#525252" stroke="#A3A3A3"/>
<rect x="76.0342" y="65.0739" width="39.7465" height="4.50002" rx="2.25001" transform="rotate(10 76.0342 65.0739)" fill="#A3A3A3"/>
<path d="M74.3805 74.4537C74.5963 73.2299 75.7632 72.4128 76.987 72.6286L122.777 80.7026C124.001 80.9184 124.818 82.0854 124.602 83.3091V83.3091C124.386 84.5329 123.219 85.35 121.996 85.1343L76.2056 77.0602C74.9818 76.8444 74.1647 75.6775 74.3805 74.4537V74.4537Z" fill="#A3A3A3"/>
</g>
<path d="M196.547 71.35L197.017 71.521L197.188 71.0511L201.036 60.4781C201.886 58.1427 200.682 55.5604 198.347 54.7104L114.012 24.015C111.676 23.165 109.094 24.3691 108.244 26.7045L104.396 37.2776L104.225 37.7474L104.694 37.9184L196.547 71.35Z" fill="#525252" stroke="#A3A3A3"/>
<path d="M105.037 36.9775L104.567 36.8065L104.396 37.2763L88.6925 80.4217C87.8425 82.7571 89.0466 85.3394 91.382 86.1894L175.717 116.885C178.052 117.735 180.635 116.531 181.485 114.195L197.188 71.0499L197.359 70.5801L196.889 70.409L105.037 36.9775Z" fill="#525252" stroke="#A3A3A3"/>
<circle cx="190.271" cy="93.3574" r="6.42374" transform="rotate(20 190.271 93.3574)" fill="#525252" stroke="#A3A3A3"/>
<circle cx="158.33" cy="97.4804" r="5.06253" transform="rotate(20 158.33 97.4804)" fill="#A3A3A3"/>
<circle cx="171.016" cy="102.098" r="5.06253" transform="rotate(20 171.016 102.098)" fill="#A3A3A3"/>
<circle cx="95.3566" cy="58.8115" r="6.42374" transform="rotate(20 95.3566 58.8115)" fill="#525252" stroke="#A3A3A3"/>
<rect x="109.294" y="48.5647" width="39.7465" height="4.50002" rx="2.25001" transform="rotate(20 109.294 48.5647)" fill="#A3A3A3"/>
<path d="M106.037 57.5148C106.462 56.3471 107.753 55.7451 108.92 56.1701L152.613 72.0728C153.781 72.4978 154.383 73.789 153.958 74.9567V74.9567C153.533 76.1244 152.241 76.7264 151.074 76.3014L107.381 60.3987C106.214 59.9737 105.612 58.6825 106.037 57.5148V57.5148Z" fill="#A3A3A3"/>
<g clip-path="url(#clip1_128_14536)">
<path d="M177.154 107.908L193.094 123.509L185.738 124.866L177.154 133.684V107.908Z" fill="#525252" stroke="#525252" stroke-linecap="round" stroke-linejoin="round"/>
<path d="M177.447 129.726L182.793 123.269L191.812 123.269L177.447 111.53V129.726ZM189.725 142.951L182.793 128.128L174.842 139.146V104.939L201.637 125.848H188.046L194.935 140.528L189.725 142.951Z" fill="#E5E5E5"/>
</g>
<ellipse cx="111.243" cy="154.014" rx="69.7804" ry="1.62912" fill="#737373"/>
</g>
<defs>
<clipPath id="clip0_128_14536">
<rect width="249.33" height="166.96" fill="white" transform="translate(0 0.899902)"/>
</clipPath>
<clipPath id="clip1_128_14536">
<rect width="26.7958" height="38.0127" fill="white" transform="translate(174.842 104.939)"/>
</clipPath>
</defs>
</svg>
